<?xml version="1.0" encoding="UTF-8"?>
<svg width="1380px" height="301px" viewBox="0 0 1380 301" version="1.1" xmlns="http://www.w3.org/2000/svg" xmlns:xlink="http://www.w3.org/1999/xlink">
    <title>header-pattern</title>
    <defs>
        <polygon id="path-1" points="0 0 18.1409782 0 18.1409782 48.4970561 0 48.4970561"></polygon>
        <polygon id="path-3" points="0 0 18.1409782 0 18.1409782 48.4970561 0 48.4970561"></polygon>
        <polygon id="path-5" points="0 0 18.1409782 0 18.1409782 48.4970561 0 48.4970561"></polygon>
        <polygon id="path-7" points="0 0 18.1409782 0 18.1409782 48.4970561 0 48.4970561"></polygon>
    </defs>
    <g id="Website" stroke="none" stroke-width="1" fill="none" fill-rule="evenodd" opacity="0.59861">
        <g id="All-courses-details-1" transform="translate(-30.000000, -17.000000)">
            <g id="header-pattern" transform="translate(30.000000, 17.000000)">
                <g id="r-logo-bg" opacity="0.200000003" transform="translate(24.296628, 118.500000) rotate(20.000000) translate(-24.296628, -118.500000) translate(7.357967, 94.000000)">
                    <path d="M7.33378756,31.4508057 C6.8320365,31.0267358 6.08186947,31.0900696 5.6580046,31.5916157 C5.23413974,32.0933668 5.29706358,32.8433288 5.79860968,33.2673987 L15.7381179,41.6668098 L15.7381179,46.5724103 C11.7294384,46.2776725 8.13458062,44.5744245 5.75597724,41.8033156 C0.00449171304,35.1026434 2.67557825,25.474475 5.92917154,18.5772426 C7.59265668,15.0516625 10.4461609,10.9798542 12.9903749,7.74183819 C13.395998,7.22532974 13.3064289,6.4780322 12.7901254,6.07220414 C12.2738219,5.666786 11.5263194,5.75594519 11.1202864,6.2726586 C8.50044077,9.60700758 5.53666611,13.836023 3.77848776,17.5624674 C-1.31772892,28.3652826 -1.25767456,37.2832518 3.95168206,43.3520211 C6.98821882,46.889899 11.6689741,48.9485541 16.7936808,49 L16.8057736,49 C17.3858208,49 18.1165163,48.4763178 18.1165163,47.7179522 L18.1165163,41.1148427 C18.1165163,40.7649697 17.9621786,40.4325186 17.694906,40.2066487 L7.33378756,31.4508057 Z" id="Fill-1" fill="#15C872"></path>
                    <path d="M25.5043907,23.9697342 L16.9467476,30.8903325 L8.31306298,23.7785031 C7.80639279,23.3609921 7.05684065,23.4331393 6.63932966,23.9400145 C6.22181867,24.4468896 6.29417084,25.1962368 6.80104599,25.6137478 C6.93345253,25.7229934 16.11521,33.2931216 16.2554052,33.3921191 C16.7155486,33.7190361 17.3046142,33.6647207 17.6872814,33.3496916 L26.9998057,25.8189164 C27.5103702,25.4057097 27.5896911,24.6573873 27.1766893,24.1464129 C26.7636875,23.6358484 26.0149552,23.5565275 25.5043907,23.9697342" id="Fill-3" fill="#15C872"></path>
                    <path d="M10.7808256,17.3242382 C10.2848135,16.8938145 9.5338266,16.9466951 9.10340289,17.4427072 C8.67277422,17.9385143 8.72585981,18.6897061 9.22187189,19.1203348 L12.0622584,21.5864577 C12.5584755,22.0170863 13.3094624,21.9635908 13.7398861,21.4679887 C14.1703098,20.9721816 14.1172242,20.2209897 13.6214171,19.790771 L10.7808256,17.3242382 Z" id="Fill-5" fill="#15C872"></path>
                    <path d="M20.236394,38.7364238 C20.6514455,39.2449386 21.4007926,39.3211851 21.9095125,38.9057238 L28.72148,33.3464942 C29.2304048,32.9312378 29.3062414,32.1820955 28.8911899,31.6731708 C28.4755236,31.1644509 27.7263814,31.0886144 27.2178665,31.5038708 L20.405899,37.0633053 C19.8971791,37.4787667 19.8213426,38.2277039 20.236394,38.7364238" id="Fill-7" fill="#15C872"></path>
                    <g id="Group-11" transform="translate(15.736342, -0.000000)">
                        <mask id="mask-2" fill="white">
                            <use xlink:href="#path-1"></use>
                        </mask>
                        <g id="Clip-10"></g>
                        <path d="M14.362309,17.5624264 C11.1433546,10.7393909 3.76671213,2.44471612 2.12372336,0.437711873 C1.37929531,-0.472736746 -0.0986977109,0.142974117 0.021615963,1.31331667 C-0.00912858744,1.49675915 0.00193945071,0.176998086 0.00193945071,23.849687 C0.00193945071,24.9732978 1.32211044,25.3393629 2.02677554,24.7832965 L9.07260664,19.2216073 C9.5878853,18.8147545 9.67622464,18.066842 9.26916679,17.5515634 C8.86231391,17.0362847 8.11460645,16.9479454 7.59912282,17.3550032 L2.38013291,21.474568 L2.38013291,4.44044737 C5.22010951,7.8416145 9.89717548,13.6707813 12.2116252,18.5769966 C15.4652185,25.474229 18.13651,35.1023974 12.3848195,41.8032747 C10.5618727,43.9273132 8.58376828,45.4317465 5.66447074,46.1536285 C5.02682877,46.3110406 4.63821765,46.9558563 4.79542478,47.5930884 C4.95345177,48.2309353 5.59847244,48.6197514 6.23549953,48.4619294 C9.63748651,47.6207585 12.0423252,45.8539716 14.1891147,43.3521851 C19.3988813,37.2832109 19.4587307,28.3650366 14.362309,17.5624264" id="Fill-9" fill="#15C872" mask="url(#mask-2)"></path>
                    </g>
                </g>
                <g id="Group-12" opacity="0.200000003" transform="translate(262.296628, 167.500000) rotate(-30.000000) translate(-262.296628, -167.500000) translate(245.357967, 143.000000)">
                    <path d="M7.33378756,31.4508057 C6.8320365,31.0267358 6.08186947,31.0900696 5.6580046,31.5916157 C5.23413974,32.0933668 5.29706358,32.8433288 5.79860968,33.2673987 L15.7381179,41.6668098 L15.7381179,46.5724103 C11.7294384,46.2776725 8.13458062,44.5744245 5.75597724,41.8033156 C0.00449171304,35.1026434 2.67557825,25.474475 5.92917154,18.5772426 C7.59265668,15.0516625 10.4461609,10.9798542 12.9903749,7.74183819 C13.395998,7.22532974 13.3064289,6.4780322 12.7901254,6.07220414 C12.2738219,5.666786 11.5263194,5.75594519 11.1202864,6.2726586 C8.50044077,9.60700758 5.53666611,13.836023 3.77848776,17.5624674 C-1.31772892,28.3652826 -1.25767456,37.2832518 3.95168206,43.3520211 C6.98821882,46.889899 11.6689741,48.9485541 16.7936808,49 L16.8057736,49 C17.3858208,49 18.1165163,48.4763178 18.1165163,47.7179522 L18.1165163,41.1148427 C18.1165163,40.7649697 17.9621786,40.4325186 17.694906,40.2066487 L7.33378756,31.4508057 Z" id="Fill-1" fill="#15C872"></path>
                    <path d="M25.5043907,23.9697342 L16.9467476,30.8903325 L8.31306298,23.7785031 C7.80639279,23.3609921 7.05684065,23.4331393 6.63932966,23.9400145 C6.22181867,24.4468896 6.29417084,25.1962368 6.80104599,25.6137478 C6.93345253,25.7229934 16.11521,33.2931216 16.2554052,33.3921191 C16.7155486,33.7190361 17.3046142,33.6647207 17.6872814,33.3496916 L26.9998057,25.8189164 C27.5103702,25.4057097 27.5896911,24.6573873 27.1766893,24.1464129 C26.7636875,23.6358484 26.0149552,23.5565275 25.5043907,23.9697342" id="Fill-3" fill="#15C872"></path>
                    <path d="M10.7808256,17.3242382 C10.2848135,16.8938145 9.5338266,16.9466951 9.10340289,17.4427072 C8.67277422,17.9385143 8.72585981,18.6897061 9.22187189,19.1203348 L12.0622584,21.5864577 C12.5584755,22.0170863 13.3094624,21.9635908 13.7398861,21.4679887 C14.1703098,20.9721816 14.1172242,20.2209897 13.6214171,19.790771 L10.7808256,17.3242382 Z" id="Fill-5" fill="#15C872"></path>
                    <path d="M20.236394,38.7364238 C20.6514455,39.2449386 21.4007926,39.3211851 21.9095125,38.9057238 L28.72148,33.3464942 C29.2304048,32.9312378 29.3062414,32.1820955 28.8911899,31.6731708 C28.4755236,31.1644509 27.7263814,31.0886144 27.2178665,31.5038708 L20.405899,37.0633053 C19.8971791,37.4787667 19.8213426,38.2277039 20.236394,38.7364238" id="Fill-7" fill="#15C872"></path>
                    <g id="Group-11" transform="translate(15.736342, -0.000000)">
                        <mask id="mask-4" fill="white">
                            <use xlink:href="#path-3"></use>
                        </mask>
                        <g id="Clip-10"></g>
                        <path d="M14.362309,17.5624264 C11.1433546,10.7393909 3.76671213,2.44471612 2.12372336,0.437711873 C1.37929531,-0.472736746 -0.0986977109,0.142974117 0.021615963,1.31331667 C-0.00912858744,1.49675915 0.00193945071,0.176998086 0.00193945071,23.849687 C0.00193945071,24.9732978 1.32211044,25.3393629 2.02677554,24.7832965 L9.07260664,19.2216073 C9.5878853,18.8147545 9.67622464,18.066842 9.26916679,17.5515634 C8.86231391,17.0362847 8.11460645,16.9479454 7.59912282,17.3550032 L2.38013291,21.474568 L2.38013291,4.44044737 C5.22010951,7.8416145 9.89717548,13.6707813 12.2116252,18.5769966 C15.4652185,25.474229 18.13651,35.1023974 12.3848195,41.8032747 C10.5618727,43.9273132 8.58376828,45.4317465 5.66447074,46.1536285 C5.02682877,46.3110406 4.63821765,46.9558563 4.79542478,47.5930884 C4.95345177,48.2309353 5.59847244,48.6197514 6.23549953,48.4619294 C9.63748651,47.6207585 12.0423252,45.8539716 14.1891147,43.3521851 C19.3988813,37.2832109 19.4587307,28.3650366 14.362309,17.5624264" id="Fill-9" fill="#15C872" mask="url(#mask-4)"></path>
                    </g>
                </g>
                <g id="Group-12" opacity="0.200000003" transform="translate(743.296628, 271.500000) rotate(20.000000) translate(-743.296628, -271.500000) translate(726.357967, 247.000000)">
                    <path d="M7.33378756,31.4508057 C6.8320365,31.0267358 6.08186947,31.0900696 5.6580046,31.5916157 C5.23413974,32.0933668 5.29706358,32.8433288 5.79860968,33.2673987 L15.7381179,41.6668098 L15.7381179,46.5724103 C11.7294384,46.2776725 8.13458062,44.5744245 5.75597724,41.8033156 C0.00449171304,35.1026434 2.67557825,25.474475 5.92917154,18.5772426 C7.59265668,15.0516625 10.4461609,10.9798542 12.9903749,7.74183819 C13.395998,7.22532974 13.3064289,6.4780322 12.7901254,6.07220414 C12.2738219,5.666786 11.5263194,5.75594519 11.1202864,6.2726586 C8.50044077,9.60700758 5.53666611,13.836023 3.77848776,17.5624674 C-1.31772892,28.3652826 -1.25767456,37.2832518 3.95168206,43.3520211 C6.98821882,46.889899 11.6689741,48.9485541 16.7936808,49 L16.8057736,49 C17.3858208,49 18.1165163,48.4763178 18.1165163,47.7179522 L18.1165163,41.1148427 C18.1165163,40.7649697 17.9621786,40.4325186 17.694906,40.2066487 L7.33378756,31.4508057 Z" id="Fill-1" fill="#15C872"></path>
                    <path d="M25.5043907,23.9697342 L16.9467476,30.8903325 L8.31306298,23.7785031 C7.80639279,23.3609921 7.05684065,23.4331393 6.63932966,23.9400145 C6.22181867,24.4468896 6.29417084,25.1962368 6.80104599,25.6137478 C6.93345253,25.7229934 16.11521,33.2931216 16.2554052,33.3921191 C16.7155486,33.7190361 17.3046142,33.6647207 17.6872814,33.3496916 L26.9998057,25.8189164 C27.5103702,25.4057097 27.5896911,24.6573873 27.1766893,24.1464129 C26.7636875,23.6358484 26.0149552,23.5565275 25.5043907,23.9697342" id="Fill-3" fill="#15C872"></path>
                    <path d="M10.7808256,17.3242382 C10.2848135,16.8938145 9.5338266,16.9466951 9.10340289,17.4427072 C8.67277422,17.9385143 8.72585981,18.6897061 9.22187189,19.1203348 L12.0622584,21.5864577 C12.5584755,22.0170863 13.3094624,21.9635908 13.7398861,21.4679887 C14.1703098,20.9721816 14.1172242,20.2209897 13.6214171,19.790771 L10.7808256,17.3242382 Z" id="Fill-5" fill="#15C872"></path>
                    <path d="M20.236394,38.7364238 C20.6514455,39.2449386 21.4007926,39.3211851 21.9095125,38.9057238 L28.72148,33.3464942 C29.2304048,32.9312378 29.3062414,32.1820955 28.8911899,31.6731708 C28.4755236,31.1644509 27.7263814,31.0886144 27.2178665,31.5038708 L20.405899,37.0633053 C19.8971791,37.4787667 19.8213426,38.2277039 20.236394,38.7364238" id="Fill-7" fill="#15C872"></path>
                    <g id="Group-11" transform="translate(15.736342, -0.000000)">
                        <mask id="mask-6" fill="white">
                            <use xlink:href="#path-5"></use>
                        </mask>
                        <g id="Clip-10"></g>
                        <path d="M14.362309,17.5624264 C11.1433546,10.7393909 3.76671213,2.44471612 2.12372336,0.437711873 C1.37929531,-0.472736746 -0.0986977109,0.142974117 0.021615963,1.31331667 C-0.00912858744,1.49675915 0.00193945071,0.176998086 0.00193945071,23.849687 C0.00193945071,24.9732978 1.32211044,25.3393629 2.02677554,24.7832965 L9.07260664,19.2216073 C9.5878853,18.8147545 9.67622464,18.066842 9.26916679,17.5515634 C8.86231391,17.0362847 8.11460645,16.9479454 7.59912282,17.3550032 L2.38013291,21.474568 L2.38013291,4.44044737 C5.22010951,7.8416145 9.89717548,13.6707813 12.2116252,18.5769966 C15.4652185,25.474229 18.13651,35.1023974 12.3848195,41.8032747 C10.5618727,43.9273132 8.58376828,45.4317465 5.66447074,46.1536285 C5.02682877,46.3110406 4.63821765,46.9558563 4.79542478,47.5930884 C4.95345177,48.2309353 5.59847244,48.6197514 6.23549953,48.4619294 C9.63748651,47.6207585 12.0423252,45.8539716 14.1891147,43.3521851 C19.3988813,37.2832109 19.4587307,28.3650366 14.362309,17.5624264" id="Fill-9" fill="#15C872" mask="url(#mask-6)"></path>
                    </g>
                </g>
                <rect id="Rectangle" fill="#15C872" opacity="0.148228237" x="783.357967" y="0" width="27" height="27" rx="6"></rect>
                <rect id="Rectangle" fill="#15C872" opacity="0.148228237" x="495.357967" y="213" width="18" height="18" rx="4"></rect>
                <rect id="Rectangle" fill="#15C872" opacity="0.148228237" x="315.357967" y="73" width="18" height="18" rx="4"></rect>
                <rect id="Rectangle" fill="#15C872" opacity="0.148228237" x="931.357967" y="241" width="27" height="27" rx="13.5"></rect>
                <rect id="r-Rectangle" fill="#15C872" opacity="0.148228237" x="810.357967" y="138" width="49" height="49" rx="11"></rect>
                <g id="Group-12" opacity="0.200000003" transform="translate(1352.296628, 177.500000) rotate(-30.000000) translate(-1352.296628, -177.500000) translate(1335.357967, 153.000000)">
                    <path d="M7.33378756,31.4508057 C6.8320365,31.0267358 6.08186947,31.0900696 5.6580046,31.5916157 C5.23413974,32.0933668 5.29706358,32.8433288 5.79860968,33.2673987 L15.7381179,41.6668098 L15.7381179,46.5724103 C11.7294384,46.2776725 8.13458062,44.5744245 5.75597724,41.8033156 C0.00449171304,35.1026434 2.67557825,25.474475 5.92917154,18.5772426 C7.59265668,15.0516625 10.4461609,10.9798542 12.9903749,7.74183819 C13.395998,7.22532974 13.3064289,6.4780322 12.7901254,6.07220414 C12.2738219,5.666786 11.5263194,5.75594519 11.1202864,6.2726586 C8.50044077,9.60700758 5.53666611,13.836023 3.77848776,17.5624674 C-1.31772892,28.3652826 -1.25767456,37.2832518 3.95168206,43.3520211 C6.98821882,46.889899 11.6689741,48.9485541 16.7936808,49 L16.8057736,49 C17.3858208,49 18.1165163,48.4763178 18.1165163,47.7179522 L18.1165163,41.1148427 C18.1165163,40.7649697 17.9621786,40.4325186 17.694906,40.2066487 L7.33378756,31.4508057 Z" id="Fill-1" fill="#15C872"></path>
                    <path d="M25.5043907,23.9697342 L16.9467476,30.8903325 L8.31306298,23.7785031 C7.80639279,23.3609921 7.05684065,23.4331393 6.63932966,23.9400145 C6.22181867,24.4468896 6.29417084,25.1962368 6.80104599,25.6137478 C6.93345253,25.7229934 16.11521,33.2931216 16.2554052,33.3921191 C16.7155486,33.7190361 17.3046142,33.6647207 17.6872814,33.3496916 L26.9998057,25.8189164 C27.5103702,25.4057097 27.5896911,24.6573873 27.1766893,24.1464129 C26.7636875,23.6358484 26.0149552,23.5565275 25.5043907,23.9697342" id="Fill-3" fill="#15C872"></path>
                    <path d="M10.7808256,17.3242382 C10.2848135,16.8938145 9.5338266,16.9466951 9.10340289,17.4427072 C8.67277422,17.9385143 8.72585981,18.6897061 9.22187189,19.1203348 L12.0622584,21.5864577 C12.5584755,22.0170863 13.3094624,21.9635908 13.7398861,21.4679887 C14.1703098,20.9721816 14.1172242,20.2209897 13.6214171,19.790771 L10.7808256,17.3242382 Z" id="Fill-5" fill="#15C872"></path>
                    <path d="M20.236394,38.7364238 C20.6514455,39.2449386 21.4007926,39.3211851 21.9095125,38.9057238 L28.72148,33.3464942 C29.2304048,32.9312378 29.3062414,32.1820955 28.8911899,31.6731708 C28.4755236,31.1644509 27.7263814,31.0886144 27.2178665,31.5038708 L20.405899,37.0633053 C19.8971791,37.4787667 19.8213426,38.2277039 20.236394,38.7364238" id="Fill-7" fill="#15C872"></path>
                    <g id="Group-11" transform="translate(15.736342, -0.000000)">
                        <mask id="mask-8" fill="white">
                            <use xlink:href="#path-7"></use>
                        </mask>
                        <g id="Clip-10"></g>
                        <path d="M14.362309,17.5624264 C11.1433546,10.7393909 3.76671213,2.44471612 2.12372336,0.437711873 C1.37929531,-0.472736746 -0.0986977109,0.142974117 0.021615963,1.31331667 C-0.00912858744,1.49675915 0.00193945071,0.176998086 0.00193945071,23.849687 C0.00193945071,24.9732978 1.32211044,25.3393629 2.02677554,24.7832965 L9.07260664,19.2216073 C9.5878853,18.8147545 9.67622464,18.066842 9.26916679,17.5515634 C8.86231391,17.0362847 8.11460645,16.9479454 7.59912282,17.3550032 L2.38013291,21.474568 L2.38013291,4.44044737 C5.22010951,7.8416145 9.89717548,13.6707813 12.2116252,18.5769966 C15.4652185,25.474229 18.13651,35.1023974 12.3848195,41.8032747 C10.5618727,43.9273132 8.58376828,45.4317465 5.66447074,46.1536285 C5.02682877,46.3110406 4.63821765,46.9558563 4.79542478,47.5930884 C4.95345177,48.2309353 5.59847244,48.6197514 6.23549953,48.4619294 C9.63748651,47.6207585 12.0423252,45.8539716 14.1891147,43.3521851 C19.3988813,37.2832109 19.4587307,28.3650366 14.362309,17.5624264" id="Fill-9" fill="#15C872" mask="url(#mask-8)"></path>
                    </g>
                </g>
            </g>
        </g>
    </g>
</svg>