<?xml version="1.0" encoding="UTF-8"?>
<svg width="30px" height="30px" viewBox="0 0 30 30" version="1.1" xmlns="http://www.w3.org/2000/svg" xmlns:xlink="http://www.w3.org/1999/xlink">
    <title>i-facebook</title>
    <g id="Website" stroke="none" stroke-width="1" fill="none" fill-rule="evenodd">
        <g id="All-courses-details-2" transform="translate(-1234.000000, -1122.000000)" fill-rule="nonzero">
            <g id="Group-5" transform="translate(63.000000, 506.000000)">
                <g id="Group-9" transform="translate(997.000000, 0.000000)">
                    <g id="Group-8" transform="translate(15.000000, 559.000000)">
                        <g id="Group-7" transform="translate(41.000000, 57.000000)">
                            <g id="i-facebook" transform="translate(118.000000, 0.000000)">
                                <path d="M15,0 C6.71572875,0 0,6.71572875 0,15 C0,23.2842712 6.71572875,30 15,30 C23.2842712,30 30,23.2842712 30,15 C30,6.71572875 23.2842712,0 15,0 Z" id="Path" fill="#039BE5"></path>
                                <path d="M17.0305263,18.9757895 L20.9123684,18.9757895 L21.5218421,15.0323684 L17.0297368,15.0323684 L17.0297368,12.8771053 C17.0297368,11.2389474 17.565,9.78631579 19.0973684,9.78631579 L21.5597368,9.78631579 L21.5597368,6.345 C21.1271053,6.28657895 20.2121053,6.15868421 18.4831579,6.15868421 C14.8728947,6.15868421 12.7563158,8.06526316 12.7563158,12.4089474 L12.7563158,15.0323684 L9.045,15.0323684 L9.045,18.9757895 L12.7563158,18.9757895 L12.7563158,29.8144737 C13.4913158,29.925 14.2357895,30 15,30 C15.6907895,30 16.365,29.9368421 17.0305263,29.8468421 L17.0305263,18.9757895 Z" id="Path" fill="#FFFFFF"></path>
                            </g>
                        </g>
                    </g>
                </g>
            </g>
        </g>
    </g>
</svg>