<?xml version="1.0" encoding="UTF-8"?>
<svg width="96px" height="96px" viewBox="0 0 96 96" version="1.1" xmlns="http://www.w3.org/2000/svg" xmlns:xlink="http://www.w3.org/1999/xlink">
    <title>i-good</title>
    <g id="Website" stroke="none" stroke-width="1" fill="none" fill-rule="evenodd">
        <g id="All-courses-details-1" transform="translate(-1131.000000, -1030.000000)" fill="#8950FC" fill-rule="nonzero">
            <g id="Group-6" transform="translate(53.000000, 501.000000)">
                <g id="Group-4" transform="translate(68.000000, 0.000000)">
                    <g id="Group-32" transform="translate(0.000000, 429.000000)">
                        <g id="Group-29" transform="translate(916.000000, 0.000000)">
                            <path d="M142,100 C115.53113,100 94,121.53113 94,148 C94,174.46887 115.53113,196 142,196 C168.46887,196 190,174.46887 190,148 C190,138.483478 187.204065,129.612511 182.410326,122.14538 L179.55299,125.520381 C183.507773,132.102642 185.826087,139.777391 185.826087,148 C185.826087,172.16487 166.16487,191.826087 142,191.826087 C117.83513,191.826087 98.173913,172.16487 98.173913,148 C98.173913,123.83513 117.83513,104.173913 142,104.173913 C153.359304,104.173913 163.69163,108.556033 171.486413,115.672554 L174.217391,112.44837 C165.692174,104.716196 154.386087,100 142,100 Z M180.058424,112.008152 L139.733695,159.592392 L122.76087,143.76087 L119.915761,146.813859 L140.088314,165.629077 L183.245924,114.706522 L180.058424,112.008152 Z" id="i-good"></path>
                        </g>
                    </g>
                </g>
            </g>
        </g>
    </g>
</svg>