<?xml version="1.0" encoding="UTF-8"?>
<svg width="28px" height="28px" viewBox="0 0 28 28" version="1.1" xmlns="http://www.w3.org/2000/svg" xmlns:xlink="http://www.w3.org/1999/xlink">
    <title>i-linkedin</title>
    <g id="Website" stroke="none" stroke-width="1" fill="none" fill-rule="evenodd">
        <g id="All-courses-details-2" transform="translate(-1116.000000, -1123.000000)" fill-rule="nonzero">
            <g id="Group-5" transform="translate(63.000000, 506.000000)">
                <g id="Group-9" transform="translate(997.000000, 0.000000)">
                    <g id="Group-8" transform="translate(15.000000, 559.000000)">
                        <g id="Group-7" transform="translate(41.000000, 57.000000)">
                            <g id="i-linkedin" transform="translate(0.000000, 1.000000)">
                                <path d="M28,24.1111111 C28,26.2593333 26.2593333,28 24.1111111,28 L3.88888889,28 C1.74144444,28 0,26.2593333 0,24.1111111 L0,3.88888889 C0,1.74066667 1.74144444,0 3.88888889,0 L24.1111111,0 C26.2593333,0 28,1.74066667 28,3.88888889 L28,24.1111111 Z" id="Path" fill="#0288D1"></path>
                                <path d="M4.66666667,10.1111111 L8.55555556,10.1111111 L8.55555556,23.3333333 L4.66666667,23.3333333 L4.66666667,10.1111111 Z M6.59944444,8.55555556 L6.57766667,8.55555556 C5.41722222,8.55555556 4.66666667,7.69066667 4.66666667,6.61033333 C4.66666667,5.50666667 5.44055556,4.66666667 6.622,4.66666667 C7.805,4.66666667 8.53377778,5.50666667 8.55555556,6.61033333 C8.55555556,7.68988889 7.805,8.55555556 6.59944444,8.55555556 Z M23.3333333,23.3333333 L19.4444444,23.3333333 L19.4444444,16.2563333 C19.4444444,14.5467778 18.4916667,13.3801111 16.9617778,13.3801111 C15.7943333,13.3801111 15.1627778,14.1672222 14.8563333,14.9278889 C14.7443333,15.2001111 14.7777778,15.953 14.7777778,16.3333333 L14.7777778,23.3333333 L10.8888889,23.3333333 L10.8888889,10.1111111 L14.7777778,10.1111111 L14.7777778,12.1457778 C15.3385556,11.2777778 16.2166667,10.1111111 18.4628889,10.1111111 C21.2457778,10.1111111 23.3325556,11.8611111 23.3325556,15.7686667 L23.3333333,23.3333333 L23.3333333,23.3333333 Z" id="Shape" fill="#FFFFFF"></path>
                            </g>
                        </g>
                    </g>
                </g>
            </g>
        </g>
    </g>
</svg>