<?xml version="1.0" encoding="UTF-8"?>
<svg width="96px" height="94px" viewBox="0 0 96 94" version="1.1" xmlns="http://www.w3.org/2000/svg" xmlns:xlink="http://www.w3.org/1999/xlink">
    <title>i-salary</title>
    <g id="Website" stroke="none" stroke-width="1" fill="none" fill-rule="evenodd">
        <g id="All-courses-details-1" transform="translate(-825.000000, -1040.000000)" fill-rule="nonzero">
            <g id="Group-6" transform="translate(53.000000, 501.000000)">
                <g id="Group-4" transform="translate(68.000000, 0.000000)">
                    <g id="Group-32" transform="translate(0.000000, 429.000000)">
                        <g id="Group-28" transform="translate(610.000000, 0.000000)">
                            <g id="Group-27" transform="translate(57.000000, 29.000000)">
                                <g id="i-salary" transform="translate(37.000000, 81.000000)">
                                    <path d="M83.275292,74.0813258 C83.275292,79.6866613 79.2606598,84.3830234 73.7310721,85.2919968 L37.3721392,91.1245756 C36.5389137,91.2760711 35.7056881,91.3518189 34.8724626,91.3518189 L34.8724626,91.3518189 C30.7820826,91.3518189 26.918946,89.7611156 24.0405305,86.9584479 L4.04311738,67.7185125 C1.61918852,65.3703314 1.54344074,61.5829426 3.89162182,59.1590137 C5.10358625,57.8713015 6.69428957,57.2653193 8.28499288,57.2653193 C9.79994842,57.2653193 11.314904,57.7955538 12.5268684,58.9317704 L29.7973615,75.5962813 C32.0697948,77.7929669 35.402697,78.3232013 38.2053647,77.0354891 L61.4599323,66.4308003 C63.7323656,65.4460792 65.0958255,63.1736459 65.0200778,60.6739693 L65.0200778,60.6739693 C64.8685822,57.4168149 62.21741,54.9171382 58.9602556,54.9171382 L43.4319614,54.9171382 C40.1748069,54.9171382 37.3721392,52.4932094 37.1448959,49.236055 C36.9176525,45.6759095 39.7203203,42.7974939 43.204718,42.7974939 L61.9144189,42.7974939 C63.8081133,42.7974939 65.7775555,43.1762328 67.5197544,43.8579628 L72.3676121,45.827405 L83.3510398,45.827405 L83.3510398,42.7974939 L93.1982508,42.7974939 L93.1982508,85.216249 C93.1982508,86.5039612 92.2135297,87.4886823 90.9258175,87.4886823 L85.6234731,87.4886823 C84.3357609,87.4886823 83.3510398,86.5039612 83.3510398,85.216249 L83.3510398,74.0813258 L83.275292,74.0813258 Z" id="Path" fill="#FFFFFF"></path>
                                    <path d="M26.3129638,57.7955538 C24.7222605,57.7955538 23.1315572,58.401536 21.9195927,59.6135004 C19.5714116,62.0374293 19.6471594,65.8248181 22.0710883,68.1729992 L31.6910559,77.4899757 C32.8272726,78.5504446 34.3422281,79.1564268 35.9329314,79.1564268 L48.0525757,76.4295069 L38.3568603,67.1125303 L30.5548393,59.5377526 C29.3428749,58.401536 27.8279193,57.7955538 26.3129638,57.7955538 Z" id="Path" fill="#FFFFFF"></path>
                                    <path d="M88.1988975,40.6008084 C84.2600131,40.6008084 81.0028587,43.8579628 81.0028587,47.7968472 L81.0028587,74.0813258 C81.0028587,78.5504446 77.8214521,82.3378335 73.3523332,83.0195635 L36.9934003,88.8521423 C36.3116703,89.0793856 35.5541926,89.0793856 34.8724626,89.0793856 C31.3880648,89.0793856 28.0551626,87.7159256 25.555486,85.2919968 L5.63382069,66.0520614 C4.11886515,64.6128537 4.11886515,62.1889248 5.55807291,60.6739693 C6.31555068,59.9164915 7.22452401,59.5377526 8.28499288,59.5377526 C9.26971398,59.5377526 10.1786873,59.9164915 10.9361651,60.5982215 L20.5561327,69.8394503 C20.5561327,69.8394503 20.5561327,69.8394503 20.5561327,69.8394503 C20.5561327,69.8394503 20.5561327,69.8394503 20.5561327,69.8394503 L28.2066582,77.2627324 C31.1608215,80.0654002 35.402697,80.8228779 39.1143381,79.1564268 L62.3689056,68.5517381 C65.4745644,67.1125303 67.3682588,64.0068715 67.2167633,60.6739693 C67.0652677,56.2048504 63.3536267,52.7204527 58.8845078,52.7204527 L43.3562136,52.7204527 C41.2352758,52.7204527 39.493077,51.2054972 39.3415814,49.1603072 C39.2658336,48.0998383 39.6445725,47.1151172 40.3263025,46.2818917 C41.0837803,45.5244139 42.0685014,45.0699272 43.0532225,45.0699272 L61.7629234,45.0699272 C63.4293744,45.0699272 65.0200778,45.3729184 66.5350333,45.9789006 L71.382891,47.9483428 C72.5191077,48.4028294 73.8825677,47.872595 74.3370543,46.6606306 C74.791541,45.5244139 74.2613065,44.1609539 73.0493421,43.7064673 L68.2014844,41.7370251 C66.1562944,40.9037995 63.9596089,40.5250606 61.7629234,40.5250606 L43.1289702,40.5250606 C40.8565369,40.5250606 38.5841036,41.5097817 37.0691481,43.1762328 C35.4784448,44.8426839 34.720967,47.1151172 34.8724626,49.3875505 C35.0997059,53.8566694 38.811347,57.2653193 43.3562136,57.2653193 L58.9602556,57.2653193 C61.0054456,57.2653193 62.5961489,58.8560226 62.7476445,60.9012126 C62.8233922,62.4161681 61.9144189,63.8553759 60.5509589,64.4613581 L45.931638,71.1271625 L40.0233114,65.521827 L32.2212904,57.9470493 C30.6305871,56.4320938 28.5853971,55.5988682 26.4644593,55.5988682 C24.192026,55.5988682 22.0710883,56.5078416 20.480385,58.1742926 C19.4956639,59.1590137 18.8896816,60.2952304 18.5109428,61.5071948 L14.2690673,57.3410671 C12.6783639,55.8261116 10.633174,54.992886 8.51223621,54.992886 C6.23980291,54.992886 4.11886515,55.9018593 2.52816184,57.5683104 C-0.880488121,60.8254648 -0.804740344,66.1278092 2.52816184,69.3092158 L22.4498272,88.6248989 C25.7827293,91.8820534 30.2518482,93.7 34.8724626,93.7 C35.8571837,93.7 36.766157,93.6242522 37.7508781,93.4727567 L74.109811,87.6401778 C80.7756154,86.579709 85.5477253,80.8986257 85.5477253,74.1570736 L85.5477253,47.7968472 C85.5477253,46.3576395 86.7596897,45.145675 88.1988975,45.145675 C89.6381053,45.145675 90.8500697,46.3576395 90.8500697,47.7968472 L90.8500697,64.840097 C90.8500697,66.1278092 91.8347908,67.1125303 93.122503,67.1125303 C94.4102152,67.1125303 95.3949363,66.1278092 95.3949363,64.840097 L95.3949363,47.7968472 C95.3949363,43.8579628 92.1377819,40.6008084 88.1988975,40.6008084 Z M23.6617916,66.5822959 C22.1468361,65.1430881 22.1468361,62.7191593 23.5860438,61.2042037 C24.3435216,60.4467259 25.2524949,60.0679871 26.3129638,60.0679871 C27.2976849,60.0679871 28.2066582,60.4467259 28.964136,61.1284559 L36.8419048,68.7032336 L41.4625192,73.0966047 L37.2963914,74.9902991 C35.3269492,75.8992724 32.9787681,75.5205335 31.3880648,74.005578 L23.6617916,66.5822959 C23.6617916,66.5822959 23.6617916,66.5822959 23.6617916,66.5822959 Z" id="Shape" fill="#444B54"></path>
                                    <path d="M93.122503,89.8368634 C91.8347908,89.8368634 90.8500697,88.8521423 90.8500697,87.5644301 L90.8500697,79.9896524 C90.8500697,78.7019402 91.8347908,77.7172191 93.122503,77.7172191 C94.4102152,77.7172191 95.3949363,78.7019402 95.3949363,79.9896524 L95.3949363,87.5644301 C95.3949363,88.8521423 94.4102152,89.8368634 93.122503,89.8368634 Z" id="Path" fill="#444B54"></path>
                                    <path d="M16.7687439,20.3004042 L20.7833761,31.3595796 C22.1468361,35.0712207 32.8272726,34.616734 44.568178,30.3748585 C56.3090834,26.132983 64.7928344,19.5429264 63.4293744,15.8312854 L59.4147423,4.77210994 L16.7687439,20.3004042 Z" id="Path" fill-opacity="0.302798505" fill="#00C2F3"></path>
                                    <path d="M45.1741602,9.92295877 L51.5369735,27.3449475 C59.4904901,23.4060631 64.4898433,18.7097009 63.4293744,15.7555376 L59.4147423,4.77210994 C58.3542734,1.81794665 53.8094068,7.8777688 45.1741602,9.92295877 Z" id="Path" fill="#00C2F3"></path>
                                    <path d="M35.5541926,20.9063864 C37.2206436,20.4518998 38.8870947,19.9216653 40.5535458,19.3156831 C52.370199,14.9980598 60.7782023,8.48375101 59.4147423,4.77210994 C58.0512823,1.06046888 47.4465935,1.51495554 35.6299403,5.75683104 C23.8132871,9.99870655 15.4052839,16.5887631 16.7687439,20.3004042 C17.5262217,22.2698464 20.9348716,23.1030719 25.7069816,22.7243331 L35.5541926,20.9063864 Z" id="Path" fill="#FFFFFF"></path>
                                    <path d="M27.4491804,35.8286985 C21.3136105,35.8286985 19.1926728,33.7077607 18.435195,31.8140663 C17.9807083,30.6021019 18.5866905,29.3143897 19.798655,28.9356508 C21.0106194,28.4811641 22.2983316,29.0871463 22.6770705,30.2991108 C22.7528183,30.5263541 24.2677738,31.6625707 29.3428749,31.2838319 C30.6305871,31.2080841 31.6910559,32.1170574 31.7668037,33.4047696 C31.8425515,34.6924818 30.9335782,35.7529507 29.645866,35.8286985 C28.964136,35.7529507 28.2066582,35.8286985 27.4491804,35.8286985 Z" id="Path" fill="#444B54"></path>
                                    <path d="M23.5860438,25.1482619 C17.4504739,25.1482619 15.3295361,23.0273242 14.5720584,21.1336297 C13.8145806,19.1641876 14.1933195,15.8312854 19.798655,11.5136621 C23.510296,8.63524656 28.8883882,5.83257882 34.7967148,3.71164107 C36.0086792,3.25715441 37.2963914,3.86313662 37.6751303,5.07510105 C38.129617,6.28706548 37.5236348,7.57477769 36.3116703,7.95351657 C30.8578304,9.92295877 25.9342249,12.4983832 22.5255749,15.0738076 C19.0411772,17.7249798 18.6624383,19.3156831 18.7381861,19.5429264 C18.8139339,19.7701698 20.3288894,20.9063864 25.4039905,20.5276475 C26.6917027,20.4518998 27.7521715,21.3608731 27.8279193,22.6485853 C27.9036671,23.9362975 26.9946938,24.9967664 25.7069816,25.0725141 C25.0252516,25.0725141 24.2677738,25.1482619 23.5860438,25.1482619 Z" id="Path" fill="#444B54"></path>
                                    <path d="M65.4745644,14.6950687 L61.6114278,4.01463217 C61.6114278,4.01463217 61.6114278,4.01463217 61.6114278,4.01463217 C60.9296978,2.19668553 58.8845078,0 52.6731901,0 C52.6731901,0 52.6731901,0 52.6731901,0 C51.3854779,0 50.4007568,0.984721099 50.4007568,2.27243331 C50.4007568,3.56014551 51.3854779,4.54486661 52.6731901,4.54486661 C56.2333356,4.54486661 57.2938045,5.37809216 57.3695523,5.60533549 C57.7482912,6.66580437 53.051929,12.4226354 39.8718158,17.1947454 C39.1900858,17.4219887 38.5841036,17.649232 37.9023736,17.8764753 C36.6904092,18.2552142 36.084427,19.5429264 36.4631659,20.7548909 C36.766157,21.739612 37.6751303,22.3455942 38.5841036,22.3455942 C38.811347,22.3455942 39.0385903,22.3455942 39.2658336,22.1940986 C39.9475636,21.9668553 40.6292936,21.739612 41.3110236,21.5123686 C48.5070624,18.9369442 55.5516057,15.0738076 59.2632467,11.0591754 L61.1569411,16.3615198 C61.2326889,16.5887631 60.85395,18.1794665 57.3695523,20.8306386 C53.9609023,23.4060631 49.1130446,25.9814875 43.5834569,27.9509297 C41.9927536,28.5569119 40.3263025,29.0871463 38.7355992,29.541633 C37.5236348,29.8446241 36.8419048,31.1323363 37.1448959,32.3443007 C37.447887,33.3290218 38.3568603,34.0107518 39.3415814,34.0107518 C39.5688247,34.0107518 39.7203203,34.0107518 39.9475636,33.935004 C41.6897625,33.4805174 43.4319614,32.8745352 45.1741602,32.268553 C51.0824868,30.1476152 56.3848312,27.3449475 60.17222,24.4665319 C65.8533033,19.9216653 66.1562944,16.6645109 65.4745644,14.6950687 Z" id="Path" fill="#444B54"></path>
                                </g>
                            </g>
                        </g>
                    </g>
                </g>
            </g>
        </g>
    </g>
</svg>