<?xml version="1.0" encoding="UTF-8"?>
<svg width="30px" height="30px" viewBox="0 0 30 30" version="1.1" xmlns="http://www.w3.org/2000/svg" xmlns:xlink="http://www.w3.org/1999/xlink">
    <title>i-twitter_circled</title>
    <g id="Website" stroke="none" stroke-width="1" fill="none" fill-rule="evenodd">
        <g id="All-courses-details-2" transform="translate(-1176.000000, -1122.000000)" fill-rule="nonzero">
            <g id="Group-5" transform="translate(63.000000, 506.000000)">
                <g id="Group-9" transform="translate(997.000000, 0.000000)">
                    <g id="Group-8" transform="translate(15.000000, 559.000000)">
                        <g id="Group-7" transform="translate(41.000000, 57.000000)">
                            <g id="i-twitter_circled" transform="translate(60.000000, 0.000000)">
                                <path d="M15,0 C6.71572875,0 0,6.71572875 0,15 C0,23.2842712 6.71572875,30 15,30 C23.2842712,30 30,23.2842712 30,15 C30,6.71572875 23.2842712,0 15,0 Z" id="Path" fill="#03A9F4"></path>
                                <path d="M24,9.84 C23.3385,10.13325 22.50075,10.4085 21.75,10.5 C22.5135,10.047 23.72475,9.1035 24,8.25 C23.28675,8.66925 21.99675,9.117 21.15525,9.279 C20.48325,8.5665 19.52475,8.25 18.46275,8.25 C16.42275,8.25 15,9.97875 15,12 L15,13.5 C12,13.5 9.075,11.21475 7.25475,9 C6.9345,9.54075 6.7545,10.17375 6.7545,10.84275 C6.7545,12.207 8.00775,13.5915 9,14.25 C8.39475,14.23125 7.24875,13.76925 6.75,13.5 C6.75,13.512 6.75,13.527 6.75,13.54275 C6.75,15.318 7.99575,16.52325 9.684,16.85925 C9.37575,16.944 9,17.25 7.554,17.25 C8.0235,18.70125 10.38375,19.4685 12,19.5 C10.7355,20.48025 8.481,21 6.75,21 C6.45075,21 6.28875,21.0165 6,20.98275 C7.6335,22.01775 9.915,22.5 12,22.5 C18.79275,22.5 22.5,17.3115 22.5,12.4725 C22.5,12.3135 22.49475,11.781 22.4865,11.625 C23.2125,11.1135 23.5065,10.578 24,9.84" id="Path" fill="#FFFFFF"></path>
                            </g>
                        </g>
                    </g>
                </g>
            </g>
        </g>
    </g>
</svg>