<?xml version="1.0" encoding="UTF-8"?>
<svg width="45px" height="20px" viewBox="0 0 45 20" version="1.1" xmlns="http://www.w3.org/2000/svg" xmlns:xlink="http://www.w3.org/1999/xlink">
    <title>icon-career</title>
    <g id="Website" stroke="none" stroke-width="1" fill="none" fill-rule="evenodd">
        <g id="All-courses-details-1" transform="translate(-1087.000000, -819.000000)" fill="#15C872" fill-rule="nonzero">
            <g id="Group-6" transform="translate(53.000000, 501.000000)">
                <g id="Group-20" transform="translate(68.000000, 287.000000)">
                    <path d="M1010.79024,32.2195122 C1010.79024,32.1707317 1010.79024,32.1707317 1010.79024,32.1219512 C1010.79024,32.0731707 1010.74146,32.0243902 1010.74146,31.9268293 C1010.74146,31.8780488 1010.74146,31.8780488 1010.69268,31.8292683 C1010.6439,31.7317073 1010.6439,31.6829268 1010.59512,31.5853659 L1010.59512,31.5853659 C1010.54634,31.5365854 1010.49756,31.4878049 1010.44878,31.3902439 L1010.4,31.3414634 C1010.35122,31.2926829 1010.30244,31.2439024 1010.25366,31.2439024 L1010.20488,31.195122 C1010.1561,31.1463415 1010.10732,31.1463415 1010.00976,31.097561 L1009.96098,31.097561 L1009.96098,31.097561 C1009.86341,31.0487805 1009.81463,31.0487805 1009.71707,31 L1009.66829,31 C1009.61951,31 1009.52195,31 1009.47317,31 L1009.42439,31 L1004.54634,31 C1003.71707,31 1003.08293,31.6341463 1003.08293,32.4634146 C1003.08293,33.2926829 1003.71707,33.9268293 1004.54634,33.9268293 L1005.9122,33.9268293 L992.302439,47.4878049 L981.131707,36.3170732 C980.546341,35.7317073 979.619512,35.7317073 979.082927,36.3170732 L971.765854,43.6341463 C971.180488,44.2195122 971.180488,45.1463415 971.765854,45.6829268 C972.058537,45.9756098 972.44878,46.1219512 972.790244,46.1219512 C973.131707,46.1219512 973.521951,45.9756098 973.814634,45.6829268 L980.107317,39.3902439 L991.278049,50.5609756 C991.570732,50.8536585 991.960976,51 992.302439,51 C992.643902,51 993.034146,50.8536585 993.326829,50.5609756 L1007.9122,35.9756098 L1007.9122,37.3414634 C1007.9122,38.1707317 1008.54634,38.804878 1009.37561,38.804878 C1010.20488,38.804878 1010.83902,38.1707317 1010.83902,37.3414634 L1010.83902,32.4634146 C1010.83902,32.3658537 1010.83902,32.2682927 1010.79024,32.2195122 Z M969.278049,48.9512195 C969.229268,48.8536585 969.180488,48.804878 969.131707,48.7073171 C969.082927,48.6097561 969.034146,48.5609756 968.936585,48.5121951 C968.887805,48.4634146 968.790244,48.3658537 968.741463,48.3170732 C968.643902,48.2682927 968.595122,48.2195122 968.497561,48.1707317 C968.4,48.1219512 968.302439,48.1219512 968.204878,48.0731707 C967.717073,47.9756098 967.229268,48.1219512 966.887805,48.4634146 C966.839024,48.5121951 966.741463,48.6097561 966.692683,48.6585366 C966.643902,48.7560976 966.595122,48.804878 966.546341,48.902439 C966.497561,49 966.497561,49.097561 966.44878,49.195122 C966.44878,49.2926829 966.4,49.3902439 966.4,49.4878049 C966.4,49.5853659 966.4,49.6829268 966.44878,49.7804878 C966.44878,49.8780488 966.497561,49.9756098 966.546341,50.0731707 C966.595122,50.1707317 966.643902,50.2682927 966.692683,50.3170732 C966.741463,50.4146341 966.790244,50.4634146 966.887805,50.5121951 C967.180488,50.804878 967.521951,50.9512195 967.912195,50.9512195 C968.009756,50.9512195 968.107317,50.9512195 968.204878,50.902439 C968.302439,50.902439 968.4,50.8536585 968.497561,50.804878 C968.595122,50.7560976 968.692683,50.7073171 968.741463,50.6585366 C968.839024,50.6097561 968.887805,50.5609756 968.936585,50.4634146 C968.985366,50.4146341 969.082927,50.3170732 969.131707,50.2682927 C969.180488,50.1707317 969.229268,50.1219512 969.278049,50.0243902 C969.326829,49.9268293 969.326829,49.8292683 969.37561,49.7317073 C969.37561,49.6341463 969.42439,49.5365854 969.42439,49.4390244 C969.42439,49.3414634 969.42439,49.2439024 969.37561,49.1463415 C969.326829,49.1463415 969.278049,49.0487805 969.278049,48.9512195 Z" id="icon-career"></path>
                </g>
            </g>
        </g>
    </g>
</svg>