<svg xmlns="http://www.w3.org/2000/svg" width="122.023" height="122.023" viewBox="0 0 122.023 122.023">
  <g id="email_red" data-name="email red" transform="translate(-899 -479)">
    <path id="Path_4" data-name="Path 4" d="M60,0A60,60,0,1,1,0,60,60,60,0,0,1,60,0Z" transform="translate(899 481.04) rotate(-0.974)" fill="#fff"/>
    <g id="gmail-_1_" transform="translate(918.5 957.2)">
      <path id="Path_1" data-name="Path 1" d="M7.482-448.054a7.875,7.875,0,0,0-6.755,5.819C.532-441.552.5-437.5.5-416.958s.032,24.594.227,25.276a7.845,7.845,0,0,0,5.358,5.543,16.361,16.361,0,0,0,2.744.341l1.981.1v-24.317c0-13.394.032-24.334.081-24.334.032,0,7.047,5.38,15.588,11.947l15.506,11.947L57.492-422.4c8.541-6.567,15.555-11.947,15.588-11.947.049,0,.081,10.94.081,24.334V-385.7l2-.1a16.356,16.356,0,0,0,2.728-.341,7.845,7.845,0,0,0,5.358-5.543c.341-1.219.341-49.334,0-50.553a7.845,7.845,0,0,0-5.358-5.543,14.857,14.857,0,0,0-2.7-.325l-1.948-.1L57.606-435.83l-15.62,12.37-15.62-12.354L10.729-448.167l-1.38.016C8.586-448.135,7.758-448.086,7.482-448.054Z" fill="#f81919"/>
    </g>
  </g>
</svg>
