<svg xmlns="http://www.w3.org/2000/svg" width="122.023" height="122.023" viewBox="0 0 122.023 122.023">
  <g id="WHATSAPP" transform="translate(-899 -479)">
    <path id="Path_4" data-name="Path 4" d="M60,0A60,60,0,1,1,0,60,60,60,0,0,1,60,0Z" transform="translate(899 481.04) rotate(-0.974)"/>
    <g id="Icons" transform="translate(920 500)">
      <g id="Color-">
        <path id="Whatsapp-2" data-name="Whatsapp" d="M739.988,360a39.973,39.973,0,0,0-32.372,63.445l-4.983,14.862,15.373-4.913A39.994,39.994,0,1,0,740.012,360Zm-11.167,20.318c-.775-1.858-1.363-1.928-2.538-1.977-.4-.023-.847-.045-1.34-.045a5.8,5.8,0,0,0-4.092,1.433,12.774,12.774,0,0,0-4.09,9.735c0,5.738,4.185,11.288,4.748,12.065.588.775,8.158,12.72,19.912,17.588,9.192,3.81,11.92,3.457,14.012,3.01,3.057-.658,6.888-2.917,7.852-5.643s.965-5.057.682-5.55-1.058-.775-2.233-1.363-6.888-3.41-7.97-3.787a2.23,2.23,0,0,0-2.867.87,49.177,49.177,0,0,1-3.127,4.14,2.526,2.526,0,0,1-2.822.445,29.443,29.443,0,0,1-9.38-5.785,35.558,35.558,0,0,1-6.488-8.065c-.682-1.175-.07-1.857.47-2.492.588-.73,1.152-1.247,1.74-1.928a7.054,7.054,0,0,0,1.293-1.835,2.387,2.387,0,0,0-.165-2.163C732.137,388.383,729.785,382.645,728.822,380.318Z" transform="translate(-700 -360)" fill="#67c15e" fill-rule="evenodd"/>
      </g>
    </g>
  </g>
</svg>
