<svg width="442" height="143" viewBox="0 0 442 143" fill="none" xmlns="http://www.w3.org/2000/svg">
<path d="M74.3202 93.5697C74.7102 92.2697 75.0902 91.0097 75.4602 89.7497C79.4102 76.3997 83.3602 63.0497 87.3202 49.6997C87.7402 48.2897 88.2402 46.8997 89.1702 45.7297C90.6302 43.8997 92.5902 43.1297 94.9102 43.0397C98.7602 42.8897 102.32 45.3397 103.22 48.8797C103.65 50.5697 103.33 52.2297 102.94 53.8797C102.07 57.5897 100.64 61.1297 99.4102 64.7297C94.7102 78.4697 89.9902 92.1997 85.2602 105.94C84.7102 107.53 84.1302 109.12 83.3102 110.6C81.3602 114.15 78.4002 116 74.2802 116.02C70.8602 116.03 68.0102 114.95 65.9402 112.14C64.6802 110.43 63.9302 108.48 63.3302 106.47C60.0402 95.3597 56.7702 84.2497 53.5002 73.1397C52.9002 71.1197 52.3102 69.0897 51.7102 67.0597C51.3702 67.1597 51.4302 67.4897 51.3702 67.7097C48.2602 78.5997 45.1702 89.4997 42.0702 100.4C41.1402 103.69 40.0902 106.93 38.7602 110.08C37.0802 114.05 34.0902 115.92 29.8802 116.02C27.0202 116.09 24.4002 115.46 22.2802 113.36C20.7402 111.84 19.7302 109.99 18.9502 108.02C16.8302 102.63 15.1002 97.0897 13.2402 91.6097C9.17018 79.6697 5.13017 67.7297 1.09018 55.7897C0.560175 54.2197 0.15018 52.6097 0.0401796 50.9497C-0.11982 48.3897 1.03018 46.4197 2.92018 44.7997C5.57018 42.5097 10.4502 42.7197 12.6502 44.1097C13.5002 44.6397 14.0902 45.3697 14.5502 46.2297C16.1002 49.1097 16.9802 52.2297 17.8902 55.3397C21.3502 67.1197 24.7902 78.9097 28.2402 90.6897C28.5302 91.6697 28.7902 92.6597 29.1002 93.7797C33.2102 79.5997 37.2902 65.5797 41.3502 51.5597C42.1702 48.7297 43.4802 46.2497 45.9802 44.5497C47.7402 43.3497 49.7502 43.0897 51.8202 43.0697C57.0702 43.0397 60.1702 46.1797 61.5702 50.2997C64.3402 58.4697 66.5102 66.8197 68.9102 75.0997C70.6302 81.0197 72.3002 86.9597 73.9902 92.8897C74.0502 93.1097 74.0702 93.3597 74.3202 93.5897V93.5697Z" fill="#2B3274"/>
<path d="M282.26 70.4503C282.5 70.2003 282.75 69.9603 282.99 69.7003C289.85 62.5503 296.7 55.4103 303.56 48.2603C304.68 47.0903 305.87 46.0003 307.1 44.9603C310.72 41.9003 317.29 42.4903 319.63 47.0103C320.92 49.5003 320.77 51.9403 319.31 54.2903C317.76 56.7903 315.74 58.8903 313.58 60.8603C310.46 63.7003 307.34 66.5403 304.21 69.3503C303.84 69.6803 303.9 69.9103 304.1 70.2603C305.4 72.6303 306.96 74.8403 308.4 77.1203C313.56 85.2603 318.74 93.3803 323.9 101.53C324.83 102.99 325.71 104.5 325.82 106.3C326.03 109.87 325.03 112.96 321.83 114.85C319.17 116.42 316.3 116.5 313.47 115.13C312.17 114.5 311.35 113.33 310.48 112.24C308 109.15 306.1 105.68 304.04 102.32C300.03 95.7803 296.04 89.2103 292.07 82.6503C291.76 82.1303 291.58 82.0603 291.09 82.5003C288.17 85.0903 285.43 87.8803 282.53 90.4903C282.21 90.7803 282.12 91.0803 282.12 91.5003C282.13 96.4403 282.19 101.38 281.96 106.32C281.77 110.4 280.12 113.69 276.18 115.32C273 116.64 269.89 116.28 267.16 114.04C265.41 112.6 264.62 110.59 264.22 108.42C264 107.24 263.94 106.03 263.94 104.83C263.94 79.4303 263.94 54.0303 263.94 28.6303C263.94 25.8803 264.21 23.1403 265.57 20.6703C267.37 17.4303 269.97 16.2903 273.55 16.4703C276.19 16.6103 278.41 17.6103 279.97 19.8103C281.35 21.7603 281.91 24.0103 281.94 26.3503C282.08 36.6403 282.13 46.9303 282.06 57.2203C282.03 61.4803 282.08 65.7503 282.11 70.0103C282.11 70.1403 282.05 70.3003 282.25 70.4503H282.26Z" fill="#2B3274"/>
<path d="M408.33 96.1096C408.6 95.9096 408.62 95.5996 408.71 95.3296C413.72 81.1196 418.72 66.9096 423.73 52.6996C424.35 50.9296 425.15 49.2296 425.92 47.5196C427.9 43.1196 431.62 42.4496 435.46 43.4296C438.6 44.2296 440.93 47.2196 441.04 50.4596C441.09 51.9896 440.54 53.4296 440.14 54.8796C438.91 59.3496 437.1 63.6196 435.44 67.9396C428.65 85.6896 421.86 103.43 415.06 121.17C413.55 125.1 411.9 128.95 409.71 132.57C406.48 137.93 401.72 141.03 395.59 141.99C390.51 142.78 385.41 142.74 380.34 141.8C379.27 141.6 378.23 141.29 377.22 140.91C374.16 139.75 372.56 136.79 373.08 133.32C373.53 130.32 375.55 128.48 378.56 128.08C380.72 127.79 382.76 128.3 384.85 128.6C387.57 128.98 390.2 128.77 392.42 126.9C393.69 125.82 394.47 124.36 395.25 122.92C396.63 120.35 397.67 117.63 398.78 114.94C399.14 114.08 398.83 113.29 398.51 112.5C395.81 105.73 393.11 98.9596 390.41 92.1896C385.76 80.5396 381.11 68.8796 376.47 57.2296C376.05 56.1796 375.7 55.0996 375.39 54.0096C373.98 48.9896 377.11 44.3496 381.98 43.2696C386.17 42.3396 389.27 43.7496 391.42 47.9896C392.73 50.5696 393.57 53.3296 394.51 56.0496C399.1 69.3396 403.67 82.6296 408.25 95.9196C408.27 95.9796 408.3 96.0296 408.33 96.1096Z" fill="#2B3274"/>
<path d="M113.54 77.9604C113.54 74.1004 114.33 68.7604 116.39 63.6604C120.16 54.3404 126.86 48.1304 136.39 44.9904C140.42 43.6604 144.56 43.0804 148.79 43.0604C154.42 43.0304 159.89 43.8504 165.09 46.1104C172.65 49.4004 178.22 54.7304 181.63 62.2604C183.63 66.6804 184.68 71.3304 184.99 76.1704C185.35 81.7904 184.92 87.3304 183.18 92.6904C179.53 103.91 172 111.24 160.64 114.53C155.78 115.94 150.81 116.21 145.78 115.87C139.79 115.47 134.21 113.82 129.13 110.61C121.75 105.94 117.14 99.2604 114.95 90.8604C113.94 86.9904 113.5 83.3204 113.54 77.9604ZM131.68 79.5104C131.72 80.9304 131.75 82.3404 131.91 83.7604C132.29 87.1804 133.09 90.4804 134.68 93.5504C136.34 96.7504 138.68 99.3104 141.96 100.92C143.83 101.84 145.83 102.28 147.91 102.45C150.65 102.68 153.29 102.31 155.81 101.26C161.05 99.0704 163.93 94.8304 165.59 89.6204C166.79 85.8704 167.05 82.0004 166.92 78.0704C166.79 74.2204 166.23 70.4604 164.73 66.8904C163.26 63.4004 160.95 60.5904 157.7 58.6004C155.53 57.2804 153.14 56.7004 150.64 56.4904C146.65 56.1504 142.97 57.0604 139.72 59.4004C136.56 61.6704 134.63 64.8704 133.37 68.4904C132.13 72.0504 131.71 75.7504 131.69 79.5004L131.68 79.5104Z" fill="#2B3274"/>
<path d="M220.54 53.77C221.8 51.73 223.09 49.97 224.48 48.27C227.45 44.63 231.3 43.03 235.93 43.05C240.5 43.07 244.7 44.33 248.54 46.76C250.47 47.98 251.83 49.66 252.29 52.01C253.14 56.3 250.12 60.55 245.8 61.08C244.94 61.18 244.13 60.95 243.31 60.75C241.25 60.25 239.28 59.42 237.19 59.06C234.94 58.66 232.69 58.47 230.46 59.13C227.2 60.09 225.34 62.5 224.07 65.47C222.84 68.36 222.22 71.42 221.87 74.53C220.71 84.87 221.07 95.26 221.05 105.64C221.05 108.21 220.62 110.65 219.02 112.7C216.69 115.67 213.53 116.57 209.93 115.79C206.25 114.99 204.19 112.5 203.37 108.92C203.02 107.42 202.91 105.88 202.91 104.34C202.93 96.19 202.92 88.05 202.92 79.9C202.92 72.09 202.91 64.29 202.92 56.48C202.92 54.1 203.02 51.71 203.64 49.39C204.54 46.09 206.47 43.75 210 43.22C212.54 42.84 215.06 43 217.2 44.71C218.85 46.03 219.49 47.91 219.97 49.87C220.27 51.11 220.34 52.38 220.54 53.8V53.77Z" fill="#2B3274"/>
<path d="M358.54 79.3198C358.54 88.3098 358.54 97.2898 358.54 106.28C358.54 108.29 358.09 110.22 357.02 111.92C355.21 114.79 352.51 116.09 349.16 116.01C344.88 115.9 341.57 112.89 340.82 108.53C340.51 106.72 340.43 104.89 340.43 103.06C340.43 87.0398 340.43 71.0198 340.45 54.9898C340.45 52.9198 340.53 50.8498 341.22 48.8598C342.54 45.0198 345.75 42.9498 349.81 43.0598C355.1 43.1998 358.55 47.4798 358.55 52.2898C358.55 61.2998 358.55 70.3098 358.55 79.3198H358.54Z" fill="#2B3274"/>
<path d="M141.72 29.8099C140.1 30.6499 138.35 31.1499 136.63 31.7499C131.51 33.5399 126.32 35.0899 121.01 36.2199C117.59 36.9499 114.13 37.3699 110.63 37.1599C109.3 37.0799 108.01 36.7599 106.81 36.1899C104.74 35.1999 103.72 33.0299 104.08 30.5599C104.49 27.7399 105.67 25.2099 107.13 22.8099C110.72 16.8899 115.1 11.6299 120.58 7.3499C124.99 3.9099 129.92 1.5699 135.49 0.819905C141.08 0.0699049 146.54 0.529893 151.64 3.22989C154.17 4.56989 156.39 6.3399 158.46 8.2999C161.31 11.0099 163.86 13.9999 166.62 16.7999C169.14 19.3599 171.71 21.8799 175.07 23.3599C177.94 24.6299 180.96 24.9999 184.08 24.7999C187.74 24.5699 191.2 23.5499 194.58 22.1899C195.6 21.7799 196.64 21.4099 197.84 21.4299C197.34 22.4999 196.57 23.2999 195.8 24.0799C190.73 29.1799 185.06 33.4299 178.31 36.0799C176.18 36.9099 173.97 37.4599 171.68 37.6199C168.53 37.8299 165.72 36.7799 163.07 35.2099C159.98 33.3699 157.36 30.9599 154.89 28.3699C151.39 24.6999 148.39 20.6199 145.14 16.7399C142.6 13.6999 139.7 11.0699 136.11 9.31991C131.18 6.90991 126.3 7.0599 121.66 9.9599C117 12.8799 113.19 16.7099 110.65 21.6599C109.74 23.4299 109.25 25.3299 109.62 27.3199C110.15 30.1399 112.07 31.7499 114.63 32.7199C116.16 33.2999 117.75 33.4499 119.37 33.4799C122.53 33.5399 125.66 33.1399 128.77 32.6399C132.94 31.9699 137.03 30.9599 141.11 29.8699C141.31 29.8199 141.52 29.7399 141.74 29.8299L141.72 29.8099Z" fill="#FDBA16"/>
<path d="M146.5 24.7403C144.74 25.2303 143.03 25.7303 141.3 26.1903C136.67 27.4203 132.01 28.5203 127.29 29.3203C123.48 29.9603 119.65 30.2503 115.8 29.6503C115.19 29.5603 114.58 29.4003 114 29.1503C113.04 28.7203 112.76 28.2003 113.06 27.2003C113.25 26.5803 113.51 25.9803 113.78 25.3903C115.83 20.7603 118.61 16.6803 122.7 13.5903C124.72 12.0703 126.91 10.9703 129.53 11.0403C131.34 11.0903 132.95 11.7903 134.48 12.6703C137.83 14.5803 140.56 17.2203 143.11 20.0703C144.38 21.4903 145.51 23.0203 146.5 24.7503V24.7403Z" fill="#2B3274"/>
<path d="M141.73 29.8197C141.75 29.5797 141.91 29.6997 142.03 29.7097C141.96 29.8597 141.83 29.7997 141.72 29.8097L141.73 29.8197Z" fill="#FDBA16"/>
</svg>
