
<svg width="535px" height="559px" viewBox="0 0 535 559" version="1.1" xmlns="http://www.w3.org/2000/svg" xmlns:xlink="http://www.w3.org/1999/xlink">
    <defs>
        <polygon id="path-5y1_5y5zln-1" points="0 0 109.090949 0 109.090949 291.805028 0 291.805028"></polygon>
        <filter x="-13.7%" y="-5.8%" width="127.5%" height="111.6%" filterUnits="objectBoundingBox" id="filter-5y1_5y5zln-3">
            <feGaussianBlur stdDeviation="5" in="SourceGraphic"></feGaussianBlur>
        </filter>
        <filter x="-11.8%" y="-24.7%" width="123.6%" height="149.4%" filterUnits="objectBoundingBox" id="filter-5y1_5y5zln-4">
            <feGaussianBlur stdDeviation="5" in="SourceGraphic"></feGaussianBlur>
        </filter>
        <filter x="-47.7%" y="-51.5%" width="195.3%" height="203.1%" filterUnits="objectBoundingBox" id="filter-5y1_5y5zln-5">
            <feGaussianBlur stdDeviation="5" in="SourceGraphic"></feGaussianBlur>
        </filter>
        <filter x="-27.1%" y="-31.5%" width="154.1%" height="162.9%" filterUnits="objectBoundingBox" id="filter-5y1_5y5zln-6">
            <feGaussianBlur stdDeviation="5" in="SourceGraphic"></feGaussianBlur>
        </filter>
        <polygon id="path-5y1_5y5zln-7" points="0 0 109.385213 0 109.385213 291.305119 0 291.305119"></polygon>
        <filter x="-13.7%" y="-5.1%" width="127.4%" height="110.3%" filterUnits="objectBoundingBox" id="filter-5y1_5y5zln-9">
            <feGaussianBlur stdDeviation="5" in="SourceGraphic"></feGaussianBlur>
        </filter>
    </defs>
    <g id="Website" stroke="none" stroke-width="1" fill="none" fill-rule="evenodd">
        <g id="abt-design02" transform="translate(-127.000000, -465.000000)">
            <g id="Group-6" transform="translate(-16.000000, 450.000000)">
                <g id="Group-17" transform="translate(143.000000, 15.000000)">
                    <g id="Group-9">
                        <g id="illustration" fill="#F3FCF7" fill-rule="nonzero">
                            <path d="M531.571483,200.612532 C535.406881,214.722662 535.871648,229.434442 532.934322,243.716472 C529.995566,258.012827 523.72622,271.535631 514.56388,283.32511 C500.884006,300.629716 481.383823,313.550871 469.238395,331.757952 C442.989798,371.08009 457.080096,424.755884 433.003748,465.252672 C412.878632,499.131309 371.186908,515.776965 332.473981,530.058995 C302.075375,541.261148 271.372167,552.549252 239.148815,557.061629 C206.925463,561.574005 172.271022,558.709004 144.349265,543.137724 C121.322575,530.345495 104.405064,510.046963 88.7803208,489.777081 C50.3705653,439.897414 15.6560631,385.605645 3.86099763,325.268725 C-7.93406784,264.946129 6.77830286,197.274806 55.1440775,155.531741 C78.6884468,135.20456 109.527509,121.18038 126.140418,95.624571 C143.574177,68.8081618 143.817286,31.376924 170.918194,12.6971177 C180.919974,5.79246529 193.352843,2.58366419 205.694188,1.06521367 C235.4078,-2.48738754 265.564728,2.8988143 291.738962,16.4359439 C318.29216,30.2595737 340.089006,52.2198062 369.013229,61.0583342 C406.45055,72.5040131 454.495993,63.7084601 479.37746,97.5870967 C499.363861,124.833256 522.695153,168.882646 531.571483,200.612532 Z" id="Path"></path>
                        </g>
                        <g id="Group-12" transform="translate(165.929843, 131.862134)">
                            <path d="M44.101803,189.238358 C41.0845181,186.686745 36.5733814,187.067822 34.0244659,190.085606 C31.4755503,193.104624 31.8539435,197.617119 34.8699959,200.168732 L94.6413252,250.707684 L94.6413252,280.224504 C70.5350923,278.451078 48.9173799,268.202696 34.6136253,251.529035 C0.0270109602,211.211333 16.0896159,153.278993 35.6551309,111.778595 C45.658515,90.5653075 62.8180903,66.0653849 78.1177462,46.5823597 C80.5569647,43.4745471 80.0183399,38.9780849 76.9135439,36.5362322 C73.8087478,34.0968459 69.3136342,34.6333136 66.8719507,37.7423594 C51.1174835,57.8050163 33.2947957,83.2508486 22.721973,105.67273 C-7.9241757,170.672877 -7.56303825,224.331975 23.7634786,260.84754 C42.023722,282.134823 70.1714898,294.521676 100.988963,294.831224 L101.061684,294.831224 C104.549803,294.831224 108.943847,291.680247 108.943847,287.117189 L108.943847,247.386518 C108.943847,245.281345 108.015736,243.280999 106.40849,241.921947 L44.101803,189.238358 Z" id="Fill-1" fill="#15C872"></path>
                            <path d="M153.370902,144.225022 L101.909432,185.866011 L49.9906853,143.074391 C46.9438192,140.562243 42.4363801,140.99635 39.9256737,144.046199 C37.4149672,147.096049 37.8500577,151.604844 40.8981564,154.116992 C41.6943844,154.774319 96.9089726,200.323506 97.7520375,200.91917 C100.519115,202.886218 104.061466,202.559404 106.362639,200.663885 L162.363595,155.351484 C165.433879,152.865234 165.910877,148.362606 163.427286,145.288091 C160.943696,142.216043 156.441187,141.738772 153.370902,144.225022" id="Fill-3" fill="#15C872"></path>
                            <path d="M64.8305997,104.239313 C61.8478262,101.649469 57.3317592,101.96765 54.7434021,104.952137 C52.1538124,107.93539 52.4730431,112.455284 55.4558166,115.046361 L72.5365087,129.884933 C75.5205147,132.47601 80.0365816,132.15413 82.6249388,129.17211 C85.2132959,126.188856 84.8940652,121.668962 81.9125243,119.080351 L64.8305997,104.239313 Z" id="Fill-5" fill="#15C872"></path>
                            <path d="M121.691753,233.075657 C124.187669,236.135373 128.693875,236.594145 131.753067,234.094329 L172.7169,200.644646 C175.777324,198.146064 176.233368,193.638502 173.737452,190.57632 C171.237839,187.515371 166.732865,187.059066 163.674906,189.557648 L122.711072,223.008565 C119.651881,225.50838 119.195837,230.014709 121.691753,233.075657" id="Fill-7" fill="#15C872"></path>
                            <g id="Group-11" transform="translate(94.630648, 0.000000)">
                                <mask id="mask-5y1_5y5zln-2" fill="white">
                                    <use xlink:href="#path-5y1_5y5zln-1"></use>
                                </mask>
                                <g id="Clip-10"></g>
                                <path d="M86.3678853,105.672483 C67.0106715,64.6185255 22.6511601,14.7097683 12.7710311,2.63369647 C8.29440579,-2.84443986 -0.593519647,0.860270079 0.129987804,7.90217878 C-0.0548948496,9.00594556 0.0116629057,1.06499107 0.0116629057,143.502702 C0.0116629057,150.263428 7.95052405,152.466028 12.1880345,149.120197 L54.5582085,115.655715 C57.6568418,113.207696 58.1880713,108.707534 55.7402249,105.607121 C53.2936111,102.506707 48.797265,101.975173 45.6973992,104.424425 L14.3129524,129.211697 L14.3129524,26.7180109 C31.3911794,47.1827102 59.5167613,82.2565952 73.4347274,111.777115 C93.0002424,153.277513 109.06408,211.209853 74.476233,251.528788 C63.5139242,264.309051 51.6185743,273.361172 34.0633501,277.70471 C30.2288838,278.651853 27.8919671,282.531685 28.8373337,286.365887 C29.7876306,290.203789 33.6664686,292.543282 37.4972372,291.593672 C57.9551191,286.532377 72.4166403,275.901685 85.3263797,260.848526 C116.655362,224.331728 117.015267,170.671397 86.3678853,105.672483" id="Fill-9" fill="#15C872" mask="url(#mask-5y1_5y5zln-2)"></path>
                            </g>
                        </g>
                    </g>
                    <g id="Group" opacity="0.0996730441" transform="translate(166.931238, 138.377210)">
                        <path d="M44.220764,188.914161 C41.1953402,186.36692 36.672035,186.747344 34.116244,189.759959 C31.560453,192.773805 31.9398669,197.278569 34.9640548,199.82581 L94.8966123,250.278181 L94.8966123,279.744434 C70.7253548,277.974046 49.0493304,267.743221 34.7069926,251.098124 C0.02708382,210.849493 16.1330163,153.016401 35.7513076,111.5871 C45.781675,90.4101544 62.9875369,65.9522041 78.3284623,46.5025565 C80.7742604,43.4000681 80.2341827,38.9113091 77.1210117,36.4736396 C74.0078408,34.0384325 69.500602,34.5739811 67.0523322,37.6777006 C51.2553686,57.7059869 33.3846056,83.1082263 22.7832636,105.491695 C-7.9455505,170.380487 -7.58343891,223.947657 23.8275786,260.400665 C42.1370775,281.65148 70.3607715,294.017112 101.261372,294.32613 L101.334289,294.32613 C104.831817,294.32613 109.237714,291.180551 109.237714,286.62531 L109.237714,246.962704 C109.237714,244.861138 108.3071,242.864219 106.695518,241.507496 L44.220764,188.914161 Z" id="Fill-1" fill="#15C872" filter="url(#filter-5y1_5y5zln-3)"></path>
                        <path d="M153.784608,143.977941 L102.184324,185.547592 L50.125531,142.829281 C47.0704462,140.321437 42.5508487,140.7548 40.0333698,143.799425 C37.515891,146.844049 37.9521551,151.34512 41.0084758,153.852964 C41.8068515,154.509165 97.1703765,199.980319 98.0157155,200.574963 C100.790256,202.538641 104.342163,202.212387 106.649543,200.320115 L162.801557,155.085342 C165.880123,152.603351 166.358407,148.108436 163.868118,145.039189 C161.377828,141.972404 156.863174,141.49595 153.784608,143.977941" id="Fill-3" fill="#15C872" filter="url(#filter-5y1_5y5zln-4)"></path>
                        <path d="M65.0054748,104.060734 C62.0146555,101.475327 57.4864068,101.792963 54.8910678,104.772337 C52.2944929,107.750479 52.6145847,112.26263 55.605404,114.849268 L72.7321698,129.662419 C75.724225,132.249057 80.2524736,131.927728 82.8478127,128.950817 C85.4431517,125.972674 85.1230599,121.460523 82.1334765,118.876347 L65.0054748,104.060734 Z" id="Fill-5" fill="#15C872" filter="url(#filter-5y1_5y5zln-5)"></path>
                        <path d="M122.020006,232.676361 C124.522654,235.730835 129.041016,236.188821 132.10846,233.693288 L173.18279,200.300909 C176.251469,197.806607 176.708743,193.306768 174.206095,190.249832 C171.699739,187.194127 167.182613,186.738603 164.116405,189.232905 L123.042075,222.626514 C119.974632,225.122048 119.517358,229.620656 122.020006,232.676361" id="Fill-7" fill="#15C872" filter="url(#filter-5y1_5y5zln-6)"></path>
                        <g id="Group-11" transform="translate(94.885907, 0.000000)">
                            <mask id="mask-5y1_5y5zln-8" fill="white">
                                <use xlink:href="#path-5y1_5y5zln-7"></use>
                            </mask>
                            <g id="Clip-10"></g>
                            <path d="M86.6008555,105.491449 C67.1914272,64.5078234 22.7122597,14.6845681 12.8054799,2.62918452 C8.31677926,-2.83956687 -0.595120617,0.858796296 0.130338435,7.88864106 C-0.0550429238,8.99051691 0.0116943655,1.06316656 0.0116943655,143.256859 C0.0116943655,150.006002 7.97196993,152.204829 12.2209107,148.864729 L54.7053747,115.457577 C57.8123663,113.013752 58.3450287,108.5213 55.8905795,105.426198 C53.4373662,102.331097 48.9288915,101.800473 45.8206641,104.245529 L14.3515604,128.990336 L14.3515604,26.6722385 C31.4758545,47.1018785 59.6773027,82.1156763 73.6328115,111.585623 C93.2511028,153.014923 109.358271,210.848016 74.6771264,251.097878 C63.6852477,263.856246 51.7578111,272.892859 34.1552331,277.228956 C30.3104237,278.174477 27.9672033,282.047662 28.91512,285.875296 C29.8679802,289.706623 33.7572811,292.042107 37.5983829,291.094125 C58.1114482,286.041501 72.6119781,275.429021 85.5565405,260.40165 C116.97003,223.947411 117.330905,170.379009 86.6008555,105.491449" id="Fill-9" fill="#15C872" filter="url(#filter-5y1_5y5zln-9)" mask="url(#mask-5y1_5y5zln-8)"></path>
                        </g>
                    </g>
                </g>
            </g>
        </g>
    </g>
</svg>