<svg id="Layer_1" data-name="Layer 1" xmlns="http://www.w3.org/2000/svg" xmlns:xlink="http://www.w3.org/1999/xlink" viewBox="0 0 385 233.3"><defs><style>.cls-1{fill-rule:evenodd;fill:url(#linear-gradient);}.cls-2{isolation:isolate;}.cls-3{fill:#f9f9f9;}</style><linearGradient id="linear-gradient" y1="117.24" x2="385" y2="117.24" gradientTransform="matrix(1, 0, 0, -1, 0, 233.89)" gradientUnits="userSpaceOnUse"><stop offset="0" stop-color="#ff9623"/><stop offset="0" stop-color="#ff9224"/><stop offset="0" stop-color="#ff8528"/><stop offset="0" stop-color="#ff6f2e"/><stop offset="0" stop-color="#ff5137"/><stop offset="0" stop-color="#ff463a"/><stop offset="0.13" stop-color="#ff4a3f"/><stop offset="0.27" stop-color="#ff574c"/><stop offset="0.42" stop-color="#ff6d63"/><stop offset="0.58" stop-color="#ff8a83"/><stop offset="0.74" stop-color="#ffb1ac"/><stop offset="0.9" stop-color="#ffdfdd"/><stop offset="1" stop-color="#fff"/></linearGradient></defs><g id="Website"><g id="Header"><g id="c-se"><g id="image-placeholder"><path id="path-1" class="cls-1" d="M18,0H367a18.05,18.05,0,0,1,18,18h0V233.3H0V18A18.05,18.05,0,0,1,18,0Z" transform="translate(0 0)"/></g></g></g></g><g class="cls-2"><path class="cls-3" d="M45.6,106.36H37.2l-1.66,3.89H32.33l7.56-16.8H43l7.59,16.8H47.28Zm-1-2.45L41.4,96.57l-3.14,7.34Z" transform="translate(0 0)"/><path class="cls-3" d="M66.75,99.42c0,3.7-2.74,6-7.16,6H55.8v4.85H52.68V93.45h6.91C64,93.45,66.75,95.7,66.75,99.42Zm-3.15,0c0-2.11-1.41-3.33-4.15-3.33H55.8v6.67h3.65C62.19,102.76,63.6,101.54,63.6,99.42Z" transform="translate(0 0)"/><path class="cls-3" d="M83.93,99.42c0,3.7-2.74,6-7.15,6H73v4.85H69.86V93.45h6.92C81.19,93.45,83.93,95.7,83.93,99.42Zm-3.14,0c0-2.11-1.42-3.33-4.16-3.33H73v6.67h3.65C79.37,102.76,80.79,101.54,80.79,99.42Z" transform="translate(0 0)"/><path class="cls-3" d="M87.05,93.45h3.12v16.8H87.05Z" transform="translate(0 0)"/><path class="cls-3" d="M94.56,102.93V93.45h3.12v9.36c0,3.46,1.56,4.94,4.27,4.94s4.25-1.48,4.25-4.94V93.45h3.07v9.48c0,4.9-2.76,7.56-7.34,7.56S94.56,107.83,94.56,102.93Z" transform="translate(0 0)"/><path class="cls-3" d="M129.07,110.25l0-11.14-5.52,9.22h-1.39l-5.52-9.07v11h-3V93.45h2.57l6.67,11.14,6.55-11.14H132l0,16.8Z" transform="translate(0 0)"/></g><g class="cls-2"><path class="cls-3" d="M45.6,135.16H37.2l-1.66,3.89H32.33l7.56-16.8H43l7.59,16.8H47.28Zm-1-2.45-3.17-7.34-3.14,7.34Z" transform="translate(0 0)"/><path class="cls-3" d="M52.18,131.73v-9.48H55.3v9.36c0,3.45,1.56,4.94,4.27,4.94s4.25-1.49,4.25-4.94v-9.36h3.07v9.48c0,4.9-2.76,7.56-7.35,7.56S52.18,136.63,52.18,131.73Z" transform="translate(0 0)"/><path class="cls-3" d="M74.35,124.89H68.78v-2.64H83v2.64H77.47v14.16H74.35Z" transform="translate(0 0)"/><path class="cls-3" d="M84,130.65c0-5,3.84-8.64,9-8.64s9,3.65,9,8.64-3.84,8.64-9,8.64S84,135.62,84,130.65Zm15,0a5.91,5.91,0,1,0-5.91,5.9A5.73,5.73,0,0,0,98.91,130.65Z" transform="translate(0 0)"/><path class="cls-3" d="M120.79,139.05l0-11.14-5.52,9.22h-1.39l-5.52-9.07v11h-3v-16.8h2.57l6.67,11.13,6.55-11.13h2.57l0,16.8Z" transform="translate(0 0)"/><path class="cls-3" d="M139.18,135.16h-8.4l-1.66,3.89H125.9l7.56-16.8h3.08l7.58,16.8h-3.26Zm-1-2.45L135,125.37l-3.15,7.34Z" transform="translate(0 0)"/><path class="cls-3" d="M148.82,124.89h-5.56v-2.64h14.25v2.64h-5.57v14.16h-3.12Z" transform="translate(0 0)"/><path class="cls-3" d="M159.86,122.25H163v16.8h-3.12Z" transform="translate(0 0)"/><path class="cls-3" d="M166.32,130.65c0-5,3.84-8.64,9.05-8.64s9,3.65,9,8.64-3.84,8.64-9,8.64S166.32,135.62,166.32,130.65Zm15,0a5.91,5.91,0,1,0-5.9,5.9A5.73,5.73,0,0,0,181.27,130.65Z" transform="translate(0 0)"/><path class="cls-3" d="M202.66,122.25v16.8h-2.57l-9.27-11.38v11.38h-3.09v-16.8h2.56l9.27,11.37V122.25Z" transform="translate(0 0)"/></g></svg>