<?xml version="1.0" encoding="UTF-8"?>
<svg width="394px" height="222px" viewBox="0 0 394 222" version="1.1" xmlns="http://www.w3.org/2000/svg" xmlns:xlink="http://www.w3.org/1999/xlink">
    <title>banner-all-courses</title>
    <defs>
        <linearGradient x1="49.976522%" y1="100%" x2="49.976522%" y2="-0.00844175216%" id="linearGradient-1">
            <stop stop-color="#808080" stop-opacity="0.25" offset="0%"></stop>
            <stop stop-color="#808080" stop-opacity="0.12" offset="54%"></stop>
            <stop stop-color="#808080" stop-opacity="0.1" offset="100%"></stop>
        </linearGradient>
        <linearGradient x1="49.9918143%" y1="100.014074%" x2="49.9918143%" y2="-0.0189852106%" id="linearGradient-2">
            <stop stop-color="#808080" stop-opacity="0.25" offset="0%"></stop>
            <stop stop-color="#808080" stop-opacity="0.12" offset="54%"></stop>
            <stop stop-color="#808080" stop-opacity="0.1" offset="100%"></stop>
        </linearGradient>
    </defs>
    <g id="Website" stroke="none" stroke-width="1" fill="none" fill-rule="evenodd">
        <g id="All-courses" transform="translate(-927.000000, -148.000000)">
            <g id="banner-all-courses" transform="translate(927.000000, 148.000000)">
                <path d="M219.155306,30.238933 C196.444949,30.1084554 174.67693,24.3058251 153.865748,17.8798017 C133.054566,11.4537783 112.428227,4.2956304 90.1854147,1.14966971 C75.879992,-0.865484834 59.5775367,-0.803870397 48.2586021,6.07157596 C37.3673442,12.6896914 34.0619108,23.7367976 32.3910723,33.9539211 C31.1297885,41.6412283 30.4774003,49.716344 34.609192,56.7875068 C37.4760755,61.6949155 42.4523475,65.757844 45.9426241,70.4405413 C58.0806683,86.7321235 50.2918786,107.37296 37.968991,123.867507 C32.1699852,131.605556 25.4431383,139.01741 21.0358939,147.208506 C16.6286494,155.399602 14.7258506,164.71788 18.9518761,172.861858 C23.1416579,180.936974 32.8042514,186.844711 43.213467,190.914889 C64.3580922,199.174848 89.0836036,201.084895 113.163976,201.922127 C166.48221,203.777809 219.974415,201.117515 273.321645,198.460845 C293.06726,197.475014 312.896236,196.481934 332.264915,193.386715 C343.022071,191.661511 354.109046,189.062831 361.807226,183.260201 C371.593048,175.888215 373.767676,163.761044 366.881356,154.990047 C355.341334,140.271445 324.338399,137.29583 316.140055,121.399306 C311.624079,112.646431 315.799363,102.675765 321.852075,94.3106993 C334.8346,76.3664004 356.932437,60.3611442 357.628317,40.1951012 C358.106735,26.3427259 346.965395,12.7513059 330.101161,6.61160838 C312.399696,0.152965574 288.152603,1.60271705 275.496272,13.2732164 C262.477504,25.2880317 239.22349,30.3549131 219.155306,30.238933 Z" id="Path" fill="#15C872" fill-rule="nonzero" opacity="0.1"></path>
                <g id="db976b58-83c4-4bad-bfc1-713fe8b9d2f6" transform="translate(150.396519, 18.025909)">
                    <path d="M55.8451254,70.3879262 C55.8451254,70.3879262 45.8853328,52.7408264 30.8804051,47.6558231 C24.5744433,45.5619147 19.1174736,41.4796792 15.3281962,36.0215676 C13.5495216,33.4167903 12.0135956,30.6543073 10.7397328,27.7688573" id="Path" stroke="#535461" stroke-width="2"></path>
                    <path d="M1.30909946,24.5069165 C3.01618182,26.1668819 10.9789418,27.881213 10.9789418,27.881213 C10.9789418,27.881213 9.02540167,19.9764431 7.31831931,18.3164777 C5.60887683,16.6570776 2.87789031,16.6976449 1.21849011,18.4070873 C-0.44091009,20.1165297 -0.4003429,22.8475162 1.30909946,24.5069165 Z" id="Path" fill="#15C872" fill-rule="nonzero"></path>
                    <path d="M5.82869968,38.8232123 C8.16642392,39.2871327 15.7848679,36.3985029 15.7848679,36.3985029 C15.7848679,36.3985029 9.81551622,30.8169598 7.49228949,30.3530393 C5.15331581,29.8936517 2.88479574,31.4173572 2.4254081,33.7563309 C1.96602045,36.0953046 3.48972599,38.3638246 5.82869968,38.8232123 L5.82869968,38.8232123 Z" id="Path" fill="#15C872" fill-rule="nonzero"></path>
                    <path d="M22.2108913,54.2956849 C24.4616305,53.5164434 29.5792532,47.1810295 29.5792532,47.1810295 C29.5792532,47.1810295 21.6418639,45.3688402 19.3911247,46.1444572 C17.914286,46.6322523 16.8144626,47.8773978 16.5127443,49.403164 C16.2110261,50.9289303 16.7541512,52.4989666 17.9341729,53.5121523 C19.1141947,54.525338 20.7483203,54.8247242 22.2108913,54.2956849 L22.2108913,54.2956849 Z" id="Path" fill="#15C872" fill-rule="nonzero"></path>
                    <path d="M37.2593116,63.2189052 C39.607909,62.8310966 45.7222358,57.4488943 45.7222358,57.4488943 C45.7222358,57.4488943 38.2052744,54.3174311 35.8530527,54.7052396 C33.5020689,55.0935674 31.9110219,57.3142181 32.2993496,59.6652018 C32.6876772,62.0161856 34.9083278,63.6072327 37.2593116,63.2189052 L37.2593116,63.2189052 Z" id="Path" fill="#15C872" fill-rule="nonzero"></path>
                    <path d="M22.4029834,30.2116885 C22.4029834,32.5965297 18.0935971,39.5045955 18.0935971,39.5045955 C18.0935971,39.5045955 13.7769621,32.6001541 13.7769621,30.2153129 C13.7769621,27.8333029 15.7079628,25.9023023 18.0899727,25.9023023 C20.4719827,25.9023023 22.4029834,27.8333029 22.4029834,30.2153129 L22.4029834,30.2116885 Z" id="Path" fill="#15C872" fill-rule="nonzero"></path>
                    <path d="M39.8688642,40.8673619 C39.1439885,43.1434717 32.9825447,48.4459377 32.9825447,48.4459377 C32.9825447,48.4459377 30.9311464,40.562914 31.6415246,38.2976774 C32.3531251,36.0237586 34.7733666,34.7572493 37.0472854,35.4688498 C39.3212042,36.1804503 40.5877135,38.6006918 39.876113,40.8746106 L39.8688642,40.8673619 Z" id="Path" fill="#15C872" fill-rule="nonzero"></path>
                    <path d="M55.4210731,53.5526872 C55.1057522,55.9157821 49.9083932,62.1895816 49.9083932,62.1895816 C49.9083932,62.1895816 46.5558429,54.7668541 46.8711638,52.4037592 C47.1884316,50.0427669 49.3595903,48.3860008 51.7205825,48.7032686 C54.0815748,49.0205363 55.7383409,51.191695 55.4210731,53.5526872 Z" id="Path" fill="#15C872" fill-rule="nonzero"></path>
                    <path d="M1.30909946,24.5069165 C3.01618182,26.1668819 10.9789418,27.881213 10.9789418,27.881213 C10.9789418,27.881213 9.02540167,19.9764431 7.31831931,18.3164777 C5.60887683,16.6570776 2.87789031,16.6976449 1.21849011,18.4070873 C-0.44091009,20.1165297 -0.4003429,22.8475162 1.30909946,24.5069165 Z" id="Path" fill="#000000" fill-rule="nonzero" opacity="0.25"></path>
                    <path d="M5.82869968,38.8232123 C8.16642392,39.2871327 15.7848679,36.3985029 15.7848679,36.3985029 C15.7848679,36.3985029 9.81551622,30.8169598 7.49228949,30.3530393 C5.15331581,29.8936517 2.88479574,31.4173572 2.4254081,33.7563309 C1.96602045,36.0953046 3.48972599,38.3638246 5.82869968,38.8232123 L5.82869968,38.8232123 Z" id="Path" fill="#000000" fill-rule="nonzero" opacity="0.25"></path>
                    <path d="M22.2108913,54.2956849 C24.4616305,53.5164434 29.5792532,47.1810295 29.5792532,47.1810295 C29.5792532,47.1810295 21.6418639,45.3688402 19.3911247,46.1444572 C17.914286,46.6322523 16.8144626,47.8773978 16.5127443,49.403164 C16.2110261,50.9289303 16.7541512,52.4989666 17.9341729,53.5121523 C19.1141947,54.525338 20.7483203,54.8247242 22.2108913,54.2956849 L22.2108913,54.2956849 Z" id="Path" fill="#000000" fill-rule="nonzero" opacity="0.25"></path>
                    <path d="M37.2593116,63.2189052 C39.607909,62.8310966 45.7222358,57.4488943 45.7222358,57.4488943 C45.7222358,57.4488943 38.2052744,54.3174311 35.8530527,54.7052396 C33.5020689,55.0935674 31.9110219,57.3142181 32.2993496,59.6652018 C32.6876772,62.0161856 34.9083278,63.6072327 37.2593116,63.2189052 L37.2593116,63.2189052 Z" id="Path" fill="#000000" fill-rule="nonzero" opacity="0.25"></path>
                    <path d="M22.4029834,30.2116885 C22.4029834,32.5965297 18.0935971,39.5045955 18.0935971,39.5045955 C18.0935971,39.5045955 13.7769621,32.6001541 13.7769621,30.2153129 C13.7769621,27.8333029 15.7079628,25.9023023 18.0899727,25.9023023 C20.4719827,25.9023023 22.4029834,27.8333029 22.4029834,30.2153129 L22.4029834,30.2116885 Z" id="Path" fill="#000000" fill-rule="nonzero" opacity="0.25"></path>
                    <path d="M39.8688642,40.8673619 C39.1439885,43.1434717 32.9825447,48.4459377 32.9825447,48.4459377 C32.9825447,48.4459377 30.9311464,40.562914 31.6415246,38.2976774 C32.3531251,36.0237586 34.7733666,34.7572493 37.0472854,35.4688498 C39.3212042,36.1804503 40.5877135,38.6006918 39.876113,40.8746106 L39.8688642,40.8673619 Z" id="Path" fill="#000000" fill-rule="nonzero" opacity="0.25"></path>
                    <path d="M55.4210731,53.5526872 C55.1057522,55.9157821 49.9083932,62.1895816 49.9083932,62.1895816 C49.9083932,62.1895816 46.5558429,54.7668541 46.8711638,52.4037592 C47.1884316,50.0427669 49.3595903,48.3860008 51.7205825,48.7032686 C54.0815748,49.0205363 55.7383409,51.191695 55.4210731,53.5526872 Z" id="Path" fill="#000000" fill-rule="nonzero" opacity="0.25"></path>
                    <path d="M55.276098,70.0399858 C55.276098,70.0399858 53.3189335,49.8666941 41.6665561,39.1385332 C36.7485719,34.6702923 33.4127123,28.7272989 32.1598108,22.2018117 C31.58998,19.0992707 31.3060879,15.9509801 31.3116244,12.796549" id="Path" stroke="#535461" stroke-width="2"></path>
                    <path d="M24.0085831,5.98996582 C24.8965559,8.20083681 31.482052,12.9958898 31.482052,12.9958898 C31.482052,12.9958898 32.899184,4.97513979 32.0075869,2.7642688 C31.4483352,1.31080455 30.1489664,0.271711068 28.6081046,0.0457336587 C27.0672428,-0.18024375 25.5242287,0.441995759 24.5711837,1.67367185 C23.6181387,2.90534794 23.4030984,4.55514562 24.0085831,5.98996582 L24.0085831,5.98996582 Z" id="Path" fill="#15C872" fill-rule="nonzero"></path>
                    <path d="M22.3268714,20.8970353 C24.2767872,22.2670505 32.4062685,22.7092247 32.4062685,22.7092247 C32.4062685,22.7092247 29.2385616,15.2067608 27.2922702,13.8367457 C25.3436259,12.4655886 22.6523952,12.9337346 21.2812382,14.8823789 C19.9100812,16.8310232 20.3782271,19.5222539 22.3268714,20.8934109 L22.3268714,20.8970353 Z" id="Path" fill="#15C872" fill-rule="nonzero"></path>
                    <path d="M31.0471265,41.6973446 C33.4210946,41.8966854 40.6662275,38.1744485 40.6662275,38.1744485 C40.6662275,38.1744485 34.1423459,33.2996592 31.7683779,33.1003183 C29.3943746,32.9001494 27.3075958,34.6623903 27.1074269,37.0363936 C26.907258,39.4103968 28.6694989,41.4971757 31.0435021,41.6973446 L31.0471265,41.6973446 Z" id="Path" fill="#15C872" fill-rule="nonzero"></path>
                    <path d="M41.1881381,55.9484015 C43.4932429,56.546424 51.2639108,54.1035928 51.2639108,54.1035928 C51.2639108,54.1035928 45.656997,48.1958555 43.3518921,47.5797112 C41.8328795,47.1004488 40.1733781,47.497402 39.0356548,48.6121564 C37.8979314,49.7269108 37.4672197,51.3779723 37.9154062,52.9064423 C38.3635928,54.4349123 39.617708,55.5919394 41.1772649,55.9157821 L41.1881381,55.9484015 Z" id="Path" fill="#15C872" fill-rule="nonzero"></path>
                    <path d="M40.9851729,19.755356 C40.0210881,21.9299833 33.2797438,26.5039491 33.2797438,26.5039491 C33.2797438,26.5039491 32.1308158,18.443331 33.0949005,16.2650794 C34.0587138,14.0862408 36.6063365,13.1012682 38.785175,14.0650815 C40.9640136,15.0288948 41.9489862,17.5765175 40.9851729,19.755356 L40.9851729,19.755356 Z" id="Path" fill="#15C872" fill-rule="nonzero"></path>
                    <path d="M52.6303016,36.5760975 C51.0573212,38.3629162 43.2576583,40.7078892 43.2576583,40.7078892 C43.2576583,40.7078892 44.5733078,32.6726417 46.1571612,30.8821986 C47.1742783,29.7239411 48.7320562,29.1962926 50.2436952,29.4980131 C51.7553341,29.7997336 52.99118,30.8849846 53.4857019,32.3449626 C53.9802237,33.8049405 53.6582918,35.41784 52.6411747,36.5760975 L52.6303016,36.5760975 Z" id="Path" fill="#15C872" fill-rule="nonzero"></path>
                    <path d="M61.7093702,54.4732794 C60.4625839,56.5029315 53.170334,60.1345589 53.170334,60.1345589 C53.170334,60.1345589 53.1087195,51.99058 54.3555058,49.9573036 C55.6340936,48.0019017 58.2363587,47.4186422 60.2272481,48.6412387 C62.2181376,49.8638352 62.8749911,52.4485051 61.7093702,54.4732794 L61.7093702,54.4732794 Z" id="Path" fill="#15C872" fill-rule="nonzero"></path>
                </g>
                <path d="M299.558522,216.339905 C300.627714,218.514532 293.063636,220.852256 283.694617,221.526391 C275.300556,222.131662 268.399739,221.145831 267.526263,219.377134 C266.652788,217.608438 271.998747,215.462805 280.211589,214.495096 C289.377643,213.42228 298.489331,214.187024 299.558522,216.339905 Z" id="Path" fill="#15C872" fill-rule="nonzero" opacity="0.1"></path>
                <polygon id="Path" fill="#FFFFFF" fill-rule="nonzero" points="79.2832836 101.320248 194.74874 60.426383 194.74874 201.70104 79.2832836 199.294452"></polygon>
                <polygon id="Path" fill="#15C872" fill-rule="nonzero" opacity="0.2" points="194.74874 60.426383 194.74874 201.70104 79.2832836 199.294452 79.2832836 101.320248"></polygon>
                <polygon id="Path" fill="#FFFFFF" fill-rule="nonzero" points="0 124.650373 65.8730825 101.320248 65.8730825 199.294452 0 199.294452"></polygon>
                <polygon id="Path" fill="#15C872" fill-rule="nonzero" opacity="0.2" points="0 124.650373 65.8730825 101.320248 65.8730825 199.294452 0 199.294452"></polygon>
                <polygon id="Path" fill="#FFFFFF" fill-rule="nonzero" points="194.74874 60.426383 310.210571 101.320248 310.210571 199.294452 194.74874 201.70104"></polygon>
                <polygon id="Path" fill="#15C872" fill-rule="nonzero" opacity="0.5" points="194.74874 60.426383 310.210571 101.320248 310.210571 199.294452 194.74874 201.70104"></polygon>
                <polygon id="Path" fill="#FFFFFF" fill-rule="nonzero" points="390.686275 124.943948 323.98321 101.320248 323.98321 199.294452 390.686275 199.294452"></polygon>
                <polygon id="Path" fill="#15C872" fill-rule="nonzero" opacity="0.5" points="390.686275 124.943948 323.98321 101.320248 323.98321 199.294452 390.686275 199.294452"></polygon>
                <path d="M46.9744046,140.605487 L44.5457378,138.089484 L43.4987759,137 L42.5230358,138.167864 L40.9205431,140.08034 C37.1334136,140.523345 35.2351007,140.74746 35.2256044,140.752686 C35.2161082,140.74746 30.0564402,141.255766 19.7466006,142.277604 C17.7808761,142.277604 16.1838363,143.909552 16.1838363,146.072844 L16,169.080993 C16,171.244285 17.5697808,171.534919 19.5355053,171.534919 L42.3521033,173 C44.3178277,173 45.9131983,171.244285 45.9131983,169.080993 L45.9131983,144.171783 L47.0527487,142.807969 L48,141.663619 L46.9744046,140.605487 Z M23.4426886,168.297191 C20.7932339,168.297191 18.9770755,166.745265 18.848876,164.378184 L20.6650345,164.378184 C20.8573336,165.663619 21.9541509,166.431744 23.5780102,166.431744 C25.066548,166.431744 26.1633652,165.5774 26.1633652,164.35467 C26.1633652,163.280862 25.5152459,162.708687 23.8985088,162.277596 L22.3458714,161.854344 C20.2092143,161.282169 19.1693746,160.059438 19.1693746,158.131287 C19.1693746,155.764206 20.9214333,154.188766 23.5780102,154.188766 C26.0351658,154.188766 27.8513243,155.764206 27.915424,158.052907 L26.0992655,158.052907 C25.9069664,156.838014 24.9383485,156.054213 23.5139105,156.054213 C22.0182506,156.054213 21.0496328,156.838014 21.0496328,158.052907 C21.0496328,159.056172 21.6977521,159.557805 23.2503895,159.988896 L24.6107278,160.349445 C27.0750056,160.992162 28.1077231,162.136512 28.1077231,164.143044 C28.1077231,166.72175 26.2915647,168.297191 23.4426886,168.297191 Z M38.7910082,163.594383 L32.1103939,163.594383 L32.1103939,163.696277 C32.1816158,165.357936 33.1787225,166.635532 34.6530158,166.635532 C35.7213443,166.635532 36.5190296,166.220118 36.8537725,165.45983 L38.6556866,165.45983 C38.256844,167.254735 36.7184509,168.297191 34.5817939,168.297191 C31.9109726,168.297191 30.2443801,166.353364 30.2443801,163.233834 C30.2443801,160.114304 31.9109726,158.107773 34.5817939,158.107773 C37.1885155,158.107773 38.7910082,159.981058 38.7910082,163.030046 L38.7910082,163.594383 Z M34.3253951,155.756368 L26.6832851,147.761594 L28.9837525,145.096669 L34.1900734,150.426519 L43.5699978,139.225996 L45.9986646,141.741999 L34.3253951,155.756368 Z M34.5817939,159.714566 C33.2641887,159.714566 32.3596706,160.639451 32.2029824,162.02678 L36.8965057,162.02678 C36.7540619,160.584585 35.9065213,159.714566 34.5817939,159.714566 Z" id="Shape" fill="#FFFFFF" fill-rule="nonzero" transform="translate(32.000000, 155.000000) rotate(-3.000000) translate(-32.000000, -155.000000) "></path>
                <path d="M200.649228,181.136315 C200.649228,181.136315 202.798485,183.948833 199.656148,188.19298 C196.513812,192.437128 193.918757,196.025263 194.969827,198.66381 C194.969827,198.66381 199.710514,190.780787 203.566853,190.690177 C207.423192,190.599568 204.889751,185.877002 200.649228,181.136315 Z" id="Path" fill="#15C872" fill-rule="nonzero"></path>
                <path d="M200.649228,181.136315 C200.83582,181.409273 200.983425,181.706923 201.087778,182.020663 C204.849883,186.442405 206.854164,190.566948 203.237034,190.672055 C199.866362,190.769913 195.82518,196.793631 194.857471,198.31587 C194.887212,198.438939 194.924739,198.559996 194.969827,198.678308 C194.969827,198.678308 199.710514,190.795284 203.566853,190.704675 C207.423192,190.614065 204.889751,185.877002 200.649228,181.136315 Z" id="Path" fill="#000000" fill-rule="nonzero" opacity="0.1"></path>
                <path d="M204.643293,184.720825 C204.643293,185.710281 204.530938,186.511269 204.393211,186.511269 C204.255485,186.511269 204.146753,185.710281 204.146753,184.720825 C204.146753,183.73137 204.28448,184.195291 204.422206,184.195291 C204.559933,184.195291 204.643293,183.73137 204.643293,184.720825 Z" id="Path" fill="#FFD037" fill-rule="nonzero"></path>
                <path d="M206.013309,185.902373 C205.147082,186.373542 204.389587,186.659868 204.324348,186.540264 C204.259109,186.420659 204.907873,185.938617 205.7741,185.45295 C206.640326,184.967283 206.299634,185.326097 206.364873,185.45295 C206.430112,185.579803 206.883159,185.427579 206.013309,185.902373 Z" id="Path" fill="#FFD037" fill-rule="nonzero"></path>
                <path d="M189.29405,181.136315 C189.29405,181.136315 187.144793,183.948833 190.287129,188.19298 C193.429466,192.437128 196.017272,196.025263 194.969827,198.66381 C194.969827,198.66381 190.232764,190.780787 186.3728,190.690177 C182.512837,190.599568 185.049902,185.877002 189.29405,181.136315 Z" id="Path" fill="#15C872" fill-rule="nonzero"></path>
                <path d="M189.29405,181.136315 C189.107458,181.409273 188.959853,181.706923 188.8555,182.020663 C185.08977,186.442405 183.085489,190.566948 186.706243,190.672055 C190.073291,190.769913 194.118098,196.793631 195.085807,198.31587 C195.054825,198.439006 195.016088,198.560061 194.969827,198.678308 C194.969827,198.678308 190.232764,190.795284 186.3728,190.704675 C182.512837,190.614065 185.049902,185.877002 189.29405,181.136315 Z" id="Path" fill="#000000" fill-rule="nonzero" opacity="0.1"></path>
                <path d="M185.299984,184.720825 C185.299984,185.710281 185.408716,186.511269 185.546442,186.511269 C185.684168,186.511269 185.796524,185.710281 185.796524,184.720825 C185.796524,183.73137 185.655173,184.195291 185.521071,184.195291 C185.386969,184.195291 185.299984,183.73137 185.299984,184.720825 Z" id="Path" fill="#FFD037" fill-rule="nonzero"></path>
                <path d="M183.926345,185.902373 C184.796196,186.373542 185.553691,186.659868 185.61893,186.540264 C185.684168,186.420659 185.035405,185.938617 184.169178,185.45295 C183.302952,184.967283 183.643643,185.326097 183.578404,185.45295 C183.513166,185.579803 183.045621,185.427579 183.926345,185.902373 Z" id="Path" fill="#FFD037" fill-rule="nonzero"></path>
                <ellipse id="Oval" fill="#15C872" fill-rule="nonzero" opacity="0.1" cx="194.969827" cy="216.71684" rx="22.4711478" ry="3.44678412"></ellipse>
                <path d="M206.538843,194.876334 L206.430112,195.753434 L206.277888,196.992972 L206.216274,197.507633 L206.06405,198.750795 L205.998811,199.265457 L205.850211,200.504995 L204.128632,214.603828 C203.976408,215.861487 201.921385,216.843694 199.438686,216.843694 L190.504592,216.843694 C188.021893,216.843694 185.970494,215.861487 185.814646,214.603828 L184.093066,200.504995 L183.940842,199.265457 L183.879228,198.750795 L183.727004,197.507633 L183.661765,196.992972 L183.513166,195.753434 L183.404434,194.876334 C183.317449,194.151459 184.430133,193.560685 185.836392,193.560685 L204.11051,193.560685 C205.516769,193.560685 206.625829,194.162332 206.538843,194.876334 Z" id="Path" fill="#444053" fill-rule="nonzero"></path>
                <polygon id="Path" fill="#9D9CB5" fill-rule="nonzero" points="206.430112 195.753434 206.277888 196.992972 183.661765 196.992972 183.513166 195.753434"></polygon>
                <polygon id="Path" fill="#9D9CB5" fill-rule="nonzero" points="206.216274 197.511258 206.06405 198.750795 183.879228 198.750795 183.727004 197.511258"></polygon>
                <polygon id="Path" fill="#9D9CB5" fill-rule="nonzero" points="205.998811 199.269081 205.850211 200.508619 184.093066 200.508619 183.940842 199.269081"></polygon>
                <path d="M117.445163,126.615532 C115.254583,126.615532 113.030656,127.567563 112.66019,128.088179 C112.563547,128.303606 112.339431,130.044695 112.870968,130.044695 C113.048148,130.044695 113.129439,130.079056 113.644869,129.809772 C115.577734,128.966015 116.802385,128.985792 116.979564,128.985792 C119.154036,128.752412 120.410021,130.404862 120.216734,132.541182 L120.216734,133.796438 C118.380513,133.311727 117.331405,133.295037 116.815975,133.295037 C114.142179,133.115514 111.672366,134.68673 111.672366,138.140746 C111.672366,141.928671 114.705805,142.738767 115.881631,142.684912 C117.637316,142.702865 119.312969,141.823062 120.424366,140.297119 C121.310262,142.505248 121.874266,142.358826 121.890373,142.358826 C122.051445,142.358826 122.179925,142.287297 122.308783,142.197535 L123.227397,141.478743 C123.388469,141.371031 123.516445,141.19277 123.532553,140.977343 C123.516445,140.456728 122.678494,139.648876 122.742923,137.835697 L122.742923,132.236133 C122.839566,130.692239 122.390452,129.181443 121.456234,128.014546 C120.344837,126.973315 118.878704,126.471914 117.445163,126.615532 Z M149.397717,126.207161 C146.166429,126.207161 144.309828,128.444302 144.358297,130.718089 C144.358297,133.833356 147.200189,134.820864 147.523318,134.928287 C150.253756,135.87719 150.626364,135.911599 151.385717,136.627753 C152.031975,137.36181 151.950814,138.795096 150.997584,139.421731 C150.722925,139.600769 149.542241,140.387139 146.876429,139.778409 C145.987825,139.581467 145.520803,139.349276 144.793763,139.009103 C144.599886,138.937487 144.146874,138.811742 144.146874,139.474183 L144.146874,140.35189 C144.146874,140.763679 144.372434,141.137981 144.711719,141.31702 C146.408146,142.265923 148.443983,142.303129 148.880207,142.303129 C148.944833,142.303129 152.659804,142.305312 153.90385,139.526636 C154.160738,138.953714 154.826029,136.862041 153.581983,135.071659 C152.547971,133.728871 151.659241,133.585499 149.009585,132.690307 C148.783394,132.618692 146.828717,132.061575 146.844874,130.539751 C146.747935,128.588232 149.139846,128.482766 149.640695,128.518574 C151.66025,128.482766 152.660308,129.32159 153.209627,129.375301 C153.451974,129.375301 153.566205,129.215844 153.566205,128.857768 L153.566205,128.032514 C153.582361,127.835571 153.517989,127.641147 153.42105,127.480012 C152.774793,126.549013 150.302478,126.207161 149.397717,126.207161 Z M124.795619,126.880784 C124.618993,126.916672 124.490664,127.114481 124.522777,127.311869 C124.554891,127.545145 124.586754,127.779543 124.667039,128.01282 L128.264147,141.271312 C128.344432,141.701976 128.599083,142.170211 129.161073,142.098433 L130.478235,142.098433 C131.281077,142.188155 131.393601,141.325986 131.409657,141.236265 L133.771144,130.182263 L136.163989,141.253787 C136.180046,141.343509 136.292945,142.20568 137.07973,142.115958 L138.412574,142.115958 C138.99062,142.187735 139.263713,141.719499 139.343998,141.288834 C143.390322,126.735967 143.115975,127.72529 143.148089,127.581735 C143.212316,126.828072 142.826576,126.880363 142.762349,126.898307 L141.332286,126.898307 C140.609728,126.808586 140.467474,127.545987 140.43536,127.72543 L137.769674,139.228039 L135.361147,127.72543 C135.248749,126.846157 134.605973,126.880363 134.445404,126.898307 L133.209781,126.898307 C132.503279,126.82653 132.326529,127.456265 132.278358,127.72543 L129.885513,139.06682 L127.317044,127.72543 C127.252817,127.366543 127.043199,126.809006 126.416982,126.880784 L124.795619,126.880784 Z M117.750325,135.101801 C118.918604,135.119779 119.92703,135.315296 120.624752,135.495082 C120.624752,136.39401 120.654289,136.898253 120.475802,137.707288 C120.248636,138.570259 119.244647,140.136359 116.875637,140.172318 C115.512645,140.24423 114.620464,139.05568 114.701594,137.707288 C114.620464,135.549861 116.630725,135.011908 117.750325,135.101801 Z M154.122271,146.298757 C152.540761,146.321132 150.67401,146.681005 149.257493,147.690434 C148.820338,147.998512 148.896957,148.426261 149.38325,148.369464 C150.975984,148.174979 154.52109,147.738382 155.154795,148.561071 C155.790194,149.383761 154.452175,152.777837 153.86083,154.295855 C153.677835,154.748504 154.064714,154.93589 154.473064,154.591668 C157.123103,152.337018 157.811691,147.610564 157.269484,146.930727 C156.997531,146.590809 155.70378,146.276383 154.122271,146.298757 Z M108.997619,147.864437 C108.63972,147.919497 108.485569,148.42676 108.859778,148.828693 C115.288626,155.571625 123.783574,158.872717 133.215943,158.872717 C139.943502,158.872717 147.753605,156.418132 153.145171,151.793149 C154.03638,151.024154 153.277191,149.871895 152.363005,150.327052 C146.318214,153.309432 139.752781,154.746853 133.776923,154.746853 C124.92064,154.746853 116.347142,152.679289 109.411142,147.982729 C109.259325,147.879951 109.116919,147.846084 108.997619,147.864437 Z" id="Shape" fill="#FFFFFF" fill-rule="nonzero" transform="translate(133.042521, 142.539939) rotate(-7.000000) translate(-133.042521, -142.539939) "></path>
                <path d="M273.825434,133.209185 C272.868598,122.147581 265.369758,113.528808 256.247197,113.528808 C250.208982,113.528808 244.892019,117.294538 241.698941,123.046427 C240.718853,122.538146 239.631651,122.271005 238.52761,122.267185 C233.9174,122.267185 230.191539,127.341315 230.108178,133.060585 C225.396486,134.930764 222.294018,140.67178 222.294018,146.695498 C222.294018,154.078357 227.092695,160.59499 233.007681,160.59499 L271.948005,160.59499 C277.866616,160.59499 282.665293,154.071108 282.665293,146.695498 C282.665293,140.120875 278.845198,134.325493 273.825434,133.209185 L273.825434,133.209185 Z M265.029067,130.672119 L249.266644,150.424983 L249.266644,150.424983 C249.063678,150.675065 248.541768,151.23322 247.896629,151.23322 C247.337485,151.168137 246.834542,150.862401 246.519365,150.395988 L239.904874,142.150527 C239.71699,141.903072 239.71699,141.56075 239.904874,141.313295 L242.003389,138.696494 C242.079805,138.589314 242.201663,138.523699 242.333207,138.518899 C242.464902,138.523144 242.58699,138.588883 242.663026,138.696494 L247.900253,145.220375 L262.281788,127.145599 C262.359295,127.039664 262.4805,126.974399 262.611606,126.968004 C262.744243,126.968653 262.867872,127.035222 262.941424,127.145599 L265.003696,129.809517 C265.211883,130.051946 265.222455,130.406856 265.029067,130.661246 L265.029067,130.672119 Z" id="Shape" fill="#FFFFFF" fill-rule="nonzero" transform="translate(252.479655, 137.061899) rotate(2.000000) translate(-252.479655, -137.061899) "></path>
                <g id="Group-8" transform="translate(341.804280, 140.164696)" fill="#FFFFFF" fill-rule="nonzero">
                    <ellipse id="Oval" cx="27.4764148" cy="4.78055548" rx="3.58451051" ry="4.78055548"></ellipse>
                    <path d="M27.4764148,11.4059197 C27.0811575,11.4040722 26.6886155,11.3404829 26.3129892,11.217452 L22.7755956,16.0270025 C22.7145672,16.110019 22.7145672,16.2230632 22.7755956,16.3060797 L28.397007,24.2797128 C28.7773402,24.8318677 28.7773402,25.5614934 28.397007,26.1136484 C28.2358089,26.3343903 27.9815954,26.4681869 27.708375,26.4760863 C27.4360083,26.4687244 27.1826776,26.334687 27.0233674,26.1136484 L21.4237024,18.1400153 C21.3995282,18.1035713 21.3587038,18.0816619 21.314971,18.0816619 C21.2712383,18.0816619 21.2304138,18.1035713 21.2062397,18.1400153 L19.8398489,19.9956972 C18.6981696,21.5396825 17.1831793,21.3077223 15.5522089,21.3185954 C13.9212385,21.3294685 12.337385,20.4016276 11.1775838,18.835896 L9.86555877,17.0527017 C9.84138458,17.0162577 9.80056014,16.9943483 9.7568274,16.9943483 C9.71309466,16.9943483 9.67227023,17.0162577 9.64809604,17.0527017 L4.04843098,25.0263348 C3.88723295,25.2470767 3.63301944,25.3808733 3.35979904,25.3887726 C3.08743236,25.3814108 2.83410165,25.2473734 2.67479147,25.0263348 C2.29445826,24.4741798 2.29445826,23.7445541 2.67479147,23.1923992 L8.2962028,15.2187661 C8.34681501,15.1326245 8.34681501,15.0258305 8.2962028,14.9396889 L0.253706508,4.02306033 C0.155848283,3.8925827 0,3.98319217 0,4.16078672 L0,26.0085414 C0,27.7627407 1.0873136,29.1979946 2.38846555,29.1979946 L28.6724597,30.2853082 C29.9881092,30.2853082 31.0609253,28.8355568 31.0609253,27.095855 L31.0609253,9.36177013 C30.158455,10.6194295 28.8899225,11.4059197 27.4764148,11.4059197 Z" id="Path"></path>
                    <path d="M22.511016,4.78055548 C22.506629,3.68776179 22.7146586,2.60453038 23.123536,1.59110224 L2.38121679,0.503788636 C1.81168063,0.517856702 1.27460249,0.771915722 0.902470291,1.20329372 L12.6200866,17.1143161 C13.2689183,18.1007481 14.3575689,18.7093106 15.5377114,18.7452865 C16.625025,18.7452865 17.6833436,19.2563239 18.4589606,18.2016297 L24.4681805,10.0395289 C23.2757599,8.82536208 22.511016,6.92256328 22.511016,4.78055548 L22.511016,4.78055548 Z" id="Path"></path>
                </g>
                <path d="M393.556783,197.250303 C393.556783,197.250303 389.319885,196.996596 389.820049,199.961338 C389.764073,200.267638 389.909964,200.575468 390.182487,200.726082 C390.182487,200.726082 390.182487,200.504995 390.617412,200.581107 C390.769531,200.605712 390.923947,200.613008 391.077708,200.602853 C391.284782,200.586872 391.481461,200.505663 391.639487,200.370893 L391.639487,200.370893 C391.639487,200.370893 392.828283,199.877977 393.292204,197.931686 C393.292204,197.931686 393.63652,197.507633 393.622022,197.398902 L392.897146,197.70335 C393.033749,198.000743 393.051894,198.339014 392.947888,198.649313 C392.947888,198.649313 392.926141,197.721472 392.788415,197.743218 C392.75942,197.743218 392.425977,197.924437 392.425977,197.924437 C392.425977,197.924437 392.846405,198.819659 392.531084,199.472047 C392.531084,199.472047 392.650689,198.384733 392.295499,197.989676 L391.791711,198.28325 C391.791711,198.28325 392.284626,199.207467 391.951184,199.964962 C391.951184,199.964962 392.038169,198.805161 391.686604,198.352114 L391.229932,198.714552 C391.229932,198.714552 391.693853,199.631519 391.411151,200.258537 C391.411151,200.258537 391.374907,198.906644 391.132074,198.808785 C390.959108,198.955056 390.804545,199.12179 390.671778,199.305325 C390.671778,199.305325 390.987099,199.968587 390.791382,200.316527 C390.791382,200.316527 390.671778,199.417681 390.57392,199.414057 C390.366187,199.718309 390.217427,200.058859 390.13537,200.418009 C390.155778,200.040098 390.274461,199.674055 390.479686,199.356067 C390.250226,199.399291 390.038505,199.508932 389.87079,199.671387 C389.87079,199.671387 389.932405,199.25096 390.595666,199.211091 C390.715074,199.036674 390.853666,198.876198 391.008845,198.732673 C390.661183,198.702735 390.311056,198.743419 389.979522,198.852278 C389.979522,198.852278 390.341959,198.453596 391.12845,198.634815 L391.577873,198.272377 C391.179414,198.207309 390.773038,198.207309 390.374579,198.272377 C390.374579,198.272377 390.787758,197.909939 391.697477,198.178143 L392.190393,197.884569 C391.813371,197.801494 391.427211,197.767385 391.041464,197.783086 C391.458823,197.626856 391.919886,197.634626 392.331743,197.804832 L392.694181,197.648984 C392.694181,197.648984 392.165022,197.543877 392.012798,197.52938 C391.860574,197.514882 391.849701,197.467765 391.849701,197.467765 C392.183569,197.413242 392.526013,197.452127 392.839156,197.580121 C393.087531,197.491333 393.327657,197.380972 393.556783,197.250303 Z" id="Path" fill="#15C872" fill-rule="nonzero"></path>
                <ellipse id="Oval" fill="#15C872" fill-rule="nonzero" opacity="0.1" cx="390.639158" cy="200.983413" rx="2.99736117" ry="1"></ellipse>
                <path d="M328.30347,197.373531 C328.30347,197.373531 323.193096,197.065459 323.794742,200.635472 C323.730625,201.008044 323.913466,201.379576 324.24779,201.556064 C324.24779,201.556064 324.24779,201.291485 324.773325,201.382094 C324.956437,201.41318 325.142669,201.421701 325.327855,201.407465 C325.579387,201.391445 325.818734,201.293414 326.009238,201.128388 L326.009238,201.128388 C326.009238,201.128388 327.458989,200.53399 328.002646,198.185392 C328.002646,198.185392 328.41945,197.674355 328.401328,197.540253 L327.538726,197.902691 C327.703287,198.260392 327.72532,198.667368 327.60034,199.040746 C327.60034,199.040746 327.574969,197.924437 327.408248,197.953432 C327.375629,197.953432 326.958825,198.16727 326.958825,198.16727 C326.958825,198.16727 327.466238,199.254584 327.085678,200.041074 C327.085678,200.041074 327.230653,198.703678 326.799352,198.228885 L326.194081,198.591323 C326.194081,198.591323 326.784855,199.711256 326.386173,200.628223 C326.386173,200.628223 326.487656,199.225589 326.067228,198.678308 L325.516322,199.109609 C325.516322,199.109609 326.074477,200.196922 325.733785,200.968915 C325.733785,200.968915 325.690293,199.337945 325.396718,199.214716 C325.18805,199.390562 325.001808,199.591412 324.842188,199.812738 C324.842188,199.812738 325.204626,200.613726 324.987163,201.037778 C324.987163,201.037778 324.842188,199.950465 324.722583,199.950465 C324.473117,200.319249 324.293736,200.730842 324.193424,201.164632 C324.217415,200.708335 324.359813,200.266149 324.606603,199.881601 C324.335436,199.931048 324.083985,200.056774 323.881728,200.244039 C323.881728,200.244039 323.957839,199.733002 324.737081,199.689509 C324.881004,199.477662 325.048829,199.283081 325.237245,199.109609 C324.817321,199.073586 324.39445,199.1229 323.994083,199.254584 C323.994083,199.254584 324.407262,198.772542 325.378596,198.990004 L325.922253,198.54783 C325.442135,198.470009 324.952619,198.470009 324.472501,198.54783 C324.472501,198.54783 324.969041,198.123778 326.070852,198.43185 L326.661626,198.069412 C326.206169,197.968787 325.739445,197.928573 325.273489,197.949808 C325.273489,197.949808 325.82077,197.652609 326.835596,197.971554 L327.256024,197.783086 C327.256024,197.783086 326.621758,197.659857 326.43329,197.638111 C326.244822,197.616365 326.237574,197.565623 326.237574,197.565623 C326.640995,197.499242 327.054915,197.545651 327.433619,197.699725 C327.732816,197.617458 328.023953,197.508281 328.30347,197.373531 L328.30347,197.373531 Z" id="Path" fill="#15C872" fill-rule="nonzero"></path>
                <ellipse id="Oval" fill="#15C872" fill-rule="nonzero" opacity="0.1" cx="324.784198" cy="201.882258" rx="3.61712992" ry="1"></ellipse>
                <path d="M296.242216,161.644406 C296.242216,161.644406 296.659019,161.2421 296.521293,160.970272 C296.439802,160.799484 296.439802,160.601028 296.521293,160.43024 C296.521293,160.43024 295.586203,156.75512 295.238263,156.385433 C295.009833,156.116125 294.834022,155.806306 294.719977,155.472089 C294.756263,155.400315 294.773723,155.320499 294.770718,155.240129 C294.755305,154.869657 294.629044,154.51234 294.40828,154.21443 C294.136418,153.812472 293.986631,153.340454 293.976979,152.855288 C293.973346,152.794936 293.973346,152.734421 293.976979,152.674069 L293.976979,152.674069 L293.976979,152.674069 C293.765973,152.12049 293.297703,151.705002 292.722944,151.561385 C292.842549,150.782143 293.005646,150.002902 293.056387,149.220036 C293.219484,146.766332 292.30614,144.385115 291.407295,142.087259 C291.21097,141.517673 290.946914,140.973742 290.620804,140.467162 C289.807838,139.39624 288.576075,138.72365 287.235635,138.618729 C286.747884,138.557579 286.252636,138.605865 285.785883,138.760079 C285.325055,138.967019 284.902346,139.25005 284.535473,139.597311 C284.147664,139.923505 283.759856,140.256948 283.401042,140.612137 L283.35755,140.655629 L283.230696,140.789731 L283.179955,140.840473 L283.06035,140.974575 L283.016858,141.021692 C282.966117,141.083306 282.911751,141.144921 282.86101,141.210159 L282.86101,141.210159 C282.813893,141.271774 282.766776,141.329764 282.723283,141.391378 L282.679791,141.452993 L282.585557,141.587095 L282.542064,141.655958 C282.509445,141.703075 282.484074,141.750192 282.455079,141.797309 L282.415211,141.862548 C282.378967,141.931411 282.339099,142.000274 282.302855,142.072762 L282.172378,142.362712 L282.172378,142.40258 L282.096266,142.594672 C281.998408,142.826632 281.904174,143.058593 281.784569,143.27968 L281.784569,143.27968 L281.762823,143.315923 L281.501868,143.631244 C281.38279,143.787837 281.283005,143.958201 281.204669,144.138657 L281.179298,144.196647 C281.179298,144.222018 281.161176,144.251013 281.150303,144.276384 L281.124932,144.341623 C281.118155,144.369893 281.109682,144.39773 281.099562,144.424983 C281.099562,144.44673 281.099562,144.468476 281.099562,144.493846 L281.077815,144.573583 C281.077815,144.598953 281.077815,144.6207 281.077815,144.64607 C281.077815,144.671441 281.077815,144.700436 281.059693,144.725807 L281.059693,144.801919 L281.059693,144.881655 C281.059693,144.91065 281.059693,144.939645 281.059693,144.972264 C281.059693,145.004884 281.059693,145.015757 281.059693,145.033879 C281.059693,145.052001 281.059693,145.135362 281.059693,145.186103 C281.059693,145.236844 281.059693,145.225971 281.059693,145.247717 C281.057887,145.280312 281.057887,145.312981 281.059693,145.345575 C281.057911,145.367285 281.057911,145.389105 281.059693,145.410814 C281.057903,145.440991 281.057903,145.471247 281.059693,145.501424 L281.059693,145.566663 C281.059693,145.599282 281.059693,145.628277 281.059693,145.657272 C281.058004,145.678985 281.058004,145.700797 281.059693,145.722511 L281.08144,145.816745 C281.08144,145.816745 281.08144,145.856613 281.08144,145.874735 L281.114059,145.976217 C281.114059,145.976217 281.114059,146.008837 281.132181,146.023334 C281.150303,146.037832 281.168425,146.124817 281.190171,146.171934 C281.301536,146.414776 281.437561,146.645532 281.596101,146.860566 C281.701208,147.005541 281.80994,147.146892 281.918671,147.291867 L282.074519,147.50933 C282.180079,147.653709 282.27574,147.805071 282.360845,147.962377 C282.878615,148.950352 282.835891,150.138362 282.24849,151.086591 L282.118012,151.285932 C282.046433,151.396485 281.996042,151.519388 281.969412,151.64837 C281.94367,151.8753 282.01925,152.102041 282.176002,152.268139 L281.853432,152.351499 C281.588853,152.423987 281.407634,152.481977 281.407634,152.481977 C281.18818,152.462645 280.967451,152.462645 280.747997,152.481977 C280.443312,152.578184 280.169479,152.753237 279.954258,152.98939 C279.954258,152.98939 278.569745,153.156112 278.116698,152.753805 C277.663651,152.351499 276.076173,152.213773 276.076173,152.213773 C276.076173,152.213773 275.62675,151.336673 275.141083,151.064845 C274.655416,150.793017 273.481118,150.289228 273.444874,150.021024 C273.343814,149.737151 273.191479,149.474251 272.995451,149.245407 C272.756995,149.194303 272.514352,149.165186 272.270575,149.158422 L272.194463,149.027944 L271.226754,147.357106 C271.226754,147.357106 270.012587,145.939974 269.356575,145.805872 C268.700562,145.67177 270.280791,147.309989 270.356903,147.386101 C269.890346,147.05252 269.241814,147.159528 268.907152,147.62531 C268.39249,148.197961 269.758881,149.542606 270.606985,150.285604 L270.744712,150.405208 C270.750775,150.479534 270.761671,150.553386 270.777331,150.626295 C271.157891,152.616079 273.267279,154.337659 273.267279,154.337659 C273.267279,154.337659 273.510113,155.450343 274.307476,155.722172 C274.941742,155.93601 278.348658,157.479995 280.124604,157.788067 C279.976004,158.172252 279.802034,159.063849 280.537783,160.375874 C280.537783,160.375874 280.711753,162.702725 280.331193,163.007173 C279.950634,163.311621 279.968755,166.682293 279.968755,166.682293 C279.968755,166.682293 278.519004,172.550162 279.968755,173.796948 C280.060686,173.875869 280.164703,173.939503 280.276828,173.985416 C280.276828,174.076025 280.302198,174.170259 280.313071,174.268117 C280.37831,174.855267 280.400057,175.464162 280.244208,175.717869 C279.88177,176.290521 280.363813,177.841755 280.363813,177.841755 C280.363813,177.841755 278.964803,185.768271 279.588196,188.566291 C279.981763,190.657005 280.166308,192.781693 280.139101,194.908954 C280.139101,194.908954 279.932512,197.369907 281.005328,198.855902 C281.123245,199.207278 281.192748,199.573078 281.211917,199.943216 C281.282296,200.654093 281.469664,201.348455 281.766447,201.998239 C282.009281,202.469408 282.491323,204.462816 282.078144,204.999224 C281.664965,205.535632 282.527567,211.41075 282.527567,211.41075 C282.527567,211.41075 281.83531,213.222939 282.527567,214.176151 L282.549313,214.201522 C282.138739,214.196684 281.730559,214.138198 281.335146,214.027551 C280.559529,213.766596 281.13943,214.752427 282.060022,215.426562 C281.657716,216.339905 281.10681,217.564945 280.921967,217.963627 C280.120979,218.101353 278.533502,218.326065 277.602036,218.104977 C276.322631,217.804154 278.156566,219.859177 279.885395,220.232488 C281.106137,220.460496 282.348654,220.550463 283.58951,220.500692 L284.705818,219.268403 C285.607762,219.389504 286.51927,219.423488 287.427727,219.369886 L287.329869,220.515189 L287.985881,220.515189 L287.985881,219.326393 C288.39906,219.286525 288.826737,219.232159 289.268911,219.152423 C289.268911,219.152423 289.294282,217.898388 289.214545,216.713216 L289.616852,216.74946 L289.678466,216.093447 L291.102847,216.350778 L292.382252,205.84008 C292.382252,205.84008 292.523603,201.929375 292.8353,199.736626 C293.146996,197.543877 292.175663,190.190013 292.175663,190.190013 C292.175663,190.190013 292.1068,189.827575 292.037936,189.146192 C291.969073,188.464809 292.037936,184.488865 292.037936,184.488865 C292.037936,184.488865 292.556223,182.314238 292.45474,182.129395 C292.353257,181.944551 292.487359,181.01671 292.487359,181.01671 C294.661987,176.584095 291.987195,172.579157 291.05573,171.390361 C291.109443,171.340314 291.14188,171.271548 291.146339,171.198269 C291.151727,171.173184 291.151727,171.147241 291.146339,171.122157 C290.999569,170.74728 290.825117,170.383839 290.624429,170.034843 L291.168086,169.342587 C291.356553,169.614415 291.490655,169.81738 291.490655,169.81738 C291.490655,169.81738 292.077805,168.501731 292.668578,168.005191 C293.259352,167.508651 296.093616,162.778837 296.093616,162.778837 C296.093616,162.778837 296.753253,162.336663 296.405313,161.966976 C296.057372,161.597289 296.242216,161.644406 296.242216,161.644406 Z M287.521961,198.946512 C287.475545,198.793549 287.390691,198.655038 287.275503,198.544206 C287.275503,198.544206 287.17402,197.81933 287.137776,196.887865 C287.344366,197.61274 287.55458,198.138275 287.55458,198.138275 L287.521961,198.946512 Z M289.152931,216.187681 C289.152931,216.122442 289.152931,216.057204 289.152931,215.995589 L289.203672,215.995589 L289.152931,216.187681 Z M289.580608,168.208156 L289.580608,168.164664 C289.564974,167.975547 289.650424,167.792243 289.805319,167.682621 C289.886157,167.632686 289.932316,167.541766 289.924924,167.447037 C289.908079,167.294474 289.850492,167.149254 289.758202,167.026609 C289.827065,167.07735 290.040904,167.19333 290.185879,166.772902 C290.207592,166.70744 290.218606,166.638906 290.218498,166.569937 C290.183915,166.218555 290.04077,165.886662 289.808944,165.62035 L291.374675,162.322165 C291.54592,162.373111 291.720245,162.41306 291.896586,162.44177 L291.896586,162.44177 C291.487031,163.710302 291.149964,165.221668 291.149964,165.221668 L289.939421,167.885586 C290.021425,167.917392 290.093831,167.969824 290.149635,168.03781 L289.580608,168.208156 Z" id="Shape" fill="url(#linearGradient-1)" fill-rule="nonzero"></path>
                <path d="M284.372376,214.118161 C284.372376,214.118161 282.339099,214.368243 281.349644,214.027551 C280.360188,213.68686 281.654092,215.477303 282.991487,215.915853 C283.935437,216.192764 284.908563,216.358196 285.89099,216.408768 L287.460346,214.930022 L289.12756,215.060499 L288.83761,216.695094 L289.355896,216.742211 L289.555237,214.603828 L284.372376,214.118161 Z" id="Path" fill="#444053" fill-rule="nonzero"></path>
                <path d="M284.372376,214.118161 C284.372376,214.118161 282.339099,214.368243 281.349644,214.027551 C280.360188,213.68686 281.654092,215.477303 282.991487,215.915853 C283.935437,216.192764 284.908563,216.358196 285.89099,216.408768 L287.460346,214.930022 L289.12756,215.060499 L288.83761,216.695094 L289.355896,216.742211 L289.555237,214.603828 L284.372376,214.118161 Z" id="Path" fill="#000000" fill-rule="nonzero" opacity="0.1"></path>
                <path d="M281.436629,217.854895 C281.436629,217.854895 278.993798,218.387679 277.757884,218.086856 C276.521971,217.786032 278.294293,219.826557 279.965131,220.19262 C281.143093,220.420613 282.343603,220.510621 283.542393,220.460824 L285.282095,218.489162 L287.318995,218.456542 L287.152274,220.475321 L287.790165,220.475321 L287.790165,217.854895 L281.436629,217.854895 Z" id="Path" fill="#444053" fill-rule="nonzero"></path>
                <path d="M281.436629,217.854895 C281.436629,217.854895 278.993798,218.387679 277.757884,218.086856 C276.521971,217.786032 278.294293,219.826557 279.965131,220.19262 C281.143093,220.420613 282.343603,220.510621 283.542393,220.460824 L285.282095,218.489162 L287.318995,218.456542 L287.152274,220.475321 L287.790165,220.475321 L287.790165,217.854895 L281.436629,217.854895 Z" id="Path" fill="#000000" fill-rule="nonzero" opacity="0.1"></path>
                <path d="M290.461332,171.415731 C290.461332,171.415731 294.64024,176.062185 292.135795,181.310285 C292.135795,181.310285 292.001693,182.248999 292.099551,182.415721 C292.197409,182.582442 291.700869,184.757069 291.700869,184.757069 C291.700869,184.757069 291.632006,188.700393 291.700869,189.370903 C291.769732,190.041413 291.834971,190.403851 291.834971,190.403851 C291.834971,190.403851 292.770061,197.692477 292.469238,199.867104 C292.168414,202.041731 292.034312,205.919816 292.034312,205.919816 L290.798399,216.350778 L284.379624,215.147484 L287.279127,200.834813 L287.38061,198.297748 C287.38061,198.297748 286.177316,195.191655 286.7101,193.618675 C287.242883,192.045695 286.575998,172.021003 286.575998,172.021003 L290.461332,171.415731 Z" id="Path" fill="#444053" fill-rule="nonzero"></path>
                <path d="M290.461332,171.415731 C290.461332,171.415731 294.64024,176.062185 292.135795,181.310285 C292.135795,181.310285 292.001693,182.248999 292.099551,182.415721 C292.197409,182.582442 291.700869,184.757069 291.700869,184.757069 C291.700869,184.757069 291.632006,188.700393 291.700869,189.370903 C291.769732,190.041413 291.834971,190.403851 291.834971,190.403851 C291.834971,190.403851 292.770061,197.692477 292.469238,199.867104 C292.168414,202.041731 292.034312,205.919816 292.034312,205.919816 L290.798399,216.350778 L284.379624,215.147484 L287.279127,200.834813 L287.38061,198.297748 C287.38061,198.297748 286.177316,195.191655 286.7101,193.618675 C287.242883,192.045695 286.575998,172.021003 286.575998,172.021003 L290.461332,171.415731 Z" id="Path" fill="#000000" fill-rule="nonzero" opacity="0.02"></path>
                <path d="M287.387859,193.883255 C286.662983,195.285889 287.119655,198.69643 287.119655,198.69643 C288.087364,199.533661 287.55458,206.822287 287.55458,206.822287 C287.55458,206.822287 288.221466,214.00943 288.641894,214.846661 C289.062322,215.683892 289.004332,219.123428 289.004332,219.123428 C284.089674,220.025898 280.878475,218.086856 280.878475,218.086856 C280.878475,218.086856 282.451455,214.509594 282.484074,214.342872 C282.502196,214.248639 282.71241,214.502345 282.774025,214.578457 L282.484074,214.176151 C281.813564,213.241061 282.484074,211.436121 282.484074,211.436121 C282.484074,211.436121 281.646843,205.637115 282.049149,205.082585 C282.451455,204.528055 281.98391,202.574515 281.748325,202.10697 C281.460479,201.460234 281.279328,200.771129 281.211917,200.066445 C281.192579,199.702856 281.125559,199.343383 281.012577,198.997253 C279.976004,197.525755 280.175345,195.086548 280.175345,195.086548 C280.203058,192.979298 280.024614,190.874388 279.642561,188.801876 C279.040915,186.025602 280.392808,178.167949 280.392808,178.167949 C280.392808,178.167949 279.943385,176.631212 280.276828,176.062185 C280.429052,175.808478 280.407305,175.206831 280.342066,174.612433 C280.26233,173.887558 280.110106,173.213423 280.110106,173.213423 L289.239916,171.604199 C289.432008,171.923144 289.602354,172.231217 289.769075,172.528416 C292.788183,178.106334 290.751282,180.175855 290.751282,180.175855 L288.812239,186.127084 C288.812239,186.127084 288.123607,192.476996 287.387859,193.883255 Z" id="Path" fill="#444053" fill-rule="nonzero"></path>
                <path d="M272.930212,150.252984 L271.625436,151.340298 C271.625436,151.340298 271.368105,151.137333 271.027413,150.82926 C270.208304,150.104385 268.88903,148.75974 269.38557,148.194337 C269.536808,147.973659 269.771239,147.823923 270.035054,147.779498 C270.298869,147.735074 270.56941,147.799775 270.78458,147.958752 C270.712092,147.879016 269.197102,146.258919 269.820495,146.389397 C270.443888,146.519874 271.632684,147.926133 271.632684,147.926133 L272.567774,149.582474 L272.930212,150.252984 Z" id="Path" fill="#EFB7B9" fill-rule="nonzero"></path>
                <polygon id="Path" fill="#EFB7B9" fill-rule="nonzero" points="290.396093 168.309639 288.859356 168.777184 290.026406 170.814084 291.363802 169.078007"></polygon>
                <circle id="Oval" fill="#EFB7B9" fill-rule="nonzero" cx="286.786212" cy="144.772924" r="4.37824944"></circle>
                <path d="M284.209279,146.371275 C284.209279,146.371275 288.196095,152.688567 284.412244,153.224975 C280.628392,153.761383 289.486374,157.603224 289.486374,157.603224 L292.795432,154.261547 C292.795432,154.261547 289.352272,148.310317 289.895929,146.037832 C290.439585,143.765346 284.209279,146.371275 284.209279,146.371275 Z" id="Path" fill="#EFB7B9" fill-rule="nonzero"></path>
                <path d="M289.779949,172.528416 C288.897451,172.79781 287.997766,173.007292 287.087035,173.155433 C287.087035,173.155433 282.15788,175.33006 280.363813,174.605185 C280.284076,173.880309 280.131853,173.206174 280.131853,173.206174 L289.239916,171.604199 C289.442881,171.923144 289.620476,172.231217 289.779949,172.528416 Z" id="Path" fill="#000000" fill-rule="nonzero" opacity="0.1"></path>
                <path d="M294.314046,156.001249 L293.422449,157.846058 L292.418496,159.919202 L292.273521,160.216401 L291.0811,162.793334 L289.56611,166.055275 C289.56611,166.055275 290.102518,166.689542 289.928548,167.19333 C289.754578,167.697119 289.526242,167.45791 289.497247,167.428915 C289.522618,167.468783 289.859685,167.903708 289.558861,168.0958 C289.378051,168.252668 289.300957,168.497968 289.359521,168.730067 C289.359521,168.730067 290.595434,170.770592 290.831018,171.506341 C291.066603,172.24209 287.087035,172.876356 287.087035,172.876356 C287.087035,172.876356 281.436629,175.384426 280.03037,174.144888 C278.624111,172.905351 280.03037,167.091848 280.03037,167.091848 C280.03037,167.091848 280.03037,163.75017 280.392808,163.449347 C280.755246,163.148524 280.592149,160.839794 280.592149,160.839794 C279.624439,159.067473 280.291325,158.06352 280.291325,158.06352 L280.023121,153.518549 C280.023121,153.518549 280.458047,153.051005 280.791489,153.018385 C281.003577,152.996897 281.217293,152.996897 281.42938,153.018385 C281.42938,153.018385 281.60335,152.956771 281.860681,152.887907 C282.397089,152.735684 283.285062,152.52547 283.600383,152.681318 C284.067928,152.916903 287.079786,152.31888 287.079786,152.31888 C288.376027,152.128989 289.68143,152.008006 290.990491,151.956442 C291.43767,151.929899 291.886124,151.97891 292.317014,152.101417 C292.907759,152.234455 293.390007,152.659325 293.596419,153.228599 C293.546415,153.772152 293.688793,154.316012 293.998725,154.765336 C294.542382,155.635187 294.314046,156.001249 294.314046,156.001249 Z" id="Path" fill="#FF6484" fill-rule="nonzero"></path>
                <path d="M272.930212,150.252984 L271.625436,151.340298 C271.625436,151.340298 271.368105,151.137333 271.027413,150.82926 C270.922306,149.702079 271.882767,149.553479 272.560525,149.582474 L272.930212,150.252984 Z" id="Path" fill="#000000" fill-rule="nonzero" opacity="0.1"></path>
                <path d="M280.599397,153.496803 L280.03037,153.529423 C280.03037,153.529423 278.692974,153.696144 278.258049,153.293838 C277.823123,152.891532 276.286387,152.761054 276.286387,152.761054 C276.286387,152.761054 275.851461,151.891203 275.383916,151.622999 C274.916372,151.354795 273.778317,150.854631 273.745697,150.586427 C273.649195,150.305743 273.501754,150.045264 273.310772,149.818059 C273.310772,149.818059 270.802702,149.216412 271.172388,151.188074 C271.542075,153.159736 273.578976,154.866818 273.578976,154.866818 C273.578976,154.866818 273.81456,155.954132 274.582929,156.236833 C275.351297,156.519535 280.331193,158.846386 281.135805,158.244739 C281.940417,157.643092 280.599397,153.496803 280.599397,153.496803 Z" id="Path" fill="#FF6484" fill-rule="nonzero"></path>
                <path d="M294.005974,154.754463 C293.696042,154.305139 293.553663,153.761279 293.603668,153.217726 C293.397255,152.648451 292.915008,152.223582 292.324262,152.090544 C292.112598,152.027463 291.895334,151.984981 291.675499,151.963691 C292.257693,152.10079 292.731769,152.521738 292.936782,153.083624 C292.884251,153.627382 293.026853,154.172096 293.339088,154.620361 C293.871872,155.490211 293.639912,155.859898 293.639912,155.859898 L292.748315,157.701082 L291.740737,159.781476 L291.599387,160.078675 L290.406966,162.655608 L288.891976,165.917549 C288.891976,165.917549 289.424759,166.551815 289.254414,167.055604 C289.084068,167.559392 288.855732,167.320183 288.823113,167.291188 C288.852108,167.331057 289.18555,167.765982 288.888351,167.958074 C288.707663,168.115073 288.629412,168.359609 288.685386,168.59234 C288.685386,168.59234 289.924924,170.632866 290.156884,171.368614 C290.388844,172.104363 286.412901,172.73863 286.412901,172.73863 C286.412901,172.73863 282.487699,174.478331 280.367437,174.344229 C282.179626,175.050983 287.083411,172.872732 287.083411,172.872732 C287.083411,172.872732 291.070227,172.238465 290.827394,171.502716 C290.584561,170.766968 289.355896,168.726442 289.355896,168.726442 C289.297333,168.494343 289.374427,168.249044 289.555237,168.092176 C289.845187,167.900084 289.518993,167.465159 289.493623,167.42529 C289.522618,167.454285 289.769075,167.657251 289.924924,167.189706 C290.080772,166.722161 289.562486,166.051651 289.562486,166.051651 L291.077476,162.78971 L292.269897,160.212777 L292.414872,159.915578 L293.418825,157.842433 L294.310422,155.997624 C294.310422,155.997624 294.542382,155.624313 294.005974,154.754463 Z" id="Path" fill="#000000" fill-rule="nonzero" opacity="0.1"></path>
                <path d="M293.705151,155.501085 L294.306798,156.001249 C294.415944,156.332409 294.586892,156.639871 294.810586,156.907343 C295.144029,157.269781 296.046499,160.915906 296.046499,160.915906 C295.96912,161.086337 295.96912,161.281883 296.046499,161.452314 C296.180601,161.720518 295.778295,162.122824 295.778295,162.122824 C295.778295,162.122824 295.578954,162.053961 295.912397,162.423648 C296.24584,162.793334 295.611574,163.224635 295.611574,163.224635 C295.611574,163.224635 292.871544,167.903708 292.302516,168.407497 C291.733489,168.911286 291.164461,170.219686 291.164461,170.219686 C291.164461,170.219686 289.975665,168.349507 289.692963,168.313263 L290.863638,165.671091 C290.863638,165.671091 291.664625,161.995971 292.266272,161.321837 C292.867919,160.647702 291.965449,158.346222 291.965449,158.346222 L293.705151,155.501085 Z" id="Path" fill="#FF6484" fill-rule="nonzero"></path>
                <path d="M294.089335,162.318541 C293.589171,162.920188 292.704822,163.043417 291.914708,162.960056 C291.798727,162.960056 291.686372,162.931061 291.570392,162.909315 C291.400046,162.876695 291.2297,162.836827 291.062979,162.78971 C290.466048,162.617505 289.904134,162.341456 289.403013,161.974225 C289.297971,161.879079 289.174652,161.806321 289.040575,161.760387 C288.714318,161.72196 288.398774,161.891312 288.250461,162.184439 C288.080115,162.456267 288.000379,162.775213 287.826408,163.047041 C287.442052,163.5657 286.829965,163.865663 286.184565,163.851653 C285.547898,163.833964 284.918494,163.711512 284.321634,163.489215 C284.85555,162.920024 285.263139,162.244416 285.517679,161.50668 C285.626973,161.016921 285.658771,160.513049 285.611913,160.013436 C285.466938,157.646717 284.644204,155.153144 282.71241,153.77588 C282.378967,153.536671 281.987534,153.25397 281.864306,152.895156 C282.400714,152.742932 283.288686,152.532718 283.604007,152.688567 C284.071552,152.924151 287.083411,152.326129 287.083411,152.326129 C288.379652,152.136237 289.685055,152.015255 290.994115,151.963691 C291.441294,151.937148 291.889749,151.986159 292.320638,152.108666 C292.103912,153.091825 292.067073,154.106112 292.211907,155.102403 C292.3493,155.717223 292.571293,156.310019 292.871544,156.863851 C293.045514,157.193669 293.233981,157.523488 293.411576,157.853306 C293.922613,158.76665 294.40828,159.683618 294.49889,160.712941 C294.576066,161.281019 294.429187,161.856838 294.089335,162.318541 L294.089335,162.318541 Z" id="Path" fill="#000000" fill-rule="nonzero" opacity="0.1"></path>
                <path d="M287.478468,167.030233 C287.733558,166.962636 287.998361,166.939343 288.261334,166.96137 C288.481255,167.026866 288.682487,167.143631 288.848483,167.302062 L287.130528,167.302062 C286.688354,167.302062 286.021468,167.327432 285.680776,167.015736 C285.977975,166.714912 287.043543,167.080974 287.478468,167.030233 Z" id="Path" fill="#000000" fill-rule="nonzero" opacity="0.1"></path>
                <path d="M281.523614,144.258262 C280.992967,144.987614 280.880362,145.940642 281.226415,146.773581 C281.501868,147.422344 282.031027,147.926133 282.357221,148.549526 C282.855821,149.532545 282.814763,150.702716 282.24849,151.64837 C282.121338,151.812451 282.029974,152.001353 281.980286,152.2029 C281.900549,152.713937 282.429709,153.08 282.850137,153.377199 C284.778306,154.754463 285.60104,157.248035 285.749639,159.614754 C285.799528,160.114144 285.768935,160.618305 285.65903,161.107998 C285.40539,161.846155 284.997694,162.521943 284.462985,163.090533 C285.060268,163.311323 285.689422,163.433726 286.325916,163.452971 C286.971427,163.463711 287.58259,163.162851 287.967759,162.644735 C288.141729,162.376531 288.221466,162.057586 288.391812,161.782133 C288.539321,161.488223 288.855461,161.318552 289.181926,161.35808 C289.315511,161.405078 289.438629,161.477718 289.544364,161.571919 C290.281368,162.113817 291.147217,162.453659 292.056058,162.55775 C292.8353,162.648359 293.719648,162.517882 294.230686,161.916235 C294.571555,161.450859 294.718393,160.871303 294.64024,160.299762 C294.46627,158.273734 292.751939,156.675383 292.356882,154.689224 C292.034312,153.076375 292.614213,151.427283 292.71932,149.789064 C292.878792,147.36073 291.994444,144.994011 291.128217,142.721525 C290.936114,142.158088 290.680778,141.618236 290.367098,141.112301 C289.5925,140.065527 288.403149,139.404776 287.105157,139.300112 C286.630591,139.237444 286.147954,139.285832 285.695274,139.441463 C285.247708,139.646081 284.838324,139.925541 284.484731,140.267821 C283.658373,140.992697 282.806644,141.717572 282.310104,142.72515 C282.114388,143.13108 281.987534,143.566006 281.770072,143.957438" id="Path" fill="#925978" fill-rule="nonzero"></path>
                <g id="Group" opacity="0.1" transform="translate(281.024280, 141.094179)" fill="#000000" fill-rule="nonzero">
                    <path d="M1.28944894,2.27973419 C1.50328728,1.88467691 1.65188681,1.44975147 1.82585699,1.04744544 C2.01348733,0.670792831 2.24724228,0.318942943 2.52173769,0 C2.02180124,0.463731731 1.60608532,1.01066181 1.29307332,1.61647289 C1.10460563,2.01153017 0.977752376,2.43195809 0.771162791,2.81614223 L1.03574243,2.59143076 C0.968211417,2.68417914 0.906479221,2.78101396 0.850899122,2.88138105 C1.02056801,2.69905152 1.16779887,2.49706538 1.28944894,2.27973419 Z" id="Path"></path>
                    <path d="M11.5718113,20.8981675 C10.6629116,20.7918603 9.79731811,20.4508689 9.06011683,19.9087121 C8.95258561,19.8170007 8.82995328,19.7446477 8.69767896,19.6948737 C8.37120581,19.6603155 8.05714688,19.8303107 7.90756441,20.1225504 C7.8726015,20.1797947 7.84113276,20.2391012 7.81333056,20.300145 C7.92703444,20.248812 8.05472607,20.2373198 8.17576843,20.2675256 C8.30935344,20.3145231 8.43247148,20.3871627 8.5382063,20.4813639 C9.27521023,21.0232617 10.1410591,21.3631042 11.0499007,21.4671949 C11.8291421,21.5578044 12.7134905,21.4273268 13.2245279,20.8256799 C13.2886161,20.7483206 13.3444901,20.6645096 13.3912494,20.5755978 C12.838896,20.8863307 12.1973221,21.0000759 11.5718113,20.8981675 L11.5718113,20.8981675 Z" id="Path"></path>
                    <path d="M5.82717105,21.7897646 C5.19188468,21.7702567 4.56396584,21.6478554 3.96786479,21.4273268 C4.50030176,20.8562789 4.90658194,20.1795569 5.16028537,19.4411672 C5.27138828,18.9528954 5.30320618,18.4499278 5.25451922,17.9515476 C5.10954407,15.5848283 4.29043449,13.0876314 2.35501627,11.7139919 C1.93458835,11.4131685 1.40905344,11.0471062 1.48516539,10.5360688 C1.53920969,10.3354417 1.63151093,10.1471471 1.75699379,9.98153888 C2.323303,9.03720725 2.36437368,7.86806181 1.86572515,6.88631949 C1.53953107,6.26292636 1.01037178,5.75551334 0.731294626,5.11037394 C0.434739222,4.38740747 0.477288388,3.56966567 0.847274743,2.88138105 C0.754752458,2.97872498 0.656733913,3.070693 0.55370007,3.15683383 C0.478753323,3.260653 0.39766408,3.35989655 0.310866699,3.45403288 C-0.0598604615,4.14103464 -0.101135838,4.95855339 0.19851096,5.67940139 C0.473963739,6.32816517 1.00312303,6.83195381 1.32931711,7.45534694 C1.82791746,8.43836525 1.78685882,9.60853638 1.22058575,10.5541907 C1.09343397,10.7182721 1.00206999,10.9071733 0.952381725,11.1087207 C0.872645394,11.619758 1.40180468,11.9858203 1.82223261,12.2830193 C3.75040207,13.6602832 4.57313603,16.1538558 4.72173555,18.5205751 C4.77162368,19.019965 4.74103142,19.5241253 4.63112608,20.0138191 C4.37748625,20.7519757 3.96978967,21.4277637 3.43508112,21.9963542 C4.03236424,22.2171434 4.66151775,22.3395468 5.29801176,22.3587921 C5.94352315,22.3695312 6.55468561,22.068672 6.9398553,21.5505556 C6.96160158,21.5143118 6.98334785,21.4780681 7.00146974,21.4418243 C6.64917924,21.6629179 6.24304196,21.7832549 5.82717105,21.7897646 L5.82717105,21.7897646 Z" id="Path"></path>
                </g>
                <path d="M25.7475861,206.07204 C24.9959336,205.974215 24.2754263,205.710524 23.6381977,205.300048 L23.5729589,205.252931 C23.6252579,205.17751 23.6622036,205.092535 23.6816903,205.002849 C23.5921576,204.830356 23.544949,204.639036 23.5439639,204.444694 C23.5467229,204.260152 23.5096353,204.077187 23.4352325,203.908286 L23.4352325,203.002191 C23.2207337,202.699043 23.1135867,202.332957 23.1307847,201.961995 C23.1054141,201.211748 23.0764191,197.52938 23.0764191,197.52938 C23.0344433,197.336555 23.0258619,197.137957 23.0510484,196.94223 C23.0764191,196.514554 23.0764191,196.355081 23.0764191,196.355081 C22.9869513,196.106921 22.9595762,195.840636 22.9966827,195.579464 C23.0198975,195.332393 22.950109,195.085549 22.8009663,194.887208 L23.2141454,192.857556 C23.2141454,192.857556 23.4424813,185.855256 22.7755956,183.742243 L22.7755956,183.742243 C22.7755956,183.742243 22.7755956,183.742243 22.7755956,183.716873 C22.8299613,182.357731 22.003603,180.092494 22.4711478,178.512265 C22.9386927,176.932036 22.9966827,176.591344 22.9966827,176.591344 C22.9966827,176.591344 20.9307869,171.412107 20.4088763,170.183443 C20.1086891,169.387223 19.745084,168.61638 19.3215627,167.878338 C19.2877352,167.832429 19.2551158,167.788936 19.2237045,167.74786 L19.1693388,167.682621 C19.2829369,167.495601 19.3512032,167.284596 19.3686797,167.066477 C19.3976747,166.704039 19.343309,166.247367 19.6223862,165.979163 C19.728716,165.892776 19.8427594,165.816343 19.9630778,165.750827 C20.3965946,165.466703 20.6301327,164.960235 20.5647246,164.446051 C20.4837412,164.048366 20.2943299,163.680833 20.0174434,163.384108 C20.0479056,163.20691 20.0636649,163.027496 20.0645604,162.8477 C20.0628879,162.023334 19.7205381,161.236323 19.1185975,160.673073 L19.1185975,160.673073 L19.1185975,160.506351 C19.1227883,160.136616 19.0070706,159.775475 18.7887791,159.477028 L18.864891,159.531394 L18.7344134,159.419038 C18.6713116,159.353704 18.5993257,159.297579 18.5205751,159.252316 C17.2702717,158.39876 15.6479902,158.314849 14.3162958,159.034854 C13.9890567,159.207262 13.7081113,159.455886 13.4971862,159.759729 C13.0658851,160.426615 13.1746165,161.285593 12.949905,162.043088 C12.7251935,162.800583 12.2250293,163.358738 11.800977,163.989379 C11.3769247,164.620021 11.0253599,165.366643 11.1848326,166.102392 C11.3008127,166.6388 11.6777481,167.117218 11.6704993,167.660875 C11.6338839,168.25586 11.1754677,168.738725 10.5831857,168.806179 L10.5831857,168.806179 L10.4200887,168.806179 C10.9590844,169.132314 11.5676953,169.326076 12.1960343,169.371582 C12.1960343,169.422323 12.1670392,169.46944 12.1561661,169.520181 C11.6632506,171.433853 11.2102033,173.869436 11.2102033,173.869436 C11.2102033,173.869436 11.5146511,176.326764 10.8803848,178.247685 C10.2461185,180.168606 10.3294792,184.122803 10.3294792,184.122803 C10.3294792,184.122803 12.0909273,183.213084 12.203283,183.800233 C12.3156388,184.387383 12.203283,184.546855 12.203283,184.546855 C12.4577876,184.68114 12.7190948,184.802115 12.9861488,184.909293 L12.9861488,185.144878 L12.9064125,186.195948 C12.8782262,186.413551 12.9121509,186.63469 13.0042707,186.833838 C13.1564946,187.127413 13.0042707,187.921152 13.0042707,187.921152 C13.0042707,187.921152 12.8737931,188.000888 13.0042707,188.377824 C13.0621988,188.683193 13.0268363,188.99893 12.9027881,189.283918 C12.9027881,189.283918 12.7469398,191.284575 12.7179448,191.712252 C12.5901589,192.272032 12.405567,192.817307 12.1670392,193.339598 C12.1670392,193.339598 12.6382085,193.926747 12.1670392,194.010108 C11.69587,194.093469 11.6451287,194.807471 11.6451287,194.807471 C11.6451287,194.807471 11.0942231,195.264143 11.0942231,195.423616 C9.42947681,197.27548 8.34889362,199.577866 7.98813061,202.041731 C7.98813061,202.041731 7.40823002,202.574515 7.49159073,203.081928 C7.53870765,203.368254 7.44447381,203.466112 7.35386434,203.498731 C7.45534694,203.498731 7.56770268,203.578468 7.51696138,203.82855 C7.43722505,204.256227 7.21613795,205.162321 7.21613795,205.162321 L7.25600612,205.162321 L7.25600612,205.162321 C6.80295878,205.684232 6.14694624,206.557707 6.04546364,207.336948 L6.04546364,207.431182 L5.79175713,207.985712 L7.96638434,208.946173 L8.15847641,208.652598 C8.15847641,208.652598 9.12256114,209.739911 10.2243723,209.986369 C10.4136988,210.027941 10.6068199,210.049804 10.8006485,210.051608 C11.4143003,210.038527 12.0206644,209.915781 12.5910915,209.68917 C12.5910915,209.68917 13.3884548,208.703339 11.322559,208.514871 C11.322559,208.514871 10.1120165,207.126734 10.2352454,206.539585 C10.2740696,206.292267 10.2994775,206.043028 10.3113573,205.792963 C10.3113573,205.738597 10.3113573,205.684232 10.3113573,205.63349 L10.4527081,205.655237 L10.4780788,205.205814 C10.5407836,205.13125 10.5708292,205.034581 10.5614395,204.93761 C10.5614395,204.752766 10.3947181,204.723771 10.5614395,204.618664 C10.7281609,204.513557 10.7245365,204.618664 10.7245365,204.354085 C10.7245365,204.089505 10.6158052,204.165617 10.8622629,203.897413 C11.1087207,203.629209 10.8368923,203.150791 10.8368923,203.150791 C11.1453143,202.920412 11.3415719,202.570046 11.3769247,202.186706 C11.351554,201.628552 13.2217334,198.076661 13.6059176,197.942559 C13.9901017,197.808457 14.0190967,197.112576 14.0190967,197.112576 C14.0190967,197.112576 14.5446316,197.221308 14.7077287,197.112576 C14.9662002,196.823255 15.196768,196.510168 15.3963606,196.177486 C15.3963606,196.177486 17.4876271,190.893142 17.5166222,188.892485 L17.6543485,188.439438 C17.6543485,188.439438 18.4517119,189.479635 18.3393561,190.226257 C18.2270004,190.972879 18.9518761,191.509287 18.9518761,191.509287 L18.9518761,193.778148 C19.0315735,194.173267 19.0752452,194.574803 19.0823537,194.977817 C19.0569831,195.340255 19.4085478,195.724439 19.2744458,196.047009 C19.2020218,196.336117 19.2020218,196.638625 19.2744458,196.927733 C19.2744458,196.927733 19.2454508,197.674355 19.2744458,197.888193 C19.3034408,198.102032 19.1657145,200.555736 19.8833414,201.624928 C19.8833414,201.624928 20.1841649,202.39692 19.8833414,202.904333 C19.582518,203.411746 20.1551698,203.919159 20.1551698,203.919159 C20.1551698,203.919159 19.792732,204.506309 20.1551698,204.933985 C20.3617035,205.203348 20.4541212,205.54308 20.4125007,205.879948 C20.2675256,206.423605 20.1624186,207.133983 20.4125007,207.630523 L20.4125007,207.630523 L20.4777395,208.395267 L22.5871279,208.23217 L22.5871279,207.808118 C23.4959953,208.031266 24.4374293,208.090183 25.3670264,207.982088 C26.0932278,207.916602 26.7598277,207.553122 27.2082107,206.978135 C27.2082107,206.978135 28.0563154,205.510262 25.7475861,206.07204 Z" id="Path" fill="url(#linearGradient-2)" fill-rule="nonzero"></path>
                <path d="M26.8131535,206.992632 C26.3823356,207.560468 25.732527,207.920889 25.0227104,207.985712 C24.1242243,208.093669 23.2134929,208.033445 22.3370458,207.808118 L22.3370458,208.235794 L20.300145,208.395267 L20.2385305,207.634147 L20.2385305,207.634147 C20.0029459,207.133983 20.1116773,206.409107 20.2566524,205.865451 C20.3223972,205.608655 20.4059604,205.356755 20.5067346,205.11158 C20.5067346,205.11158 22.2609338,203.62196 22.8444588,204.749142 C22.9713117,204.97993 23.1469415,205.180296 23.3591206,205.336291 C23.97137,205.742911 24.6677521,206.005603 25.3960214,206.10466 C27.6358874,205.532008 26.8131535,206.992632 26.8131535,206.992632 Z" id="Path" fill="#FF6484" fill-rule="nonzero"></path>
                <path d="M21.3983317,205.532008 C21.3983317,205.532008 21.3983317,206.912896 22.405909,206.887525 C23.4134863,206.862155 23.5512127,206.33662 23.2322673,205.981431 C23.0148116,205.729858 22.8274905,205.453742 22.674113,205.158697 L21.3983317,205.532008 Z" id="Path" fill="#000000" fill-rule="nonzero" opacity="0.1"></path>
                <path d="M12.6998229,209.703668 C12.1517763,209.929025 11.5670194,210.051874 10.9746186,210.066106 C10.7869978,210.063905 10.6000475,210.043268 10.4164643,210.004491 C9.35452137,209.765282 8.42305605,208.674344 8.42305605,208.674344 L8.23821274,208.967919 L6.1360731,208.011083 L6.3752821,207.452929 L6.3752821,207.35507 C6.47314032,206.593951 7.10015783,205.720476 7.54233203,205.202189 C7.79241416,204.912239 7.98813061,204.723771 7.98813061,204.723771 L10.5251957,205.086209 C10.5251957,205.086209 10.5251957,205.412403 10.5251957,205.811085 C10.5162914,206.061205 10.4920836,206.310545 10.4527081,206.557707 C10.3476011,207.141232 11.5146511,208.52212 11.5146511,208.52212 C13.4718156,208.710588 12.6998229,209.703668 12.6998229,209.703668 Z" id="Path" fill="#FF6484" fill-rule="nonzero"></path>
                <path d="M7.65106339,203.527726 C7.6083371,203.539272 7.56331205,203.539272 7.52058576,203.527726 C7.56372019,203.519833 7.60792896,203.519833 7.65106339,203.527726 Z" id="Path" fill="#444053" fill-rule="nonzero"></path>
                <path d="M10.4962007,205.107956 C10.4962007,205.107956 10.4962007,205.43415 10.4962007,205.832831 L7.52783452,205.358038 C7.52783452,205.358038 7.52783452,205.300048 7.56045393,205.205814 C7.79241416,204.912239 7.98813061,204.723771 7.98813061,204.723771 L10.4962007,205.107956 Z" id="Path" fill="#000000" fill-rule="nonzero" opacity="0.1"></path>
                <path d="M23.3663693,205.321794 C22.9169464,206.361991 20.2457793,206.115533 20.2457793,206.115533 C20.2608206,206.031848 20.2668956,205.946799 20.2639012,205.861826 C20.329646,205.605031 20.4132092,205.35313 20.5139833,205.107956 C20.5139833,205.107956 22.2681826,203.618336 22.8517076,204.745518 C22.9798409,204.972373 23.1553841,205.168932 23.3663693,205.321794 Z" id="Path" fill="#000000" fill-rule="nonzero" opacity="0.1"></path>
                <path d="M23.4098619,205.028219 C23.1452822,206.22064 20.2457793,205.95606 20.2457793,205.95606 C20.3025358,205.601779 20.2165145,205.239447 20.0065703,204.948483 C19.6441324,204.520806 20.0065703,203.937281 20.0065703,203.937281 C20.0065703,203.937281 19.448416,203.433493 19.7419907,202.92608 C20.0355653,202.418667 19.7419907,201.650298 19.7419907,201.650298 C19.0533587,200.588355 19.1838363,198.1419 19.1548413,197.931686 C19.1258463,197.721472 19.1548413,196.97485 19.1548413,196.97485 C19.0844713,196.686718 19.0844713,196.385882 19.1548413,196.09775 C19.285319,195.778805 18.9446274,195.405494 18.9736224,195.035807 C18.9700405,194.638268 18.9324515,194.241765 18.8612666,193.850635 L18.8612666,191.592647 C18.4688553,191.288866 18.2496265,190.812517 18.2741173,190.316866 C18.3792243,189.570244 17.6072316,188.537296 17.6072316,188.537296 L17.476754,188.986719 C17.447759,190.980127 15.42898,196.235477 15.42898,196.235477 C15.2366578,196.564341 15.014645,196.874916 14.7657187,197.163317 C14.6062461,197.272049 14.1024574,197.163317 14.1024574,197.163317 C14.1024574,197.163317 14.0734624,197.855574 13.7037758,197.986051 C13.3340892,198.116529 11.5291486,201.653923 11.5508949,202.212077 C11.5219577,202.601613 11.328122,202.960275 11.0181112,203.197908 C11.0181112,203.197908 11.2826908,203.676326 11.0434818,203.940906 C10.8042728,204.205485 10.9130042,204.125749 10.9130042,204.393953 C10.9130042,204.662157 10.9130042,204.553426 10.7535315,204.658533 C10.5940589,204.76364 10.7535315,204.792635 10.7535315,204.977478 C10.760688,205.072508 10.7322694,205.166806 10.6737952,205.242058 L10.6484246,205.687856 L7.53870765,205.191316 C7.53870765,205.191316 7.74892162,204.285222 7.82865795,203.861169 C7.87577487,203.611087 7.76704351,203.545848 7.66918529,203.531351 C7.75617037,203.498731 7.84677984,203.400873 7.8032873,203.118172 C7.72355097,202.610759 8.28170528,202.081599 8.28170528,202.081599 C8.60339842,199.636387 9.62832304,197.337232 11.2319495,195.463484 C11.2319495,195.304011 11.7611088,194.850964 11.7611088,194.850964 C11.7611088,194.850964 11.8154745,194.126088 12.2685218,194.053601 C12.7215692,193.981113 12.2685218,193.390339 12.2685218,193.390339 C12.4973198,192.868856 12.6745503,192.326239 12.7976811,191.770242 C12.8266761,191.34619 12.9752757,189.352781 12.9752757,189.352781 C13.0952489,189.067949 13.1292657,188.754239 13.0731339,188.450311 C12.949905,188.087873 13.0731339,187.997264 13.0731339,187.997264 C13.0731339,187.997264 13.2253578,187.1999 13.0731339,186.90995 C12.9853301,186.70956 12.9539968,186.488974 12.9825244,186.27206 L13.055012,185.228238 L13.1673677,183.669756 C13.1673677,183.669756 21.4309511,182.259872 22.3334214,183.401552 C22.4334156,183.542596 22.5059587,183.701208 22.5472598,183.869096 C23.1923992,185.971236 22.9713121,192.930043 22.9713121,192.930043 L22.5726304,194.948822 C22.7183314,195.147219 22.7854646,195.392513 22.7610981,195.637454 C22.7261632,195.897468 22.7534921,196.162062 22.8408344,196.409447 C22.8408344,196.409447 22.8408344,196.568919 22.8118394,196.992972 C22.7886152,197.188933 22.7984161,197.387401 22.8408344,197.580121 C22.8408344,197.580121 22.8662051,201.244368 22.8915757,201.99099 C22.875241,202.359114 22.9782072,202.722674 23.1851504,203.027562 L23.1851504,203.930032 C23.2569584,204.098354 23.2927609,204.279835 23.2902574,204.462816 C23.285428,204.658038 23.3263901,204.851677 23.4098619,205.028219 L23.4098619,205.028219 Z" id="Path" fill="#444053" fill-rule="nonzero"></path>
                <path d="M10.9746186,210.058857 C10.7869978,210.056657 10.6000475,210.036019 10.4164643,209.997242 C9.35452137,209.758033 8.42305605,208.667095 8.42305605,208.667095 L8.23821274,208.96067 L6.1360731,208.003834 L6.3752821,207.44568 L6.3752821,207.347822 L8.5499093,208.435135 C8.5499093,208.435135 10.2896111,209.279615 10.9746186,210.058857 Z" id="Path" fill="#000000" fill-rule="nonzero" opacity="0.1"></path>
                <path d="M25.0227104,207.985712 C24.1242243,208.093669 23.2134929,208.033445 22.3370458,207.808118 L22.3370458,208.235794 L20.300145,208.395267 L20.2385305,207.634147 C20.88367,207.634147 21.9238666,207.659518 22.3732896,207.634147 C23.2682596,207.631063 24.1595166,207.749328 25.0227104,207.985712 Z" id="Path" fill="#000000" fill-rule="nonzero" opacity="0.1"></path>
                <path d="M8.69126007,202.842719 C8.79675541,202.835859 8.90258421,202.849395 9.00295664,202.882587 C9.10718047,202.94641 9.20652006,203.017886 9.30015569,203.096425 C9.37006984,203.134375 9.43674185,203.178015 9.49949652,203.226903 C9.57560847,203.303015 9.60822788,203.415371 9.68433983,203.491483 C9.82931498,203.632833 10.0467777,203.603838 10.2497429,203.669077 C10.2714892,203.669077 10.2932354,203.669077 10.2968675,203.708945 C10.2972277,203.730893 10.2843603,203.750909 10.2642404,203.759687 C10.168358,203.81257 10.0520506,203.81257 9.95616823,203.759687 C9.86315449,203.706196 9.77781061,203.64036 9.70246172,203.56397 C9.55492634,203.432972 9.38566723,203.328718 9.20229747,203.255898 C8.95221534,203.154415 8.5172899,203.129045 8.35781723,202.89346 C8.46342906,202.850564 8.57766887,202.833179 8.69126007,202.842719 L8.69126007,202.842719 Z" id="Path" fill="#000000" fill-rule="nonzero" opacity="0.1"></path>
                <path d="M8.47742173,203.400873 C8.53283724,203.416629 8.58632474,203.43851 8.63689439,203.466112 L8.90872279,203.603838 C8.71587074,203.617003 8.52331845,203.574214 8.35419286,203.480609 C8.29272622,203.457937 8.23331149,203.430048 8.1765983,203.397249 C8.27626907,203.380283 8.37818864,203.381511 8.47742173,203.400873 Z" id="Path" fill="#000000" fill-rule="nonzero" opacity="0.1"></path>
                <path d="M8.8398596,203.868418 C8.89761893,203.861102 8.95607044,203.861102 9.01382978,203.868418 C9.11811043,203.906556 9.21408618,203.964388 9.29653131,204.038764 C9.49610822,204.197977 9.74436619,204.283716 9.99966078,204.281597 C9.95189373,204.302832 9.89950886,204.311563 9.84743687,204.306968 L9.27478504,204.306968 C9.21228631,204.315989 9.14881608,204.315989 9.08631735,204.306968 C9.00418444,204.28887 8.92491889,204.259603 8.85073273,204.219983 C8.75287451,204.17649 8.35056848,204.06051 8.3469441,203.926408 C8.34331972,203.792306 8.74200137,203.868418 8.8398596,203.868418 Z" id="Path" fill="#000000" fill-rule="nonzero" opacity="0.1"></path>
                <path d="M21.8368815,204.546177 C22.0117609,204.56065 22.1875371,204.56065 22.3624165,204.546177 C22.5483176,204.539137 22.7287719,204.481492 22.884327,204.379455 C23.0365509,204.263475 23.0039315,204.140246 22.8118394,204.132998 C22.6300141,204.140242 22.4514135,204.183353 22.2863045,204.259851 C22.2009281,204.295555 22.1185173,204.337972 22.0398467,204.386704 C22.003603,204.422948 21.8731253,204.549801 21.8368815,204.546177 Z" id="Path" fill="#000000" fill-rule="nonzero" opacity="0.1"></path>
                <path d="M22.4856453,204.836127 C22.4856453,204.901366 22.4022846,204.93761 22.3406702,204.959356 C22.191022,205.017795 22.0333862,205.053232 21.8731253,205.064463 C21.8332572,205.064463 21.7209014,205.064463 21.7353989,205.002849 C21.7498965,204.941234 21.9166179,204.959356 21.956486,204.952107 C22.1353883,204.925982 22.3122167,204.887225 22.4856453,204.836127 L22.4856453,204.836127 Z" id="Path" fill="#000000" fill-rule="nonzero" opacity="0.1"></path>
                <path d="M20.88367,204.723771 C21.1042625,204.699983 21.326853,204.744248 21.5215606,204.850625 C21.4793422,204.929849 21.3934095,204.97568 21.3040979,204.966605 C21.2180572,204.956871 21.1338468,204.934903 21.0540157,204.901366 C20.9187671,204.860891 20.7783868,204.840139 20.6372122,204.839751 C20.574508,204.845206 20.5114487,204.845206 20.4487445,204.839751 C20.2602768,204.807132 20.3218913,204.734645 20.4487445,204.716523 C20.5937381,204.710549 20.7389559,204.712969 20.88367,204.723771 L20.88367,204.723771 Z" id="Path" fill="#000000" fill-rule="nonzero" opacity="0.1"></path>
                <path d="M13.5805469,194.289185 C13.3143734,194.10305 12.999161,193.99966 12.6744522,193.991986 C13.0033059,193.972084 13.3273665,194.078376 13.5805469,194.289185 Z" id="Path" fill="#000000" fill-rule="nonzero" opacity="0.1"></path>
                <path d="M13.3340892,193.216369 C13.5731924,193.218145 13.8073699,193.284517 14.011848,193.408461 L13.7871365,193.343222 C13.6386326,193.295906 13.4855686,193.264321 13.3304648,193.248988 C13.2434797,193.248988 13.1528702,193.248988 13.0658851,193.248988 C12.9789001,193.248988 12.8629199,193.223618 12.7614373,193.219993 C12.9390319,193.219993 13.1383727,193.20912 13.3340892,193.216369 Z" id="Path" fill="#000000" fill-rule="nonzero" opacity="0.1"></path>
                <path d="M14.1495744,193.727406 C14.2256863,193.727406 14.3162958,193.774523 14.3307933,193.850635 C14.1410838,193.759877 13.9432969,193.687072 13.7400196,193.633173 C13.6276638,193.596929 13.2833479,193.444705 13.2036115,193.549812 C13.4899374,193.633173 13.8197559,193.662168 14.1495744,193.727406 Z" id="Path" fill="#000000" fill-rule="nonzero" opacity="0.1"></path>
                <path d="M14.8744501,191.367936 C15.2225758,191.250361 15.5363009,191.04868 15.7877935,190.780787 C15.7817298,191.02277 15.655279,191.245759 15.4507263,191.375185 C15.2471623,191.501838 15.02049,191.586841 14.7838406,191.625267 C14.5480592,191.666465 14.3180773,191.735825 14.0988331,191.831856 C13.9937261,191.882598 13.667532,192.194294 13.562425,192.194294 C13.457318,192.194294 13.6421613,191.965958 13.6892783,191.929715 C14.0549184,191.685824 14.4541787,191.496572 14.8744501,191.367936 L14.8744501,191.367936 Z" id="Path" fill="#000000" fill-rule="nonzero" opacity="0.1"></path>
                <path d="M21.3983317,194.81472 C21.285976,194.774852 19.9123365,195.039432 19.9956972,194.774852 C20.0500629,194.611755 20.4958614,194.673369 20.6045928,194.676994 C20.8744207,194.684475 21.1417563,194.730862 21.3983317,194.81472 L21.3983317,194.81472 Z" id="Path" fill="#000000" fill-rule="nonzero" opacity="0.1"></path>
                <path d="M19.9014633,163.043417 C19.9014633,163.266479 19.8771353,163.488876 19.8289758,163.706678 C19.4787809,165.280701 17.9595982,166.306692 16.3686961,166.043603 C14.7777941,165.780513 13.6697973,164.320062 13.8449846,162.717098 C14.020172,161.114134 15.4174692,159.927486 17.0276428,160.01424 C18.6378164,160.100995 19.8995232,161.430909 19.9014633,163.043417 L19.9014633,163.043417 Z" id="Path" fill="#FBBEBE" fill-rule="nonzero"></path>
                <path d="M18.4408387,164.290203 C18.4408387,164.290203 17.4586321,167.160711 18.0167864,167.744236 C18.5749407,168.327761 14.0045992,168.675701 14.0045992,168.675701 C14.0045992,168.675701 15.9146468,165.247039 15.7298035,164.39531 C15.5449602,163.543581 18.4408387,164.290203 18.4408387,164.290203 Z" id="Path" stroke="#15C872"></path>
                <path d="M22.5327622,183.861848 C22.5364196,183.928244 22.5364196,183.994792 22.5327622,184.061189 C22.4783966,185.416706 20.060936,188.153112 19.5027817,187.685567 C18.9446274,187.218022 15.1535273,186.33005 15.1535273,186.33005 C15.1535273,186.33005 14.5953729,185.45295 14.011848,185.45295 C13.678999,185.425088 13.353148,185.341788 13.0477632,185.206492 L13.160119,183.648009 C13.160119,183.648009 21.4237024,182.238126 22.3261727,183.379805 C22.4252753,183.525771 22.4954098,183.689418 22.5327622,183.861848 L22.5327622,183.861848 Z" id="Path" fill="#000000" fill-rule="nonzero" opacity="0.1"></path>
                <path d="M22.5327622,183.82198 C22.5073916,184.499738 21.8876228,185.525438 21.2026153,186.322801 C20.5176077,187.120164 19.7818588,187.685567 19.5027817,187.460856 C19.2981043,187.327436 19.0761781,187.22257 18.8431448,187.149159 C17.5854854,186.688863 15.1462785,186.105338 15.1462785,186.105338 C15.1462785,186.105338 14.5881242,185.228238 14.0045992,185.228238 C13.4210742,185.228238 12.3011412,184.644713 12.3011412,184.644713 C12.3011412,184.644713 12.4098726,184.485241 12.3011412,183.901716 C12.1924099,183.318191 10.4889519,184.220661 10.4889519,184.220661 C10.4889519,184.220661 10.4092156,180.28821 11.0181112,178.374538 C11.6270068,176.460866 11.3370565,174.025284 11.3370565,174.025284 C11.3370565,174.025284 11.7756063,171.618697 12.2503999,169.712273 C12.5367259,168.570594 12.8375493,167.610134 13.0658851,167.461534 C13.6784051,167.062853 16.864234,167.461534 16.864234,167.461534 C17.4786292,167.469651 18.091595,167.522953 18.6981696,167.621007 C18.8549387,167.683436 18.9889551,167.792166 19.0823537,167.932703 L19.1765876,168.066805 C19.5942625,168.800425 19.9494955,169.567874 20.2385305,170.361037 C20.7459436,171.582453 22.7393518,176.736319 22.7393518,176.736319 C22.7393518,176.736319 22.6849862,177.098757 22.2319388,178.649991 C21.7788915,180.201225 22.5871279,182.466462 22.5327622,183.82198 Z" id="Path" fill="#65617D" fill-rule="nonzero"></path>
                <path d="M20.2494037,185.387711 L21.2026153,186.322801 C21.2026153,186.322801 22.0797149,189.349157 20.9380356,189.080953 C19.7963563,188.812749 18.8431448,187.149159 18.8431448,187.149159 L20.2494037,185.387711 Z" id="Path" fill="#FBBEBE" fill-rule="nonzero"></path>
                <path d="M22.6668643,176.964655 C20.405252,176.939284 19.821727,173.775202 19.821727,173.775202 C19.821727,173.775202 19.6622543,170.640114 19.3686797,170.056589 C19.1938939,169.485748 19.1047308,168.892142 19.1041,168.295141 C19.5217749,169.028761 19.8770079,169.796209 20.166043,170.589373 C20.673456,171.810789 22.6668643,176.964655 22.6668643,176.964655 Z" id="Path" fill="#000000" fill-rule="nonzero" opacity="0.1"></path>
                <path d="M22.7466006,176.725446 C20.4849883,176.700075 19.9014633,173.535993 19.9014633,173.535993 C19.9014633,173.535993 19.7419907,170.400905 19.448416,169.81738 C19.2736302,169.246539 19.1844671,168.652933 19.1838363,168.055932 C19.6015112,168.789552 19.9567442,169.557 20.2457793,170.350164 C20.7531923,171.57158 22.7466006,176.725446 22.7466006,176.725446 Z" id="Path" fill="#65617D" fill-rule="nonzero"></path>
                <path d="M18.6981696,168.925783 C18.6981696,168.925783 18.0349083,167.113594 16.9475947,168.925783 C16.2614428,170.184025 15.8791542,171.585336 15.8312861,173.017707 L15.6428184,178.012101 C15.8170859,178.334042 15.9301447,178.685508 15.9762612,179.048673 C15.9762612,179.411111 16.6286494,180.498424 16.6286494,180.498424 C16.6286494,180.498424 16.788122,182.59694 17.3970177,182.94488 L17.984167,184.670084 C17.984167,184.670084 18.0095377,185.811763 18.4082193,186.264811 C18.6437039,186.598704 18.7131587,187.022111 18.596687,187.413739 L20.9597819,186.58738 C20.9597819,186.58738 20.6915779,186.685239 20.9597819,185.971236 C21.2279859,185.257233 20.8003092,184.325768 20.8003092,184.325768 C20.8003092,184.325768 19.285319,181.031208 19.0968513,180.55279 C18.9083836,180.074372 18.6474283,179.516218 18.7344134,178.958063 C18.8213985,178.399909 18.7561597,172.47405 18.8938861,171.57158 C19.0316124,170.669109 18.6981696,168.925783 18.6981696,168.925783 Z" id="Path" fill="#000000" fill-rule="nonzero" opacity="0.1"></path>
                <path d="M18.9446274,168.675701 C18.9446274,168.675701 18.2813661,166.863512 17.1904281,168.675701 C16.5062674,169.934744 16.1241097,171.335575 16.0741194,172.767625 L15.8892761,177.762018 C16.0624784,178.084414 16.1754722,178.435678 16.222719,178.798591 C16.222719,179.161029 16.8714828,180.248342 16.8714828,180.248342 C16.8714828,180.248342 17.0309554,182.346857 17.6434754,182.691173 L18.2270004,184.420002 C18.2270004,184.420002 18.2559954,185.561681 18.6546771,186.014729 C18.8901617,186.348622 18.9596165,186.772029 18.8431448,187.163657 L21.2026153,186.337298 C21.2026153,186.337298 20.9380356,186.435157 21.2026153,185.71753 C21.4671949,184.999903 21.0358939,184.064813 21.0358939,184.064813 C21.0358939,184.064813 19.5245279,180.770253 19.3360603,180.291835 C19.1475926,179.813417 18.8866373,179.255262 18.9736224,178.697108 C19.0606075,178.138954 18.9953687,172.213095 19.1294707,171.307 C19.2635727,170.400905 18.9446274,168.675701 18.9446274,168.675701 Z" id="Path" fill="#FEBC00" fill-rule="nonzero"></path>
                <path d="M18.9917443,184.300398 C19.0925183,184.31326 19.1904821,184.342649 19.2816946,184.387383 C19.3541821,184.423626 19.4157966,184.481616 19.4882842,184.521485 C19.5709642,184.569079 19.6647125,184.594078 19.7601126,184.593972 C19.6538665,184.59939 19.5474133,184.59939 19.4411672,184.593972 C19.3748938,184.598501 19.3083789,184.589879 19.2454508,184.568602 C19.1857798,184.54053 19.129786,184.50523 19.0787294,184.463495 C19.0136954,184.41536 18.9431194,184.375205 18.8685154,184.34389 C18.8105253,184.322144 18.7489109,184.314895 18.7271646,184.256905 C18.8163961,184.264165 18.9048843,184.278711 18.9917443,184.300398 Z" id="Path" fill="#000000" fill-rule="nonzero" opacity="0.1"></path>
                <path d="M19.8905902,185.0144 C19.9920728,185.0144 20.089931,184.992654 20.1914136,184.985405 C20.3379506,184.979967 20.4846833,184.987243 20.6299634,185.007151 C20.416627,185.116235 20.1755816,185.159143 19.9377071,185.13038 C19.8700401,185.112228 19.7987846,185.112228 19.7311175,185.13038 C19.65863,185.159375 19.4411672,185.405833 19.4230453,185.18837 C19.4049234,184.970908 19.7673613,185.018024 19.8905902,185.0144 Z" id="Path" fill="#000000" fill-rule="nonzero" opacity="0.1"></path>
                <path d="M18.6691746,159.853963 L18.2813661,159.571262 C18.3230992,159.584963 18.3632065,159.603194 18.4009706,159.625627 C18.4825407,159.669748 18.5560643,159.727341 18.6184333,159.795973 L18.7416622,159.908329 L18.6691746,159.853963 Z" id="Path" fill="#000000" fill-rule="nonzero" opacity="0.1"></path>
                <path d="M19.0896025,167.92183 C19.0191191,168.080914 18.9062807,168.217574 18.7634084,168.316888 C18.6778825,168.375215 18.5797667,168.412475 18.4770825,168.425619 C18.3330498,168.439728 18.1876497,168.424941 18.0494058,168.382126 C17.8725367,168.334644 17.6983201,168.277782 17.5274953,168.211781 C17.1928081,168.071452 16.8503457,167.950441 16.5017961,167.849343 C15.9720536,167.688067 15.3966917,167.80532 14.9723083,168.161039 C14.6352411,168.501731 14.5555048,169.03089 14.2220619,169.371582 C13.772639,169.828253 13.0405145,169.799258 12.4098726,169.708649 L12.2612731,169.686903 C12.547599,168.545223 12.8484224,167.584763 13.0767583,167.436164 C13.6892783,167.037482 16.8751071,167.436164 16.8751071,167.436164 C17.4895023,167.444281 18.1024681,167.497582 18.7090427,167.595636 C18.8664807,167.662551 18.9993965,167.776478 19.0896025,167.92183 L19.0896025,167.92183 Z" id="Path" fill="#000000" fill-rule="nonzero" opacity="0.1"></path>
                <path d="M13.8451041,163.043417 C13.84044,161.823227 14.5689861,160.71958 15.6928478,160.244374 C16.8167094,159.769168 18.1160168,160.015372 18.9881199,160.868789 L18.9881199,160.868789 C18.9881199,161.394324 18.8830129,161.956103 19.0316124,162.445394 C19.2150624,162.908239 19.4857601,163.331511 19.8289758,163.69218 C19.4868336,165.190838 18.0766659,166.195811 16.5484048,166.030118 C15.0201437,165.864425 13.8581278,164.580579 13.8451041,163.043417 Z" id="Path" fill="#000000" fill-rule="nonzero" opacity="0.1"></path>
                <path d="M18.7416622,159.748856 C17.5365378,158.655301 15.7664352,158.456676 14.3489152,159.255941 C14.0310778,159.430504 13.7600402,159.679162 13.5588006,159.980817 C13.1419971,160.644078 13.2471041,161.503056 13.0296414,162.253302 C12.8121786,163.003548 12.3301363,163.565327 11.9205815,164.192345 C11.5110267,164.819362 11.1703351,165.56236 11.3261834,166.294484 C11.4385391,166.827268 11.8046014,167.305686 11.7973526,167.849343 C11.7673148,168.477389 11.2588024,168.976426 10.6303027,168.994646 C11.1676467,169.325511 11.7768413,169.521945 12.4062482,169.567298 C13.0405145,169.657908 13.772639,169.686903 14.2184376,169.230231 C14.5518804,168.889539 14.6316167,168.36038 14.9686839,168.019688 C15.3930673,167.66397 15.9684292,167.546716 16.4981717,167.707992 C17.027331,167.831221 17.5166222,168.07043 18.0457814,168.226278 C18.1840253,168.269093 18.3294254,168.28388 18.4734581,168.269771 C18.9265055,168.208156 19.1983339,167.704368 19.2273289,167.247696 C19.2563239,166.885258 19.2019582,166.432211 19.4701623,166.160382 C19.572678,166.07407 19.6831065,165.997619 19.7999807,165.932046 C20.2226705,165.641715 20.4478357,165.139639 20.3835057,164.630894 C20.2566524,163.732049 19.2961921,163.181143 19.0279881,162.296795 C18.8793885,161.789382 18.9917443,161.245725 18.9844955,160.72019 C18.9772468,160.194655 18.7742816,159.589384 18.2777417,159.411789" id="Path" fill="#444053" fill-rule="nonzero"></path>
                <path d="M20.3363888,164.630894 C20.2131599,163.732049 19.2490752,163.181143 18.9808711,162.296795 C18.8322716,161.789382 18.9482517,161.245725 18.9373786,160.72019 C18.9442019,160.352878 18.8323474,159.993164 18.6184333,159.694491 L18.6945452,159.748856 C18.6546771,159.708988 18.6111845,159.672744 18.567692,159.636501 C18.5064261,159.572121 18.4369687,159.516067 18.3611024,159.469779 L18.223376,159.375545 L18.2958636,159.444409 L18.2197516,159.390043 C18.4341368,159.688481 18.5460412,160.048356 18.5386969,160.415742 C18.5386969,160.941277 18.43359,161.503056 18.5821895,161.988722 C18.8395204,162.862198 19.8144782,163.438474 19.9377071,164.326447 C20.0011907,164.835064 19.7762146,165.336719 19.3541821,165.627599 C19.237308,165.693171 19.1268794,165.769622 19.0243637,165.855934 C18.7561597,166.124138 18.8105253,166.58081 18.7815303,166.943248 C18.7452865,167.39992 18.4843313,167.903708 18.0312839,167.965323 C17.8860612,167.97806 17.7397389,167.963305 17.5999829,167.92183 C17.074448,167.784104 16.5815325,167.526773 16.0523732,167.403544 C15.5226965,167.240892 14.9466697,167.358282 14.5228854,167.715241 C14.1894425,168.052308 14.1060818,168.585092 13.772639,168.925783 C13.323216,169.37883 12.5910915,169.35346 11.9604496,169.26285 C11.5453129,169.215935 11.1367971,169.122317 10.7426584,168.983773 C10.6896382,168.989176 10.636206,168.989176 10.5831857,168.983773 C11.1209474,169.313731 11.7299152,169.510092 12.3591313,169.556425 C12.9933976,169.647035 13.7255221,169.67603 14.1713206,169.219358 C14.5047635,168.878666 14.5881242,168.349507 14.921567,168.008815 C15.3459504,167.653096 15.9213123,167.535843 16.4510548,167.697119 C16.9802141,167.820348 17.4731296,168.059557 17.9986645,168.215405 C18.138055,168.258704 18.2847366,168.273496 18.4299656,168.258897 C18.8830129,168.197283 19.1548413,167.693494 19.180212,167.236823 C19.209207,166.874385 19.1548413,166.421337 19.4230453,166.149509 C19.5255611,166.063196 19.6359896,165.986746 19.7528638,165.921173 C20.1718044,165.632745 20.3964734,165.135961 20.3363888,164.630894 L20.3363888,164.630894 Z" id="Path" fill="#000000" fill-rule="nonzero" opacity="0.1"></path>
                <path d="M31.9996394,207.916849 C32.5795399,209.848643 24.7835014,211.099053 15.6029502,210.743864 C7.37198623,210.428543 0.916967806,208.913553 0.442174199,207.3297 C-0.0326194081,205.745846 5.57791879,204.455567 13.7110245,204.430197 C22.7828444,204.430197 31.4197388,205.985055 31.9996394,207.916849 Z" id="Path" fill="#15C872" fill-rule="nonzero" opacity="0.1"></path>
            </g>
        </g>
    </g>
</svg>