<?xml version="1.0" encoding="UTF-8"?>
<svg width="14px" height="14px" viewBox="0 0 14 14" version="1.1" xmlns="http://www.w3.org/2000/svg" xmlns:xlink="http://www.w3.org/1999/xlink">
    <title>i-call</title>
    <g id="Website" stroke="none" stroke-width="1" fill="none" fill-rule="evenodd">
        <g id="Header" transform="translate(-121.000000, -5453.000000)" fill="#15C872" fill-rule="nonzero">
            <g id="footer" transform="translate(-154.000000, 5147.000000)">
                <g id="Group-16" transform="translate(275.000000, 88.000000)">
                    <path d="M2.81567133,218.003308 C2.57173218,217.983145 2.29920914,218.054703 2.04730901,218.230395 C1.82614758,218.385081 1.34745865,218.765132 0.901298383,219.193492 C0.678218233,219.407672 0.465876128,219.630654 0.300918222,219.849866 C0.135960284,220.069077 -0.00879526336,220.269471 0.000417051578,220.559745 C0.00887470469,220.821309 0.0358746577,221.594998 0.591464902,222.778352 C1.14705508,223.961706 2.22596652,225.585596 4.33062013,227.690893 C6.43591192,229.796667 8.05994059,230.876186 9.24316087,231.431915 C10.4263812,231.987643 11.2003273,232.014509 11.4617679,232.022963 C11.7520102,232.032009 11.9519397,231.886837 12.1710251,231.721839 C12.3901109,231.556841 12.6132845,231.344577 12.8273993,231.121459 C13.2553784,230.675485 13.6343437,230.197914 13.7892518,229.976071 C14.1409167,229.475041 14.0826576,228.881902 13.6903291,228.606706 C13.4438661,228.434221 11.1775193,226.925717 10.8377456,226.717842 C10.4915281,226.506066 10.0930956,226.60155 9.73777447,226.789389 C9.45660425,226.937406 8.69954634,227.37216 8.48288663,227.496158 C8.32026053,227.392756 7.70167802,226.981579 6.37066844,225.650845 C5.040108,224.32056 4.62983968,223.701948 4.52659903,223.539249 C4.65038224,223.323152 5.08394503,222.568334 5.2327457,222.284361 L5.2327457,222.283738 C5.41961552,221.929664 5.52336774,221.527736 5.30180501,221.17879 C5.2074957,221.030127 4.78360644,220.385355 4.35488424,219.736633 C3.92616204,219.087912 3.51954805,218.473661 3.41356284,218.326829 L3.41356284,218.326207 C3.27520244,218.134924 3.05961017,218.02347 2.81567133,218.003308 Z M2.75781074,218.654705 C2.84475883,218.665521 2.89728604,218.700278 2.8971736,218.700122 C2.94846008,218.771205 3.39499333,219.439979 3.82294115,220.087529 C4.2510218,220.73528 4.68721067,221.399862 4.76364044,221.520354 C4.77577696,221.539469 4.79356125,221.75061 4.66907279,221.986348 L4.66907279,221.98697 L4.66845067,221.987593 C4.52813792,222.255515 3.87333572,223.40113 3.87333572,223.40113 L3.78187896,223.561024 L3.87520206,223.720296 C3.87520206,223.720296 4.36439118,224.545771 5.92022761,226.101285 C7.47630518,227.657041 8.30121735,228.147555 8.30121735,228.147555 L8.46048919,228.240879 L8.62100526,228.149422 C8.62100526,228.149422 9.76510297,227.494903 10.0345428,227.353063 L10.0351649,227.353063 C10.2691496,227.229367 10.4809474,227.245956 10.5055147,227.260983 C10.726981,227.396478 13.1733785,229.022959 13.3245017,229.128694 C13.3290792,229.131906 13.4622046,229.333389 13.2678857,229.610243 L13.2672636,229.610865 C13.1502813,229.778453 12.7670528,230.264129 12.3676265,230.680351 C12.1679133,230.888461 11.961705,231.081927 11.7877773,231.212916 C11.6141327,231.343658 11.4583165,231.384985 11.482299,231.385875 C11.2117716,231.377128 10.6132472,231.371267 9.51442088,230.855176 C8.41559428,230.339085 6.84741715,229.307282 4.78106064,227.240452 C2.71534058,225.174101 1.68419384,223.606103 1.16820313,222.507092 C0.652212423,221.408081 0.646248011,220.809619 0.637504402,220.539214 C0.638275309,220.563505 0.679534328,220.407105 0.810463679,220.233114 C0.941392997,220.059123 1.13433799,219.85241 1.34240671,219.652642 C1.75854417,219.253107 2.24411192,218.869733 2.41189206,218.752383 L2.41189206,218.753005 C2.54957141,218.65698 2.67086265,218.643889 2.75781074,218.654705 Z M11.7834221,219.278105 C11.6537994,219.278105 11.5371214,219.356707 11.4883454,219.476803 C11.4395694,219.596898 11.4684219,219.734573 11.5613128,219.82498 L12.9288109,221.192478 L8.2825526,221.192478 C8.16767431,221.190853 8.06082029,221.251209 8.00290702,221.350435 C7.94499376,221.44966 7.94499376,221.572382 8.00290702,221.671608 C8.06082029,221.770833 8.16767431,221.83119 8.2825526,221.829565 L12.9288109,221.829565 L11.5613128,223.197063 C11.4780962,223.276959 11.4445743,223.395601 11.4736754,223.507232 C11.5027766,223.618863 11.5899533,223.70604 11.7015844,223.735141 C11.8132155,223.764242 11.9318572,223.73072 12.0117533,223.647504 L13.8950185,221.764239 C13.9738681,221.704148 14.0202495,221.610776 14.0204943,221.511639 C14.0207372,221.412503 13.9748157,221.318903 13.8962628,221.258426 C13.8956421,221.258009 13.89502,221.257594 13.8943964,221.257182 L12.0117533,219.374539 C11.9517807,219.31289 11.8694295,219.278105 11.7834221,219.278105 Z" id="i-call"></path>
                </g>
            </g>
        </g>
    </g>
</svg>