<svg id="Layer_1" data-name="Layer 1" xmlns="http://www.w3.org/2000/svg" xmlns:xlink="http://www.w3.org/1999/xlink" viewBox="0 0 385 233.3"><defs><style>.cls-1{fill-rule:evenodd;fill:url(#linear-gradient);}.cls-2{fill:none;}.cls-3{isolation:isolate;}.cls-4{fill:#f9f9f9;}</style><linearGradient id="linear-gradient" y1="117.24" x2="385" y2="117.24" gradientTransform="matrix(1, 0, 0, -1, 0, 233.89)" gradientUnits="userSpaceOnUse"><stop offset="0" stop-color="#fec354"/><stop offset="0" stop-color="#fec950"/><stop offset="0" stop-color="#003f77"/><stop offset="0.12" stop-color="#044279"/><stop offset="0.25" stop-color="#104b80"/><stop offset="0.38" stop-color="#245a8a"/><stop offset="0.5" stop-color="#41709a"/><stop offset="0.63" stop-color="#658bad"/><stop offset="0.76" stop-color="#92adc5"/><stop offset="0.88" stop-color="#c6d4e1"/><stop offset="1" stop-color="#fff"/></linearGradient></defs><g id="Website"><g id="Header"><g id="c-se"><g id="image-placeholder"><path id="path-1" class="cls-1" d="M18,0H367a18.05,18.05,0,0,1,18,18h0V233.3H0V18A18.05,18.05,0,0,1,18,0Z" transform="translate(0 0)"/></g></g></g></g><rect class="cls-2" x="37.3" y="89.7" width="315.3" height="63.1"/><g class="cls-3"><g class="cls-3"><path class="cls-4" d="M38.38,99.06c0-5,3.84-8.64,9-8.64A8.49,8.49,0,0,1,54,93.23l-2,1.89a5.92,5.92,0,0,0-4.49-2,5.91,5.91,0,1,0,0,11.81A5.87,5.87,0,0,0,52,103l2,1.92a8.5,8.5,0,0,1-6.67,2.81C42.22,107.7,38.38,104.07,38.38,99.06Z" transform="translate(0 0)"/><path class="cls-4" d="M57,90.66h3.12v14.16h8.79v2.64H57Z" transform="translate(0 0)"/><path class="cls-4" d="M69.89,99.06c0-5,3.84-8.64,9-8.64s9,3.65,9,8.64-3.84,8.64-9,8.64S69.89,104,69.89,99.06Zm15,0a5.91,5.91,0,1,0-5.91,5.9A5.73,5.73,0,0,0,84.85,99.06Z" transform="translate(0 0)"/><path class="cls-4" d="M91.16,100.14V90.66h3.12V100c0,3.45,1.56,4.94,4.27,4.94s4.25-1.49,4.25-4.94V90.66h3.07v9.48c0,4.9-2.76,7.56-7.34,7.56S91.16,105,91.16,100.14Z" transform="translate(0 0)"/><path class="cls-4" d="M110.24,90.66h7.34c5.45,0,9.17,3.36,9.17,8.4s-3.72,8.4-9.17,8.4h-7.34Zm7.2,14.16c3.74,0,6.17-2.28,6.17-5.76s-2.43-5.76-6.17-5.76h-4.08v11.52Z" transform="translate(0 0)"/></g><g class="cls-3"><path class="cls-4" d="M42.7,122.07v5.12h8.12v2.64H42.7v6.43H39.58v-16.8H51.85v2.61Z" transform="translate(0 0)"/><path class="cls-4" d="M54.73,128.94v-9.48h3.12v9.36c0,3.45,1.56,4.94,4.27,4.94s4.25-1.49,4.25-4.94v-9.36h3.07v9.48c0,4.9-2.76,7.56-7.34,7.56S54.73,133.84,54.73,128.94Z" transform="translate(0 0)"/><path class="cls-4" d="M88.74,119.46v16.8H86.17L76.9,124.88v11.38H73.81v-16.8h2.56l9.27,11.37V119.46Z" transform="translate(0 0)"/><path class="cls-4" d="M93.25,119.46h7.34c5.45,0,9.17,3.36,9.17,8.4s-3.72,8.4-9.17,8.4H93.25Zm7.2,14.16c3.74,0,6.17-2.28,6.17-5.76s-2.43-5.76-6.17-5.76H96.37v11.52Z" transform="translate(0 0)"/><path class="cls-4" d="M123.73,132.37h-8.4l-1.66,3.89h-3.22l7.56-16.8h3.08l7.58,16.8h-3.26Zm-1-2.45-3.16-7.34-3.15,7.34Z" transform="translate(0 0)"/><path class="cls-4" d="M146.24,136.26l0-11.14-5.52,9.22H139.3l-5.52-9.07v11h-3v-16.8h2.56l6.68,11.13,6.55-11.13h2.57l0,16.8Z" transform="translate(0 0)"/><path class="cls-4" d="M166.33,133.64v2.62h-12.6v-16.8H166v2.61h-9.14v4.37H165V129h-8.11v4.63Z" transform="translate(0 0)"/><path class="cls-4" d="M184.73,119.46v16.8h-2.56l-9.27-11.38v11.38h-3.09v-16.8h2.56l9.27,11.37V119.46Z" transform="translate(0 0)"/><path class="cls-4" d="M192.65,122.1h-5.57v-2.64h14.26v2.64h-5.57v14.16h-3.12Z" transform="translate(0 0)"/><path class="cls-4" d="M213.75,132.37h-8.4l-1.66,3.89h-3.21l7.56-16.8h3.07l7.58,16.8h-3.26Zm-1-2.45-3.17-7.34-3.14,7.34Z" transform="translate(0 0)"/><path class="cls-4" d="M220.83,119.46H224v14.16h8.78v2.64h-11.9Z" transform="translate(0 0)"/><path class="cls-4" d="M233.67,134.48l1.08-2.42a9.3,9.3,0,0,0,5.54,1.85c2.62,0,3.72-.94,3.72-2.19,0-3.62-10-1.25-10-7.49,0-2.71,2.16-5,6.77-5a10.62,10.62,0,0,1,5.59,1.49l-1,2.42a9.35,9.35,0,0,0-4.64-1.32c-2.59,0-3.64,1-3.64,2.28,0,3.58,10,1.25,10,7.42,0,2.68-2.19,5-6.8,5A10.82,10.82,0,0,1,233.67,134.48Z" transform="translate(0 0)"/></g></g></svg>