<svg id="Layer_1" data-name="Layer 1" xmlns="http://www.w3.org/2000/svg" xmlns:xlink="http://www.w3.org/1999/xlink" viewBox="0 0 385 233.8"><defs><style>.cls-1{fill:url(#linear-gradient);}.cls-2{fill:none;}.cls-3{isolation:isolate;}.cls-4{fill:#f9f9f9;}</style><linearGradient id="linear-gradient" y1="116.89" x2="385" y2="116.89" gradientTransform="matrix(1, 0, 0, -1, 0, 233.89)" gradientUnits="userSpaceOnUse"><stop offset="0.41"/><stop offset="0.47" stop-color="#060606"/><stop offset="0.54" stop-color="#181818"/><stop offset="0.63" stop-color="#353535"/><stop offset="0.72" stop-color="#5d5d5d"/><stop offset="0.82" stop-color="#909090"/><stop offset="0.93" stop-color="#cecece"/><stop offset="1" stop-color="#fff"/></linearGradient></defs><g id="Website"><g id="image-placeholder"><path id="path-1" class="cls-1" d="M18,.1H367a18.05,18.05,0,0,1,18,18V233.9H0V18.1A18,18,0,0,1,18,.1Z" transform="translate(0 -0.1)"/></g><rect class="cls-2" x="37.3" y="89.6" width="315.3" height="63.1"/><g class="cls-3"><g class="cls-3"><path class="cls-4" d="M39.58,90.66h7.35c5.45,0,9.17,3.36,9.17,8.4s-3.72,8.4-9.17,8.4H39.58Zm7.2,14.16c3.75,0,6.17-2.28,6.17-5.76s-2.42-5.76-6.17-5.76H42.7v11.52Z" transform="translate(0 -0.1)"/><path class="cls-4" d="M70.06,103.57h-8.4L60,107.46H56.79l7.56-16.8h3.07L75,107.46H71.74Zm-1-2.45-3.17-7.34-3.14,7.34Z" transform="translate(0 -0.1)"/><path class="cls-4" d="M79.71,93.3H74.14V90.66H88.4V93.3H82.83v14.16H79.71Z" transform="translate(0 -0.1)"/><path class="cls-4" d="M100.81,103.57h-8.4l-1.66,3.89H87.53l7.57-16.8h3.07l7.58,16.8h-3.26Zm-1-2.45-3.17-7.34-3.15,7.34Z" transform="translate(0 -0.1)"/><path class="cls-4" d="M113.09,105.68l1.08-2.42a9.33,9.33,0,0,0,5.55,1.85c2.62,0,3.72-.94,3.72-2.19,0-3.62-10-1.25-10-7.49,0-2.71,2.16-5,6.77-5a10.66,10.66,0,0,1,5.6,1.49l-1,2.42A9.31,9.31,0,0,0,120.2,93c-2.59,0-3.65,1-3.65,2.28,0,3.58,10,1.25,10,7.42,0,2.68-2.18,5-6.79,5A10.85,10.85,0,0,1,113.09,105.68Z" transform="translate(0 -0.1)"/><path class="cls-4" d="M132.77,93.3h-5.56V90.66h14.25V93.3H135.9v14.16h-3.13Z" transform="translate(0 -0.1)"/><path class="cls-4" d="M154.81,107.46l-3.43-4.92c-.22,0-.44,0-.65,0h-3.8v4.9h-3.12V90.66h6.92c4.41,0,7.15,2.25,7.15,6a5.38,5.38,0,0,1-3.58,5.31l3.87,5.52ZM150.58,93.3h-3.65V100h3.65c2.74,0,4.16-1.24,4.16-3.36S153.32,93.3,150.58,93.3Z" transform="translate(0 -0.1)"/><path class="cls-4" d="M161.21,100.14V90.66h3.12V100c0,3.45,1.56,4.94,4.28,4.94s4.24-1.49,4.24-4.94V90.66h3.08v9.48c0,4.9-2.76,7.56-7.35,7.56S161.21,105,161.21,100.14Z" transform="translate(0 -0.1)"/><path class="cls-4" d="M179.09,99.06c0-5,3.84-8.64,9-8.64a8.49,8.49,0,0,1,6.65,2.81l-2,1.89a5.92,5.92,0,0,0-4.49-2,5.91,5.91,0,1,0,0,11.81,5.87,5.87,0,0,0,4.49-2l2,1.92a8.5,8.5,0,0,1-6.67,2.81C182.93,107.7,179.09,104.07,179.09,99.06Z" transform="translate(0 -0.1)"/><path class="cls-4" d="M201,93.3h-5.57V90.66h14.26V93.3h-5.57v14.16H201Z" transform="translate(0 -0.1)"/><path class="cls-4" d="M211.54,100.14V90.66h3.12V100c0,3.45,1.56,4.94,4.27,4.94s4.25-1.49,4.25-4.94V90.66h3.07v9.48c0,4.9-2.76,7.56-7.34,7.56S211.54,105,211.54,100.14Z" transform="translate(0 -0.1)"/><path class="cls-4" d="M241.61,107.46l-3.43-4.92c-.22,0-.43,0-.65,0h-3.79v4.9h-3.12V90.66h6.91c4.42,0,7.16,2.25,7.16,6a5.38,5.38,0,0,1-3.58,5.31l3.86,5.52ZM237.39,93.3h-3.65V100h3.65c2.74,0,4.15-1.24,4.15-3.36S240.13,93.3,237.39,93.3Z" transform="translate(0 -0.1)"/><path class="cls-4" d="M260.77,104.84v2.62h-12.6V90.66h12.26v2.61h-9.14v4.37h8.11v2.57h-8.11v4.63Z" transform="translate(0 -0.1)"/><path class="cls-4" d="M262.83,105.68l1.08-2.42a9.3,9.3,0,0,0,5.54,1.85c2.62,0,3.72-.94,3.72-2.19,0-3.62-10-1.25-10-7.49,0-2.71,2.16-5,6.77-5a10.62,10.62,0,0,1,5.59,1.49l-1,2.42A9.35,9.35,0,0,0,269.93,93c-2.59,0-3.64,1-3.64,2.28,0,3.58,10,1.25,10,7.42,0,2.68-2.19,5-6.8,5A10.82,10.82,0,0,1,262.83,105.68Z" transform="translate(0 -0.1)"/><path class="cls-4" d="M298.57,107.72l-2.12-2a8.46,8.46,0,0,1-5.64,2c-3.55,0-6.12-1.85-6.12-4.49,0-2.09,1.15-3.55,3.89-5.09a5.07,5.07,0,0,1-1.87-3.69c0-2.36,1.92-4,4.87-4,2.71,0,4.49,1.41,4.49,3.69,0,1.73-1,3-3.43,4.35l3.62,3.45a10.93,10.93,0,0,0,.94-2.83l2.42.79a11.3,11.3,0,0,1-1.51,3.84l2.11,2ZM294.68,104l-4.44-4.25c-1.95,1.08-2.62,2-2.62,3.17,0,1.39,1.34,2.35,3.41,2.35A5.63,5.63,0,0,0,294.68,104Zm-5.24-9.6c0,.74.32,1.29,1.52,2.49,1.94-1.05,2.57-1.75,2.57-2.66s-.7-1.61-1.95-1.61S289.44,93.35,289.44,94.38Z" transform="translate(0 -0.1)"/></g><g class="cls-3"><path class="cls-4" d="M50.48,132.37h-8.4l-1.66,3.89H37.21l7.56-16.8h3.07l7.58,16.8H52.16Zm-1-2.45-3.17-7.34-3.14,7.34Z" transform="translate(0 -0.1)"/><path class="cls-4" d="M57.56,119.46h3.12v14.16h8.78v2.64H57.56Z" transform="translate(0 -0.1)"/><path class="cls-4" d="M83.1,127.67h3v6.69a10.61,10.61,0,0,1-6.58,2.14c-5.21,0-9-3.63-9-8.64s3.84-8.64,9.1-8.64A8.66,8.66,0,0,1,86.26,122l-2,1.92A6.25,6.25,0,0,0,79.66,122a5.91,5.91,0,1,0,0,11.81,6.84,6.84,0,0,0,3.46-.86Z" transform="translate(0 -0.1)"/><path class="cls-4" d="M89,127.86c0-5,3.84-8.64,9-8.64s9,3.65,9,8.64-3.84,8.64-9,8.64S89,132.83,89,127.86Zm15,0a5.91,5.91,0,1,0-5.9,5.9A5.73,5.73,0,0,0,103.9,127.86Z" transform="translate(0 -0.1)"/><path class="cls-4" d="M121.35,136.26l-3.43-4.92c-.22,0-.43,0-.65,0h-3.79v4.9h-3.12v-16.8h6.91c4.42,0,7.15,2.25,7.15,6a5.37,5.37,0,0,1-3.57,5.31l3.86,5.52Zm-4.22-14.16h-3.65v6.69h3.65c2.73,0,4.15-1.24,4.15-3.36S119.86,122.1,117.13,122.1Z" transform="translate(0 -0.1)"/><path class="cls-4" d="M127.9,119.46H131v16.8H127.9Z" transform="translate(0 -0.1)"/><path class="cls-4" d="M139,122.1H133.4v-2.64h14.25v2.64h-5.56v14.16H139Z" transform="translate(0 -0.1)"/><path class="cls-4" d="M164.94,119.46v16.8h-3.13v-7.2h-8.68v7.2H150v-16.8h3.12v6.93h8.68v-6.93Z" transform="translate(0 -0.1)"/><path class="cls-4" d="M184.88,136.26l0-11.14-5.52,9.22h-1.39l-5.52-9.07v11h-3v-16.8H172l6.68,11.13,6.55-11.13h2.57l0,16.8Z" transform="translate(0 -0.1)"/><path class="cls-4" d="M191,134.48l1.08-2.42a9.3,9.3,0,0,0,5.54,1.85c2.62,0,3.72-.94,3.72-2.19,0-3.62-10-1.25-10-7.49,0-2.71,2.16-5,6.77-5a10.62,10.62,0,0,1,5.59,1.49l-1,2.42a9.35,9.35,0,0,0-4.64-1.32c-2.59,0-3.64,1-3.64,2.28,0,3.58,10,1.25,10,7.42,0,2.68-2.19,5-6.8,5A10.82,10.82,0,0,1,191,134.48Z" transform="translate(0 -0.1)"/></g></g></g></svg>