<svg id="Layer_1" data-name="Layer 1" xmlns="http://www.w3.org/2000/svg" xmlns:xlink="http://www.w3.org/1999/xlink" viewBox="0 0 385 233"><defs><style>.cls-1{fill-rule:evenodd;fill:url(#linear-gradient);}.cls-2{fill:none;}.cls-3{isolation:isolate;}.cls-4{fill:#f9f9f9;}</style><linearGradient id="linear-gradient" y1="116.89" x2="385" y2="116.89" gradientTransform="matrix(1, 0, 0, -1, 0, 233.89)" gradientUnits="userSpaceOnUse"><stop offset="0" stop-color="#ff5701"/><stop offset="0.28" stop-color="#ff5803"/><stop offset="0.42" stop-color="#ff5d0b"/><stop offset="0.53" stop-color="#ff6618"/><stop offset="0.62" stop-color="#ff722a"/><stop offset="0.7" stop-color="#ff8243"/><stop offset="0.77" stop-color="#ff9660"/><stop offset="0.84" stop-color="#ffad84"/><stop offset="0.9" stop-color="#ffc9ad"/><stop offset="0.96" stop-color="#ffe6da"/><stop offset="1" stop-color="#fff"/></linearGradient></defs><g id="Website"><g id="Header"><g id="c-se"><g id="image-placeholder"><path id="path-1" class="cls-1" d="M18,.5H367a18.05,18.05,0,0,1,18,18v215H0V18.5A18.05,18.05,0,0,1,18,.5Z" transform="translate(0 -0.5)"/><rect class="cls-2" x="34.8" y="85" width="315.3" height="63.1"/><g class="cls-3"><g class="cls-3"><path class="cls-4" d="M37.08,86.47h7.35c5.45,0,9.17,3.36,9.17,8.4s-3.72,8.4-9.17,8.4H37.08Zm7.2,14.16c3.75,0,6.17-2.28,6.17-5.76S48,89.11,44.28,89.11H40.2v11.52Z" transform="translate(0 -0.5)"/><path class="cls-4" d="M69.51,100.66v2.61H56.91V86.47H69.17v2.62H60v4.37h8.11V96H60v4.64Z" transform="translate(0 -0.5)"/><path class="cls-4" d="M88.11,86.47l-7.32,16.8H77.71l-7.34-16.8h3.38l5.6,13,5.64-13Z" transform="translate(0 -0.5)"/><path class="cls-4" d="M88.51,94.87c0-5,3.84-8.64,9-8.64s9,3.65,9,8.64-3.84,8.64-9,8.64S88.51,99.84,88.51,94.87Zm15,0a5.91,5.91,0,1,0-5.91,5.91A5.72,5.72,0,0,0,103.47,94.87Z" transform="translate(0 -0.5)"/><path class="cls-4" d="M124,92.45c0,3.69-2.74,6-7.16,6H113v4.85h-3.12V86.47h6.91C121.25,86.47,124,88.73,124,92.45Zm-3.15,0c0-2.11-1.41-3.34-4.15-3.34H113v6.67h3.65C119.43,95.78,120.84,94.56,120.84,92.45Z" transform="translate(0 -0.5)"/><path class="cls-4" d="M125.93,101.5,127,99.07a9.3,9.3,0,0,0,5.54,1.85c2.62,0,3.72-.93,3.72-2.18,0-3.63-10-1.25-10-7.49,0-2.71,2.16-5,6.77-5a10.62,10.62,0,0,1,5.59,1.49l-1,2.42A9.45,9.45,0,0,0,133,88.82c-2.59,0-3.64,1-3.64,2.28,0,3.58,10,1.25,10,7.42,0,2.69-2.19,5-6.8,5A10.82,10.82,0,0,1,125.93,101.5Z" transform="translate(0 -0.5)"/></g><g class="cls-3"><path class="cls-4" d="M52,127.51c0,2.88-2.25,4.56-6.57,4.56H37.08v-16.8H45c4,0,6.19,1.71,6.19,4.37a4,4,0,0,1-2.16,3.7A4.13,4.13,0,0,1,52,127.51ZM40.2,117.72v4.63h4.42c2.16,0,3.38-.77,3.38-2.3s-1.22-2.33-3.38-2.33Zm8.67,9.48c0-1.68-1.27-2.42-3.63-2.42h-5v4.85h5C47.6,129.63,48.87,128.88,48.87,127.2Z" transform="translate(0 -0.5)"/><path class="cls-4" d="M54.15,123.67c0-5,3.84-8.64,9-8.64s9,3.65,9,8.64-3.84,8.64-9,8.64S54.15,128.64,54.15,123.67Zm14.95,0a5.91,5.91,0,1,0-5.91,5.91A5.72,5.72,0,0,0,69.1,123.67Z" transform="translate(0 -0.5)"/><path class="cls-4" d="M74.35,123.67c0-5,3.84-8.64,9.05-8.64s9,3.65,9,8.64-3.84,8.64-9,8.64S74.35,128.64,74.35,123.67Zm15,0a5.91,5.91,0,1,0-5.91,5.91A5.72,5.72,0,0,0,89.31,123.67Z" transform="translate(0 -0.5)"/><path class="cls-4" d="M98.93,117.91H93.36v-2.64h14.26v2.64h-5.57v14.16H98.93Z" transform="translate(0 -0.5)"/><path class="cls-4" d="M108.53,123.67c0-5,3.84-8.64,9-8.64a8.52,8.52,0,0,1,6.65,2.81l-2,1.9a5.89,5.89,0,0,0-4.49-2,5.91,5.91,0,1,0,0,11.81,5.84,5.84,0,0,0,4.49-2l2,1.92a8.53,8.53,0,0,1-6.67,2.8C112.37,132.31,108.53,128.69,108.53,123.67Z" transform="translate(0 -0.5)"/><path class="cls-4" d="M137.71,128.18h-8.4l-1.65,3.89h-3.22l7.56-16.8h3.07l7.59,16.8H139.4Zm-1-2.44-3.17-7.35-3.14,7.35Z" transform="translate(0 -0.5)"/><path class="cls-4" d="M160.23,132.07l0-11.13-5.52,9.21h-1.39l-5.52-9.07v11h-3v-16.8h2.57L154,126.41l6.56-11.14h2.56l0,16.8Z" transform="translate(0 -0.5)"/><path class="cls-4" d="M181.78,121.25c0,3.69-2.74,6-7.15,6h-3.8v4.85h-3.12v-16.8h6.92C179,115.27,181.78,117.53,181.78,121.25Zm-3.15,0c0-2.11-1.41-3.34-4.15-3.34h-3.65v6.68h3.65C177.22,124.59,178.63,123.36,178.63,121.25Z" transform="translate(0 -0.5)"/></g></g></g></g></g></g></svg>