<?xml version="1.0" encoding="UTF-8"?>
<svg width="51px" height="41px" viewBox="0 0 51 41" version="1.1" xmlns="http://www.w3.org/2000/svg" xmlns:xlink="http://www.w3.org/1999/xlink">
    <title>i-employees</title>
    <g id="Website" stroke="none" stroke-width="1" fill="none" fill-rule="evenodd" opacity="0.100000001">
        <g id="Header" transform="translate(-508.000000, -558.000000)" fill-rule="nonzero">
            <g id="Rectangle" transform="translate(357.772947, 545.279715)">
                <g id="i-employees" transform="translate(150.227053, 12.720285)">
                    <polygon id="Path" fill="#FFFFFF" points="12.8917526 22.8247423 34.871134 22.8247423 43.3247423 39.7319588 4.43814433 39.7319588"></polygon>
                    <path d="M41.2536082,41 L39.0979381,41 C38.3793814,41 37.8298969,40.4505155 37.8298969,39.7319588 C37.8298969,39.0134021 38.3793814,38.4639175 39.0979381,38.4639175 L41.2536082,38.4639175 L39.1824742,34.3639175 C38.8865979,33.7298969 39.1402062,32.9690722 39.7319588,32.6731959 C40.3659794,32.3773196 41.1268041,32.6309278 41.4226804,33.2226804 L43.4938144,37.3226804 C43.8742268,38.1257732 43.8319588,39.0556701 43.3670103,39.7742268 C42.9443299,40.5350515 42.1412371,41 41.2536082,41 Z M6.34020619,36.857732 C6.12886598,36.857732 5.95979381,36.8154639 5.74845361,36.7309278 C5.11443299,36.3927835 4.86082474,35.6319588 5.19896907,35.0402062 L6.12886598,33.2226804 C6.46701031,32.5886598 7.22783505,32.3350515 7.81958763,32.6731959 C8.45360825,33.0113402 8.70721649,33.7721649 8.36907216,34.3639175 L7.43917526,36.1814433 C7.27010309,36.6041237 6.80515464,36.857732 6.34020619,36.857732 Z" id="Shape" fill="#444B54"></path>
                    <path d="M9.72164948,39.7319588 L1.26804124,39.7319588 C1.26804124,37.4072165 3.17010309,35.5051546 5.49484536,35.5051546 C7.81958763,35.5051546 9.72164948,37.4072165 9.72164948,39.7319588 Z" id="Path" fill="#FFFFFF"></path>
                    <path d="M1.26804124,41 C0.549484536,41 0,40.4505155 0,39.7319588 C0,36.6886598 2.45154639,34.2371134 5.49484536,34.2371134 C5.87525773,34.2371134 6.2556701,34.2793814 6.59381443,34.3639175 C7.27010309,34.4907216 7.73505155,35.1670103 7.56597938,35.843299 C7.43917526,36.5195876 6.7628866,36.9845361 6.08659794,36.8154639 C5.87525773,36.7731959 5.70618557,36.7731959 5.49484536,36.7731959 C3.84639175,36.7731959 2.53608247,38.0835052 2.53608247,39.7319588 C2.53608247,40.4505155 1.98659794,41 1.26804124,41 Z M32.5041237,24.0927835 L11.9618557,24.0927835 C11.243299,24.0927835 10.6938144,23.543299 10.6938144,22.8247423 C10.6938144,22.1061856 11.243299,21.556701 11.9618557,21.556701 L32.5041237,21.556701 C33.2226804,21.556701 33.7721649,22.1061856 33.7721649,22.8247423 C33.7721649,23.543299 33.1804124,24.0927835 32.5041237,24.0927835 Z" id="Shape" fill="#444B54"></path>
                    <path d="M23.8814433,1.26804124 C19.2126444,1.26804124 15.4278351,5.05285057 15.4278351,9.72164948 C15.4278351,14.3904484 19.2126444,18.1752577 23.8814433,18.1752577 C28.5502422,18.1752577 32.3350515,14.3904484 32.3350515,9.72164948 C32.3350515,5.05285057 28.5502422,1.26804124 23.8814433,1.26804124 Z" id="Path" fill="#FFFFFF"></path>
                    <path d="M23.8814433,19.443299 C18.5134021,19.443299 14.1597938,15.0896907 14.1597938,9.72164948 C14.1597938,4.35360825 18.5134021,0 23.8814433,0 C29.2494845,0 33.6030928,4.35360825 33.6030928,9.72164948 C33.6030928,15.0896907 29.2494845,19.443299 23.8814433,19.443299 Z M23.8814433,2.53608247 C19.9082474,2.53608247 16.6958763,5.74845361 16.6958763,9.72164948 C16.6958763,13.6948454 19.9082474,16.9072165 23.8814433,16.9072165 C27.8546392,16.9072165 31.0670103,13.6948454 31.0670103,9.72164948 C31.0670103,5.74845361 27.8546392,2.53608247 23.8814433,2.53608247 Z" id="Shape" fill="#444B54"></path>
                    <path d="M12.4690722,39.7319588 L9.76391753,24.3041237 C9.6371134,23.543299 10.228866,22.8247423 11.0319588,22.8247423 L36.7731959,22.8247423 C37.5762887,22.8247423 38.1680412,23.543299 38.0412371,24.3041237 L35.2938144,39.7319588 L12.4690722,39.7319588 Z" id="Path" fill="#E4E9F2"></path>
                    <path d="M23.8814433,29.1649485 C22.7142436,29.1649485 21.7680412,30.1111508 21.7680412,31.2783505 C21.7680412,32.4455502 22.7142436,33.3917526 23.8814433,33.3917526 C25.048643,33.3917526 25.9948454,32.4455502 25.9948454,31.2783505 C25.9948454,30.1111508 25.048643,29.1649485 23.8814433,29.1649485 Z" id="Path" fill="#FFFFFF"></path>
                    <path d="M12.4690722,41 C11.8773196,41 11.3278351,40.5773196 11.2010309,39.943299 L8.53814433,24.5154639 C8.41134021,23.7546392 8.62268041,23.0360825 9.08762887,22.4443299 C9.55257732,21.8525773 10.271134,21.556701 11.0319588,21.556701 L36.7731959,21.556701 C37.5340206,21.556701 38.2525773,21.8948454 38.7175258,22.4443299 C39.1824742,23.0360825 39.3938144,23.7546392 39.2670103,24.5154639 L36.5618557,39.943299 C36.4350515,40.6195876 35.8010309,41.0845361 35.0824742,40.957732 C34.4061856,40.8309278 33.9412371,40.1969072 34.0680412,39.4783505 L36.7309278,24.0927835 L11.0319588,24.0927835 L13.7371134,39.5206186 C13.8639175,40.1969072 13.3989691,40.8731959 12.7226804,41 C12.5958763,41 12.5536082,41 12.4690722,41 Z" id="Path" fill="#444B54"></path>
                    <path d="M39.0979381,41 L8.45360825,41 C7.73505155,41 7.18556701,40.4505155 7.18556701,39.7319588 C7.18556701,39.0134021 7.73505155,38.4639175 8.45360825,38.4639175 L39.0979381,38.4639175 C39.8164948,38.4639175 40.3659794,39.0134021 40.3659794,39.7319588 C40.3659794,40.4505155 39.8164948,41 39.0979381,41 Z M49.242268,41 C48.9041237,41 48.5659794,40.8731959 48.3546392,40.6195876 C48.3123711,40.5773196 48.2278351,40.4927835 48.185567,40.4082474 C48.143299,40.3237113 48.1010309,40.2814433 48.0587629,40.1969072 C48.0164948,40.1123711 48.0164948,40.0278351 47.9742268,39.943299 C47.9742268,39.8587629 47.9319588,39.7742268 47.9319588,39.6896907 C47.9319588,39.3515464 48.0587629,39.0134021 48.3123711,38.8020619 C48.7773196,38.3371134 49.6226804,38.3371134 50.0876289,38.8020619 C50.3412371,39.0556701 50.4680412,39.3515464 50.4680412,39.6896907 C50.4680412,40.0278351 50.3412371,40.3659794 50.0876289,40.5773196 C49.9185567,40.8731959 49.5804124,41 49.242268,41 Z" id="Shape" fill="#444B54"></path>
                </g>
            </g>
        </g>
    </g>
</svg>