<svg id="Layer_1" data-name="Layer 1" xmlns="http://www.w3.org/2000/svg" xmlns:xlink="http://www.w3.org/1999/xlink" viewBox="0 0 385 233.3"><defs><style>.cls-1{fill:url(#linear-gradient);}.cls-2{fill:none;}.cls-3{isolation:isolate;}.cls-4{fill:#fafbfc;}</style><linearGradient id="linear-gradient" y1="724.65" x2="385" y2="724.65" gradientTransform="translate(0 -608)" gradientUnits="userSpaceOnUse"><stop offset="0" stop-color="#334685"/><stop offset="0.43" stop-color="#4364ab"/><stop offset="0.52" stop-color="#4767ad"/><stop offset="0.6" stop-color="#5271b2"/><stop offset="0.68" stop-color="#6680ba"/><stop offset="0.76" stop-color="#8197c7"/><stop offset="0.84" stop-color="#a3b4d6"/><stop offset="0.92" stop-color="#ced6e9"/><stop offset="1" stop-color="#fff"/></linearGradient></defs><g id="Header"><g id="c-se"><g id="image-placeholder"><path id="path-1" class="cls-1" d="M18,0H367a18.05,18.05,0,0,1,18,18V233.3H0V18A18.05,18.05,0,0,1,18,0Z" transform="translate(0 0)"/></g></g></g><rect class="cls-2" x="44" y="71.9" width="297" height="83"/><g class="cls-3"><g class="cls-3"><path class="cls-4" d="M49.26,95.1v5.11h8.11v2.64H49.26v6.43H46.14V92.48H58.4V95.1Z" transform="translate(0 0)"/><path class="cls-4" d="M61.28,102V92.48H64.4v9.36c0,3.46,1.56,5,4.27,5s4.25-1.49,4.25-5V92.48H76V102c0,4.9-2.76,7.56-7.34,7.56S61.28,106.86,61.28,102Z" transform="translate(0 0)"/><path class="cls-4" d="M80.36,92.48h3.12v14.16h8.79v2.64H80.36Z" transform="translate(0 0)"/><path class="cls-4" d="M94.74,92.48h3.12v14.16h8.78v2.64H94.74Z" transform="translate(0 0)"/><path class="cls-4" d="M107.58,107.51l1.08-2.43a9.3,9.3,0,0,0,5.54,1.85c2.62,0,3.72-.94,3.72-2.18,0-3.63-10-1.25-10-7.49,0-2.72,2.16-5,6.76-5a10.66,10.66,0,0,1,5.6,1.49l-1,2.42a9.31,9.31,0,0,0-4.63-1.32c-2.59,0-3.65,1-3.65,2.28,0,3.58,10,1.25,10,7.42,0,2.69-2.18,5-6.79,5A10.8,10.8,0,0,1,107.58,107.51Z" transform="translate(0 0)"/><path class="cls-4" d="M127.26,95.12h-5.57V92.48H136v2.64h-5.57v14.16h-3.12Z" transform="translate(0 0)"/><path class="cls-4" d="M148.35,105.39H140l-1.65,3.89h-3.22l7.56-16.8h3.07l7.59,16.8H150Zm-1-2.45-3.17-7.34L141,102.94Z" transform="translate(0 0)"/><path class="cls-4" d="M154,100.88c0-5,3.84-8.64,9-8.64a8.49,8.49,0,0,1,6.65,2.81l-2,1.89a5.91,5.91,0,0,0-4.49-2,5.91,5.91,0,1,0,0,11.81,5.84,5.84,0,0,0,4.49-2l2,1.92a8.5,8.5,0,0,1-6.67,2.81C157.83,109.52,154,105.9,154,100.88Z" transform="translate(0 0)"/><path class="cls-4" d="M178.42,102.25,175.76,105v4.29h-3.12V92.48h3.12v8.62l8.3-8.62h3.51L180.51,100l7.49,9.29h-3.65Z" transform="translate(0 0)"/></g><g class="cls-3"><path class="cls-4" d="M57,134.19h-8.4L47,138.08H43.76l7.56-16.8h3.07L62,138.08H58.71Zm-1-2.45-3.17-7.34-3.14,7.34Z" transform="translate(0 0)"/><path class="cls-4" d="M63.61,130.76v-9.48h3.12v9.36c0,3.46,1.56,5,4.27,5s4.25-1.49,4.25-5v-9.36h3.07v9.48c0,4.9-2.76,7.56-7.34,7.56S63.61,135.66,63.61,130.76Z" transform="translate(0 0)"/><path class="cls-4" d="M85.78,123.92H80.22v-2.64H94.47v2.64H88.9v14.16H85.78Z" transform="translate(0 0)"/><path class="cls-4" d="M95.38,129.68c0-5,3.84-8.64,9.05-8.64s9,3.65,9,8.64-3.84,8.64-9,8.64S95.38,134.65,95.38,129.68Zm15,0a5.91,5.91,0,1,0-5.91,5.91A5.72,5.72,0,0,0,110.34,129.68Z" transform="translate(0 0)"/><path class="cls-4" d="M132.23,138.08l0-11.14-5.52,9.22h-1.39l-5.52-9.07v11h-3v-16.8h2.57L126,132.42l6.56-11.14h2.56l0,16.8Z" transform="translate(0 0)"/><path class="cls-4" d="M150.61,134.19h-8.4l-1.66,3.89h-3.21l7.56-16.8H148l7.58,16.8h-3.26Zm-1-2.45-3.17-7.34-3.15,7.34Z" transform="translate(0 0)"/><path class="cls-4" d="M160.26,123.92h-5.57v-2.64h14.25v2.64h-5.56v14.16h-3.12Z" transform="translate(0 0)"/><path class="cls-4" d="M171.3,121.28h3.12v16.8H171.3Z" transform="translate(0 0)"/><path class="cls-4" d="M177.75,129.68c0-5,3.84-8.64,9.05-8.64s9,3.65,9,8.64-3.84,8.64-9,8.64S177.75,134.65,177.75,129.68Zm14.95,0a5.9,5.9,0,1,0-5.9,5.91A5.72,5.72,0,0,0,192.7,129.68Z" transform="translate(0 0)"/><path class="cls-4" d="M214.09,121.28v16.8h-2.57l-9.26-11.38v11.38h-3.1v-16.8h2.57L211,132.66V121.28Z" transform="translate(0 0)"/></g></g></svg>