<?xml version="1.0" encoding="UTF-8"?>
<svg width="106px" height="108px" viewBox="0 0 106 108" version="1.1" xmlns="http://www.w3.org/2000/svg" xmlns:xlink="http://www.w3.org/1999/xlink">
    <title>i-it-emp</title>
    <defs>
        <filter x="-17.9%" y="-8.7%" width="135.9%" height="123.3%" filterUnits="objectBoundingBox" id="filter-1">
            <feOffset dx="0" dy="2" in="SourceAlpha" result="shadowOffsetOuter1"></feOffset>
            <feGaussianBlur stdDeviation="4" in="shadowOffsetOuter1" result="shadowBlurOuter1"></feGaussianBlur>
            <feColorMatrix values="0 0 0 0 0   0 0 0 0 0   0 0 0 0 0  0 0 0 0.1 0" type="matrix" in="shadowBlurOuter1" result="shadowMatrixOuter1"></feColorMatrix>
            <feMerge>
                <feMergeNode in="shadowMatrixOuter1"></feMergeNode>
                <feMergeNode in="SourceGraphic"></feMergeNode>
            </feMerge>
        </filter>
        <path d="M60.6521586,10.2317905 C42.6521586,-7.54863177 27.3200407,0.537677283 24.6521586,14.0838212 C21.9842765,27.6299652 -2.79876327,30.3346666 0.261187502,46.3346666 C3.32113827,62.3346666 36.6521586,52.8346666 36.6521586,67.3346666 C36.6521586,81.8346666 75.1895892,81.3346666 75.1895892,62.3346666 C75.1895892,43.3346666 78.6521586,28.0122127 60.6521586,10.2317905 Z" id="path-2"></path>
    </defs>
    <g id="Website" stroke="none" stroke-width="1" fill="none" fill-rule="evenodd">
        <g id="Header" transform="translate(-242.000000, -3172.000000)">
            <g id="03_Features" transform="translate(122.000000, 3122.000000)">
                <g id="Feature-1" transform="translate(62.000000, 0.000000)" filter="url(#filter-1)">
                    <g id="i-it-emp" transform="translate(73.000000, 65.000000)">
                        <g id="bgicon">
                            <mask id="mask-3" fill="white">
                                <use xlink:href="#path-2"></use>
                            </mask>
                            <use fill-opacity="0.2" fill="#FFFFFF" xlink:href="#path-2"></use>
                            <g id="Color/Blue" opacity="0.2" mask="url(#mask-3)" fill="#B8EBCA">
                                <rect id="Rectangle" x="0" y="0" width="76" height="78"></rect>
                            </g>
                        </g>
                        <g id="icon/home/desktop" transform="translate(10.000000, 11.000000)" stroke-linecap="round" stroke-linejoin="round" stroke-width="3">
                            <g id="Group-7">
                                <polygon id="Stroke-1" stroke="#333333" points="22 56 34 56 34 34 22 34"></polygon>
                                <polygon id="Stroke-3" stroke="#333333" points="0 56 12 56 12 42 0 42"></polygon>
                                <polygon id="Stroke-4" stroke="#333333" points="44 56 56 56 56 22 44 22"></polygon>
                                <polyline id="Stroke-5" stroke="#15C872" points="44 0 56 0 56 12"></polyline>
                                <path d="M56,0 C56,0 34.814,28.892 0,29.968" id="Stroke-6" stroke="#15C872"></path>
                            </g>
                        </g>
                    </g>
                </g>
            </g>
        </g>
    </g>
</svg>