<?xml version="1.0" encoding="UTF-8"?>
<svg width="113px" height="112px" viewBox="0 0 113 112" version="1.1" xmlns="http://www.w3.org/2000/svg" xmlns:xlink="http://www.w3.org/1999/xlink">
    <title>i-it</title>
    <defs>
        <filter x="-17.9%" y="-8.7%" width="135.9%" height="123.3%" filterUnits="objectBoundingBox" id="filter-1">
            <feOffset dx="0" dy="2" in="SourceAlpha" result="shadowOffsetOuter1"></feOffset>
            <feGaussianBlur stdDeviation="4" in="shadowOffsetOuter1" result="shadowBlurOuter1"></feGaussianBlur>
            <feColorMatrix values="0 0 0 0 0   0 0 0 0 0   0 0 0 0 0  0 0 0 0.1 0" type="matrix" in="shadowBlurOuter1" result="shadowMatrixOuter1"></feColorMatrix>
            <feMerge>
                <feMergeNode in="shadowMatrixOuter1"></feMergeNode>
                <feMergeNode in="SourceGraphic"></feMergeNode>
            </feMerge>
        </filter>
        <path d="M60.6521586,10.2317905 C42.6521586,-7.54863177 27.3200407,0.537677283 24.6521586,14.0838212 C21.9842765,27.6299652 -2.79876327,30.3346666 0.261187502,46.3346666 C3.32113827,62.3346666 36.6521586,52.8346666 36.6521586,67.3346666 C36.6521586,81.8346666 75.1895892,81.3346666 75.1895892,62.3346666 C75.1895892,43.3346666 78.6521586,28.0122127 60.6521586,10.2317905 Z" id="path-2"></path>
    </defs>
    <g id="Website" stroke="none" stroke-width="1" fill="none" fill-rule="evenodd">
        <g id="Header" transform="translate(-492.000000, -3641.000000)">
            <g id="03_Features" transform="translate(122.000000, 3122.000000)">
                <g id="Features" transform="translate(62.000000, 0.000000)">
                    <g id="Feature-4" filter="url(#filter-1)" transform="translate(253.000000, 473.000000)">
                        <g id="i-it" transform="translate(70.000000, 61.000000)">
                            <g id="bgicon" transform="translate(3.000000, 4.000000)">
                                <mask id="mask-3" fill="white">
                                    <use xlink:href="#path-2"></use>
                                </mask>
                                <use fill-opacity="0.2" fill="#FFFFFF" xlink:href="#path-2"></use>
                                <g id="Color/Blue" opacity="0.2" mask="url(#mask-3)" fill="#B8EBCA">
                                    <rect id="Rectangle" x="0" y="0" width="76" height="78"></rect>
                                </g>
                            </g>
                            <g id="Group-17" fill-rule="nonzero">
                                <polygon id="Path" fill="#FFFFFF" points="21.0670103 37.2989691 56.9845361 37.2989691 70.7989691 64.9278351 7.25257732 64.9278351"></polygon>
                                <path d="M67.414433,67 L63.8917526,67 C62.7175258,67 61.8195876,66.1020619 61.8195876,64.9278351 C61.8195876,63.7536082 62.7175258,62.8556701 63.8917526,62.8556701 L67.414433,62.8556701 L64.0298969,56.1556701 C63.5463918,55.1195876 63.9608247,53.8762887 64.9278351,53.3927835 C65.9639175,52.9092784 67.2072165,53.3237113 67.6907216,54.2907216 L71.0752577,60.9907216 C71.6969072,62.3030928 71.6278351,63.8226804 70.8680412,64.9969072 C70.1773196,66.2402062 68.8649485,67 67.414433,67 Z M10.3608247,60.2309278 C10.0154639,60.2309278 9.73917526,60.1618557 9.39381443,60.0237113 C8.35773196,59.471134 7.94329897,58.2278351 8.49587629,57.2608247 L10.0154639,54.2907216 C10.5680412,53.2546392 11.8113402,52.8402062 12.7783505,53.3927835 C13.814433,53.9453608 14.228866,55.1886598 13.6762887,56.1556701 L12.156701,59.1257732 C11.8804124,59.8164948 11.1206186,60.2309278 10.3608247,60.2309278 Z" id="Shape" fill="#444B54"></path>
                                <path d="M15.8865979,64.9278351 L2.07216495,64.9278351 C2.07216495,61.128866 5.18041237,58.0206186 8.97938144,58.0206186 C12.7783505,58.0206186 15.8865979,61.128866 15.8865979,64.9278351 Z" id="Path" fill="#FFFFFF"></path>
                                <path d="M2.07216495,67 C0.897938144,67 0,66.1020619 0,64.9278351 C0,59.9546392 4.00618557,55.9484536 8.97938144,55.9484536 C9.60103093,55.9484536 10.2226804,56.0175258 10.7752577,56.1556701 C11.8804124,56.3628866 12.6402062,57.4680412 12.3639175,58.5731959 C12.156701,59.6783505 11.0515464,60.4381443 9.94639175,60.1618557 C9.60103093,60.0927835 9.32474227,60.0927835 8.97938144,60.0927835 C6.28556701,60.0927835 4.1443299,62.2340206 4.1443299,64.9278351 C4.1443299,66.1020619 3.24639175,67 2.07216495,67 Z M53.1164948,39.371134 L19.5474227,39.371134 C18.3731959,39.371134 17.4752577,38.4731959 17.4752577,37.2989691 C17.4752577,36.1247423 18.3731959,35.2268041 19.5474227,35.2268041 L53.1164948,35.2268041 C54.2907216,35.2268041 55.1886598,36.1247423 55.1886598,37.2989691 C55.1886598,38.4731959 54.2216495,39.371134 53.1164948,39.371134 Z" id="Shape" fill="#444B54"></path>
                                <path d="M39.0257732,2.07216495 C31.3962725,2.07216495 25.2113402,8.25709727 25.2113402,15.8865979 C25.2113402,23.5160986 31.3962725,29.7010309 39.0257732,29.7010309 C46.6552739,29.7010309 52.8402062,23.5160986 52.8402062,15.8865979 C52.8402062,8.25709727 46.6552739,2.07216495 39.0257732,2.07216495 Z" id="Path" fill="#FFFFFF"></path>
                                <path d="M39.0257732,31.7731959 C30.2536082,31.7731959 23.1391753,24.6587629 23.1391753,15.8865979 C23.1391753,7.11443299 30.2536082,0 39.0257732,0 C47.7979381,0 54.9123711,7.11443299 54.9123711,15.8865979 C54.9123711,24.6587629 47.7979381,31.7731959 39.0257732,31.7731959 Z M39.0257732,4.1443299 C32.5329897,4.1443299 27.2835052,9.39381443 27.2835052,15.8865979 C27.2835052,22.3793814 32.5329897,27.628866 39.0257732,27.628866 C45.5185567,27.628866 50.7680412,22.3793814 50.7680412,15.8865979 C50.7680412,9.39381443 45.5185567,4.1443299 39.0257732,4.1443299 Z" id="Shape" fill="#444B54"></path>
                                <path d="M20.3762887,64.9278351 L15.9556701,39.7164948 C15.7484536,38.4731959 16.7154639,37.2989691 18.0278351,37.2989691 L60.0927835,37.2989691 C61.4051546,37.2989691 62.3721649,38.4731959 62.1649485,39.7164948 L57.6752577,64.9278351 L20.3762887,64.9278351 Z" id="Path" fill="#15C872"></path>
                                <path d="M39.0257732,47.6597938 C37.118398,47.6597938 35.5721649,49.2060269 35.5721649,51.1134021 C35.5721649,53.0207772 37.118398,54.5670103 39.0257732,54.5670103 C40.9331484,54.5670103 42.4793814,53.0207772 42.4793814,51.1134021 C42.4793814,49.2060269 40.9331484,47.6597938 39.0257732,47.6597938 Z" id="Path" fill="#FFFFFF"></path>
                                <path d="M20.3762887,67 C19.4092784,67 18.5113402,66.3092784 18.3041237,65.2731959 L13.9525773,40.0618557 C13.7453608,38.8185567 14.0907216,37.6443299 14.8505155,36.6773196 C15.6103093,35.7103093 16.7845361,35.2268041 18.0278351,35.2268041 L60.0927835,35.2268041 C61.3360825,35.2268041 62.5103093,35.7793814 63.2701031,36.6773196 C64.0298969,37.6443299 64.3752577,38.8185567 64.1680412,40.0618557 L59.7474227,65.2731959 C59.5402062,66.3783505 58.5041237,67.1381443 57.3298969,66.9309278 C56.2247423,66.7237113 55.4649485,65.6876289 55.6721649,64.5134021 L60.0237113,39.371134 L18.0278351,39.371134 L22.4484536,64.5824742 C22.6556701,65.6876289 21.8958763,66.7927835 20.7907216,67 C20.5835052,67 20.514433,67 20.3762887,67 Z" id="Path" fill="#444B54"></path>
                                <path d="M63.8917526,67 L13.814433,67 C12.6402062,67 11.742268,66.1020619 11.742268,64.9278351 C11.742268,63.7536082 12.6402062,62.8556701 13.814433,62.8556701 L63.8917526,62.8556701 C65.0659794,62.8556701 65.9639175,63.7536082 65.9639175,64.9278351 C65.9639175,66.1020619 65.0659794,67 63.8917526,67 Z M80.4690722,67 C79.9164948,67 79.3639175,66.7927835 79.0185567,66.3783505 C78.9494845,66.3092784 78.8113402,66.171134 78.742268,66.0329897 C78.6731959,65.8948454 78.6041237,65.8257732 78.5350515,65.6876289 C78.4659794,65.5494845 78.4659794,65.4113402 78.3969072,65.2731959 C78.3969072,65.1350515 78.3278351,64.9969072 78.3278351,64.8587629 C78.3278351,64.3061856 78.5350515,63.7536082 78.9494845,63.4082474 C79.7092784,62.6484536 81.0907216,62.6484536 81.8505155,63.4082474 C82.2649485,63.8226804 82.4721649,64.3061856 82.4721649,64.8587629 C82.4721649,65.4113402 82.2649485,65.9639175 81.8505155,66.3092784 C81.5742268,66.7927835 81.0216495,67 80.4690722,67 Z" id="Shape" fill="#444B54"></path>
                            </g>
                        </g>
                    </g>
                </g>
            </g>
        </g>
    </g>
</svg>