<svg id="Layer_1" data-name="Layer 1" xmlns="http://www.w3.org/2000/svg" xmlns:xlink="http://www.w3.org/1999/xlink" viewBox="0 0 385 233.3"><defs><style>.cls-1{fill-rule:evenodd;fill:url(#linear-gradient);}.cls-2{fill:none;}.cls-3{fill:#fdfeff;}</style><linearGradient id="linear-gradient" y1="724.65" x2="385" y2="724.65" gradientTransform="translate(0 -608)" gradientUnits="userSpaceOnUse"><stop offset="0" stop-color="#fec354"/><stop offset="0" stop-color="#fec950"/><stop offset="0" stop-color="#003f77"/><stop offset="0.12" stop-color="#044279"/><stop offset="0.25" stop-color="#104b80"/><stop offset="0.38" stop-color="#245a8a"/><stop offset="0.5" stop-color="#41709a"/><stop offset="0.63" stop-color="#658bad"/><stop offset="0.76" stop-color="#92adc5"/><stop offset="0.88" stop-color="#c6d4e1"/><stop offset="1" stop-color="#fff"/></linearGradient></defs><g id="Website"><g id="Header"><g id="c-se"><g id="image-placeholder"><path id="path-1" class="cls-1" d="M18,0H367a18.05,18.05,0,0,1,18,18h0V233.3H0V18A18.05,18.05,0,0,1,18,0Z" transform="translate(0 0)"/></g></g></g></g><rect class="cls-2" x="37.3" y="89.7" width="315.3" height="63.1"/><path class="cls-3" d="M45.29,104.42l-3.07,3.12v4.35h-2.4V95.09h2.4v9.38l9.12-9.38h2.74l-7.18,7.56,7.63,9.24h-2.8Z" transform="translate(0 0)"/><path class="cls-3" d="M56.69,104.64V95.09h2.4v9.45c0,3.72,1.71,5.4,4.73,5.4s4.75-1.68,4.75-5.4V95.09H70.9v9.55c0,4.87-2.66,7.44-7.1,7.44S56.69,109.51,56.69,104.64Z" transform="translate(0 0)"/><path class="cls-3" d="M90.27,107.35c0,2.88-2.19,4.54-6.43,4.54h-8V95.09h7.54c3.86,0,6,1.63,6,4.34a4,4,0,0,1-2.26,3.74A4.07,4.07,0,0,1,90.27,107.35ZM78.22,97v5.38h4.92c2.45,0,3.84-.92,3.84-2.69S85.59,97,83.14,97Zm9.62,10.13c0-1.94-1.44-2.81-4.1-2.81H78.22v5.59h5.52C86.4,109.94,87.84,109.1,87.84,107.16Z" transform="translate(0 0)"/><path class="cls-3" d="M106.18,109.8v2.09H94V95.09h11.85v2.08H96.39v5.16h8.42v2H96.39v5.43Z" transform="translate(0 0)"/><path class="cls-3" d="M121.3,111.89l-3.62-5.16c-.34,0-.7,0-1.06,0h-4.15v5.11h-2.4V95.09h6.55c4.37,0,7,2.2,7,5.85a5.32,5.32,0,0,1-3.7,5.31l4,5.64Zm-.07-11c0-2.4-1.61-3.77-4.68-3.77h-4.08v7.56h4.08C119.62,104.73,121.23,103.34,121.23,100.94Z" transform="translate(0 0)"/><path class="cls-3" d="M142,95.09v16.8h-2L129.92,99.36v12.53h-2.4V95.09h2l10.08,12.52V95.09Z" transform="translate(0 0)"/><path class="cls-3" d="M159.2,109.8v2.09H147V95.09h11.86v2.08H149.4v5.16h8.43v2H149.4v5.43Z" transform="translate(0 0)"/><path class="cls-3" d="M166.42,97.17h-5.76V95.09h13.9v2.08H168.8v14.72h-2.38Z" transform="translate(0 0)"/><path class="cls-3" d="M189.36,109.8v2.09H177.17V95.09H189v2.08h-9.46v5.16H188v2h-8.43v5.43Z" transform="translate(0 0)"/><path class="cls-3" d="M191.71,110l.89-1.88a8.66,8.66,0,0,0,5.55,2c2.9,0,4.15-1.13,4.15-2.59,0-4.11-10.18-1.52-10.18-7.76,0-2.59,2-4.8,6.44-4.8a9.92,9.92,0,0,1,5.4,1.49l-.8,1.92a8.72,8.72,0,0,0-4.6-1.37c-2.86,0-4.08,1.2-4.08,2.67,0,4.1,10.17,1.53,10.17,7.7,0,2.57-2.06,4.78-6.5,4.78A10,10,0,0,1,191.71,110Z" transform="translate(0 0)"/><path class="cls-3" d="M38.45,132.29c0-5,3.79-8.6,8.91-8.6a8.28,8.28,0,0,1,6.38,2.62l-1.56,1.51a6.22,6.22,0,0,0-4.73-2,6.46,6.46,0,1,0,0,12.91,6.24,6.24,0,0,0,4.73-2l1.56,1.51a8.32,8.32,0,0,1-6.41,2.64C42.24,140.88,38.45,137.26,38.45,132.29Z" transform="translate(0 0)"/><path class="cls-3" d="M69.36,138.6v2.09H57.17v-16.8H69V126H59.57v5.16H68v2H59.57v5.43Z" transform="translate(0 0)"/><path class="cls-3" d="M84.48,140.69l-3.62-5.16c-.34,0-.7.05-1.06.05H75.65v5.11h-2.4v-16.8H79.8c4.37,0,7,2.2,7,5.85a5.3,5.3,0,0,1-3.69,5.31l4,5.64Zm-.07-10.95c0-2.4-1.61-3.77-4.68-3.77H75.65v7.57h4.08C82.8,133.54,84.41,132.14,84.41,129.74Z" transform="translate(0 0)"/><path class="cls-3" d="M93.8,126H88v-2.08h13.89V126H96.17v14.72H93.8Z" transform="translate(0 0)"/><path class="cls-3" d="M104.55,123.89H107v16.8h-2.4Z" transform="translate(0 0)"/><path class="cls-3" d="M114.39,126v5.86h8.42v2.06h-8.42v6.8H112v-16.8h11.85V126Z" transform="translate(0 0)"/><path class="cls-3" d="M127.23,123.89h2.4v16.8h-2.4Z" transform="translate(0 0)"/><path class="cls-3" d="M133.3,132.29c0-5,3.79-8.6,8.9-8.6a8.3,8.3,0,0,1,6.39,2.62L147,127.82a6.22,6.22,0,0,0-4.73-2,6.46,6.46,0,1,0,0,12.91,6.24,6.24,0,0,0,4.73-2l1.56,1.51a8.33,8.33,0,0,1-6.41,2.64C137.09,140.88,133.3,137.26,133.3,132.29Z" transform="translate(0 0)"/><path class="cls-3" d="M162.32,136.49h-8.93l-1.85,4.2h-2.47l7.6-16.8h2.38l7.63,16.8h-2.52Zm-.84-1.92-3.63-8.24-3.62,8.24Z" transform="translate(0 0)"/><path class="cls-3" d="M171.67,126h-5.76v-2.08h13.9V126h-5.76v14.72h-2.38Z" transform="translate(0 0)"/><path class="cls-3" d="M182.43,123.89h2.4v16.8h-2.4Z" transform="translate(0 0)"/><path class="cls-3" d="M188.5,132.29c0-4.92,3.79-8.6,8.95-8.6s8.91,3.65,8.91,8.6-3.8,8.59-8.91,8.59S188.5,137.21,188.5,132.29Zm15.46,0a6.53,6.53,0,1,0-6.51,6.45A6.32,6.32,0,0,0,204,132.29Z" transform="translate(0 0)"/><path class="cls-3" d="M224.48,123.89v16.8h-2l-10.08-12.53v12.53H210v-16.8h2l10.08,12.53V123.89Z" transform="translate(0 0)"/></svg>