<?xml version="1.0" encoding="UTF-8"?>
<svg width="12px" height="18px" viewBox="0 0 12 18" version="1.1" xmlns="http://www.w3.org/2000/svg" xmlns:xlink="http://www.w3.org/1999/xlink">
    <title>i-location</title>
    <g id="Website" stroke="none" stroke-width="1" fill="none" fill-rule="evenodd">
        <g id="Header" transform="translate(-121.000000, -5393.000000)" fill="#15C872" fill-rule="nonzero">
            <g id="footer" transform="translate(-154.000000, 5147.000000)">
                <g id="Group-16" transform="translate(275.000000, 88.000000)">
                    <path d="M6.00007728,158 C2.68572722,158 0,160.685727 0,164.000077 C0,166.741255 1.44623013,169.683758 2.86966596,171.966 C4.29310179,174.248242 5.71809127,175.872789 5.71809127,175.872789 C5.78974532,175.954388 5.89325063,176.000923 6.00184353,176.000366 C6.11043644,175.999799 6.21345465,175.952196 6.28426044,175.869859 C6.28426044,175.869859 7.70838028,174.218303 9.13122098,171.922787 C10.5540621,169.627266 12.0001546,166.68798 12.0001546,164.000077 C12.0001546,160.685727 9.31442734,158 6.00007728,158 Z M6.00007728,158.75001 C8.91080739,158.75001 11.2501449,161.089347 11.2501449,164.000077 C11.2501449,166.412241 9.88370117,169.285232 8.49400602,171.527274 C7.33011478,173.405018 6.34502435,174.610835 5.99788013,175.027563 C5.64902288,174.615325 4.66703861,173.43149 3.50541615,171.569023 C2.11631576,169.341831 0.75000966,166.471467 0.75000966,164.000077 C0.75000966,161.089347 3.08934716,158.75001 6.00007728,158.75001 Z M5.99641498,161.371381 C5.84381693,161.371381 5.70645806,161.463916 5.64903664,161.605298 C5.59161521,161.74668 5.62558166,161.908757 5.73493724,162.015188 L7.71982618,164.000077 L3.37504347,164.000077 C3.23980326,163.998165 3.1140096,164.069219 3.04583133,164.186032 C2.97765307,164.302845 2.97765307,164.447319 3.04583133,164.564132 C3.1140096,164.680945 3.23980326,164.752 3.37504347,164.750087 L7.71982618,164.750087 L5.73493724,166.734976 C5.63697068,166.829033 5.59750711,166.968704 5.63176636,167.100121 C5.66602561,167.231539 5.76865426,167.334168 5.90007172,167.368427 C6.03148919,167.402686 6.17115989,167.363223 6.26521732,167.265256 L8.85729195,164.673182 C8.95011739,164.602441 9.00471985,164.492518 9.00500808,164.37581 C9.00529403,164.259102 8.95123301,164.148912 8.85875672,164.077715 C8.85802606,164.077224 8.85729367,164.076736 8.85655957,164.07625 L6.26521732,161.484908 C6.19461475,161.412332 6.09766696,161.371381 5.99641498,161.371381 L5.99641498,161.371381 Z" id="i-location"></path>
                </g>
            </g>
        </g>
    </g>
</svg>