<svg xmlns="http://www.w3.org/2000/svg" viewBox="0 0 2450 1633.33"><defs><style>.cls-1,.cls-2{fill:#fff;}.cls-1{opacity:0;}.cls-3{fill:#98a0a5;}.cls-4{fill:#622410;}.cls-5{fill:#fccea7;}.cls-6{fill:#5b7889;}.cls-7{fill:#f4dac6;}.cls-8{fill:#9e7666;}.cls-9{fill:#576896;}</style></defs><g id="Bg"><rect class="cls-1" width="2450" height="1633.33"/></g><g id="_ÎÓÈ_1" data-name="—ÎÓÈ_1"><path class="cls-2" d="M779.8,1477.2c.66.1-70.66,44.75-68.34,43.22,2.2,1,151.68,27.23,153,24.33,2.67-1.41,52-65.22,64.27-78.5,8.36-8.64-117.66-3.76-109.3-12.4,4.32-4.46,25.74-14.42,19.12-17.39-28.72-12.85-14-1.52-32-9.9-2.75-1.28-102.25,7.54-104.19,6.07-8.48-6.39-26.74,6.28-35.91,8.64l-88.61,26.17c-9,2.32,134,33.2,134.45,33.73Z"/><path class="cls-2" d="M791,1338c-4.51-11.33-24.31-10.69-35.05-10.62-16.71.11-41.37-.94-56.16,6.84-11.06,5.83,15.31,13,19.88,13.56,21,2.8,39.35,3.32,59.75-2.12C783.8,1344.5,792.81,1342.63,791,1338Z"/><path class="cls-3" d="M1695.17,1343.27c-56.87-1.12-130.75-8.11-168,.9-8.18,2-68.46,124.5-73.53,138-3.8,4.25-144.41,13.34-169.22,13.87-11.8.25-21.94,14.29-10.09,14,26.91-.58,130.89,7.5,155.78,6.38-.71,3.27,184.43-14.79,204.12-20.86.67-.21,15.62-34.86,20-41.73C1666.62,1434.4,1706,1343.49,1695.17,1343.27Z"/><path class="cls-3" d="M822.74,1374.38c-5.5-11.69-10.38-17.41-22.49-15.75-2.9-1-5.17,1.88-8.23,2.21,4.48-5.47,3.11-15.46-4.16-16.38-1.55-.19-52.17,11.51-90.75-1.24-.46-.15-.63,98.25,11.19,105.44,35.09,21.36,68.52,4,68.58,3.31,3.6-1.17,11.56-36.32,12.45-37.15,9.83-6,19.81.84,25.4-8.27,1.69-2.75,7-5.07,7.64-8.09C829.7,1390.16,827.37,1384.23,822.74,1374.38Zm-10-1.36c1.86,2.67-.42,20.73-.34,23.56-2,1.88-8.63,6.72-10.91,8.3-1.54,1-10.26,1-10.92,2.4-.48-3.12,3.44-14.27,2.71-17.33-.39-3.69-.82-7.37-1.25-11,1.72-.53,6-10,7.81-10.42C801.56,1369.51,811.48,1371.21,812.74,1373Z"/><path class="cls-2" d="M1611.19,1421.55a9.25,9.25,0,0,0-3.93-7.92,9.4,9.4,0,0,0-8.16-3c-6.77.54-12.22,6-14.52,12.76a28,28,0,0,0-1.28,5.95,21,21,0,0,0-1.17,7.39c.21,7.72,5.92,13.25,13,11,4.58-1.44,8.73-5.53,10.76-10.47A28.53,28.53,0,0,0,1611.19,1421.55Z"/><path class="cls-4" d="M744.28,1353.09c-18.86,0-50.77-3.18-50.77-15.06s31.91-15,50.77-15,50.76,3.17,50.76,15S763.13,1353.09,744.28,1353.09ZM700.8,1338c2,2.93,17.51,7.85,43.48,7.85s41.52-4.92,43.47-7.85c-2-2.93-17.51-7.85-43.47-7.85S702.76,1335.1,700.8,1338Zm87.08.22h0Z"/><path class="cls-4" d="M746.14,1462.64c-12.51,0-25.61-3.6-39.5-10.79a3.6,3.6,0,1,1,3.31-6.39c25,13,46.21,13.35,66.7,1.28a3.6,3.6,0,1,1,3.66,6.2A66.26,66.26,0,0,1,746.14,1462.64Z"/><path class="cls-4" d="M789.33,1418.42a3.6,3.6,0,0,1-.58-7.15c1.81-.3,3.59-.54,5.33-.77,7.31-1,13.08-1.74,18.18-6.57,5.82-5.5,8.9-13.88,8.68-23.59-.21-9-8.43-17.15-18-17.87-3.85-.3-6.14,1-8.48,4.78a3.6,3.6,0,1,1-6.12-3.8c3.76-6.07,8.57-8.65,15.14-8.16,13.06,1,24.33,12.38,24.62,24.88.27,11.77-3.61,22.07-10.93,29-6.79,6.42-14.27,7.41-22.18,8.47-1.67.22-3.37.45-5.11.73A3,3,0,0,1,789.33,1418.42Z"/><path class="cls-4" d="M708.3,1452.26a3.61,3.61,0,0,1-3.24-2c-3.9-7.94-8.27-23-9.62-29.12-3.38-15.46-2.89-54.35-2.22-82.25a3.6,3.6,0,1,1,7.2.17c-.38,15.86-1.53,64.13,2.06,80.54,1.46,6.66,5.71,20.69,9,27.49a3.61,3.61,0,0,1-3.23,5.19Z"/><path class="cls-4" d="M778.48,1453.44a3.52,3.52,0,0,1-1.63-.39,3.6,3.6,0,0,1-1.58-4.84c3.42-6.75,7.84-20.72,9.39-27.37,3.79-16.36,3.23-64.64,3.05-80.51a3.6,3.6,0,0,1,3.56-3.64h0a3.6,3.6,0,0,1,3.6,3.56c.32,27.91.34,66.8-3.24,82.21-1.43,6.16-6,21.12-10,29A3.59,3.59,0,0,1,778.48,1453.44Z"/><path class="cls-4" d="M792,1410.15a3.6,3.6,0,0,1-.71-7.13c7.09-1.44,13.13-4,14.11-5.29,7.22-9.89,6.39-19.52,5.51-21.37-.73-1.29-5.86-4.61-8.51-4.94h0c-1.48,0-5.65,3.26-7.9,5l-.24.18a3.6,3.6,0,0,1-4.44-5.67l.24-.18c4.62-3.62,9-7,13.27-6.51,4.47.56,12.26,5.11,14.12,9,2.42,5.08,2.1,17.35-6.19,28.72-3.45,4.72-15,7.39-18.5,8.1A3.51,3.51,0,0,1,792,1410.15Z"/><path class="cls-4" d="M840.11,1439.35a3.91,3.91,0,0,1-.75-.08c-6.25-1.32-12.27-2.68-18.1-4-11.15-2.53-21.67-4.92-33.35-6.91a3.6,3.6,0,0,1,1.21-7.1c11.87,2,22.49,4.43,33.74,7,5.8,1.32,11.79,2.68,18,4a3.6,3.6,0,0,1-.74,7.13Z"/><path class="cls-4" d="M574.42,1472a3.6,3.6,0,0,1-1-7.06c25.32-7.39,44.6-13.55,63.25-19.5s38-12.13,63.42-19.55a3.6,3.6,0,0,1,2,6.91c-25.32,7.4-44.61,13.55-63.25,19.5s-38,12.14-63.43,19.55A3.48,3.48,0,0,1,574.42,1472Z"/><path class="cls-4" d="M931.59,1469.85a4,4,0,0,1-.6,0c-31.34-5.25-53.5-6.87-79.17-8.74-11.23-.82-22.84-1.67-36.14-2.88a3.6,3.6,0,1,1,.65-7.17c13.24,1.21,24.82,2,36,2.87,25.84,1.88,48.16,3.51,79.83,8.81a3.6,3.6,0,0,1-.59,7.16Z"/><path class="cls-4" d="M712.25,1504.77a3.47,3.47,0,0,1-.9-.11c-18.26-4.68-36.15-7.9-53.45-11-29.53-5.31-57.43-10.34-84.87-21.89a3.6,3.6,0,0,1,2.79-6.64c26.71,11.25,54.23,16.2,83.36,21.45,17,3.06,34.59,6.22,52.64,10.79,15.44-7.85,30.64-14.15,45.36-20.24,28.15-11.65,54.73-22.65,82.16-43.51a3.6,3.6,0,1,1,4.36,5.73c-28.17,21.43-55.17,32.6-83.76,44.44-15,6.19-30.45,12.6-46.05,20.61A3.6,3.6,0,0,1,712.25,1504.77Z"/><path class="cls-4" d="M864.42,1549.9a3.6,3.6,0,0,1-2.86-5.79c22.06-28.79,37.25-46,56.48-67.9,3.47-3.94,7.06-8,10.83-12.34a3.6,3.6,0,0,1,5.42,4.75L923.45,1481c-19.14,21.75-34.26,38.93-56.17,67.52A3.58,3.58,0,0,1,864.42,1549.9Z"/><path class="cls-4" d="M708,1526.22a3.6,3.6,0,0,1-1.93-6.64c14.7-9.31,27.66-17.2,40.18-24.83,29.64-18.06,55.24-33.66,90.14-59.57a3.6,3.6,0,0,1,4.29,5.78c-35.16,26.11-60.89,41.79-90.68,59.94-12.5,7.62-25.43,15.49-40.08,24.76A3.59,3.59,0,0,1,708,1526.22Z"/><path class="cls-4" d="M864.43,1549.9a3.68,3.68,0,0,1-.66-.06c-52.64-9.66-100.73-18.12-156.15-23.64a3.6,3.6,0,1,1,.71-7.16c55.69,5.54,103.94,14,156.74,23.72a3.6,3.6,0,0,1-.64,7.14Z"/><path class="cls-4" d="M1439.66,1523.85a5.51,5.51,0,0,1-4.93-2.55c-1.79-2.85-1-7,2.7-13.84l.16-.29a3.55,3.55,0,0,1,4.72-1.8,3.66,3.66,0,0,1,1.82,4.81c0,.09-.16.34-.35.7a29.68,29.68,0,0,0-2.52,5.69c29.88-1.55,123.31-12.06,178.3-19.55,6.75-.92,12.76-5.67,16.49-13,52.78-103.89,60.8-125.84,56.93-135.57-1-2.55-2.65-2.77-9.19-2.58l-1.35,0a4.19,4.19,0,0,1-.5,0h-2.32a2.36,2.36,0,0,1-.38,0c-52.19-.41-67.91-.13-98.73.42-12.36.22-27.74.5-48.92.79a3.6,3.6,0,1,1-.1-7.2c21.17-.29,36.54-.57,48.89-.79,31.24-.56,47-.84,100.76-.41l2.45,0c6.14-.17,13.11-.37,16.09,7.12,5.63,14.2-7.13,42.91-57.2,141.49-4.83,9.5-12.82,15.66-21.94,16.91-56.17,7.65-152.42,18.45-180.52,19.68ZM1441,1518h0Z"/><path class="cls-4" d="M1439.86,1514.25a3.65,3.65,0,0,1-1.63-.39,3.6,3.6,0,0,1-1.57-4.85c10-19.63,19.57-41,28.8-61.68,12.9-28.88,26.24-58.75,41-84.08,5.45-9.38,14.57-25.06,26.57-23.53a3.6,3.6,0,1,1-.92,7.14c-7.25-.91-15.17,12.69-19.43,20-14.55,25-27.81,54.69-40.63,83.39-9.27,20.76-18.86,42.23-29,62A3.6,3.6,0,0,1,1439.86,1514.25Z"/><path class="cls-4" d="M1429.35,1520.53h-.27c-50.6-3.79-97.4-6.18-152.09-8.59h-1.15c-5.06,0-7.38,0-10.34-3.83-1.59-2-2.51-5.71,2.08-11.42,3-3.7,7.88-3.52,11.45-3.38.72,0,1.43.07,2.09,0,3.55,0,10.93.08,14.79.28a3.6,3.6,0,0,1-.37,7.19c-3.63-.18-10.93-.31-14.35-.27-.79,0-1.6,0-2.44,0-2-.08-4.85-.19-5.55.69a9.21,9.21,0,0,0-1.73,2.85,2.66,2.66,0,0,0,.5.53,20,20,0,0,0,3.85.15h1.41c54.79,2.42,101.67,4.8,152.39,8.6a3.6,3.6,0,0,1-.27,7.19Z"/><path class="cls-4" d="M1432.87,1507.43h-.19c-24-1.23-48.46-2.37-72.15-3.47s-48.07-2.23-72-3.46a3.61,3.61,0,1,1,.38-7.2c23.89,1.23,48.32,2.37,71.94,3.46s48.21,2.24,72.19,3.48a3.6,3.6,0,0,1-.18,7.2Z"/><path class="cls-4" d="M1590.47,1452.62a11.85,11.85,0,0,1-6.45-1.85c-7.82-4.94-8.92-18.33-2.52-30.48,3.9-7.38,9.84-12.76,15.9-14.38a12.56,12.56,0,0,1,10.2,1.34c7.82,4.94,8.92,18.32,2.52,30.47h0c-3.9,7.39-9.84,12.77-15.9,14.38A14.23,14.23,0,0,1,1590.47,1452.62Zm10.66-40a7.5,7.5,0,0,0-1.87.26c-4.09,1.09-8.46,5.22-11.39,10.78-4.9,9.3-3.94,18.55,0,21a5.49,5.49,0,0,0,4.49.47c4.09-1.1,8.46-5.23,11.39-10.79,4.9-9.29,3.93-18.54,0-21A4.82,4.82,0,0,0,1601.13,1412.61Zm5.8,23.43h0Z"/><path class="cls-4" d="M1274.32,1500.57a3.6,3.6,0,0,1-.32-7.19c43.64-3.93,79.83-6.24,121.74-8.92,17.9-1.14,36.42-2.33,56.66-3.71a3.6,3.6,0,1,1,.49,7.18c-20.25,1.39-38.78,2.57-56.69,3.72-41.86,2.67-78,5-121.56,8.91Z"/><path class="cls-2" d="M1023.81,1428.47c-15.53,3-37.49,9.91-33.52,27.29,1.72,7.52,56.26,5,66.71,2.87,1.35,1,46.44,4.95,53.28-7.29C1112.61,1447.15,1027.51,1427.52,1023.81,1428.47Z"/><path class="cls-5" d="M1485.66,846.81c-1.07,3.69-48.45,71.6-62.81,89-13.28.14-77.52,4.26-87.93,5.34-24.74-1.06-56.1.84-80.75-3.3.13-3.57-23.68-45.92-26.34-19.93-1.23,12-7.91,25.61-8,37.59-2.6-.63-48.14,26-51,57.62-3.27-7.94-24.74-82.38-24.84-89.15-8.19-9.15-6.8,11.23-26.79-12.52-4.49-5.33-12.2-3.34-17.08.77-28.34,9.12-69.49-20.77-116.07-34.74-19-5.69-28-20.08-43.87-33.39-5.87-8.55-59.75-117.38-66-123.49-1.46-1.42-2.88-6.71-4.61-6.95a82.7,82.7,0,0,1-2.71-11.94c-1.28-8.59-10.67-6.38-14.65-.67-2.82,4-24.33,18.65-25.66,18.63-4.92-.07-12.28,5.36-9.19,9.19,15.09,18.68,8.1,44.58,36.32,99.64.29,15.07,36.79,63.44,38.79,66.3,3.8,10.18,37.19,36.94,47.58,47.18-2.6,4.21,40.7,31.14,60.15,41.3,19.83,12.56,30.62,18.49,51.19,29.84-1.77,1.09,5.67,123.2,9.81,151.45.09.65,1,18.08.46,25.59-7.94,27.57-3.34,60.22,2.44,58.52,6.13,6.19,37.17,47.08,74.64,51.36a20.44,20.44,0,0,0,4,2c7,2.57,83.78-4.73,79.43-10.52-1.12-1.49,68.48-37.44,67.93-45.61-.29-4.28-.41-18.79.2-23,5.31,4.08,13.29-152,36.44-173.35,37.94-10,125.82-34.83,128.15-38.87.68-1.18,24.76-23.86,25.43-25,1.24-.71,51.78-106.63,51.2-108.86.72-1.14,7.85-6.46,8.58-7.6C1546.27,859.38,1491.17,827.94,1485.66,846.81ZM1115.52,948.24c-.17.64-.31,1.27-.45,1.91-.55-.8-1.11-1.59-1.69-2.37Z"/><path class="cls-6" d="M1487.52,1293.68c4.13-18.29-7.38-29-7.84-30-.54-1.16-21-26.36-25.44-26.08a73.88,73.88,0,0,0-42-5.52c-15.85,2.4-31.69,4.95-47.52,7.53-1.06-.17-58.23,11.93-85.33,16.58-4.09.71-30.25,33.07-108.91,48.19-1,.18-40.65-7-41.61-7-18.59-1.5-37.7-31-43.4-33-64.63-22.44-117.25-33.28-184.4-20.61-4.7.89-32.1,16.24-32,20.05-.42.15-36.1,44.25-6.31,75.7,33.69,35.55,103.8,68.71,168.72,90.21,32.17,10.66,110.88,31.39,108.82,24.64-1.85-6-1.78-20.65-.85-26.28,4.33-4.77,11.71-30.82,17.66-29.91,9.46,1.44,18.49,15.87,40.82,4.2,3.59,1.67,15-6.7,20.87-11.66,5.44.36,14.25,3.24,19.69,3.6,5.58,6.53,12.92,15.89,19.8,21-2,5.65,9.08,11.85,11.07,10.91,9.16-3.1,16.79-8,25.47-12.22,14-4.38,107-42.47,134.65-64.85C1431.37,1347.75,1487.58,1321.68,1487.52,1293.68Z"/><path class="cls-2" d="M1349.46,1450.09c-11.66-9-23.78-23-38.78-25.27-16.94-2.6-27.52,4.53-44.23-1.16-13.69-4.65-23.15-43.18-48.48-32.66-27.88,11.58-22,24.71-49.93,14.77-1.68,1.35-4,13.41-5.26,15.4-4.39,3.15-1.13,37.57,1.73,38.21,58.08,13.06,123.35,10,182.24,5.94C1356.4,1464.65,1356.6,1455.6,1349.46,1450.09Z"/><path class="cls-2" d="M1206.52,1008.41c-3.55-11.24-7.62-11.3-10.58,3-2.36,11.46,2.18,24,1,35.67-.9,9.05.13,33.89.65,43,2.71,47.31-6.56,55.61,2.32,54.45,12.88-1.68,3.47-59.15,5.53-72.1C1207,1062.47,1210.1,1019.7,1206.52,1008.41Z"/><path class="cls-2" d="M1145.33,1092.11c-4.15-27.56,0-56.92,1.66-84.58.71-11.83-5-16.17-8.63-4.95-6.9,21.38-2.11,139.89,2.3,139.1C1149.86,1140,1147.31,1105.27,1145.33,1092.11Z"/><path class="cls-7" d="M1168.58,1404.45c-1.45-1.23-9.69-5.76-11.46-6.2-3.08-1.54-19.65,23.88-16.39,50.18,1.37,11,15,16,19,6,2.56-6.31-1.72-16-3.34-21.83C1155.33,1428.76,1170.42,1406,1168.58,1404.45Z"/><path class="cls-7" d="M1571.51,781.05c-1.28-6.36-1.93-4.7-5.54-10.2-3.1-4.71-8.38-14.58-12.3-16.58-3.07-6.61-7.64-11.93-16.27-7.25-5.88,3.19-18.62,17.86-20.26,19.63a87.89,87.89,0,0,0-2.11-21.9c-2.15-10.09,3.66-20.84,9.58-30.63.58.11,5.55-17.24,5.49-17.32.2-8.51-5.55-11.76-10.16-3.27-6.61,12.19-21.21,25.71-24,39.46-1.31,6.58.1,12.21,1.82,18.49,4.19,15.27-10.19,29.75-10.17,39.47s6.64,18.44,8.08,28.13c1.2,8.16-4,19.9,1.18,26.86.27.36,26.82,16.41,36.76,13.61,3.71-1,12.38-18.91,14.11-34.21,1.13-10.07,4.94-12.06,12.77-17.25C1571.12,801.08,1573.87,792.85,1571.51,781.05Z"/><path class="cls-7" d="M857.11,630.11a10.39,10.39,0,0,0,2-3.42c5.28-15-1.1-32.08-8.15-45.74-5.44-10.54-7-14.53-10.39-3.2-1.33,4.49,2.4,19.12,2.42,23.48-4.11-2.77-19.59-14.28-22.92-18.73-7-9.35-12.32-6.5-9.22,3.88,2.28,7.61,15.36,19,21.64,23.59-15.6-.17-21.83,1.06-31.63,15.75-2.62,3.92-1,7.72,2.21,9.59-1.14,2-10.12,18.09-9.4,20.46C795,660,808,665.44,808.3,666c-.62,4.38-1.71,9.06-1.76,10.54a57.18,57.18,0,0,0,2.79,19.6c3.06,9.27,10.07,24.66,22.4,21.84,5.75-1.31,12.73-8.41,16.67-12.31,4.35-4.33,5.8-7.74,6.49-13.92.52-4.72.86-9.48,1.1-14.27a108.54,108.54,0,0,0,2.83-15c.94-8.19,2.65-19.77-2.39-27.13C856.7,633.58,856.93,631.84,857.11,630.11Zm-47.94,6.2c1.1-5.17,4-11.45,8.09-12.7.07.71,2.3,19,2.31,19.19l-.34-.25c-2.91-1.91-9.91-4.52-10.48-4.93A9.58,9.58,0,0,0,809.17,636.31Z"/><path class="cls-7" d="M1239.37,841.82c-7.91-2.73-14.52,2.48-18.92,8.83-.46-.49-31.88-50.18-32.85-50.37-3.94-2.69-7.09-5.45-23-5.45-5,0-32.57-6.73-37.06-1.74-6.3,7-15.12,31.77-15.17,32.27-1.3,14.58-3,27.22-1.73,42,1.07,12.79,2,21.34,3.81,34,3.17,22.69,14.72,19.77,32.78,20.85.3,14.32,6.36,59.28,21.42,84.9,5.38,9.14,1.16,2.43,4.34-7.06,6.92-20.6,34.19-28.72,43.22-45.78,5.3-10,16.6-65.84,17.49-75.21.68-.84,12.22-20.48,13.59-22.83C1251.38,849.22,1246.93,844.42,1239.37,841.82Z"/><path class="cls-8" d="M1263.28,803.9c-3.53-30.5-30.35-50.34-60.09-54.26-18.07-2.38-38.07-.11-55.48,5.28-11.83,3.66-29.58,17-29.36,30.54.14,8.26,2.39,11,8.27,5.79,1.83-1.62,21.49,5.46,24.62,5.78,6.47.67,23.82,0,26.21,0,9,6.27,17.68,13.61,23.1,23.32,4.75,8.51,1.71,19,9.38,25.93,2.92,2.63,7.62,3.74,11.13,1.44,5.59-3.67,14.75-9.46,22.79-3.44,4.33,4.39,2,13,.69,17.42-2.41,8.18-4.88,10-10.41,16.33-7.79,8.85-3.42,19.32,4.42,10.43,6.17-7,22.6-37.35,24-46.3C1263,839.83,1265.34,805.34,1263.28,803.9Z"/><path class="cls-2" d="M1144.59,877.25a10.53,10.53,0,0,0-6.33,1.24c-1.07,0-1.2,0-.36,0-.48-.06-1-.14-1.43-.24a13.64,13.64,0,0,1-1.4-.35c.6.16.6.12,0-.1-.4-.18-.79-.37-1.18-.59l-.52-.39a9.39,9.39,0,0,0-13,1.1c-3.09,3.66-2.86,9.92,1.1,12.94a27,27,0,0,0,15.19,5.85c6.07.3,14.5-1.11,15.22-8.74C1152.39,883.2,1149.81,878,1144.59,877.25Z"/><path class="cls-4" d="M1081,1265a3.6,3.6,0,0,1-1-.13l-.59-.17c-56-15.58-108.89-30.3-165.82-20-16.4,3-28.4,7.64-37.76,14.7a3.6,3.6,0,1,1-4.34-5.75c10.29-7.76,23.26-12.86,40.82-16,58.55-10.61,112.22,4.33,169,20.13l.59.17a3.6,3.6,0,0,1-1,7.07Z"/><path class="cls-4" d="M1466.84,1328.68a3.61,3.61,0,0,1-2.26-6.42c12.34-9.86,23.28-19.85,21.56-33.54-.63-5-2.47-10.43-5.8-16.94-10.22-20-25.77-33.35-42.68-36.6-9.17-1.76-18.92-.64-28.93.77-47.43,6.66-84.76,12.56-133.5,27.84a3.6,3.6,0,1,1-2.15-6.87c49.26-15.45,86.88-21.39,134.64-28.11,10.64-1.49,21-2.67,31.3-.7,19.1,3.66,36.5,18.39,47.74,40.4,3.71,7.28,5.79,13.41,6.53,19.31,2.36,18.84-13.63,31.61-24.21,40.07A3.58,3.58,0,0,1,1466.84,1328.68Z"/><path class="cls-4" d="M1144.43,1460.61c-11.25,0-182.89-30.09-274.81-112.41-8.66-7.76-14.12-15-17.19-22.82-6-15.19-1.1-31.92,4.39-47.75,3.55-10.22,7.79-20.64,17.2-25.85a3.6,3.6,0,1,1,3.49,6.3c-7.19,4-10.67,12.63-13.88,21.91-5.26,15.16-9.56,29.84-4.49,42.76,2.64,6.72,7.5,13.11,15.29,20.08,88.84,79.58,259.34,110.58,269.73,110.58h.26a3.63,3.63,0,0,1,3.63,3.44,3.58,3.58,0,0,1-3.39,3.75Z"/><path class="cls-4" d="M1164.51,1405.08a3.56,3.56,0,0,1-1.85-.51c-33.9-20.32-68.56-40.41-103-59.72-3.77-2.11-7.6-4.33-11.47-6.57-10.07-5.82-20.47-11.83-30.75-16.58l-4.53-2.1c-10.16-4.73-20.66-9.62-31.13-12.87-6.76-2.1-12-4.06-17.17-6-10.78-4-21-7.77-43.38-12.23a3.6,3.6,0,0,1,1.41-7.07c23,4.58,33.42,8.45,44.47,12.55,5,1.86,10.23,3.79,16.8,5.83,10.94,3.4,21.67,8.39,32,13.21l4.51,2.1c10.58,4.89,21.13,11,31.33,16.89,3.85,2.22,7.65,4.42,11.39,6.51,34.52,19.35,69.24,39.48,103.2,59.83a3.6,3.6,0,0,1-1.85,6.69Z"/><path class="cls-4" d="M1190.34,1398a3.6,3.6,0,0,1-2.29-6.38c17-14,114.81-88.95,168.14-107.26,7.17-2.46,16.44-9.51,18.9-16.6a3.6,3.6,0,0,1,6.8,2.36c-3.33,9.61-14.52,18-23.36,21.05-52.32,18-149,92.15-165.91,106A3.59,3.59,0,0,1,1190.34,1398Z"/><path class="cls-4" d="M1294,1416.94a3.6,3.6,0,0,1-1.11-7c66.25-21.48,111.23-44.45,171.89-87.77a3.6,3.6,0,0,1,4.19,5.86c-61.33,43.8-106.83,67-173.86,88.76A3.52,3.52,0,0,1,1294,1416.94Z"/><path class="cls-4" d="M1303,1469.85c-33.71,0-68.09-2.68-101.7-5.3-19.79-1.55-38.48-3-57-4a3.6,3.6,0,1,1,.37-7.19c18.64.95,37.38,2.41,57.22,3.95,49.69,3.88,101.07,7.88,149.08,3.09a3.6,3.6,0,0,1,.72,7.17C1335.73,1469.21,1319.45,1469.85,1303,1469.85Z"/><path class="cls-4" d="M1265.1,1427.94a3.64,3.64,0,0,1-2.32-.84,83.06,83.06,0,0,1-9.57-9.83c-2-2.31-4.08-4.71-6.59-7.19a75.67,75.67,0,0,1-5.07-5.75c-2.91-3.54-5.66-6.89-9.48-8.69-5.33-2.51-9.72-2.53-16.76-.09-3.9,1.34-7.42,4-11.16,6.81-5.47,4.12-11.13,8.39-18.51,8.8-5.06.28-9.73-1.39-13.85-2.86-1.59-.57-3.6-1.53-5.72-2.54-1.88-.89-3.81-1.81-5.06-2.26a3.6,3.6,0,0,1,2.43-6.78c1.59.57,3.6,1.53,5.72,2.54,1.88.89,3.81,1.81,5.06,2.26,3.64,1.3,7.41,2.66,11,2.45,5.2-.29,9.76-3.73,14.59-7.36,4-3,8.17-6.15,13.13-7.87,6.4-2.22,13.51-3.7,22.18.38,5.3,2.49,8.7,6.64,12,10.64a66.55,66.55,0,0,0,4.57,5.2c2.7,2.68,4.87,5.18,7,7.59a77.48,77.48,0,0,0,8.76,9,3.6,3.6,0,0,1-2.31,6.36Z"/><path class="cls-4" d="M1144.48,1460.61a3.59,3.59,0,0,1-3-1.69,35.06,35.06,0,0,1-3.75-8.1c-3.36-10.57-2-22.88,4.29-37.62a39.34,39.34,0,0,1,6.14-10.64,24.43,24.43,0,0,1,8.26-6.2,3.6,3.6,0,0,1,3,6.54,17.47,17.47,0,0,0-5.82,4.37,33.23,33.23,0,0,0-5,8.74c-5.55,13.09-6.88,23.77-4.06,32.63a27.81,27.81,0,0,0,3,6.45,3.6,3.6,0,0,1-3,5.52Z"/><path class="cls-4" d="M1350.74,1467.63a3.6,3.6,0,0,1-.26-7.19,7.76,7.76,0,0,0-1.74-6.35c-2.86-3.13-7.54-7-14.63-13l-1.21-1c-9.54-8-17.52-11.88-26.69-13-5.79-.7-11.88.26-17.77,1.18s-13.77.79-21.49.67c-4.68-.08-9.1-.15-12.38,0a3.6,3.6,0,1,1-.41-7.19c3.54-.2,8.09-.13,12.91,0,7.06.1,15.07.23,20.25-.58,6.37-1,13-2.05,19.76-1.22,10.51,1.27,19.9,5.78,30.44,14.63l1.22,1c7.31,6.12,12.14,10.17,15.24,13.58,3.46,3.54,4.88,9.94,3.09,14.19A6.73,6.73,0,0,1,1350.74,1467.63Z"/><path class="cls-4" d="M1163.17,1459a3.6,3.6,0,0,1-3.13-1.81,44.77,44.77,0,0,1-5.24-29.72c1.87-10.86,6-18.52,13.32-24.84a3.6,3.6,0,0,1,4.7,5.46c-6.07,5.22-9.34,11.38-10.92,20.61a38,38,0,0,0,4.39,24.91,3.6,3.6,0,0,1-3.12,5.39Z"/><path class="cls-4" d="M1168,1306.47c-19.27,0-41.09-3.72-61.65-14.14-9-4.58-18-15.81-26-25.71-3.44-4.29-6.68-8.33-9.51-11.3a3.6,3.6,0,0,1,5.22-5c3,3.19,6.37,7.36,9.91,11.76,7.48,9.34,16,19.92,23.61,23.8,44.66,22.63,90.64,11,103.23,5.18,16.69-7.74,67-34.3,72.78-46.77a3.6,3.6,0,1,1,6.53,3c-8.26,17.82-75.61,50-76.28,50.28C1205.67,1302.38,1188.25,1306.47,1168,1306.47Z"/><path class="cls-4" d="M1288.92,1249.44l-.45,0a3.61,3.61,0,0,1-3.13-4c3.32-26.38,7.14-53.14,10.83-79s7.5-52.57,10.81-78.89c1-8.3,2.22-17.7,6.16-26.06a34.07,34.07,0,0,1,18.94-17.59,3.6,3.6,0,0,1,2.64,6.7,26.7,26.7,0,0,0-15.06,14c-3.46,7.33-4.51,15.74-5.53,23.89-3.32,26.38-7.14,53.13-10.83,79s-7.51,52.57-10.81,78.89A3.61,3.61,0,0,1,1288.92,1249.44Z"/><path class="cls-4" d="M1076.27,1259.15a3.58,3.58,0,0,1-2.78-1.32c-2.66-3.24-5.48-4.13-8.47-5.07-2.79-.88-6-1.88-7.91-5-6.55-10.59-3.42-28.78-1.14-42.07.36-2.06.69-4,1-5.77,3.28-21.32,0-43.42-3.19-64.78-1.71-11.48-3.48-23.35-4.26-35.12s-.56-23.64-.37-35.15c.22-12.54.44-25.51-.62-38.12-.33-3.9-.79-8-2.42-11.54-1.57-3.39-4.18-5.8-7-6.45a3.6,3.6,0,1,1,1.63-7c5,1.14,9.39,5,11.88,10.44,2.13,4.6,2.7,9.61,3.07,14,1.09,13,.86,26.12.65,38.84-.2,11.36-.4,23.11.35,34.56s2.5,23.19,4.19,34.53c3.26,21.89,6.63,44.54,3.18,66.94-.27,1.8-.61,3.79-1,5.9-2.09,12.15-5,28.79.17,37,.51.84,1.77,1.26,4,2,3.31,1,7.85,2.47,11.87,7.37a3.61,3.61,0,0,1-2.79,5.89Z"/><path class="cls-4" d="M1332.87,1051a3.6,3.6,0,0,1-1.16-7c20.25-6.88,49.46-15.17,75.23-22.48,21.27-6,43.27-12.27,45.94-13.88,10.17-6.89,28.9-32,35.29-42.81a3.6,3.6,0,0,1,6.2,3.66c-6.85,11.61-26.29,37.55-37.48,45.13-2.84,1.92-15.42,5.6-48,14.83-25.68,7.29-54.79,15.55-74.87,22.37A3.57,3.57,0,0,1,1332.87,1051Z"/><path class="cls-4" d="M1039.91,1008.83a3.49,3.49,0,0,1-1.5-.34c-31.2-14.36-60.65-35.24-86.63-53.66-20.43-14.49-43.58-30.91-59.23-53.09a3.6,3.6,0,0,1,5.88-4.16C913.37,918.76,935,934.11,956,949c25.72,18.24,54.88,38.91,85.47,53a3.61,3.61,0,0,1-1.51,6.88Z"/><path class="cls-4" d="M1489.81,972.68a3.6,3.6,0,0,1-3-5.59c6.85-10.35,11.53-22.19,16.06-33.63,4.32-10.92,8.78-22.22,15.2-32.56l.68-1.09c1.77-2.83,3.45-5.49,4-8.3.11-.58.18-1.16.25-1.74a26.19,26.19,0,0,1,.51-3,22.5,22.5,0,0,1,2-4.93,82.53,82.53,0,0,1,8.12-12.55l.19-.24c1.25-1.59,2.54-3.23,2.61-4.59a1.88,1.88,0,0,0-1.24-.44,3.6,3.6,0,0,1-.88-7.15,9,9,0,0,1,6.9,2.2,7.07,7.07,0,0,1,2.43,5.4c-.06,3.81-2.33,6.7-4.15,9l-.19.23a76.08,76.08,0,0,0-7.42,11.46,16,16,0,0,0-1.42,3.34,19.55,19.55,0,0,0-.35,2.18c-.1.75-.19,1.49-.34,2.23-.8,4.12-3,7.64-5,10.75l-.66,1.06c-6.08,9.79-10.42,20.78-14.62,31.41-4.67,11.79-9.49,24-16.76,34.95A3.59,3.59,0,0,1,1489.81,972.68Z"/><path class="cls-4" d="M1422,939.37a3.6,3.6,0,0,1-2.66-6,237.65,237.65,0,0,0,16.11-20.59c3.48-4.8,7.08-9.77,10.9-14.51,6-7.47,17.4-25,21.14-30.82.64-1,1.07-1.67,1.24-1.91a25.4,25.4,0,0,1,3-3.54c.35-.37.71-.73,1-1.1,2.85-3.11,5-7,7.17-11.19,3.52-6.57,7.15-13.36,14.15-17.21a3.6,3.6,0,1,1,3.47,6.31c-5.12,2.82-8.11,8.4-11.26,14.3-2.34,4.37-4.75,8.88-8.22,12.66l-1.2,1.26a18.72,18.72,0,0,0-2.2,2.51l-1.19,1.82c-3.79,5.86-15.32,23.67-21.57,31.43-3.7,4.6-7.25,9.49-10.68,14.22a242.46,242.46,0,0,1-16.62,21.21A3.59,3.59,0,0,1,1422,939.37Z"/><path class="cls-4" d="M1300.51,945.54c-14.4,0-26.78-1.14-44.68-3.29a3.6,3.6,0,1,1,.86-7.15c23.54,2.82,37.29,4,61.6,2.72,8.54-.45,17.26-1.46,25.68-2.43,13.08-1.51,26.6-3.07,40.09-2.67,3.33.1,6.69.32,9.94.53,8.64.56,16.8,1.09,24.82-.39.78-.14,1.65-.55,4.45-4.07a3.6,3.6,0,1,1,5.64,4.48c-3.13,3.93-5.34,6-8.78,6.68-8.91,1.64-17.9,1-26.6.48-3.19-.2-6.48-.42-9.68-.51-13-.39-26.23,1.14-39,2.62-8.53,1-17.36,2-26.13,2.47C1312,945.37,1306.11,945.54,1300.51,945.54Z"/><path class="cls-4" d="M897.5,906a3.6,3.6,0,0,1-2.82-1.36c-3.27-4.09-49.53-78-56.14-105.38-2-8.42-8.18-23.77-11.48-32a54.33,54.33,0,0,1-2.26-6,12.79,12.79,0,0,1,.6-6.25c.18-.65.36-1.26.45-1.8.68-4-2.3-8.26-5.19-12.39l-.35-.5c-5.33-7.63-6.68-14.22-4-19.58a23.28,23.28,0,0,1,1.28-2.16,6.4,6.4,0,0,0,1.1-2.12,3.6,3.6,0,0,1,7.19.41,11.46,11.46,0,0,1-2.24,5.63,14.53,14.53,0,0,0-.87,1.44c-1.4,2.82-.23,6.95,3.48,12.26l.34.49c3.37,4.82,7.58,10.83,6.39,17.74a24.26,24.26,0,0,1-.62,2.54,8,8,0,0,0-.49,2.71c.21.62,1,2.69,1.91,4.87,3.37,8.41,9.63,24.07,11.79,33,6.23,25.78,51.64,98.66,54.77,102.58A3.61,3.61,0,0,1,897.5,906Z"/><path class="cls-4" d="M1082.12,918.38c-12,0-22.84-5.81-33.4-11.45-3-1.63-6.2-3.31-9.27-4.78-7.67-3.68-16-6.51-24.09-9.24-12.09-4.09-24.6-8.32-35.58-15.6-1.47-1-36.14-24-42.33-30.85-1.48-1.64-5.93-10.41-21.6-42-15.29-30.79-34.33-69.11-41-79.18a11.05,11.05,0,0,0-3.33-3.56c-2.07-1.45-3.58-2.8-5.58-8-.62-1.63-1.28-3.56-2-5.61-.95-2.78-1.94-5.65-2.82-7.73a5.09,5.09,0,0,0-3.05-2.71,1.21,1.21,0,0,0-1.16.11,3.6,3.6,0,1,1-4.38-5.72,8.38,8.38,0,0,1,7.38-1.36,12.26,12.26,0,0,1,7.84,6.87c1,2.31,2,5.31,3,8.2.69,2,1.33,3.87,1.91,5.37,1.36,3.57,2,4,3,4.71a17.9,17.9,0,0,1,5.18,5.45c7,10.46,26.11,49,41.49,80,9.31,18.75,18.94,38.13,20.56,40.41,4.31,4.69,26.78,20.24,40.9,29.6,10.2,6.75,21.72,10.65,33.91,14.78,8.27,2.8,16.83,5.69,24.9,9.56,3.2,1.54,6.42,3.26,9.54,4.93,11.37,6.07,22.11,11.81,33.59,10.38a3.6,3.6,0,0,1,.88,7.15A37.45,37.45,0,0,1,1082.12,918.38Z"/><path class="cls-4" d="M1536.13,863.82a58.59,58.59,0,0,1-42.73-18.92,3.87,3.87,0,0,1-.35-.45c-2.11-3.21-1.92-9.57.34-11.53a3.75,3.75,0,0,1,4.85,0,3.6,3.6,0,0,1,.62,4.69,6.14,6.14,0,0,0,.13,2.73,51.31,51.31,0,0,0,37.14,16.28h.07a3.6,3.6,0,1,1,0,7.2Z"/><path class="cls-4" d="M827,724.16a3.6,3.6,0,0,1-.46-7.17c4.85-.64,9.16-4,13.52-7.74s8.82-7.67,13.09-11.61a3.6,3.6,0,1,1,4.88,5.29c-4.33,4-8.81,8-13.3,11.8-5,4.27-10.46,8.51-17.25,9.4Z"/><path class="cls-4" d="M1514.33,897.44a34.15,34.15,0,0,1-16.07-4.44,94.92,94.92,0,0,1-13.18-9c-4.44-3.44-8.85-7.27-9.82-13.07a3.6,3.6,0,0,1,7.11-1.18c.54,3.23,3.67,5.89,7.11,8.55a89.07,89.07,0,0,0,12.17,8.4,26.66,26.66,0,0,0,13,3.58h.06a3.6,3.6,0,0,1,0,7.2Z"/><path class="cls-4" d="M840.29,751.1a3.6,3.6,0,0,1-1.26-7A57.38,57.38,0,0,0,861.36,729a3.6,3.6,0,1,1,5.33,4.85,64.64,64.64,0,0,1-25.15,17A3.41,3.41,0,0,1,840.29,751.1Z"/><path class="cls-4" d="M1497.18,847.27h-.11a3.6,3.6,0,0,1-3.49-3.71c.33-10.46-1.09-26.17-5-35.92l-.69-1.69a48.5,48.5,0,0,1-2.41-6.76,44.17,44.17,0,0,1-.92-11.72,21.72,21.72,0,0,1,.76-6.12,22.75,22.75,0,0,1,2.43-5l.24-.4a132,132,0,0,0,9.34-19.72,9.44,9.44,0,0,1,3.33-4.76c3.83-2.57,6.42-1.93,7.91-.94,2,1.3,4.87,6,5.18,8.41a3.6,3.6,0,0,1-7.12,1.06,15.41,15.41,0,0,0-1.56-2.8l-.4.25a9.13,9.13,0,0,0-.63,1.4,139.26,139.26,0,0,1-9.86,20.78l-.24.41a17.39,17.39,0,0,0-1.74,3.44,16,16,0,0,0-.44,4.16,37.86,37.86,0,0,0,.71,9.82,43.16,43.16,0,0,0,2.07,5.76c.25.59.49,1.18.73,1.77,4.31,10.77,5.87,27.26,5.5,38.82A3.6,3.6,0,0,1,1497.18,847.27Zm9.44-87.43a.17.17,0,0,0,0,.07A.17.17,0,0,1,1506.62,759.84Z"/><path class="cls-4" d="M1535.42,861.87a3.6,3.6,0,0,1-2.43-6.26c4.56-4.15,8-10.08,10.08-17.63,2-7,2.63-14.42,3.28-21.64a3.6,3.6,0,1,1,7.17.65c-.67,7.55-1.37,15.35-3.52,22.94-2.5,8.87-6.59,15.93-12.16,21A3.62,3.62,0,0,1,1535.42,861.87Z"/><path class="cls-4" d="M1527.75,836.25a3.61,3.61,0,0,1-3.58-3.23,12.17,12.17,0,0,1,.06-2.47l0-.36c.46-5.06-1.61-10.74-6.13-16.88-1.65-2.24-3.44-4.35-5.34-6.59a93.65,93.65,0,0,1-7.77-10.07,17.62,17.62,0,0,1-2.67-6,20.28,20.28,0,0,1,.26-7.43l0-.15c.47-2.84,1.13-6.1,1.76-9.25,1-5,2.53-12.61,2.23-14.32a3.6,3.6,0,0,1,7.1-1.24c.5,2.89-.54,8.33-2.27,17-.62,3.09-1.26,6.29-1.72,9l0,.15a14.5,14.5,0,0,0-.31,4.84,11.46,11.46,0,0,0,1.68,3.58,87.85,87.85,0,0,0,7.2,9.28c1.89,2.23,3.84,4.54,5.64,7,5.6,7.6,8.12,14.94,7.5,21.8l0,.43a6.81,6.81,0,0,0-.06,1,3.62,3.62,0,0,1-3.22,4Z"/><path class="cls-4" d="M1498.29,765.94a3.6,3.6,0,0,1-3.56-3.08,84.72,84.72,0,0,1-.69-15.81c0-2.49.11-5.06,0-8,0-2.1.6-12.74,1.38-15.47,1.07-3.76,17-27.49,23.28-34.07a3.6,3.6,0,0,1,5.2,5c-6.3,6.58-20.55,28.52-21.59,31.19a114.52,114.52,0,0,0-1.07,13.22c.07,3.12,0,5.78,0,8.35a78.44,78.44,0,0,0,.61,14.59,3.59,3.59,0,0,1-3,4.09A4.91,4.91,0,0,1,1498.29,765.94Z"/><path class="cls-4" d="M850.75,708.24h-.24a3.6,3.6,0,0,1-3.35-3.84c1-14.55,3.54-36.44,7.06-52.52l0-.15a17.18,17.18,0,0,0,.65-6.26c-.56-3.28-3.46-5.73-6.82-8.57-2.8-2.36-5.69-4.8-7.69-8.13-.4-.68-.76-1.39-1.12-2.1a12.72,12.72,0,0,0-1.53-2.55,2.12,2.12,0,0,0-.78-.57,12.27,12.27,0,0,0,0,5,3.6,3.6,0,0,1-7.14,1c-.88-6.4.31-10.58,3.54-12.43,3.45-2,7.56-.38,9.84,2.23a18.9,18.9,0,0,1,2.53,4c.28.55.55,1.11.87,1.63,1.38,2.31,3.7,4.27,6.16,6.34,3.87,3.28,8.27,7,9.27,12.86a23.39,23.39,0,0,1-.71,9l0,.14c-3.45,15.72-6,37.18-6.92,51.46A3.6,3.6,0,0,1,850.75,708.24Z"/><path class="cls-4" d="M823.88,719.6a3.6,3.6,0,0,1-2.68-1.2l-17.08-19.1c-1.2-1.34-2.55-5.69-2.37-7.63.71-7.78,2.54-20,3.09-23.6a3.6,3.6,0,1,1,7.12,1.08c-1.1,7.19-2.47,17-3,23a13.31,13.31,0,0,0,.77,2.59l16.86,18.85a3.6,3.6,0,0,1-.29,5.08A3.56,3.56,0,0,1,823.88,719.6Zm-14.09-24.69Zm-.87-2.61v0Z"/><path class="cls-4" d="M829.44,684.23a3.6,3.6,0,0,1-3.56-3.15c-.58-4.58,1.52-8.72,3.06-11.74l9.17-18c.6-1.18,1.35-2.65,1.28-3.66a7.35,7.35,0,0,0-1.46-3l-1-1.38c-3.32-4.79-7.08-10.21-7.45-15.31a3.6,3.6,0,0,1,7.18-.52c.23,3.13,3.53,7.9,6.19,11.73l1,1.4a13.31,13.31,0,0,1,2.71,6.6c.21,3-1.09,5.56-2,7.42l-9.18,18c-1.44,2.83-2.61,5.36-2.33,7.57a3.6,3.6,0,0,1-3.12,4A3.55,3.55,0,0,1,829.44,684.23Z"/><path class="cls-4" d="M858.45,648.47a3.6,3.6,0,0,1-3.58-3.25c-.59-6-.38-17.41.8-23.81.23-1.23.49-2.45.75-3.68.89-4.2,1.73-8.17,1.09-11.89-.57-3.26-2.3-6.37-4.13-9.65-.45-.82-.9-1.63-1.34-2.45a78.5,78.5,0,0,1-6.69-17.13,3.21,3.21,0,0,1-.08-.36,18.66,18.66,0,0,0-.92,4c-.08.56-.16,1.06-.24,1.45a3.61,3.61,0,0,1-7.06-1.47c.06-.29.12-.65.18-1.06.41-2.72,1.1-7.27,4.55-9.46a7.66,7.66,0,0,1,6.51-.68c3,.9,3.62,3.83,3.91,5.24,0,.19.08.38.12.55a71.6,71.6,0,0,0,6.07,15.55c.42.78.85,1.56,1.29,2.33,2,3.67,4.14,7.46,4.92,11.92.89,5.09-.14,9.94-1.14,14.63-.24,1.16-.49,2.32-.7,3.48a100.21,100.21,0,0,0-.72,21.8,3.61,3.61,0,0,1-3.23,3.94Z"/><path class="cls-4" d="M844.39,606.43a3.55,3.55,0,0,1-1.75-.46c-3.6-2-14.78-12.05-26.32-22.62-1.12-1-2-1.84-2.56-2.34a11.23,11.23,0,0,0,.14,2.1,125.11,125.11,0,0,0,5.87,11.9,3.6,3.6,0,0,1-6.22,3.64c-.69-1.18-6.36-11.8-6.74-14.28-1-6.39,1.18-9.09,3.18-10.23a7.15,7.15,0,0,1,7.79.81c.33.28,1.23,1.1,3.4,3.09,5.35,4.89,21.61,19.77,25,21.64a3.6,3.6,0,0,1-1.75,6.75Z"/><path class="cls-4" d="M844.2,628.31a3.54,3.54,0,0,1-1.06-.16,3.6,3.6,0,0,1-2.38-4.5l3.35-10.85a6.53,6.53,0,0,0,.47-2.45c-.13-.43-.3-1.17-.49-2s-.54-2.32-.69-2.72c-.6-1.55-1.18-3-1.74-4.35-2.69-6.63-4.82-11.87-4.68-20.41a3.6,3.6,0,0,1,7.2.12c-.12,7.07,1.58,11.25,4.15,17.58.57,1.4,1.17,2.88,1.79,4.48a29.61,29.61,0,0,1,1,3.67c.16.66.3,1.27.4,1.62a11.28,11.28,0,0,1-.51,6.57l-3.35,10.84A3.59,3.59,0,0,1,844.2,628.31Z"/><path class="cls-4" d="M833.14,624.6a3.67,3.67,0,0,1-3.5-2.68,19.71,19.71,0,0,1-.29-5.1,34.27,34.27,0,0,0-.07-3.79c-.67-1.29-3.07-3.75-6-6.08a18,18,0,0,0-3.49-2.3c-2.1-1.08-3.38-2-6.08-5.7a3.6,3.6,0,0,1,5.82-4.24c2,2.73,2.48,3,3.56,3.54a24.48,24.48,0,0,1,4.71,3.09c2.41,1.94,6.66,5.68,8.09,8.92.66,1.49.67,3.5.62,6.65,0,1.08,0,2.7.05,3.17a3.55,3.55,0,0,1-2.51,4.39A3.51,3.51,0,0,1,833.14,624.6Zm-3.8-11.43h0Z"/><path class="cls-4" d="M813.22,676.08a7,7,0,0,1-4.76-2.33L795,660.32a8.85,8.85,0,0,1-2.27-11.63l4.85-11.14c.26-.59,2.6-5.8,5.59-6.64a3.6,3.6,0,0,1,2.82,6.56,19,19,0,0,0-1.81,3l-4.84,11.13a6.61,6.61,0,0,0-.64,2c.06.38,1,1.29,1.38,1.68l12,11.93a11,11,0,0,0-3.1-7.75l-.34-.33c-1.18-1.15-3-2.9-3-5.62a10.07,10.07,0,0,1,1.35-5.17,19,19,0,0,0,.86-1.89,3.6,3.6,0,1,1,6.74,2.51,22.91,22.91,0,0,1-1.15,2.59,4.62,4.62,0,0,0-.6,1.52,11.9,11.9,0,0,0,.87.91l.4.39a18.31,18.31,0,0,1,4.78,16.59c-.88,3.91-3.44,4.86-4.5,5.08A5.08,5.08,0,0,1,813.22,676.08Zm-.48-22.84h0Zm-7.65-15.4h0Z"/><path class="cls-4" d="M1153.58,974.14a3.6,3.6,0,0,1-3.55-3,163.52,163.52,0,0,1-2.19-23.65l-.07-1.87c-.22-2.46-5.07-19.92-6-21.9a3.62,3.62,0,0,1,1.79-4.76,3.57,3.57,0,0,1,4.74,1.72c1,2.2,6.48,21.47,6.61,24.64l.08,1.87a155.62,155.62,0,0,0,2.1,22.78,3.6,3.6,0,0,1-3,4.14A3.92,3.92,0,0,1,1153.58,974.14Z"/><path class="cls-4" d="M1517.16,771.33a4.55,4.55,0,0,1-.52,0,3.62,3.62,0,0,1-3.05-4.09c1-7.05.3-14.18-.48-21.72-.44-4.23-.89-8.59-1-13a12.88,12.88,0,0,1,.41-4.14,13.24,13.24,0,0,1,2.35-4.18l.18-.25c8.53-11.49,12.32-21.72,11.28-30.39a.6.6,0,1,0-1.1-.46,10.32,10.32,0,0,0-2.41,2.6,3.6,3.6,0,0,1-5.76-4.33,16.69,16.69,0,0,1,4.39-4.39c.17-.11,4.14-2.54,8-.72,1.59.76,3.6,2.5,4.07,6.44,1.27,10.56-3,22.52-12.65,35.54l-.19.27a7.78,7.78,0,0,0-1.22,2,6.57,6.57,0,0,0-.11,1.87c.11,4.09.54,8.32,1,12.41.79,7.65,1.61,15.57.45,23.5A3.62,3.62,0,0,1,1517.16,771.33Z"/><path class="cls-4" d="M1551.69,819.45a6.58,6.58,0,0,1-3.34-.89,7.88,7.88,0,0,1-3.34-4.28,11.76,11.76,0,0,1-.49-6.11,3.61,3.61,0,0,1,7.09,1.31,4.58,4.58,0,0,0,.19,2.38c0,.14.1.25.14.34a6.5,6.5,0,0,0,2-1.37c5.25-4.82,9.61-10.8,13.83-16.58a9.35,9.35,0,0,0,1.66-2.88,7.67,7.67,0,0,0-.15-2.6,43.31,43.31,0,0,0-4.38-12.75,3.6,3.6,0,0,1,6.37-3.37,50.59,50.59,0,0,1,5.1,14.87,13.78,13.78,0,0,1,.1,5.37,14.83,14.83,0,0,1-2.88,5.61c-4.43,6.06-9,12.34-14.78,17.63C1556.45,818.32,1554,819.45,1551.69,819.45Z"/><path class="cls-4" d="M822.15,644a3.58,3.58,0,0,1-1-.15c-3.88-1.13-13.5-4.59-17.55-6.83a3.6,3.6,0,1,1,3.5-6.3c3.21,1.78,12,5,16.07,6.22a3.6,3.6,0,0,1-1,7.06Z"/><path class="cls-4" d="M822.15,644a3.6,3.6,0,0,1-2.61-1.11c-2.41-2.54-2.6-7.13-2.58-12.43,0-.57,0-1.08,0-1.5v-.58c0-.3,0-.68,0-1.08l-.45.59a31.67,31.67,0,0,1-6.65,7,10.4,10.4,0,0,1-12.28.41c-3.27-2-1.88-10.19-1.15-11.4,1.92-3.21,3-4.77,4.42-6.74.64-.92,1.37-1.95,2.3-3.31a11.12,11.12,0,0,1,3.29-3.44,11,11,0,0,1,4.87-1.37l15.18-1.57a3.6,3.6,0,0,1,.74,7.17L812,616.18a6.47,6.47,0,0,0-1.85.35,6.32,6.32,0,0,0-1.1,1.36c-1,1.4-1.71,2.46-2.37,3.4-1.3,1.84-2.25,3.19-3.88,5.89a21.66,21.66,0,0,0-.11,2.6,3.33,3.33,0,0,0,3-.79,25.77,25.77,0,0,0,5.09-5.49c.37-.48.74-1,1.12-1.43a5.42,5.42,0,0,1,3.38-2.18l.25,0c2.53-.46,3.91-.67,5.26.12,3.29,1.91,3.34,5.93,3.38,8.32v.53c0,.47,0,1,0,1.68,0,1.57,0,6.31.67,7.52a3.59,3.59,0,0,1-.2,5A3.54,3.54,0,0,1,822.15,644Zm2.61-6.08ZM816.49,627h0Z"/><path class="cls-4" d="M1529.22,802.88h-.08a8.54,8.54,0,0,1-7.89-6.52A13.56,13.56,0,0,1,1522,788a26,26,0,0,1,4.86-8.18,30.18,30.18,0,0,1,2.6-2.46,22.29,22.29,0,0,0,3-2.94,52.51,52.51,0,0,0,0-6.5c-.15-5.2-.2-8.78.54-11.13a3.6,3.6,0,0,1,6.87,2.18c-.43,1.35-.3,5.8-.21,8.73.16,5.07.2,7.8-.6,9.58-.91,2-2.93,3.8-4.88,5.5a23.66,23.66,0,0,0-1.93,1.79,19,19,0,0,0-3.52,5.91,7,7,0,0,0-.52,4c.19.71.77,1.21,1,1.21h0c.68,0,2.09-1.4,2.62-1.93l14.29-14.22a7.32,7.32,0,0,0,2.9-7.6l-.28-12c0-.51-.29-2.78-.5-4.45s-.44-3.64-.54-4.79a5.18,5.18,0,0,0-8.29-3.67,15.06,15.06,0,0,0-2.32,2.51L1523.93,766a31.27,31.27,0,0,1-2.29,2.33c-.6.58-1.5,1.45-1.71,1.69a3.6,3.6,0,1,1-5.58-4.55,29.65,29.65,0,0,1,2.28-2.31c.6-.59,1.5-1.46,1.71-1.71l13.14-16.4a20.81,20.81,0,0,1,3.59-3.74,12.38,12.38,0,0,1,19.82,8.79c.09,1.09.31,2.84.51,4.55.33,2.65.53,4.32.55,5.14l.28,12a14,14,0,0,1-5,12.89l-14.28,14.22C1535.5,800.26,1532.87,802.88,1529.22,802.88Z"/><path class="cls-4" d="M1542.17,815.86h0c-3.61,0-6.7-3-7.21-7a15.6,15.6,0,0,1,1.3-7.31c1.29-3.48,2.82-6.67,4.3-9.74s2.86-6,4-9.11a3.6,3.6,0,1,1,6.76,2.5c-1.29,3.47-2.82,6.65-4.3,9.73s-2.86,5.95-4,9.11a9.74,9.74,0,0,0-.91,3.91,1.37,1.37,0,0,0,.24.6,11.09,11.09,0,0,0,1.18-.94,124.42,124.42,0,0,0,13.4-13.86,10.54,10.54,0,0,0,2-3.15c.62-2.88,2.59-24.45,1.33-27.84-.86-1.58-3-4.21-5.24-3.29a3.6,3.6,0,0,1-2.74-6.66c5.26-2.17,11,.5,14.37,6.63,3,5.46-.52,32.18-.81,33.18a16.14,16.14,0,0,1-3.39,5.71A130.13,130.13,0,0,1,1548.26,813C1547.15,814,1545.07,815.86,1542.17,815.86Z"/><path class="cls-4" d="M1186.31,1020.32h-.39a3.6,3.6,0,0,1,0-7.2h.35c.91,0,1.48,0,2.12-.07,1.31-.08,2.95-.18,7.59-.1a3.6,3.6,0,0,1-.06,7.2h-.07c-4.36-.08-5.83,0-7,.09C1188.12,1020.27,1187.42,1020.32,1186.31,1020.32Z"/><path class="cls-4" d="M1156.93,1018.2h-.07c-5.58-.1-7.64-1.16-9.48-3.07-.28-.29-.29-.29-.34-.32a3.6,3.6,0,0,1,3.09-6.5,7.78,7.78,0,0,1,2.43,1.82c.33.34.77.8,4.44.87a3.6,3.6,0,0,1-.07,7.2Z"/><path class="cls-4" d="M1207.64,1016.23a3.6,3.6,0,0,1-1.36-6.94c2.13-1,12.23-10.55,27.37-26.88,11.09-12,17-22.53,18.71-33.24l.11-.72c.51-3.21,1-6,.27-9-1-4.51-1.92-8-3-11.18-.2-.61-1.43-3-9-8.36-.39-.27-.85-.6-1.36-1-4.52-3.32-7.45-5-8.7-5a3.6,3.6,0,0,1-3.21-6.44c4.46-2.44,10.2,1.29,16.18,5.67l1.24.91c6.9,4.87,10.61,8.69,11.69,12,1.44,4.46,2.48,8.89,3.14,11.83,1,4.34.39,8.08-.19,11.69l-.11.7c-1.9,12.19-8.43,24-20.53,37-9.16,9.88-25.21,26.73-29.94,28.66A3.66,3.66,0,0,1,1207.64,1016.23Zm23-102.33Zm.34-.12Z"/><path class="cls-4" d="M1138.36,1008.83a3.54,3.54,0,0,1-1.45-.31c-5.56-2.45-10.89-10.12-16.31-23.45l-.15-.34c-2.1-5.14-7.38-24.61-7.68-31.34-.23-4.92,3.88-35.47,4.7-39.36a3.6,3.6,0,1,1,7,1.49c-1,4.63-4.73,33.74-4.56,37.55.27,5.85,5.3,24.39,7.16,28.93l.15.36c6.28,15.44,10.86,18.83,12.54,19.57a3.6,3.6,0,0,1-1.45,6.9Z"/><path class="cls-4" d="M1170.52,1018.2a3.6,3.6,0,0,1-3.27-2.09c-2-4.28-11.55-28.84-13-33.05-.47-1.35-1-2.62-1.5-3.85a42.22,42.22,0,0,1-2.65-8,3.6,3.6,0,0,1,7.06-1.43,35.24,35.24,0,0,0,2.25,6.65c.54,1.31,1.1,2.67,1.63,4.19,1,2.71,4.86,12.79,8.15,21.09,5.41-18.73,18.66-27.78,29.67-35.3,7-4.81,13.12-9,16.14-14.64,4.61-8.66,6.36-18.75,8-28.5a3.6,3.6,0,0,1,7.1,1.23c-1.71,9.83-3.64,21-8.79,30.66-3.86,7.24-10.94,12.07-18.43,17.19-13.21,9-26.86,18.34-28.78,42.49a3.61,3.61,0,0,1-3,3.26A3.36,3.36,0,0,1,1170.52,1018.2Z"/><path class="cls-4" d="M1080.21,918.31a3.6,3.6,0,0,1-.33-7.19l3.22-.3c5.5-.55,15.11-2.6,22.84-4.24,3.66-.78,7.13-1.52,9.75-2a3.6,3.6,0,0,1,1.33,7.07c-2.54.48-6,1.21-9.58,2-8.31,1.77-17.74,3.78-23.63,4.37l-3.26.31Z"/><path class="cls-4" d="M1226.06,931.86a3.58,3.58,0,0,1-3.57-4.16c1.89-11.93,4.33-23.91,7.27-35.6a3.6,3.6,0,0,1,7,1.75c-2.89,11.49-5.29,23.25-7.14,35A3.59,3.59,0,0,1,1226.06,931.86Z"/><path class="cls-4" d="M1142.75,1145.64a9.61,9.61,0,0,1-1.89-.19,9.14,9.14,0,0,1-5.91-3.65c-.83-1.28-1.77-2.74-3.36-46.32-1.14-31.29-2.33-63.63,4.46-95.43a8.61,8.61,0,0,1,2.74-5.19,6.31,6.31,0,0,1,5.22-1.23,8,8,0,0,1,5.29,3.82c1.55,2.76,1.33,5.88,1.19,7.94h0c-.56,8.25-1.17,15.76-1.76,23-.47,5.7-.92,11.28-1.33,17-.36,5,.6,71.66.78,75.46.21,4.45.18,9.32.15,14,0,2.24,0,4.46,0,6.59a3.6,3.6,0,0,1-1.54,3A7,7,0,0,1,1142.75,1145.64Zm.41-144.36c0,.11-.05.21-.06.27-6.61,30.93-5.44,62.82-4.31,93.67,1.11,30.45,1.92,39.62,2.33,42.35,0-.9,0-1.8,0-2.71,0-4.62.06-9.39-.15-13.64-.16-3.38-1.17-70.76-.77-76.33.42-5.73.87-11.33,1.34-17.06.59-7.24,1.2-14.73,1.76-22.93h0A10.45,10.45,0,0,0,1143.16,1001.28Zm3.74,3.86h0Zm-3.45-4.81Z"/><path class="cls-4" d="M1198.82,1148.12a5.67,5.67,0,0,1-1.09-.1,4.88,4.88,0,0,1-3.2-2.16c-1-1.53-1.26-1.95-.72-41.64.2-14,.38-27.33.18-32.65-1.15-31.61-1.14-32.2-.46-62.78v-.32c.06-2.37,3.18-8.21,4.84-9.55a6.3,6.3,0,0,1,5.22-1.22,7.91,7.91,0,0,1,5.28,3.81c1.55,2.75,1.35,5.75,1.2,7.94h0a186,186,0,0,0,.07,19.62,187.18,187.18,0,0,1,0,20.79c-.27,3.72,0,30.05.21,42.71.06,4.63.1,8,.1,9.14,0,8.56-.86,18.85-1.57,27.11-.47,5.61-.89,10.45-.87,13a3.6,3.6,0,0,1-1.54,3C1204,1146.54,1201.34,1148.12,1198.82,1148.12Zm2.17-5.21Zm-.26-134v.06c-.68,31-.68,31,.46,62.36.2,5.5,0,18.86-.17,33-.18,12.48-.4,28.75-.21,35.59l.06,0c.11-2.88.45-6.87.86-11.67.69-8.13,1.55-18.24,1.54-26.49,0-1.08,0-4.48-.1-9.06-.24-19-.46-39.61-.2-43.32a182.58,182.58,0,0,0,0-20,189.79,189.79,0,0,1,0-20.39h0c.09-1.34.2-3-.28-3.89A24.13,24.13,0,0,0,1200.73,1008.89Zm5.75.31h0Zm-5.79-.18Z"/><path class="cls-4" d="M1059.3,1007.79a3.6,3.6,0,0,1-3.56-3.15c-.89-6.93,2.63-13.08,6.58-18.69a220,220,0,0,1,15-19.05,3.6,3.6,0,0,1,5.72,4.35l-.36.54a3.59,3.59,0,0,1-.9,1,210.13,210.13,0,0,0-13.58,17.34c-3.11,4.43-5.91,9.14-5.33,13.64a3.61,3.61,0,0,1-3.12,4A3.44,3.44,0,0,1,1059.3,1007.79Z"/><path class="cls-4" d="M1045.27,987.36a3.55,3.55,0,0,1-2.36-.89,3.6,3.6,0,0,1-.35-5.08,36.13,36.13,0,0,1,15-10.24,3.6,3.6,0,1,1,2.45,6.77,29,29,0,0,0-12,8.2A3.58,3.58,0,0,1,1045.27,987.36Z"/><path class="cls-4" d="M1314.62,1037.32a3.6,3.6,0,0,1-3.09-1.75l-30.94-51.42a3.6,3.6,0,1,1,6.17-3.72l30.94,51.43a3.61,3.61,0,0,1-3.08,5.46Z"/><path class="cls-4" d="M1315.38,1012a3.6,3.6,0,0,1-2.58-1.08l-10.35-10.6a3.6,3.6,0,1,1,5.14-5l10.37,10.6a3.59,3.59,0,0,1-2.58,6.11Z"/><path class="cls-4" d="M1218.82,889a18.52,18.52,0,0,1-2.11-.12,3.6,3.6,0,1,1,.8-7.15c4.69.5,9.93-1.77,14-6.13,3.72-4,6.18-9.07,8.73-15.46,1.3-3.24,2.45-6.41,2.34-9.47-.08-2.25-1.16-5.07-3.34-6-2-.81-4.79-.12-8.42,2a54.18,54.18,0,0,0-7.77,5.61,3.6,3.6,0,0,1-4.72-5.44,61.79,61.79,0,0,1,8.81-6.36c5.76-3.43,10.62-4.25,14.84-2.52,4.53,1.87,7.6,6.72,7.8,12.37.16,4.46-1.32,8.57-2.85,12.4-2.46,6.18-5.4,12.59-10.15,17.7C1231.72,885.94,1225.15,889,1218.82,889Z"/><path class="cls-4" d="M1221,873.84h-.26a3.62,3.62,0,0,1-3.34-3.85,15.37,15.37,0,0,1,10.15-13.25,3.6,3.6,0,1,1,2.37,6.8,8.27,8.27,0,0,0-5.33,7A3.6,3.6,0,0,1,1221,873.84Z"/><path class="cls-4" d="M1141.12,925.79h-.49c-9.92-.11-18.66-3.91-24-10.42S1110,900.8,1109,893.64l-.24-1.85c-1.94-14.62-2.83-21.29-1.69-36.94a3.6,3.6,0,1,1,7.18.52c-1.08,14.91-.28,20.93,1.65,35.48l.24,1.85c.82,6.17,2,13.17,6.06,18.11,3.9,4.78,10.81,7.68,18.47,7.77,7.51.07,15-2.22,21.94-4.73,14.46-5.18,24.61-10.46,32.93-17.11a3.6,3.6,0,1,1,4.5,5.63c-11.62,9.29-25.54,14.87-35,18.26C1157.6,923.31,1149.53,925.79,1141.12,925.79Z"/><path class="cls-4" d="M1116.36,814.43a3.38,3.38,0,0,1-1.13-.18,3.59,3.59,0,0,1-2.29-4.55c3.52-10.67,5.57-13.46,10-19.59,1.22-1.66,2.63-3.59,4.34-6a3.6,3.6,0,1,1,5.91,4.11c-1.74,2.51-3.19,4.49-4.44,6.19-4.26,5.82-5.86,8-9,17.59A3.61,3.61,0,0,1,1116.36,814.43Z"/><path class="cls-4" d="M1149.34,882.29h-.22a240.91,240.91,0,0,1-29.8-3.48,3.6,3.6,0,0,1,1.23-7.1,235.84,235.84,0,0,0,29,3.4,3.6,3.6,0,0,1-.22,7.19Z"/><path class="cls-4" d="M1165.86,831.93a3.55,3.55,0,0,1-2-.63,20,20,0,0,0-15.58-3.23l-.75.13a3.6,3.6,0,1,1-1-7.14l.47-.08a27,27,0,0,1,20.9,4.37,3.6,3.6,0,0,1-2,6.58Z"/><path class="cls-4" d="M1125,826.2a3.7,3.7,0,0,1-.87-.11l-1.38-.35a21,21,0,0,0-2.27-.51l-.44.23a3.6,3.6,0,0,1-3.35-6.38c3-1.56,4.7-1.12,7.84-.32l1.33.34a3.6,3.6,0,0,1-.86,7.1Z"/><path class="cls-4" d="M1128.6,868.32a3.63,3.63,0,0,1-1.91-.55,17.12,17.12,0,0,1-5.92-5.63,9.57,9.57,0,0,1,0-10,12.44,12.44,0,0,1,2.47-2.6c.3-.26.61-.52.89-.8a10.16,10.16,0,0,0,1.82-3.41c.37-1,.66-1.69.91-2.27a10.41,10.41,0,0,0,.92-3.5,3.6,3.6,0,0,1,7.14,1,17.29,17.29,0,0,1-1.42,5.31c-.22.5-.47,1.11-.79,2a16.57,16.57,0,0,1-3.38,5.89c-.49.51-1,.93-1.43,1.31a6.51,6.51,0,0,0-1.12,1.08,2.58,2.58,0,0,0,.26,2.39,10.59,10.59,0,0,0,3.53,3.16,3.6,3.6,0,0,1-1.92,6.65Z"/><path class="cls-4" d="M1132.34,899.76c-.36,0-.71,0-1,0-3.49-.22-7.43-2.84-10.27-6.85-2.34-3.3-5-9.06-4.69-17.78a3.6,3.6,0,1,1,7.2.3c-.51,12.26,6.39,17,8.2,17.14.53,0,12.87.63,14-14.13a3.6,3.6,0,0,1,7.18.56C1151.65,895.53,1139.45,899.76,1132.34,899.76Z"/><path class="cls-4" d="M1158.1,840.6c0,3.32-1.83,6-4.08,6s-4.08-2.69-4.08-6,1.83-6,4.08-6S1158.1,837.29,1158.1,840.6Z"/><path class="cls-4" d="M1123.51,835.93c0,3.32-1.6,6-3.57,6s-3.57-2.69-3.57-6,1.6-6,3.57-6S1123.51,832.62,1123.51,835.93Z"/><path class="cls-4" d="M1150.57,801.46a2.55,2.55,0,0,1-.39,0,12.22,12.22,0,0,1-6.65-3.34c-3.49-3.07-5.92-5.43-7.82-9.9a3.6,3.6,0,0,1,6.63-2.82c1.34,3.16,3,4.68,6,7.32a6.42,6.42,0,0,0,2.66,1.58,3.6,3.6,0,0,1-.38,7.18Z"/><path class="cls-4" d="M1170.11,802.08a3.56,3.56,0,0,1-1.39-.28A39.77,39.77,0,0,1,1154,790.6a3.6,3.6,0,0,1,5.77-4.31,33.16,33.16,0,0,0,11.74,8.87,3.6,3.6,0,0,1-1.4,6.92Z"/><path class="cls-4" d="M1212.38,849.72a3.58,3.58,0,0,1-2.9-1.47c-4.32-5.86-6.8-12.68-9.19-19.28-2.84-7.83-5.53-15.22-11-20.5a53.87,53.87,0,0,0-5.26-4.27,43.79,43.79,0,0,1-8-7.08,3.6,3.6,0,0,1,5.57-4.57,37.87,37.87,0,0,0,6.74,5.88,56.85,56.85,0,0,1,6,4.88c6.63,6.43,9.72,15,12.72,23.2,2.32,6.4,4.52,12.45,8.22,17.47a3.6,3.6,0,0,1-2.9,5.74Z"/><path class="cls-4" d="M1121.89,799.3a3.6,3.6,0,0,1-3.44-2.56c-2.37-7.83-1.22-13.71,1.4-20.65a36.07,36.07,0,0,1,14.69-17.83,3.6,3.6,0,0,1,3.79,6.13,28.84,28.84,0,0,0-11.74,14.24c-2.2,5.82-3,10.09-1.25,16a3.59,3.59,0,0,1-2.4,4.49A3.48,3.48,0,0,1,1121.89,799.3Z"/><path class="cls-4" d="M1152.62,757.15c-6.17,0-11.55-1.91-15.23-5.42a3.6,3.6,0,1,1,5-5.21c3.33,3.17,8.32,3.49,11,3.42a57,57,0,0,0,11-1.84l2.78-.64c4.51-1,10.36-2.08,15.68-1.56a3.6,3.6,0,0,1-.71,7.17c-4.34-.42-9.73.61-13.41,1.42l-2.7.62a63.11,63.11,0,0,1-12.39,2Z"/><path class="cls-4" d="M1243.26,771.24a3.6,3.6,0,0,1-3.17-1.88c-1.46-2.69-4.12-5-8.63-7.35a63,63,0,0,0-18.85-6.46c-1.32-.23-2.67-.42-4-.62-6.9-1-14.72-2.16-20.21-7.69a3.6,3.6,0,1,1,5.12-5.07c3.8,3.83,9.79,4.7,16.13,5.63,1.42.21,2.83.42,4.21.66a70.41,70.41,0,0,1,21,7.18c3.63,1.93,8.77,5.09,11.58,10.29a3.6,3.6,0,0,1-1.45,4.88A3.67,3.67,0,0,1,1243.26,771.24Z"/><path class="cls-4" d="M1239.82,891.1a3.6,3.6,0,0,1-2-6.59c4.48-3,9.29-10.79,12.07-17.15,7.89-18.09,17.65-44.84,11.21-68.28-2.2-8.05-7-17.7-13.72-20.64a3.6,3.6,0,1,1,2.88-6.6c11.42,5,16.5,20.65,17.79,25.33,7,25.65-3.23,54-11.56,73.07-1.08,2.45-6.82,15-14.64,20.24A3.55,3.55,0,0,1,1239.82,891.1Z"/><path class="cls-9" d="M865.33,319l-.45,0c-48.41-6-95.76-10-141.54-13.86-66.83-5.65-135.93-11.5-207-23.54a3.6,3.6,0,1,1,1.2-7.1c70.72,12,136.6,17.56,206.35,23.46,45.86,3.88,93.27,7.89,141.82,13.89a3.6,3.6,0,0,1-.43,7.18Z"/><path class="cls-9" d="M876.32,755a4.14,4.14,0,0,1-.7-.06c-3-.59-3-2.45-3.09-7.95,0-2.92-.1-7.2-.14-12.66-.07-10.47-.11-25.67-.13-45.18,0-35.54,0-84.83.19-138.8.27-99.35.82-207.35,1.33-221.52a3.6,3.6,0,0,1,7.2.26c-1.08,30.1-2.09,406.65-1.14,421.44a3.62,3.62,0,0,1-3.52,4.47Zm3.54-4.18h0Z"/><path class="cls-9" d="M876.8,890.74h0a3.61,3.61,0,0,1-3.55-3.66c.18-11.89-.07-43.4-.3-73.87-.26-32.11-.49-62.44-.21-67.46a3.6,3.6,0,0,1,7.19.41c-.27,4.79,0,36.41.22,67s.48,62.07.3,74A3.61,3.61,0,0,1,876.8,890.74Z"/><path class="cls-9" d="M877.3,336.13a3.6,3.6,0,0,1-3.59-3.43c-.05-1.1,0-2.14,0-3.14s.08-1.71,0-2.49a12.46,12.46,0,0,0-1.64-5.26,9.63,9.63,0,0,0-2.91-2,22.79,22.79,0,0,0-4.06-.74l-2.15-.28a3.6,3.6,0,0,1,1.05-7.13c.71.11,1.36.19,2,.26a28.88,28.88,0,0,1,5.26,1,15.72,15.72,0,0,1,6.55,4.53,19.06,19.06,0,0,1,3.12,9.3c0,1.1,0,2.14,0,3.14s-.07,1.71,0,2.49a3.61,3.61,0,0,1-3.42,3.77Z"/><path class="cls-9" d="M497.22,830.19a3.6,3.6,0,0,1-3.6-3.6c0-19.91,2.7-485.46,5.36-526.22a3.6,3.6,0,0,1,7.19.47c-2.66,40.64-5.35,505.85-5.35,525.75A3.6,3.6,0,0,1,497.22,830.19Z"/><path class="cls-9" d="M502.53,304.91h0a3.59,3.59,0,0,1-3.58-3.62v-1.47c0-6.8.05-14.5,3.82-19.06l.53-.67c2-2.57,5.69-7.35,15.35-5.33a3.6,3.6,0,0,1-1.47,7.05c-5.25-1.09-6.55.57-8.19,2.69-.23.3-.45.59-.67.85-2.13,2.57-2.15,9.46-2.17,14.49v1.5A3.59,3.59,0,0,1,502.53,304.91Z"/><path class="cls-9" d="M862,906.32c-55.6,0-322-42.91-360.82-58.9-8.15-3.35-7.88-12.09-7.64-19.79,0-.85.05-1.71.06-2.58a3.61,3.61,0,0,1,3.6-3.53h.08a3.61,3.61,0,0,1,3.53,3.68c0,.89-.05,1.78-.08,2.65-.24,8,0,11.59,3.2,12.91,38.57,15.89,331,62.57,363.87,58.09,4.87-.67,5.79-1.66,5.38-11.56a3.6,3.6,0,0,1,7.2-.3c.31,7.71.71,17.31-11.61,19A52.51,52.51,0,0,1,862,906.32Z"/><path class="cls-9" d="M653,298.42h0a3.6,3.6,0,0,1-3.56-3.64c.11-8.91.21-14.81.3-20.72s.19-11.81.3-20.7c0-.31,0-1,.09-1.82,1-17-.67-22.52-1.87-24.28-2.4-1.29-13.85-2.3-27.06-3.47-39.4-3.49-112.74-10-213.91-39.71a3.6,3.6,0,1,1,2-6.91c100.49,29.52,173.37,36,212.52,39.44,23.18,2.06,29.36,2.73,31.92,6,4.36,5.51,4.2,18.6,3.56,29.38,0,.72-.07,1.23-.07,1.49-.12,8.9-.21,14.81-.31,20.72s-.18,11.81-.3,20.7A3.59,3.59,0,0,1,653,298.42Zm-4.63-71.08Z"/><path class="cls-9" d="M408,410.51h-.12a3.61,3.61,0,0,1-3.48-3.72c.86-24.52-.14-87.05-1-142.21-.64-39.8-1.19-74.16-.85-84.08a3.6,3.6,0,1,1,7.2.24c-.33,9.74.22,44,.85,83.72.88,55.25,1.89,117.88,1,142.58A3.6,3.6,0,0,1,408,410.51Z"/><path class="cls-9" d="M497.23,584.55l-.42,0c-54.25-6.25-84.73-14.68-90.58-25-.89-1.6-2.76-4.91-2.72-73.33,0-35.52.59-72.17,1-82.81a3.6,3.6,0,0,1,7.2.27c-.87,23.48-2,143.22.9,152.47,3.67,6,27.88,14.71,85.05,21.3a3.6,3.6,0,0,1-.41,7.18Zm-84.61-28.39h0Z"/><path class="cls-9" d="M1424.61,905.38c-8.19,0-11.24-.67-12.77-2.65-3.68-4.76-1.19-21.71-1.17-21.87,11.5-64.43,39.34-401.86,39-421.07a3.59,3.59,0,0,1,3.53-3.67,3.63,3.63,0,0,1,3.67,3.53c.36,19.29-27.56,357.86-39.09,422.47-.7,3.93-1.06,12.73-.34,15.7,3.23.61,13.06.29,18.54.11,3.1-.1,6-.19,8.24-.19a3.6,3.6,0,0,1,0,7.2c-2.08,0-5,.09-8,.19C1431.48,905.29,1427.68,905.38,1424.61,905.38Z"/><path class="cls-9" d="M1443,904.94a3.6,3.6,0,0,1-.18-7.2c103.49-5.22,367.09-48.11,417.1-57.61a3.6,3.6,0,1,1,1.34,7.07c-50.09,9.53-314.26,52.5-418.08,57.74Z"/><path class="cls-9" d="M1850.06,849.4a3.6,3.6,0,0,1-1.07-7c1.7-.53,4.68-1.08,8.8-1.84,9.11-1.67,27.9-5.12,31.92-9.82,4.77-13,18.47-224.73,26.67-351.47,2.8-43.39,5.23-80.86,6.84-103.69a7.5,7.5,0,0,0,0-1.69,4.53,4.53,0,0,0-1.79,0c-95.48,15.06-307.07,43.6-458,60.47-5.45.6-6.05,15.07-6.45,24.64,0,1.11-.09,2.2-.14,3.25a3.6,3.6,0,1,1-7.19-.34c0-1,.09-2.12.13-3.21.56-13.46,1.26-30.21,12.85-31.5,150.87-16.86,362.31-45.37,457.71-60.42,4.58-.73,7.07.83,8.34,2.27,2.09,2.35,1.88,5.39,1.76,7-1.6,22.8-4,60.26-6.83,103.64-4.53,69.89-10.15,156.86-15.23,226.84-8.93,123.23-11.29,126.39-12.69,128.28-4.93,6.52-20.1,9.78-36.55,12.8-3.59.66-6.68,1.22-8,1.63A3.65,3.65,0,0,1,1850.06,849.4Z"/><path class="cls-9" d="M1843.65,385.44l-.37,0a3.6,3.6,0,0,1-3.22-3.95c.63-6.07,1.31-12.83,2-20,2.49-24.63,5.31-52.54,7.92-73.17.8-6.29,2.69-11,5.8-14.34s7-4.94,11-6.25c3.69-1.24,37.93-7.12,93.47-16.61,53-9.06,119-20.33,123.75-22.15a3.6,3.6,0,0,1,2.63,6.71c-4.88,1.91-52.73,10.16-125.17,22.54-43.71,7.47-88.91,15.19-92.39,16.33-3,1-6,2.23-8,4.32s-3.34,5.61-3.94,10.35c-2.61,20.54-5.42,48.41-7.9,73-.72,7.13-1.41,13.9-2,20A3.61,3.61,0,0,1,1843.65,385.44Z"/><path class="cls-9" d="M1906.17,690a3.6,3.6,0,0,1-.43-7.17c17.65-2.14,40.18-6,62-9.65s44.51-7.54,62.33-9.7c4.42-.54,8.58-1.22,10.87-3.72l1.64-1.73c9-9.48,11.42-13,11.8-14.19,8.29-89.73,35-389.19,36.37-408.28a16.31,16.31,0,0,0-6.32.74,3.6,3.6,0,0,1-1.88-7c4.18-1.13,9.86-1.92,13.17.67a5.85,5.85,0,0,1,2.29,4.84c-.13,6.16-28.66,325.23-36.47,409.75-.3,3.29-3.77,7.93-13.75,18.39l-1.55,1.64c-4.28,4.65-10.91,5.46-15.3,6-17.65,2.14-40.2,6-62,9.65s-44.5,7.54-62.31,9.7ZM2054.35,644h0Z"/><path class="cls-9" d="M651.7,259.07l-.42,0c-10.84-1.25-21.63-2.42-32.07-3.55-39.11-4.24-76.06-8.24-113.29-16.38-9.45-2.06-19.4-4.08-29-6-24.07-4.89-49-9.93-71.83-16.77a3.6,3.6,0,1,1,2.07-6.9c22.55,6.74,47.28,11.76,71.19,16.61,9.65,2,19.64,4,29.14,6.06,36.85,8.06,73.61,12,112.53,16.25,10.45,1.13,21.26,2.3,32.12,3.56a3.6,3.6,0,0,1-.41,7.18Z"/><path class="cls-9" d="M875.36,354.83h-.29c-124.23-9.68-249.78-23.44-373.15-40.92a3.6,3.6,0,1,1,1-7.13c123.22,17.45,248.62,31.2,372.7,40.86a3.61,3.61,0,0,1-.27,7.2Z"/><path class="cls-9" d="M1455.21,478.86a3.6,3.6,0,0,1-.49-7.16c40.16-5.56,80.85-11.11,120.2-16.49,114.13-15.59,232.14-31.71,346-48.88a3.6,3.6,0,1,1,1.07,7.12c-113.87,17.18-231.9,33.3-346,48.9-39.35,5.37-80,10.93-120.19,16.48A4.19,4.19,0,0,1,1455.21,478.86Z"/><path class="cls-9" d="M1853.19,305.73a3.6,3.6,0,0,1-.52-7.17c38.88-5.68,201-37.28,239.17-45a3.6,3.6,0,0,1,1.43,7.06c-38.16,7.73-200.56,39.38-239.56,45.08A3,3,0,0,1,1853.19,305.73Z"/><path class="cls-9" d="M567.28,506.18c-29.21,0-53-31.92-53-71.15s23.77-71.15,53-71.15,53,31.92,53,71.15S596.5,506.18,567.28,506.18Zm0-135.1c-25.24,0-45.78,28.69-45.78,63.95S542,499,567.28,499s45.79-28.68,45.79-63.94S592.53,371.08,567.28,371.08Z"/><path class="cls-9" d="M567.28,453.94c-8.38,0-14.95-10.15-14.95-23.11s6.57-23.11,14.95-23.11,15,10.15,15,23.11S575.67,453.94,567.28,453.94Zm0-39c-3.66,0-7.75,6.8-7.75,15.9s4.09,15.91,7.75,15.91,7.76-6.8,7.76-15.91S570.94,414.93,567.28,414.93Z"/><path class="cls-9" d="M818.16,417.33a2.36,2.36,0,0,1-.38,0L645.49,399.26a3.6,3.6,0,0,1,.75-7.16l172.29,18a3.6,3.6,0,0,1-.37,7.18Z"/><path class="cls-9" d="M772.23,452.27a2.55,2.55,0,0,1-.39,0L645.48,438.61a3.6,3.6,0,0,1,.77-7.16l126.36,13.64a3.6,3.6,0,0,1-.38,7.18Z"/><path class="cls-9" d="M799.1,495.36l-.4,0-156-17.24a3.6,3.6,0,1,1,.79-7.16l156,17.24a3.6,3.6,0,0,1-.39,7.18Z"/><path class="cls-9" d="M772.23,644a3.11,3.11,0,0,1-.43,0L533.64,615.48a3.6,3.6,0,0,1,.85-7.15l238.16,28.51a3.6,3.6,0,0,1-.42,7.18Z"/><path class="cls-9" d="M655.42,730.61l-.48,0L536.15,714.7a3.6,3.6,0,0,1,1-7.14l118.79,15.88a3.6,3.6,0,0,1-.47,7.17Z"/><path class="cls-9" d="M808.33,839.79a3.64,3.64,0,0,1-.57,0L537.38,796.36a3.6,3.6,0,1,1,1.14-7.11L808.9,832.63a3.6,3.6,0,0,1-.57,7.16Z"/><path class="cls-9" d="M743.72,691.6l-.42,0L534.43,667.5a3.6,3.6,0,0,1,.82-7.15l208.88,24.07a3.6,3.6,0,0,1-.41,7.18Z"/><path class="cls-9" d="M1495.17,532.44a3.61,3.61,0,0,1-.48-7.18l350.09-46.58a3.6,3.6,0,0,1,1,7.14L1495.65,532.4A2.74,2.74,0,0,1,1495.17,532.44Z"/><path class="cls-9" d="M1668.57,554.17a3.6,3.6,0,0,1-.44-7.17l173.4-21.74a3.6,3.6,0,1,1,.89,7.15L1669,554.15Z"/><path class="cls-9" d="M1673,593.77a3.6,3.6,0,0,1-.36-7.18l163.83-17.08a3.6,3.6,0,1,1,.75,7.16l-163.84,17.08Z"/><path class="cls-9" d="M1674.76,634.44a3.6,3.6,0,0,1-.43-7.17L1840.48,607a3.6,3.6,0,1,1,.87,7.15l-166.15,20.3A3.31,3.31,0,0,1,1674.76,634.44Z"/><path class="cls-9" d="M1577.54,690a3.6,3.6,0,0,1-.44-7.17L1836.44,651a3.6,3.6,0,1,1,.87,7.15L1578,690Z"/><path class="cls-9" d="M1610.92,741.29a3.6,3.6,0,0,1-.43-7.18l191-23.29a3.6,3.6,0,1,1,.88,7.15l-191,23.29A3.15,3.15,0,0,1,1610.92,741.29Z"/><path class="cls-9" d="M1603.94,778.74a3.6,3.6,0,0,1-.46-7.17l238-30.44a3.6,3.6,0,1,1,.91,7.14l-238,30.44Z"/><path class="cls-9" d="M1603.94,819.46a3.61,3.61,0,0,1-.54-7.17l241.32-36.24a3.6,3.6,0,1,1,1.07,7.12l-241.32,36.25A4.91,4.91,0,0,1,1603.94,819.46Z"/><path class="cls-9" d="M1878,336.78a3.6,3.6,0,0,1-.58-7.15l151.4-24.85a3.6,3.6,0,1,1,1.17,7.11l-151.4,24.85A3.9,3.9,0,0,1,1878,336.78Z"/><path class="cls-9" d="M1958.75,371.72a3.6,3.6,0,0,1-.59-7.15L2050.55,349a3.6,3.6,0,1,1,1.19,7.1l-92.39,15.53A4,4,0,0,1,1958.75,371.72Z"/><path class="cls-9" d="M1979,391.8a3.6,3.6,0,0,1-.56-7.16l65-10.25a3.6,3.6,0,1,1,1.12,7.11l-65,10.25A3.64,3.64,0,0,1,1979,391.8Z"/><path class="cls-9" d="M1952.73,441.21a3.6,3.6,0,0,1-.6-7.15l82.3-14a3.6,3.6,0,1,1,1.21,7.1l-82.3,14A4.18,4.18,0,0,1,1952.73,441.21Z"/><path class="cls-9" d="M1944.39,593.77a3.6,3.6,0,0,1-.58-7.16L2015.44,575a3.6,3.6,0,1,1,1.16,7.11L1945,593.72A2.9,2.9,0,0,1,1944.39,593.77Z"/><path class="cls-9" d="M1945.79,624.35a3.6,3.6,0,0,1-.52-7.16L2015.5,607a3.6,3.6,0,0,1,1,7.13l-70.23,10.2A3.12,3.12,0,0,1,1945.79,624.35Z"/><path class="cls-9" d="M751.34,341.6h-.07a3.6,3.6,0,0,1-3.53-3.67c.16-7.76.11-15,0-22.66,0-3,0-6.08,0-9.25a3.6,3.6,0,0,1,3.59-3.61h0a3.6,3.6,0,0,1,3.6,3.59c0,3.16,0,6.22,0,9.22.06,7.71.11,15,0,22.85A3.6,3.6,0,0,1,751.34,341.6Z"/><path class="cls-9" d="M832.66,350.38h-.08a3.61,3.61,0,0,1-3.53-3.68c.16-7.74.11-15,.06-22.61,0-3-.05-6.11-.06-9.29a3.6,3.6,0,0,1,3.59-3.61h0a3.6,3.6,0,0,1,3.61,3.59c0,3.17,0,6.24,0,9.26.05,7.7.1,15,0,22.81A3.61,3.61,0,0,1,832.66,350.38Z"/><path class="cls-9" d="M791.13,343.46h-.08a3.6,3.6,0,0,1-3.53-3.67c.16-7.75.11-15,.06-22.61,0-3-.05-6.11-.06-9.3a3.61,3.61,0,0,1,3.59-3.61,3.66,3.66,0,0,1,3.62,3.59c0,3.18,0,6.25,0,9.27.05,7.69.1,15,0,22.8A3.6,3.6,0,0,1,791.13,343.46Z"/><path class="cls-9" d="M561.05,248.5a3.61,3.61,0,0,1-3.59-3.28c-.58-6.63-.76-13.41-1-21.26-.08-2.94-.16-6-.26-9.24a3.6,3.6,0,1,1,7.19-.24c.11,3.25.19,6.34.27,9.29.2,7.73.38,14.41.94,20.82a3.61,3.61,0,0,1-3.28,3.9Z"/><path class="cls-9" d="M590.72,251.15a3.59,3.59,0,0,1-3.59-3.38c-.37-6.06-.56-11.83-.76-17.93-.13-3.94-.27-8-.46-12.43a3.6,3.6,0,0,1,7.2-.32c.19,4.43.32,8.54.45,12.51.2,6.05.39,11.77.76,17.73a3.6,3.6,0,0,1-3.38,3.81Z"/><path class="cls-9" d="M622.13,255.61a3.6,3.6,0,0,1-3.59-3.38c-.37-6.06-.56-11.83-.76-17.93-.13-3.94-.27-8-.46-12.43a3.6,3.6,0,0,1,7.2-.32c.19,4.43.32,8.54.46,12.51.19,6.05.38,11.77.75,17.73a3.6,3.6,0,0,1-3.38,3.81Z"/><path class="cls-9" d="M1536.18,467.3a3.6,3.6,0,0,1-3.6-3.59c0-8.69.25-17,.56-25.89.17-4.8.34-9.64.46-14.56a3.6,3.6,0,0,1,7.2.17c-.12,4.95-.29,9.82-.46,14.65-.31,8.77-.6,17.06-.56,25.6a3.61,3.61,0,0,1-3.59,3.62Z"/><path class="cls-9" d="M1572,461.78a3.6,3.6,0,0,1-3.6-3.58c0-8.64.24-16.43.54-24.68.16-4.59.33-9.27.44-14.24a3.65,3.65,0,0,1,3.69-3.52,3.6,3.6,0,0,1,3.51,3.69c-.11,5-.28,9.71-.45,14.33-.29,8.17-.57,15.89-.53,24.39a3.6,3.6,0,0,1-3.58,3.61Z"/><path class="cls-9" d="M1496.12,472.4a3.61,3.61,0,0,1-3.6-3.59c0-8.68.27-17.47.57-26,.17-4.83.34-9.7.46-14.63a3.6,3.6,0,1,1,7.2.16c-.12,5-.29,9.86-.46,14.73-.31,8.82-.61,17.15-.57,25.69a3.6,3.6,0,0,1-3.58,3.62Z"/><path class="cls-9" d="M1885.51,300.18a3.44,3.44,0,0,1-.46,0,3.6,3.6,0,0,1-3.12-4l3.7-29a3.6,3.6,0,1,1,7.15.91l-3.71,29A3.6,3.6,0,0,1,1885.51,300.18Z"/><path class="cls-9" d="M1917.77,293.24a3.55,3.55,0,0,1-.46,0,3.6,3.6,0,0,1-3.12-4l3.44-26.9a3.6,3.6,0,1,1,7.14.91l-3.43,26.9A3.62,3.62,0,0,1,1917.77,293.24Z"/><path class="cls-9" d="M1948.19,288l-.46,0a3.6,3.6,0,0,1-3.11-4c.22-1.74.85-6.3,1.53-11.32.84-6.07,1.76-12.81,2.17-16a3.6,3.6,0,1,1,7.15.91c-.41,3.19-1.34,10-2.18,16.06-.68,5-1.31,9.52-1.53,11.25A3.6,3.6,0,0,1,1948.19,288Z"/><path class="cls-4" d="M1006.36,1464.49a29.11,29.11,0,0,1-9.44-1.31c-5.32-1.82-9.17-5.91-10-10.66-.9-5,.84-12.26,14.23-19,2.75-1.38,6.38-3.23,10-5.08s7.29-3.7,10-5.08a3.6,3.6,0,1,1,3.24,6.43c-2.75,1.38-6.38,3.23-10,5.08s-7.29,3.7-10,5.08c-5.2,2.62-11.22,6.7-10.39,11.29.45,2.45,3,4.35,5.29,5.14,3.12,1.07,6.85,1,10.15.86,40.85-1.23,75-3.75,107.52-7.94a3.6,3.6,0,0,1,.92,7.15c-32.74,4.21-67.13,6.75-108.23,8C1008.6,1464.46,1007.5,1464.49,1006.36,1464.49Z"/></g></svg>