<?xml version="1.0" standalone="no"?>
<!DOCTYPE svg PUBLIC "-//W3C//DTD SVG 20010904//EN"
 "http://www.w3.org/TR/2001/REC-SVG-20010904/DTD/svg10.dtd">
<svg version="1.0" xmlns="http://www.w3.org/2000/svg"
 width="1104.000000pt" height="412.000000pt" viewBox="0 0 1104.000000 412.000000"
 preserveAspectRatio="xMidYMid meet">

<g transform="translate(0.000000,412.000000) scale(0.100000,-0.100000)"
fill="#273f52" stroke="none">
<path d="M3146 3526 c-63 -24 -142 -83 -196 -149 -59 -71 -146 -238 -137 -261
16 -42 154 -55 317 -32 109 16 469 99 498 115 19 11 -60 113 -155 200 -127
117 -237 160 -327 127z"/>
<path d="M6664 3375 c-51 -30 -89 -98 -104 -185 -8 -46 -10 -364 -8 -1070 l3
-1005 23 -50 c12 -27 30 -58 40 -69 45 -50 165 -72 235 -43 50 22 93 63 118
114 21 45 23 63 27 268 2 129 8 225 14 233 6 7 59 57 118 112 l108 100 188
-307 c266 -436 312 -501 372 -524 35 -14 129 -11 165 5 102 43 150 192 97 297
-13 24 -133 216 -267 427 -134 211 -246 389 -249 396 -3 7 44 56 109 114 152
135 249 239 275 293 37 77 25 156 -34 211 -39 36 -74 48 -140 48 -102 0 -115
-11 -532 -450 -112 -118 -208 -216 -213 -218 -5 -2 -9 209 -9 535 0 301 -4
564 -10 598 -21 128 -96 195 -220 195 -51 0 -74 -5 -106 -25z"/>
<path d="M125 2726 c-77 -33 -124 -130 -106 -215 13 -60 407 -1235 461 -1372
30 -76 86 -148 139 -176 87 -45 239 -26 298 38 56 61 131 291 340 1046 15 57
31 103 36 103 4 0 7 -5 7 -12 0 -21 288 -992 309 -1040 46 -107 121 -157 237
-158 120 0 195 51 245 167 27 63 56 146 280 803 210 614 219 651 180 728 -33
65 -98 102 -178 102 -95 0 -144 -32 -181 -120 -11 -25 -91 -289 -178 -587 -87
-298 -161 -539 -165 -535 -3 4 -72 239 -153 522 -80 283 -158 539 -172 570
-50 110 -113 149 -235 150 -138 0 -206 -59 -258 -226 -17 -52 -90 -304 -163
-560 -72 -255 -135 -458 -139 -452 -3 7 -66 218 -139 468 -201 693 -208 711
-272 750 -39 24 -145 27 -193 6z"/>
<path d="M3500 2725 c-353 -73 -586 -312 -654 -675 -22 -115 -21 -320 3 -435
68 -329 283 -560 604 -648 71 -19 105 -22 262 -21 153 0 192 4 260 22 166 46
281 116 402 246 123 132 196 310 213 523 42 525 -227 910 -694 992 -81 15
-317 12 -396 -4z m392 -353 c114 -56 191 -161 235 -322 28 -102 25 -330 -5
-435 -44 -153 -121 -252 -239 -308 -63 -30 -76 -32 -173 -32 -95 0 -111 3
-167 29 -74 34 -158 117 -197 195 -50 98 -69 192 -69 341 0 106 5 152 21 213
49 181 138 290 275 339 40 14 74 18 153 16 89 -3 107 -7 166 -36z"/>
<path d="M5170 2729 c-66 -26 -106 -95 -121 -207 -6 -48 -9 -324 -7 -742 3
-739 0 -704 71 -779 42 -44 84 -61 154 -61 87 0 152 40 190 117 l28 58 6 405
c6 425 14 510 59 638 67 191 197 241 432 167 43 -14 93 -25 109 -25 54 0 127
48 155 102 18 35 18 131 0 166 -52 99 -215 172 -385 172 -153 0 -230 -43 -331
-184 l-54 -76 -12 68 c-17 102 -52 157 -117 181 -35 14 -143 13 -177 0z"/>
<path d="M8575 2724 c-43 -22 -74 -53 -98 -99 -22 -40 -22 -42 -22 -780 l0
-741 26 -49 c50 -99 167 -141 274 -101 53 21 110 81 124 133 7 25 11 282 11
763 0 685 -1 727 -19 765 -22 47 -74 99 -114 114 -42 16 -147 13 -182 -5z"/>
<path d="M9435 2723 c-45 -23 -96 -74 -111 -110 -8 -18 -14 -55 -14 -84 0 -55
12 -88 395 -1048 225 -565 210 -485 129 -660 -56 -120 -86 -159 -142 -184 -41
-17 -57 -19 -137 -12 -178 16 -238 4 -275 -58 -29 -47 -27 -143 3 -187 45 -67
160 -100 354 -100 304 0 452 86 575 335 42 85 59 127 349 885 391 1022 392
1026 369 1103 -13 45 -59 100 -102 123 -15 8 -55 14 -91 14 -50 0 -71 -5 -98
-23 -69 -47 -74 -58 -330 -789 -95 -274 -177 -494 -181 -490 -6 6 -103 286
-314 906 -99 290 -133 354 -200 382 -44 19 -141 17 -179 -3z"/>
</g>
</svg>
