<?xml version="1.0" encoding="UTF-8"?>
<svg width="759px" height="240px" viewBox="0 0 759 240" version="1.1" xmlns="http://www.w3.org/2000/svg" xmlns:xlink="http://www.w3.org/1999/xlink">
    <title>Group 2</title>
    <defs>
        <polygon id="path-1" points="0 0 88.5082624 0 88.5082624 236.612938 0 236.612938"></polygon>
    </defs>
    <g id="logo" stroke="none" stroke-width="1" fill="none" fill-rule="evenodd">
        <g id="04" transform="translate(-1237.000000, -434.000000)">
            <g id="Group-2" transform="translate(1237.000000, 434.000000)">
                <g id="Group" transform="translate(0.000000, -0.000000)">
                    <g id="Group-12">
                        <path d="M35.7809147,153.445758 C33.3329147,151.376758 29.6729147,151.685758 27.6049147,154.132758 C25.5369147,156.580758 25.8439147,160.239758 28.2909147,162.308758 L76.7849147,203.288758 L76.7849147,227.222758 C57.2269147,225.784758 39.6879147,217.474758 28.0829147,203.954758 C0.0219146791,171.262758 13.0539147,124.287758 28.9279147,90.6367583 C37.0439147,73.4357583 50.9659147,53.5697583 63.3789147,37.7717583 C65.3579147,35.2517583 64.9209147,31.6057583 62.4019147,29.6257583 C59.8829147,27.6477583 56.2359147,28.0827583 54.2549147,30.6037583 C41.4729147,46.8717583 27.0129147,67.5047583 18.4349147,85.6857583 C-6.42908532,138.391758 -6.13608532,181.901758 19.2799147,211.510758 C34.0949147,228.771758 56.9319147,238.815758 81.9349147,239.066758 L81.9939147,239.066758 C84.8239147,239.066758 88.3889147,236.511758 88.3889147,232.811758 L88.3889147,200.595758 C88.3889147,198.888758 87.6359147,197.266758 86.3319147,196.164758 L35.7809147,153.445758 Z" id="Fill-1" fill="#15C872"></path>
                        <path d="M124.433715,116.946258 L82.6817147,150.711258 L40.5587147,116.013258 C38.0867147,113.976258 34.4297147,114.328258 32.3927147,116.801258 C30.3557147,119.274258 30.7087147,122.930258 33.1817147,124.967258 C33.8277147,125.500258 78.6247147,162.434258 79.3087147,162.917258 C81.5537147,164.512258 84.4277147,164.247258 86.2947147,162.710258 L131.729715,125.968258 C134.220715,123.952258 134.607715,120.301258 132.592715,117.808258 C130.577715,115.317258 126.924715,114.930258 124.433715,116.946258" id="Fill-3" fill="#15C872"></path>
                        <path d="M52.5987147,84.5234583 C50.1787147,82.4234583 46.5147147,82.6814583 44.4147147,85.1014583 C42.3137147,87.5204583 42.5727147,91.1854583 44.9927147,93.2864583 L58.8507147,105.318458 C61.2717147,107.419458 64.9357147,107.158458 67.0357147,104.740458 C69.1357147,102.321458 68.8767147,98.6564583 66.4577147,96.5574583 L52.5987147,84.5234583 Z" id="Fill-5" fill="#15C872"></path>
                        <path d="M98.7316147,188.991658 C100.756615,191.472658 104.412615,191.844658 106.894615,189.817658 L140.129615,162.694658 C142.612615,160.668658 142.982615,157.013658 140.957615,154.530658 C138.929615,152.048658 135.274615,151.678658 132.793615,153.704658 L99.5586147,180.828658 C97.0766147,182.855658 96.7066147,186.509658 98.7316147,188.991658" id="Fill-7" fill="#15C872"></path>
                        <g id="Group-11" transform="translate(76.776252, 0.000000)">
                            <mask id="mask-2" fill="white">
                                <use xlink:href="#path-1"></use>
                            </mask>
                            <g id="Clip-10"></g>
                            <path d="M70.0724624,85.6855583 C54.3674624,52.3965583 18.3774624,11.9275583 10.3614624,2.13555834 C6.72946241,-2.30644166 -0.481537588,0.69755834 0.105462412,6.40755834 C-0.0445375879,7.30255834 0.00946241211,0.86355834 0.00946241211,116.360558 C0.00946241211,121.842558 6.45046241,123.628558 9.88846241,120.915558 L44.2644624,93.7805583 C46.7784624,91.7955583 47.2094624,88.1465583 45.2234624,85.6325583 C43.2384624,83.1185583 39.5904624,82.6875583 37.0754624,84.6735583 L11.6124624,104.772558 L11.6124624,21.6645583 C25.4684624,38.2585583 48.2874624,66.6985583 59.5794624,90.6355583 C75.4534624,124.286558 88.4864624,171.261558 60.4244624,203.954558 C51.5304624,214.317558 41.8794624,221.657558 27.6364624,225.179558 C24.5254624,225.947558 22.6294624,229.093558 23.3964624,232.202558 C24.1674624,235.314558 27.3144624,237.211558 30.4224624,236.441558 C47.0204624,232.337558 58.7534624,223.717558 69.2274624,211.511558 C94.6454624,181.901558 94.9374624,138.390558 70.0724624,85.6855583" id="Fill-9" fill="#15C872" mask="url(#mask-2)"></path>
                        </g>
                    </g>
                    <path d="M242.204,136 L242.204,40.808 L268.447,40.808 L268.447,22.389 L194.934,22.389 L194.934,40.808 L221.177,40.808 L221.177,136 L242.204,136 Z M316.369,138.119 C328.268,138.119 338.048,135.565333 345.709,130.458 L345.709,130.458 L339.189,114.973 C337.341667,117.092 334.489167,118.898583 330.6315,120.39275 C326.773833,121.886917 323.160667,122.634 319.792,122.634 C313.326333,122.634 308.42275,120.854583 305.08125,117.29575 C301.73975,113.736917 299.906,108.670333 299.58,102.096 L299.58,102.096 L348.48,102.096 C348.697333,98.836 348.806,95.902 348.806,93.294 C348.806,79.8736667 346.2795,69.78125 341.2265,63.01675 C336.1735,56.25225 327.779,52.87 316.043,52.87 C308.164667,52.87 301.373,54.8124167 295.668,58.69725 C289.963,62.5820833 285.629917,67.82525 282.66875,74.42675 C279.707583,81.02825 278.227,88.3496667 278.227,96.391 C278.227,104.269333 279.544583,111.332667 282.17975,117.581 C284.814917,123.829333 288.985,128.814417 294.69,132.53625 C300.395,136.258083 307.621333,138.119 316.369,138.119 Z M328.105,89.382 L299.417,89.382 C299.743,83.188 301.359417,78.135 304.26625,74.223 C307.173083,70.311 311.261667,68.355 316.532,68.355 C320.281,68.355 323.147083,69.86275 325.13025,72.87825 C327.113417,75.89375 328.105,81.395 328.105,89.382 L328.105,89.382 Z M390.208,137.467 C397.38,137.467 403.28875,136.298833 407.93425,133.9625 C412.57975,131.626167 415.975583,128.54275 418.12175,124.71225 C420.267917,120.88175 421.341,116.603 421.341,111.876 C421.341,106.225333 419.385,101.430417 415.473,97.49125 C411.561,93.5520833 405.964667,90.1426667 398.684,87.263 C393.631,85.2526667 389.895583,83.4325 387.47775,81.8025 C385.059917,80.1725 383.851,78.135 383.851,75.69 C383.851,73.245 384.679583,71.49275 386.33675,70.43325 C387.993917,69.37375 390.86,68.844 394.935,68.844 C398.358,68.844 401.685917,69.5095833 404.91875,70.84075 C408.151583,72.1719167 411.017667,73.7883333 413.517,75.69 L413.517,75.69 L419.059,61.02 C417.972333,59.9333333 416.233667,58.77875 413.843,57.55625 C411.452333,56.33375 408.559083,55.3014167 405.16325,54.45925 C401.767417,53.6170833 398.140667,53.196 394.283,53.196 C387.817333,53.196 382.275333,54.174 377.657,56.13 C373.038667,58.086 369.520583,60.8841667 367.10275,64.5245 C364.684917,68.1648333 363.476,72.43 363.476,77.32 C363.476,81.721 364.49475,85.4564167 366.53225,88.52625 C368.56975,91.5960833 370.974,94.0275 373.745,95.8205 C376.516,97.6135 379.776,99.325 383.525,100.955 C389.338667,103.508667 393.726083,105.749917 396.68725,107.67875 C399.648417,109.607583 401.129,111.713 401.129,113.995 C401.129,116.114 400.27325,117.893417 398.56175,119.33325 C396.85025,120.773083 394.228667,121.493 390.697,121.493 C382.873,121.493 375.483667,118.613333 368.529,112.854 L368.529,112.854 L362.498,128.339 C364.345333,130.566667 367.483083,132.644917 371.91125,134.57375 C376.339417,136.502583 382.438333,137.467 390.208,137.467 Z M466.003,138.445 C468.991333,138.445 472.72675,137.860917 477.20925,136.69275 C481.69175,135.524583 485.128333,134.098333 487.519,132.414 L487.519,132.414 L483.607,115.951 C481.868333,117.418 479.681417,118.735583 477.04625,119.90375 C474.411083,121.071917 471.979667,121.656 469.752,121.656 C467.252667,121.656 465.378167,120.705167 464.1285,118.8035 C462.878833,116.901833 462.254,113.669 462.254,109.105 L462.254,109.105 L462.254,71.941 L482.303,71.941 L482.303,54.826 L462.254,54.826 L462.254,30.05 L444.487,37.711 L443.346,54.826 L431.936,54.826 L431.936,71.941 L442.531,71.941 L442.531,109.594 C442.531,116.385667 443.22375,121.85975 444.60925,126.01625 C445.99475,130.17275 448.399,133.283333 451.822,135.348 C455.245,137.412667 459.972,138.445 466.003,138.445 Z M522.89,136 L522.89,12.12 L503.004,12.12 L503.004,136 L522.89,136 Z M580.266,138.119 C592.165,138.119 601.945,135.565333 609.606,130.458 L609.606,130.458 L603.086,114.973 C601.238667,117.092 598.386167,118.898583 594.5285,120.39275 C590.670833,121.886917 587.057667,122.634 583.689,122.634 C577.223333,122.634 572.31975,120.854583 568.97825,117.29575 C565.63675,113.736917 563.803,108.670333 563.477,102.096 L563.477,102.096 L612.377,102.096 C612.594333,98.836 612.703,95.902 612.703,93.294 C612.703,79.8736667 610.1765,69.78125 605.1235,63.01675 C600.0705,56.25225 591.676,52.87 579.94,52.87 C572.061667,52.87 565.27,54.8124167 559.565,58.69725 C553.86,62.5820833 549.526917,67.82525 546.56575,74.42675 C543.604583,81.02825 542.124,88.3496667 542.124,96.391 C542.124,104.269333 543.441583,111.332667 546.07675,117.581 C548.711917,123.829333 552.882,128.814417 558.587,132.53625 C564.292,136.258083 571.518333,138.119 580.266,138.119 Z M592.002,89.382 L563.314,89.382 C563.64,83.188 565.256417,78.135 568.16325,74.223 C571.070083,70.311 575.158667,68.355 580.429,68.355 C584.178,68.355 587.044083,69.86275 589.02725,72.87825 C591.010417,75.89375 592.002,81.395 592.002,89.382 L592.002,89.382 Z M648.237,138.282 C653.453,138.282 658.030583,137.141 661.96975,134.859 C665.908917,132.577 669.318333,129.099667 672.198,124.427 L672.198,124.427 L673.665,136 L691.106,136 L691.106,82.699 C691.106,76.2876667 690.182333,70.9086667 688.335,66.562 C686.487667,62.2153333 683.295583,58.8466667 678.75875,56.456 C674.221917,54.0653333 668.068667,52.87 660.299,52.87 C654.105,52.87 648.264167,53.7393333 642.7765,55.478 C637.288833,57.2166667 632.697667,59.3356667 629.003,61.835 L629.003,61.835 L635.523,77.483 C637.424667,75.364 640.399417,73.5845833 644.44725,72.14475 C648.495083,70.7049167 652.638,69.985 656.876,69.985 C662.255,69.985 666.017583,71.2075 668.16375,73.6525 C670.309917,76.0975 671.383,79.5476667 671.383,84.003 L671.383,84.003 L671.383,87.752 C659.918667,87.752 650.817833,89.1375 644.0805,91.9085 C637.343167,94.6795 632.656917,98.0345833 630.02175,101.97375 C627.386583,105.912917 626.069,109.865667 626.069,113.832 C626.069,118.396 626.897583,122.525333 628.55475,126.22 C630.211917,129.914667 632.697667,132.848667 636.012,135.022 C639.326333,137.195333 643.401333,138.282 648.237,138.282 Z M656.876,122.634 C653.235667,122.634 650.55975,121.805417 648.84825,120.14825 C647.13675,118.491083 646.281,115.733667 646.281,111.876 C646.281,107.801 648.44075,104.853417 652.76025,103.03325 C657.07975,101.213083 661.983333,100.303 667.471,100.303 C669.318333,100.303 670.622333,100.357333 671.383,100.466 L671.383,100.466 L671.383,112.039 C669.753,115.081667 667.5525,117.608167 664.7815,119.6185 C662.0105,121.628833 659.375333,122.634 656.876,122.634 Z M733.812,136 L733.812,71.941 L753.535,71.941 L753.535,54.826 L733.812,54.826 L733.812,39.341 C733.812,30.6476667 738.104333,26.301 746.689,26.301 C748.645,26.301 750.80475,26.7085 753.16825,27.5235 C755.53175,28.3385 757.284,29.4523333 758.425,30.865 L758.425,30.865 L758.425,13.098 C757.664333,12.3373333 755.830583,11.5495 752.92375,10.7345 C750.016917,9.9195 746.254333,9.512 741.636,9.512 C737.289333,9.512 733.051333,10.36775 728.922,12.07925 C724.792667,13.79075 721.288167,16.9013333 718.4085,21.411 C715.528833,25.9206667 714.089,32.0603333 714.089,39.83 L714.089,39.83 L714.089,54.826 L703.168,54.826 L703.168,71.941 L714.089,71.941 L714.089,136 L733.812,136 Z" id="Testleaf" fill="#193855" fill-rule="nonzero"></path>
                    <path d="M213.654,217 L217.476,207.676 L230.874,207.676 L234.738,217 L237.846,217 L225.456,187.18 L222.978,187.18 L210.504,217 L213.654,217 Z M230.202,205.366 L218.106,205.366 L224.196,190.624 L230.202,205.366 Z M269.43,217.252 C269.99,217.252 270.655,217.182 271.425,217.042 C272.195,216.902 272.846,216.72 273.378,216.496 L273.378,216.496 L272.874,214.186 C272.51,214.326 272.118,214.438 271.698,214.522 C271.278,214.606 270.914,214.648 270.606,214.648 C269.794,214.648 269.164,214.417 268.716,213.955 C268.268,213.493 268.044,212.856 268.044,212.044 L268.044,212.044 L268.044,186.34 L265.188,186.34 L265.188,213.01 C265.188,214.354 265.566,215.397 266.322,216.139 C267.078,216.881 268.114,217.252 269.43,217.252 Z M308.784,217 L313.446,205.828 L318.15,217 L320.502,217 L329.91,195.118 L327.096,195.118 L319.158,214.06 L315,204.064 L318.738,195.16 L316.302,195.16 L313.446,202.3 L310.59,195.16 L308.196,195.16 L311.934,204.064 L307.776,214.06 L299.796,195.118 L297.024,195.118 L306.432,217 L308.784,217 Z M362.166,217.42 C363.93,217.42 365.575,217.07 367.101,216.37 C368.627,215.67 369.894,214.662 370.902,213.346 L370.902,213.346 L370.986,215.068 C371.014,215.712 371.231,216.216 371.637,216.58 C372.043,216.944 372.61,217.126 373.338,217.126 C373.59,217.126 373.954,217.084 374.43,217 L374.43,217 L374.43,214.48 C373.73,214.48 373.38,214.088 373.38,213.304 L373.38,213.304 L373.38,203.434 C373.38,200.718 372.596,198.59 371.028,197.05 C369.46,195.51 367.304,194.74 364.56,194.74 C361.9,194.74 359.156,195.692 356.328,197.596 L356.328,197.596 L357.336,199.486 C358.54,198.646 359.73,198.002 360.906,197.554 C362.082,197.106 363.23,196.882 364.35,196.882 C366.282,196.882 367.794,197.449 368.886,198.583 C369.978,199.717 370.524,201.25 370.524,203.182 L370.524,203.182 L370.524,205.156 C369.628,204.792 368.606,204.512 367.458,204.316 C366.31,204.12 365.176,204.022 364.056,204.022 C362.712,204.022 361.48,204.183 360.36,204.505 C359.24,204.827 358.274,205.282 357.462,205.87 C356.65,206.458 356.02,207.158 355.572,207.97 C355.124,208.782 354.9,209.664 354.9,210.616 C354.9,211.568 355.082,212.457 355.446,213.283 C355.81,214.109 356.321,214.83 356.979,215.446 C357.637,216.062 358.407,216.545 359.289,216.895 C360.171,217.245 361.13,217.42 362.166,217.42 Z M362.838,215.236 C362.11,215.236 361.424,215.11 360.78,214.858 C360.136,214.606 359.583,214.263 359.121,213.829 C358.659,213.395 358.295,212.884 358.029,212.296 C357.763,211.708 357.63,211.078 357.63,210.406 C357.63,209.034 358.26,207.928 359.52,207.088 C360.78,206.248 362.418,205.828 364.434,205.828 C365.498,205.828 366.541,205.926 367.563,206.122 C368.585,206.318 369.572,206.598 370.524,206.962 L370.524,206.962 L370.524,210.532 C370.524,210.784 370.461,211.057 370.335,211.351 C370.209,211.645 370.02,211.918 369.768,212.17 C369.124,213.094 368.179,213.836 366.933,214.396 C365.687,214.956 364.322,215.236 362.838,215.236 Z M405.51,226.366 C406.742,226.366 407.715,226.065 408.429,225.463 C409.143,224.861 409.654,224.154 409.962,223.342 L409.962,223.342 L421.302,195.118 L418.572,195.118 L411.054,214.354 L402.948,195.118 L400.008,195.118 L409.542,217 C408.898,218.512 408.401,219.716 408.051,220.612 C407.701,221.508 407.386,222.194 407.106,222.67 C406.826,223.146 406.539,223.454 406.245,223.594 C405.951,223.734 405.552,223.804 405.048,223.804 C404.852,223.804 404.649,223.797 404.439,223.783 C404.229,223.769 404.012,223.748 403.788,223.72 L403.788,223.72 L403.788,226.24 C404.152,226.296 404.46,226.331 404.712,226.345 C404.964,226.359 405.23,226.366 405.51,226.366 Z M455.574,217.42 C458.178,217.42 460.25,216.832 461.79,215.656 C463.33,214.48 464.1,212.884 464.1,210.868 C464.1,209.944 463.918,209.16 463.554,208.516 C463.19,207.872 462.651,207.326 461.937,206.878 C461.223,206.43 460.334,206.038 459.27,205.702 C458.206,205.366 456.974,205.03 455.574,204.694 C454.594,204.47 453.761,204.253 453.075,204.043 C452.389,203.833 451.822,203.595 451.374,203.329 C450.926,203.063 450.604,202.748 450.408,202.384 C450.212,202.02 450.114,201.544 450.114,200.956 C450.114,200.256 450.254,199.647 450.534,199.129 C450.814,198.611 451.199,198.184 451.689,197.848 C452.179,197.512 452.746,197.267 453.39,197.113 C454.034,196.959 454.734,196.882 455.49,196.882 C456.75,196.882 457.961,197.092 459.123,197.512 C460.285,197.932 461.272,198.562 462.084,199.402 L462.084,199.402 L463.47,197.722 C462.63,196.826 461.524,196.105 460.152,195.559 C458.78,195.013 457.254,194.74 455.574,194.74 C454.454,194.74 453.397,194.88 452.403,195.16 C451.409,195.44 450.541,195.853 449.799,196.399 C449.057,196.945 448.469,197.638 448.035,198.478 C447.601,199.318 447.384,200.284 447.384,201.376 C447.384,202.244 447.531,202.965 447.825,203.539 C448.119,204.113 448.567,204.596 449.169,204.988 C449.771,205.38 450.534,205.73 451.458,206.038 C452.382,206.346 453.474,206.654 454.734,206.962 C455.826,207.214 456.785,207.459 457.611,207.697 C458.437,207.935 459.123,208.208 459.669,208.516 C460.215,208.824 460.628,209.181 460.908,209.587 C461.188,209.993 461.328,210.504 461.328,211.12 C461.328,212.436 460.803,213.451 459.753,214.165 C458.703,214.879 457.296,215.236 455.532,215.236 C454.076,215.236 452.711,214.984 451.437,214.48 C450.163,213.976 448.91,213.22 447.678,212.212 L447.678,212.212 L446.376,214.144 C447.552,215.208 448.952,216.02 450.576,216.58 C452.2,217.14 453.866,217.42 455.574,217.42 Z M525.714,217 L529.536,207.676 L542.934,207.676 L546.798,217 L549.906,217 L537.516,187.18 L535.038,187.18 L522.564,217 L525.714,217 Z M542.262,205.366 L530.166,205.366 L536.256,190.624 L542.262,205.366 Z M579.978,217 L579.978,203.602 C580.23,202.706 580.615,201.88 581.133,201.124 C581.651,200.368 582.26,199.71 582.96,199.15 C583.66,198.59 584.409,198.149 585.207,197.827 C586.005,197.505 586.81,197.344 587.622,197.344 C589.274,197.344 590.527,197.96 591.381,199.192 C592.235,200.424 592.662,202.286 592.662,204.778 L592.662,204.778 L592.662,217 L595.518,217 L595.518,204.19 C595.518,202.79 595.392,201.509 595.14,200.347 C594.888,199.185 594.482,198.191 593.922,197.365 C593.362,196.539 592.648,195.895 591.78,195.433 C590.912,194.971 589.848,194.74 588.588,194.74 C586.796,194.74 585.13,195.216 583.59,196.168 C582.05,197.12 580.846,198.422 579.978,200.074 L579.978,200.074 L579.978,186.34 L577.122,186.34 L577.122,217 L579.978,217 Z M634.578,217.42 C635.642,217.42 636.664,217.287 637.644,217.021 C638.624,216.755 639.52,216.377 640.332,215.887 C641.144,215.397 641.858,214.823 642.474,214.165 C643.09,213.507 643.566,212.772 643.902,211.96 L643.902,211.96 L641.424,211.288 C641.172,211.876 640.808,212.415 640.332,212.905 C639.856,213.395 639.324,213.808 638.736,214.144 C638.148,214.48 637.504,214.746 636.804,214.942 C636.104,215.138 635.404,215.236 634.704,215.236 C633.64,215.236 632.639,215.033 631.701,214.627 C630.763,214.221 629.93,213.654 629.202,212.926 C628.474,212.198 627.879,211.337 627.417,210.343 C626.955,209.349 626.682,208.264 626.598,207.088 L626.598,207.088 L645.33,207.088 C645.358,207.004 645.372,206.85 645.372,206.626 L645.372,206.626 L645.372,205.954 C645.372,204.442 645.106,203.014 644.574,201.67 C644.042,200.326 643.3,199.136 642.348,198.1 C641.396,197.064 640.255,196.245 638.925,195.643 C637.595,195.041 636.132,194.74 634.536,194.74 C632.968,194.74 631.512,195.041 630.168,195.643 C628.824,196.245 627.669,197.057 626.703,198.079 C625.737,199.101 624.981,200.291 624.435,201.649 C623.889,203.007 623.616,204.456 623.616,205.996 C623.616,207.564 623.889,209.034 624.435,210.406 C624.981,211.778 625.744,212.989 626.724,214.039 C627.704,215.089 628.859,215.915 630.189,216.517 C631.519,217.119 632.982,217.42 634.578,217.42 Z M642.642,204.904 L626.556,204.904 C626.64,203.756 626.899,202.692 627.333,201.712 C627.767,200.732 628.341,199.892 629.055,199.192 C629.769,198.492 630.602,197.946 631.554,197.554 C632.506,197.162 633.514,196.966 634.578,196.966 C635.642,196.966 636.643,197.162 637.581,197.554 C638.519,197.946 639.345,198.492 640.059,199.192 C640.773,199.892 641.361,200.725 641.823,201.691 C642.285,202.657 642.558,203.728 642.642,204.904 L642.642,204.904 Z M678.804,217.42 C680.568,217.42 682.213,217.07 683.739,216.37 C685.265,215.67 686.532,214.662 687.54,213.346 L687.54,213.346 L687.624,215.068 C687.652,215.712 687.869,216.216 688.275,216.58 C688.681,216.944 689.248,217.126 689.976,217.126 C690.228,217.126 690.592,217.084 691.068,217 L691.068,217 L691.068,214.48 C690.368,214.48 690.018,214.088 690.018,213.304 L690.018,213.304 L690.018,203.434 C690.018,200.718 689.234,198.59 687.666,197.05 C686.098,195.51 683.942,194.74 681.198,194.74 C678.538,194.74 675.794,195.692 672.966,197.596 L672.966,197.596 L673.974,199.486 C675.178,198.646 676.368,198.002 677.544,197.554 C678.72,197.106 679.868,196.882 680.988,196.882 C682.92,196.882 684.432,197.449 685.524,198.583 C686.616,199.717 687.162,201.25 687.162,203.182 L687.162,203.182 L687.162,205.156 C686.266,204.792 685.244,204.512 684.096,204.316 C682.948,204.12 681.814,204.022 680.694,204.022 C679.35,204.022 678.118,204.183 676.998,204.505 C675.878,204.827 674.912,205.282 674.1,205.87 C673.288,206.458 672.658,207.158 672.21,207.97 C671.762,208.782 671.538,209.664 671.538,210.616 C671.538,211.568 671.72,212.457 672.084,213.283 C672.448,214.109 672.959,214.83 673.617,215.446 C674.275,216.062 675.045,216.545 675.927,216.895 C676.809,217.245 677.768,217.42 678.804,217.42 Z M679.476,215.236 C678.748,215.236 678.062,215.11 677.418,214.858 C676.774,214.606 676.221,214.263 675.759,213.829 C675.297,213.395 674.933,212.884 674.667,212.296 C674.401,211.708 674.268,211.078 674.268,210.406 C674.268,209.034 674.898,207.928 676.158,207.088 C677.418,206.248 679.056,205.828 681.072,205.828 C682.136,205.828 683.179,205.926 684.201,206.122 C685.223,206.318 686.21,206.598 687.162,206.962 L687.162,206.962 L687.162,210.532 C687.162,210.784 687.099,211.057 686.973,211.351 C686.847,211.645 686.658,211.918 686.406,212.17 C685.762,213.094 684.817,213.836 683.571,214.396 C682.325,214.956 680.96,215.236 679.476,215.236 Z M728.7,217.42 C730.296,217.42 731.836,217 733.32,216.16 C734.804,215.32 735.98,214.186 736.848,212.758 L736.848,212.758 L736.848,214.9 C736.848,215.516 737.1,216.041 737.604,216.475 C738.108,216.909 738.696,217.126 739.368,217.126 C739.62,217.126 739.956,217.084 740.376,217 L740.376,217 L740.376,214.48 C739.704,214.48 739.368,214.088 739.368,213.304 L739.368,213.304 L739.368,186.34 L736.512,186.34 L736.512,199.696 C735.7,198.324 734.58,197.155 733.152,196.189 C731.724,195.223 730.086,194.74 728.238,194.74 C726.782,194.74 725.445,195.041 724.227,195.643 C723.009,196.245 721.959,197.064 721.077,198.1 C720.195,199.136 719.502,200.347 718.998,201.733 C718.494,203.119 718.242,204.582 718.242,206.122 C718.242,207.606 718.501,209.027 719.019,210.385 C719.537,211.743 720.258,212.94 721.182,213.976 C722.106,215.012 723.212,215.845 724.5,216.475 C725.788,217.105 727.188,217.42 728.7,217.42 Z M729.33,214.9 C728.182,214.9 727.111,214.662 726.117,214.186 C725.123,213.71 724.262,213.073 723.534,212.275 C722.806,211.477 722.232,210.546 721.812,209.482 C721.392,208.418 721.182,207.298 721.182,206.122 C721.182,205.002 721.364,203.91 721.728,202.846 C722.092,201.782 722.617,200.837 723.303,200.011 C723.989,199.185 724.808,198.52 725.76,198.016 C726.712,197.512 727.776,197.26 728.952,197.26 C729.708,197.26 730.478,197.4 731.262,197.68 C732.046,197.96 732.781,198.352 733.467,198.856 C734.153,199.36 734.762,199.941 735.294,200.599 C735.826,201.257 736.232,201.964 736.512,202.72 L736.512,202.72 L736.512,209.482 C736.4,210.238 736.099,210.945 735.609,211.603 C735.119,212.261 734.524,212.835 733.824,213.325 C733.124,213.815 732.375,214.2 731.577,214.48 C730.779,214.76 730.03,214.9 729.33,214.9 Z" id="AlwaysAhead" fill="#193855" fill-rule="nonzero"></path>
                    <line x1="194.5" y1="162.5" x2="755.5" y2="162.5" id="Line" stroke="#193855" opacity="0.3" stroke-linecap="round"></line>
                </g>
            </g>
        </g>
    </g>
</svg>