<?xml version="1.0" encoding="UTF-8"?>
<svg width="18px" height="13px" viewBox="0 0 18 13" version="1.1" xmlns="http://www.w3.org/2000/svg" xmlns:xlink="http://www.w3.org/1999/xlink">
    <title>i-message</title>
    <g id="Website" stroke="none" stroke-width="1" fill="none" fill-rule="evenodd">
        <g id="Header" transform="translate(-121.000000, -5482.000000)" fill="#15C872" fill-rule="nonzero">
            <g id="footer" transform="translate(-154.000000, 5147.000000)">
                <g id="Group-16" transform="translate(275.000000, 88.000000)">
                    <path d="M1.92004164,247 C0.856633962,247 7.28306304e-14,247.856634 7.28306304e-14,248.920042 L7.28306304e-14,258.077163 C7.28306304e-14,259.140571 0.856633962,259.997205 1.92004164,259.997205 L5.6124294,259.997205 C5.86351177,259.997205 6.05551594,259.805201 6.05551594,259.554118 C6.05551594,259.303036 5.86351177,259.111032 5.6124294,259.111032 L1.92004164,259.111032 C1.34402915,259.111032 0.886173064,258.653176 0.886173064,258.077163 L0.886173064,248.920042 C0.886173064,248.344029 1.34402915,247.886173 1.92004164,247.886173 L13.7356825,247.886173 C14.311695,247.886173 14.7695511,248.344029 14.7695511,248.920042 L14.7695511,255.418644 C14.7695511,255.669726 14.9615552,255.861731 15.2126376,255.861731 C15.46372,255.861731 15.6557241,255.669726 15.6557241,255.418644 L15.6557241,248.920042 C15.6557241,247.856634 14.7990902,247 13.7356825,247 L1.92004164,247 Z M2.41130231,250.65806 C2.23896473,250.660645 2.08376095,250.762923 2.01341014,250.920269 C1.94305933,251.077614 1.97032655,251.261477 2.08331445,251.391634 C2.08331445,251.391634 2.85714218,252.310536 3.94104704,253.230904 C5.02495175,254.151273 6.41089689,255.123253 7.82786206,255.123253 C9.24482724,255.123253 10.6307724,254.151273 11.7146771,253.230904 C12.7985819,252.310536 13.5724095,251.391634 13.5724095,251.391634 C13.6762672,251.270802 13.7072593,251.103515 13.6535803,250.953497 C13.5999012,250.803479 13.4698157,250.693828 13.3128771,250.666314 C13.1559384,250.638799 12.99631,250.697658 12.8947989,250.820468 C12.8947989,250.820468 12.1619594,251.688565 11.1412032,252.555313 C10.1204469,253.42206 8.80356416,254.23708 7.82786206,254.23708 C6.85215997,254.23708 5.53527726,253.42206 4.51452094,252.555313 C3.49376478,251.688565 2.7609252,250.820467 2.7609252,250.820468 C2.67527083,250.71582 2.54651945,250.656012 2.41130231,250.65806 L2.41130231,250.65806 Z M14.0873248,257.349071 C14.0346507,257.346503 13.9813415,257.347859 13.9278019,257.353398 C13.4994849,257.382937 13.1448427,257.678328 13.0119167,258.091875 L12.7018139,259.081608 C12.7018139,259.096378 12.686929,259.111032 12.6573899,259.111032 C12.6278508,259.111032 12.6132544,259.096378 12.6132544,259.081608 L12.4802706,258.830353 C12.3178056,258.520192 12.0223568,258.328188 11.6826571,258.313418 C11.3429575,258.298649 11.0182004,258.475826 10.8261963,258.771217 L10.3978217,259.273439 C10.2353566,259.450674 10.2499531,259.731468 10.4419573,259.893933 C10.515805,259.967781 10.6192495,259.997205 10.7226363,259.997205 C10.8555623,259.997205 10.9737764,259.938184 11.0771633,259.834797 L11.5202498,259.317863 C11.5350194,259.303094 11.5499043,259.273497 11.5646738,259.258727 C11.5942129,259.214419 11.638464,259.199592 11.6532335,259.199592 C11.6532335,259.199592 11.6678876,259.199764 11.6826571,259.229303 L11.8156409,259.480271 C11.9928755,259.81997 12.3472293,260.026744 12.7312377,259.997205 C13.115246,259.967666 13.4254067,259.716526 13.5435631,259.347287 L13.8539541,258.357843 C13.8834932,258.269225 13.957341,258.239571 14.0016496,258.239571 C14.0459583,258.224801 14.1344604,258.239513 14.178769,258.32813 L14.6218556,259.170168 C14.8433988,259.583715 15.2272919,259.849509 15.685148,259.923357 C16.1430041,259.982435 16.6009178,259.834625 16.9258479,259.509695 C17.1030825,259.347229 17.1030825,259.066723 16.9258479,258.889489 C16.7633829,258.712254 16.4828766,258.712254 16.305642,258.889489 C16.172716,259.022415 15.9953662,259.081435 15.8181316,259.051896 C15.640897,259.022357 15.4933743,258.91897 15.404757,258.756505 L14.9616704,257.914756 C14.7936668,257.578749 14.4560437,257.367042 14.0873248,257.349071 Z M7.97555757,259.111032 C7.72447521,259.111032 7.53247104,259.303036 7.53247104,259.554118 C7.53247104,259.805201 7.72447521,259.997205 7.97555757,259.997205 L8.56633962,259.997205 C8.81742198,259.997205 9.00942615,259.805201 9.00942615,259.554118 C9.00942615,259.303036 8.81742198,259.111032 8.56633962,259.111032 L7.97555757,259.111032 Z" id="i-message"></path>
                </g>
            </g>
        </g>
    </g>
</svg>