<svg id="Layer_1" data-name="Layer 1" xmlns="http://www.w3.org/2000/svg" xmlns:xlink="http://www.w3.org/1999/xlink" viewBox="0 0 385 233.3"><defs><style>.cls-1{fill-rule:evenodd;fill:url(#linear-gradient);}.cls-2{isolation:isolate;}.cls-3{fill:#fafbfc;}.cls-4{fill:#fcfcfc;}</style><linearGradient id="linear-gradient" y1="117.24" x2="385" y2="117.24" gradientTransform="matrix(1, 0, 0, -1, 0, 233.89)" gradientUnits="userSpaceOnUse"><stop offset="0" stop-color="#7c7c7c"/><stop offset="0.34" stop-color="#7e7e7e"/><stop offset="0.5" stop-color="#868686"/><stop offset="0.63" stop-color="#939393"/><stop offset="0.74" stop-color="#a6a6a6"/><stop offset="0.83" stop-color="#bebebe"/><stop offset="0.92" stop-color="#dbdbdb"/><stop offset="1" stop-color="#fdfdfd"/><stop offset="1" stop-color="#fff"/></linearGradient></defs><g id="Website"><g id="Header"><g id="c-se"><g id="image-placeholder"><path id="path-1" class="cls-1" d="M18,0H367a18.05,18.05,0,0,1,18,18h0V233.3H0V18A18.05,18.05,0,0,1,18,0Z" transform="translate(0 0)"/></g></g></g></g><g class="cls-2"><path class="cls-3" d="M49.71,86.72v16.8h-2L37.66,91v12.53h-2.4V86.72h2L47.31,99.25V86.72Z" transform="translate(0 0)"/><path class="cls-3" d="M53.38,95.12c0-4.92,3.79-8.59,8.95-8.59s8.91,3.65,8.91,8.59-3.79,8.6-8.91,8.6S53.38,100,53.38,95.12Zm15.46,0a6.53,6.53,0,1,0-6.51,6.46A6.31,6.31,0,0,0,68.84,95.12Z" transform="translate(0 0)"/><path class="cls-3" d="M89.36,86.72v16.8h-2L77.31,91v12.53h-2.4V86.72h2L87,99.25V86.72Z" transform="translate(0 0)"/><path class="cls-3" d="M93.24,95.94H99.7v2H93.24Z" transform="translate(0 0)"/><path class="cls-3" d="M103.59,86.72H106v16.8h-2.4Z" transform="translate(0 0)"/><path class="cls-3" d="M114.36,88.81H108.6V86.72h13.9v2.09h-5.76v14.71h-2.38Z" transform="translate(0 0)"/><path class="cls-3" d="M134.91,88.81h-5.76V86.72H143v2.09h-5.76v14.71h-2.37Z" transform="translate(0 0)"/><path class="cls-3" d="M144.05,95.12c0-4.92,3.79-8.59,8.95-8.59s8.91,3.65,8.91,8.59-3.79,8.6-8.91,8.6S144.05,100,144.05,95.12Zm15.46,0a6.53,6.53,0,1,0-6.51,6.46A6.31,6.31,0,0,0,159.51,95.12Z" transform="translate(0 0)"/><path class="cls-3" d="M172,86.72h2.4v16.8H172Z" transform="translate(0 0)"/><path class="cls-3" d="M182.81,88.81h-5.76V86.72H191v2.09h-5.76v14.71h-2.38Z" transform="translate(0 0)"/></g><g class="cls-2"><path class="cls-4" d="M38.86,122.57H33.1v-2.09H47v2.09H41.23v14.71H38.86Z" transform="translate(0 0)"/><path class="cls-4" d="M60.84,137.28l-3.62-5.16c-.34,0-.7,0-1.06,0H52v5.11h-2.4v-16.8h6.55c4.37,0,7,2.21,7,5.86a5.29,5.29,0,0,1-3.7,5.3l4,5.64Zm-.07-10.94c0-2.4-1.61-3.77-4.68-3.77H52v7.56h4.08C59.16,130.13,60.77,128.74,60.77,126.34Z" transform="translate(0 0)"/><path class="cls-4" d="M77.76,133.08H68.83L67,137.28H64.51l7.61-16.8H74.5l7.63,16.8H79.61Zm-.84-1.92-3.62-8.23-3.63,8.23Z" transform="translate(0 0)"/><path class="cls-4" d="M99.07,120.48v16.8h-2L87,124.75v12.53h-2.4v-16.8h2L96.67,133V120.48Z" transform="translate(0 0)"/><path class="cls-4" d="M102.58,135.36l.88-1.87a8.65,8.65,0,0,0,5.55,1.94c2.9,0,4.15-1.12,4.15-2.59,0-4.1-10.18-1.51-10.18-7.75,0-2.59,2-4.8,6.44-4.8a9.92,9.92,0,0,1,5.4,1.49l-.8,1.92a8.63,8.63,0,0,0-4.6-1.37c-2.86,0-4.08,1.2-4.08,2.66,0,4.11,10.17,1.54,10.17,7.71,0,2.57-2.06,4.77-6.5,4.77A9.94,9.94,0,0,1,102.58,135.36Z" transform="translate(0 0)"/><path class="cls-4" d="M121.42,122.57v5.86h8.42v2.06h-8.42v6.79H119v-16.8h11.85v2.09Z" transform="translate(0 0)"/><path class="cls-4" d="M132.7,128.88c0-4.92,3.79-8.59,9-8.59s8.9,3.65,8.9,8.59-3.79,8.59-8.9,8.59S132.7,133.8,132.7,128.88Zm15.45,0a6.53,6.53,0,1,0-6.5,6.46A6.31,6.31,0,0,0,148.15,128.88Z" transform="translate(0 0)"/><path class="cls-4" d="M165.46,137.28l-3.63-5.16c-.33,0-.69,0-1.05,0h-4.16v5.11h-2.4v-16.8h6.56c4.36,0,7,2.21,7,5.86a5.3,5.3,0,0,1-3.69,5.3l4,5.64Zm-.08-10.94c0-2.4-1.6-3.77-4.68-3.77h-4.08v7.56h4.08C163.78,130.13,165.38,128.74,165.38,126.34Z" transform="translate(0 0)"/><path class="cls-4" d="M187.25,137.28l0-12.24-6.07,10.2h-1.1L174,125.11v12.17h-2.3v-16.8h2l7,11.81,6.91-11.81h2l0,16.8Z" transform="translate(0 0)"/><path class="cls-4" d="M205.29,133.08h-8.92l-1.85,4.2h-2.47l7.6-16.8H202l7.63,16.8h-2.52Zm-.83-1.92-3.63-8.23-3.62,8.23Z" transform="translate(0 0)"/><path class="cls-4" d="M214.65,122.57h-5.76v-2.09h13.9v2.09H217v14.71h-2.38Z" transform="translate(0 0)"/><path class="cls-4" d="M225.41,120.48h2.4v16.8h-2.4Z" transform="translate(0 0)"/><path class="cls-4" d="M231.48,128.88c0-4.92,3.79-8.59,9-8.59s8.91,3.65,8.91,8.59-3.8,8.59-8.91,8.59S231.48,133.8,231.48,128.88Zm15.46,0a6.53,6.53,0,1,0-6.51,6.46A6.32,6.32,0,0,0,246.94,128.88Z" transform="translate(0 0)"/><path class="cls-4" d="M267.46,120.48v16.8h-2l-10.08-12.53v12.53H253v-16.8h2L265.06,133V120.48Z" transform="translate(0 0)"/></g></svg>