<?xml version="1.0" encoding="UTF-8"?>
<svg width="20px" height="21px" viewBox="0 0 20 21" version="1.1" xmlns="http://www.w3.org/2000/svg" xmlns:xlink="http://www.w3.org/1999/xlink">
    <title>i-phone</title>
    <g id="Website" stroke="none" stroke-width="1" fill="none" fill-rule="evenodd">
        <g id="Header" transform="translate(-399.000000, -753.000000)" fill="#00E6C1">
            <g id="Contact-info" transform="translate(121.000000, 719.539064)">
                <g id="Phone" transform="translate(277.999586, 31.000000)">
                    <path d="M19.2769141,17.5073333 L15.1794141,15.3915 C14.6127475,15.1006667 13.8885808,15.2498333 13.4927475,15.7465 L11.9819141,17.654 C10.5144141,16.8556667 9.40358079,16.1131667 8.13274746,14.8373333 C6.75358079,13.4706667 6.04774746,12.3315 5.30108079,10.9248333 L7.21691413,9.43983333 C7.73108079,9.0565 7.89358079,8.334 7.59441413,7.77066667 L5.51774746,3.724 C5.14024746,3.00983333 4.23524746,2.78566667 3.56024746,3.22483333 L0.927747461,4.95733333 C0.313580795,5.34983333 -0.0347525385,6.06066667 0.00274746147,6.76483333 C0.0485807948,7.49233333 0.142747461,8.43316667 0.287747461,9.07483333 C1.03274746,11.969 2.83024746,14.9848333 5.37108079,17.5373333 C7.91274746,20.0906667 10.9177475,21.8931667 13.8285808,22.6773333 C14.4860808,22.859 15.4210808,22.9448333 16.1635808,22.9948333 C16.9044141,23.0456667 17.6119141,22.6981667 18.0152475,22.0715 L19.7435808,19.4473333 C20.2310808,18.7656667 19.9977475,17.8723333 19.2769141,17.5073333" id="i-phone"></path>
                </g>
            </g>
        </g>
    </g>
</svg>