<?xml version="1.0" encoding="UTF-8"?>
<svg width="182px" height="145px" viewBox="0 0 182 145" version="1.1" xmlns="http://www.w3.org/2000/svg" xmlns:xlink="http://www.w3.org/1999/xlink">
    <title>i-q</title>
    <g id="Website" stroke="none" stroke-width="1" fill="none" fill-rule="evenodd" opacity="0.1">
        <g id="Header" transform="translate(-42.000000, -4152.000000)" fill="#FFFFFF" fill-rule="nonzero">
            <path d="M123.066667,4296.6 L123.066667,4230.46667 L88.9333333,4230.46667 L88.9333333,4222.46667 C88.9333333,4198.28889 98.3555556,4186.2 117.2,4186.2 L117.2,4186.2 L117.2,4152.6 C92.6666667,4152.6 74,4159.97778 61.2,4174.73333 C48.4,4189.48889 42,4208.95556 42,4233.13333 C42,4254.11111 45.7333333,4275.26667 53.2,4296.6 L53.2,4296.6 L123.066667,4296.6 Z M223.866667,4296.6 L223.866667,4230.46667 L190.266667,4230.46667 L190.266667,4222.46667 C190.266667,4198.28889 199.511111,4186.2 218,4186.2 L218,4186.2 L218,4152.6 C193.466667,4152.6 174.888889,4159.97778 162.266667,4174.73333 C149.644444,4189.48889 143.333333,4208.95556 143.333333,4233.13333 C143.333333,4253.75556 146.888889,4274.91111 154,4296.6 L154,4296.6 L223.866667,4296.6 Z" id="i-q"></path>
        </g>
    </g>
</svg>