<svg id="Layer_1" data-name="Layer 1" xmlns="http://www.w3.org/2000/svg" xmlns:xlink="http://www.w3.org/1999/xlink" viewBox="0 0 385 233.3"><defs><style>.cls-1{fill-rule:evenodd;fill:url(#linear-gradient);}.cls-2{fill:none;}.cls-3{isolation:isolate;}.cls-4{fill:#f9f9f9;}</style><linearGradient id="linear-gradient" y1="117.24" x2="385" y2="117.24" gradientTransform="matrix(1, 0, 0, -1, 0, 233.89)" gradientUnits="userSpaceOnUse"><stop offset="0" stop-color="#941f65"/><stop offset="0.18" stop-color="#952267"/><stop offset="0.32" stop-color="#9a2c6e"/><stop offset="0.45" stop-color="#a23c79"/><stop offset="0.56" stop-color="#ad5389"/><stop offset="0.67" stop-color="#bb709d"/><stop offset="0.78" stop-color="#cc95b6"/><stop offset="0.88" stop-color="#e1c0d4"/><stop offset="0.97" stop-color="#f8f1f5"/><stop offset="1" stop-color="#fff"/></linearGradient></defs><g id="Website"><g id="Header"><g id="c-se"><g id="image-placeholder"><path id="path-1" class="cls-1" d="M18,0H367a18.05,18.05,0,0,1,18,18h0V233.3H0V18A18.05,18.05,0,0,1,18,0Z" transform="translate(0 0)"/></g></g></g></g><rect class="cls-2" x="36.8" y="89.7" width="315.3" height="63.1"/><g class="cls-3"><g class="cls-3"><path class="cls-4" d="M50.08,107.46l-3.44-4.92c-.21,0-.43,0-.64,0H42.2v4.9H39.08V90.66H46c4.41,0,7.15,2.25,7.15,6a5.38,5.38,0,0,1-3.58,5.31l3.87,5.52ZM45.85,93.3H42.2V100h3.65c2.74,0,4.15-1.24,4.15-3.36S48.59,93.3,45.85,93.3Z" transform="translate(0 0)"/><path class="cls-4" d="M69.23,104.84v2.62H56.63V90.66H68.89v2.61H59.75v4.37h8.11v2.57H59.75v4.63Z" transform="translate(0 0)"/><path class="cls-4" d="M83.6,103.57H75.2l-1.65,3.89H70.33l7.56-16.8H81l7.59,16.8H85.28Zm-1-2.45L79.4,93.78l-3.14,7.34Z" transform="translate(0 0)"/><path class="cls-4" d="M89.24,99.06c0-5,3.84-8.64,9-8.64a8.49,8.49,0,0,1,6.65,2.81l-2,1.89a5.92,5.92,0,0,0-4.49-2,5.91,5.91,0,1,0,0,11.81,5.87,5.87,0,0,0,4.49-2l2,1.92a8.5,8.5,0,0,1-6.67,2.81C93.08,107.7,89.24,104.07,89.24,99.06Z" transform="translate(0 0)"/><path class="cls-4" d="M111.11,93.3h-5.57V90.66h14.25V93.3h-5.56v14.16h-3.12Z" transform="translate(0 0)"/><path class="cls-4" d="M126.2,105.27l1.78-2.13a4.06,4.06,0,0,0,3.33,1.92c1.73,0,2.62-1,2.62-3.1V93.27h-6V90.66h9.1V101.8c0,4-2,5.9-5.66,5.9A6.31,6.31,0,0,1,126.2,105.27Z" transform="translate(0 0)"/><path class="cls-4" d="M140,105.68l1.08-2.42a9.33,9.33,0,0,0,5.55,1.85c2.61,0,3.72-.94,3.72-2.19,0-3.62-10-1.25-10-7.49,0-2.71,2.16-5,6.77-5a10.59,10.59,0,0,1,5.59,1.49l-1,2.42A9.31,9.31,0,0,0,147.11,93c-2.6,0-3.65,1-3.65,2.28,0,3.58,10,1.25,10,7.42,0,2.68-2.19,5-6.79,5A10.83,10.83,0,0,1,140,105.68Z" transform="translate(0 0)"/></g><g class="cls-3"><path class="cls-4" d="M39.08,119.46h7.35c5.45,0,9.17,3.36,9.17,8.4s-3.72,8.4-9.17,8.4H39.08Zm7.2,14.16c3.75,0,6.17-2.28,6.17-5.76S50,122.1,46.28,122.1H42.2v11.52Z" transform="translate(0 0)"/><path class="cls-4" d="M71.51,133.64v2.62H58.91v-16.8H71.17v2.61H62v4.37h8.11V129H62v4.63Z" transform="translate(0 0)"/><path class="cls-4" d="M90.11,119.46l-7.32,16.8H79.71l-7.34-16.8h3.38l5.6,13,5.64-13Z" transform="translate(0 0)"/><path class="cls-4" d="M104.48,133.64v2.62H91.88v-16.8h12.27v2.61H95v4.37h8.12V129H95v4.63Z" transform="translate(0 0)"/><path class="cls-4" d="M108,119.46h3.12v14.16h8.79v2.64H108Z" transform="translate(0 0)"/><path class="cls-4" d="M120.83,127.86c0-5,3.84-8.64,9-8.64s9,3.65,9,8.64-3.84,8.64-9,8.64S120.83,132.83,120.83,127.86Zm15,0a5.91,5.91,0,1,0-5.9,5.9A5.73,5.73,0,0,0,135.78,127.86Z" transform="translate(0 0)"/><path class="cls-4" d="M156.3,125.43c0,3.7-2.74,6-7.15,6h-3.8v4.85h-3.12v-16.8h6.92C153.56,119.46,156.3,121.71,156.3,125.43Zm-3.14,0c0-2.11-1.42-3.33-4.16-3.33h-3.65v6.67H149C151.74,128.77,153.16,127.55,153.16,125.43Z" transform="translate(0 0)"/><path class="cls-4" d="M174.85,136.26l0-11.14-5.52,9.22h-1.39l-5.53-9.07v11h-3v-16.8H162l6.67,11.13,6.55-11.13h2.57l0,16.8Z" transform="translate(0 0)"/><path class="cls-4" d="M194.94,133.64v2.62h-12.6v-16.8H194.6v2.61h-9.14v4.37h8.11V129h-8.11v4.63Z" transform="translate(0 0)"/><path class="cls-4" d="M213.35,119.46v16.8h-2.57l-9.27-11.38v11.38h-3.09v-16.8H201l9.26,11.37V119.46Z" transform="translate(0 0)"/><path class="cls-4" d="M221.27,122.1H215.7v-2.64H230v2.64h-5.57v14.16h-3.12Z" transform="translate(0 0)"/></g></g></svg>