<svg id="Layer_1" data-name="Layer 1" xmlns="http://www.w3.org/2000/svg" xmlns:xlink="http://www.w3.org/1999/xlink" viewBox="0 0 385 233"><defs><style>.cls-1{fill-rule:evenodd;fill:url(#linear-gradient);}.cls-2{isolation:isolate;}.cls-3{fill:#f9f9f9;}</style><linearGradient id="linear-gradient" x1="0.8" y1="725" x2="385.8" y2="725" gradientTransform="translate(-0.8 -608.5)" gradientUnits="userSpaceOnUse"><stop offset="0" stop-color="#289f68"/><stop offset="0.1" stop-color="#2ea26d"/><stop offset="0.24" stop-color="#41aa79"/><stop offset="0.41" stop-color="#5eb78e"/><stop offset="0.59" stop-color="#88caab"/><stop offset="0.79" stop-color="#bde1d0"/><stop offset="0.99" stop-color="#fcfefd"/><stop offset="1" stop-color="#fff"/></linearGradient></defs><g id="Website"><g id="Header"><g id="c-se"><g id="image-placeholder"><path id="path-1" class="cls-1" d="M18,0H367a18.05,18.05,0,0,1,18,18V233H0V18A18.05,18.05,0,0,1,18,0Z" transform="translate(0 0)"/><g class="cls-2"><path class="cls-3" d="M55.83,110l-3.44-4.92c-.21,0-.43,0-.64,0H48V110H44.83V93.21h6.92c4.41,0,7.15,2.26,7.15,6a5.38,5.38,0,0,1-3.58,5.31L59.19,110ZM51.6,95.85H48v6.7H51.6c2.74,0,4.15-1.25,4.15-3.37S54.34,95.85,51.6,95.85Z" transform="translate(0 0)"/><path class="cls-3" d="M75,107.39V110H62.38V93.21H74.64v2.61H65.5v4.37h8.11v2.57H65.5v4.63Z" transform="translate(0 0)"/><path class="cls-3" d="M77,108.23l1.08-2.42a9.3,9.3,0,0,0,5.54,1.85c2.62,0,3.72-.94,3.72-2.19,0-3.62-10-1.24-10-7.49,0-2.71,2.16-5,6.77-5a10.62,10.62,0,0,1,5.59,1.49l-1,2.42a9.35,9.35,0,0,0-4.64-1.32c-2.59,0-3.64,1-3.64,2.28,0,3.58,10,1.25,10,7.42,0,2.69-2.19,5-6.8,5A10.82,10.82,0,0,1,77,108.23Z" transform="translate(0 0)"/><path class="cls-3" d="M96.72,95.85H91.15V93.21h14.26v2.64H99.84V110H96.72Z" transform="translate(0 0)"/><path class="cls-3" d="M125.28,106.12h-8.4L115.22,110H112l7.56-16.8h3.07l7.59,16.8H127Zm-1-2.45-3.17-7.34-3.14,7.34Z" transform="translate(0 0)"/><path class="cls-3" d="M146.42,99.18c0,3.7-2.73,6-7.15,6h-3.79V110h-3.12V93.21h6.91C143.69,93.21,146.42,95.47,146.42,99.18Zm-3.14,0c0-2.11-1.42-3.33-4.15-3.33h-3.65v6.67h3.65C141.86,102.52,143.28,101.3,143.28,99.18Z" transform="translate(0 0)"/><path class="cls-3" d="M149.54,93.21h3.12V110h-3.12Z" transform="translate(0 0)"/></g><g class="cls-2"><path class="cls-3" d="M55.73,134.92h-8.4l-1.66,3.89H42.46L50,122h3.07l7.58,16.8H57.41Zm-1-2.45-3.17-7.34-3.15,7.34Z" transform="translate(0 0)"/><path class="cls-3" d="M62.3,131.49V122h3.12v9.36c0,3.46,1.56,4.94,4.28,4.94S74,134.83,74,131.37V122H77v9.48c0,4.9-2.76,7.56-7.35,7.56S62.3,136.39,62.3,131.49Z" transform="translate(0 0)"/><path class="cls-3" d="M84.48,124.65H78.91V122H93.17v2.64H87.6v14.16H84.48Z" transform="translate(0 0)"/><path class="cls-3" d="M94.08,130.41c0-5,3.84-8.64,9-8.64s9.05,3.65,9.05,8.64-3.84,8.64-9.05,8.64S94.08,135.38,94.08,130.41Zm15,0a5.91,5.91,0,1,0-5.9,5.9A5.73,5.73,0,0,0,109,130.41Z" transform="translate(0 0)"/><path class="cls-3" d="M130.92,138.81l0-11.14-5.52,9.22H124l-5.52-9.07v11h-3V122h2.57l6.67,11.14L131.28,122h2.57l0,16.8Z" transform="translate(0 0)"/><path class="cls-3" d="M149.3,134.92h-8.4l-1.65,3.89H136l7.56-16.8h3.07l7.59,16.8H151Zm-1-2.45-3.17-7.34L142,132.47Z" transform="translate(0 0)"/><path class="cls-3" d="M159,124.65h-5.57V122h14.26v2.64h-5.57v14.16H159Z" transform="translate(0 0)"/><path class="cls-3" d="M170,122h3.12v16.8H170Z" transform="translate(0 0)"/><path class="cls-3" d="M176.45,130.41c0-5,3.84-8.64,9.05-8.64s9,3.65,9,8.64-3.84,8.64-9,8.64S176.45,135.38,176.45,130.41Zm15,0a5.91,5.91,0,1,0-5.9,5.9A5.73,5.73,0,0,0,191.4,130.41Z" transform="translate(0 0)"/><path class="cls-3" d="M212.78,122v16.8h-2.56L201,127.43v11.38h-3.09V122h2.56l9.27,11.37V122Z" transform="translate(0 0)"/></g></g></g></g></g></svg>