<?xml version="1.0" encoding="UTF-8"?>
<svg width="106px" height="108px" viewBox="0 0 106 108" version="1.1" xmlns="http://www.w3.org/2000/svg" xmlns:xlink="http://www.w3.org/1999/xlink">
    <title>i-rfw</title>
    <defs>
        <filter x="-17.9%" y="-8.7%" width="135.9%" height="123.3%" filterUnits="objectBoundingBox" id="filter-1">
            <feOffset dx="0" dy="2" in="SourceAlpha" result="shadowOffsetOuter1"></feOffset>
            <feGaussianBlur stdDeviation="4" in="shadowOffsetOuter1" result="shadowBlurOuter1"></feGaussianBlur>
            <feColorMatrix values="0 0 0 0 0   0 0 0 0 0   0 0 0 0 0  0 0 0 0.1 0" type="matrix" in="shadowBlurOuter1" result="shadowMatrixOuter1"></feColorMatrix>
            <feMerge>
                <feMergeNode in="shadowMatrixOuter1"></feMergeNode>
                <feMergeNode in="SourceGraphic"></feMergeNode>
            </feMerge>
        </filter>
        <path d="M60.6521586,10.2317905 C42.6521586,-7.54863177 27.3200407,0.537677283 24.6521586,14.0838212 C21.9842765,27.6299652 -2.79876327,30.3346666 0.261187502,46.3346666 C3.32113827,62.3346666 36.6521586,52.8346666 36.6521586,67.3346666 C36.6521586,81.8346666 75.1895892,81.3346666 75.1895892,62.3346666 C75.1895892,43.3346666 78.6521586,28.0122127 60.6521586,10.2317905 Z" id="path-2"></path>
    </defs>
    <g id="Website" stroke="none" stroke-width="1" fill="none" fill-rule="evenodd">
        <g id="Header" transform="translate(-242.000000, -3535.000000)">
            <g id="03_Features" transform="translate(122.000000, 3122.000000)">
                <g id="Features" transform="translate(62.000000, 0.000000)">
                    <g id="Feature-3" filter="url(#filter-1)" transform="translate(0.000000, 373.000000)">
                        <g id="i-rfw" transform="translate(73.000000, 55.000000)">
                            <g id="bgicon">
                                <mask id="mask-3" fill="white">
                                    <use xlink:href="#path-2"></use>
                                </mask>
                                <use fill-opacity="0.2" fill="#FFFFFF" xlink:href="#path-2"></use>
                                <g id="Color/Blue" opacity="0.2" mask="url(#mask-3)" fill="#B8EBCA">
                                    <rect id="Rectangle" x="0" y="0" width="76" height="78"></rect>
                                </g>
                            </g>
                            <g id="Group-21" transform="translate(19.000000, 23.000000)" fill-rule="nonzero">
                                <path d="M4.19047618,0 C1.87614009,0 0,1.87614017 0,4.19047626 C0,6.50481235 1.87614009,8.38095244 4.19047618,8.38095244 C5.68494215,8.37830946 7.06489609,7.57996322 7.81212791,6.28571435 L46.095238,6.28571435 L46.095238,20.952381 L23.9151775,20.952381 L26.6242554,18.2433031 L23.6614588,15.2805065 L15.8943463,23.0476191 L23.6614588,30.8147316 L26.6242554,27.8519351 L23.9151775,25.1428572 L50.2857142,25.1428572 L50.2857142,2.09523816 L7.82031254,2.09523816 C7.07161719,0.798459722 5.68786691,0 4.19047618,0 Z" id="Path" fill="#000000"></path>
                                <path d="M2.09523809,20.952381 C0.938070046,20.952381 0,21.890451 0,23.0476191 C0,24.2047871 0.938070046,25.1428572 2.09523809,25.1428572 C3.25240614,25.1428572 4.19047618,24.2047871 4.19047618,23.0476191 C4.19047618,21.890451 3.25240614,20.952381 2.09523809,20.952381 Z" id="Path" fill="#15C872"></path>
                                <path d="M10.4761905,20.952381 C9.31902241,20.952381 8.38095237,21.890451 8.38095237,23.0476191 C8.38095237,24.2047871 9.31902241,25.1428572 10.4761905,25.1428572 C11.6333585,25.1428572 12.5714286,24.2047871 12.5714286,23.0476191 C12.5714286,21.890451 11.6333585,20.952381 10.4761905,20.952381 Z" id="Path" fill="#15C872"></path>
                                <path d="M2.09523809,29.3333334 C0.938070046,29.3333334 0,30.2714034 0,31.4285714 C0,32.5857395 0.938070046,33.5238095 2.09523809,33.5238095 C3.25240614,33.5238095 4.19047618,32.5857395 4.19047618,31.4285714 C4.19047618,30.2714034 3.25240614,29.3333334 2.09523809,29.3333334 Z" id="Path" fill="#15C872"></path>
                                <path d="M46.095238,35.6190476 C43.7809019,35.6190476 41.9047618,37.4951877 41.9047618,39.8095238 C41.9047618,42.1238599 43.7809019,44 46.095238,44 C48.4095741,44 50.2857142,42.1238599 50.2857142,39.8095238 C50.2857142,37.4951877 48.4095741,35.6190476 46.095238,35.6190476 Z" id="Path" fill="#15C872"></path>
                                <path d="M2.09523809,37.7142857 C0.938070046,37.7142857 0,38.6523558 0,39.8095238 C0,40.9666919 0.938070046,41.9047619 2.09523809,41.9047619 C3.25240614,41.9047619 4.19047618,40.9666919 4.19047618,39.8095238 C4.19047618,38.6523558 3.25240614,37.7142857 2.09523809,37.7142857 Z" id="Path" fill="#15C872"></path>
                                <path d="M10.4761905,37.7142857 C9.31902241,37.7142857 8.38095237,38.6523558 8.38095237,39.8095238 C8.38095237,40.9666919 9.31902241,41.9047619 10.4761905,41.9047619 C11.6333585,41.9047619 12.5714286,40.9666919 12.5714286,39.8095238 C12.5714286,38.6523558 11.6333585,37.7142857 10.4761905,37.7142857 Z" id="Path" fill="#15C872"></path>
                                <path d="M18.8571428,37.7142857 C17.6999748,37.7142857 16.7619047,38.6523558 16.7619047,39.8095238 C16.7619047,40.9666919 17.6999748,41.9047619 18.8571428,41.9047619 C20.0143109,41.9047619 20.9523809,40.9666919 20.9523809,39.8095238 C20.9523809,38.6523558 20.0143109,37.7142857 18.8571428,37.7142857 Z" id="Path" fill="#15C872"></path>
                                <path d="M27.2380952,37.7142857 C26.0809271,37.7142857 25.1428571,38.6523558 25.1428571,39.8095238 C25.1428571,40.9666919 26.0809271,41.9047619 27.2380952,41.9047619 C28.3952632,41.9047619 29.3333333,40.9666919 29.3333333,39.8095238 C29.3333333,38.6523558 28.3952632,37.7142857 27.2380952,37.7142857 Z" id="Path" fill="#15C872"></path>
                                <path d="M35.6190476,37.7142857 C34.4618795,37.7142857 33.5238095,38.6523558 33.5238095,39.8095238 C33.5238095,40.9666919 34.4618795,41.9047619 35.6190476,41.9047619 C36.7762156,41.9047619 37.7142857,40.9666919 37.7142857,39.8095238 C37.7142857,38.6523558 36.7762156,37.7142857 35.6190476,37.7142857 Z" id="Path" fill="#15C872"></path>
                            </g>
                        </g>
                    </g>
                </g>
            </g>
        </g>
    </g>
</svg>