<svg id="Layer_1" data-name="Layer 1" xmlns="http://www.w3.org/2000/svg" xmlns:xlink="http://www.w3.org/1999/xlink" viewBox="0 0 385 233.8"><defs><style>.cls-1{fill:url(#linear-gradient);}.cls-2{fill:none;}.cls-3{isolation:isolate;}.cls-4{fill:#f9f9f9;}</style><linearGradient id="linear-gradient" y1="116.49" x2="385" y2="116.49" gradientTransform="matrix(1, 0, 0, -1, 0, 233.89)" gradientUnits="userSpaceOnUse"><stop offset="0" stop-color="#00366c"/><stop offset="0.08" stop-color="#053a6f"/><stop offset="0.16" stop-color="#0d4073"/><stop offset="0.29" stop-color="#22507f"/><stop offset="0.43" stop-color="#446b93"/><stop offset="0.6" stop-color="#7391af"/><stop offset="0.79" stop-color="#b0c1d2"/><stop offset="0.99" stop-color="#fafbfc"/><stop offset="1" stop-color="#fff"/></linearGradient></defs><g id="Website"><g id="image-placeholder"><path id="path-1" class="cls-1" d="M18,.5H367a18.05,18.05,0,0,1,18,18V234.3H0V18.5A18,18,0,0,1,18,.5Z" transform="translate(0 -0.5)"/><rect class="cls-2" x="37.4" y="89.2" width="315.3" height="63.1"/><g class="cls-3"><g class="cls-3"><path class="cls-4" d="M38.23,105.68l1.08-2.42a9.3,9.3,0,0,0,5.54,1.85c2.62,0,3.72-.94,3.72-2.19,0-3.62-10-1.25-10-7.49,0-2.71,2.16-5,6.76-5A10.66,10.66,0,0,1,51,91.91l-1,2.42A9.31,9.31,0,0,0,45.33,93c-2.59,0-3.65,1-3.65,2.28,0,3.58,10,1.25,10,7.42,0,2.68-2.18,5-6.79,5A10.8,10.8,0,0,1,38.23,105.68Z" transform="translate(0 -0.5)"/><path class="cls-4" d="M54.74,90.66h7.34c5.45,0,9.17,3.36,9.17,8.4s-3.72,8.4-9.17,8.4H54.74Zm7.2,14.16c3.74,0,6.17-2.28,6.17-5.76s-2.43-5.76-6.17-5.76H57.86v11.52Z" transform="translate(0 -0.5)"/><path class="cls-4" d="M87.16,104.84v2.62H74.56V90.66H86.83v2.61H77.68v4.37H85.8v2.57H77.68v4.63Z" transform="translate(0 -0.5)"/><path class="cls-4" d="M94.05,93.3H88.48V90.66h14.26V93.3H97.17v14.16H94.05Z" transform="translate(0 -0.5)"/></g><g class="cls-3"><path class="cls-4" d="M54.57,131.7c0,2.88-2.25,4.56-6.57,4.56H39.64v-16.8h7.88c4,0,6.19,1.7,6.19,4.37a4,4,0,0,1-2.16,3.69A4.14,4.14,0,0,1,54.57,131.7Zm-11.81-9.79v4.63h4.42c2.16,0,3.38-.77,3.38-2.31s-1.22-2.32-3.38-2.32Zm8.67,9.48c0-1.68-1.27-2.43-3.63-2.43h-5v4.85h5C50.16,133.81,51.43,133.07,51.43,131.39Z" transform="translate(0 -0.5)"/><path class="cls-4" d="M56.71,127.86c0-5,3.84-8.64,9-8.64s9,3.65,9,8.64-3.84,8.64-9,8.64S56.71,132.83,56.71,127.86Zm14.95,0a5.91,5.91,0,1,0-5.91,5.9A5.73,5.73,0,0,0,71.66,127.86Z" transform="translate(0 -0.5)"/><path class="cls-4" d="M76.91,127.86c0-5,3.84-8.64,9-8.64S95,122.87,95,127.86,91.17,136.5,86,136.5,76.91,132.83,76.91,127.86Zm15,0a5.91,5.91,0,1,0-5.91,5.9A5.73,5.73,0,0,0,91.87,127.86Z" transform="translate(0 -0.5)"/><path class="cls-4" d="M101.49,122.1H95.92v-2.64h14.26v2.64h-5.57v14.16h-3.12Z" transform="translate(0 -0.5)"/><path class="cls-4" d="M111.09,127.86c0-5,3.84-8.64,9-8.64a8.49,8.49,0,0,1,6.65,2.81l-2,1.89a5.89,5.89,0,0,0-4.49-2,5.91,5.91,0,1,0,0,11.81,5.84,5.84,0,0,0,4.49-2l2,1.92a8.54,8.54,0,0,1-6.67,2.81C114.93,136.5,111.09,132.87,111.09,127.86Z" transform="translate(0 -0.5)"/><path class="cls-4" d="M140.27,132.37h-8.4l-1.65,3.89H127l7.56-16.8h3.07l7.59,16.8H142Zm-1-2.45-3.17-7.34-3.14,7.34Z" transform="translate(0 -0.5)"/><path class="cls-4" d="M162.79,136.26l0-11.14-5.52,9.22h-1.39l-5.52-9.07v11h-3v-16.8h2.57l6.67,11.13,6.56-11.13h2.56l0,16.8Z" transform="translate(0 -0.5)"/><path class="cls-4" d="M184.34,125.43c0,3.7-2.74,6-7.15,6h-3.8v4.85h-3.12v-16.8h6.92C181.6,119.46,184.34,121.71,184.34,125.43Zm-3.15,0c0-2.11-1.41-3.33-4.15-3.33h-3.65v6.67H177C179.78,128.77,181.19,127.55,181.19,125.43Z" transform="translate(0 -0.5)"/></g></g></g></g></svg>