<?xml version="1.0" encoding="utf-8"?>
<!-- Generator: Adobe Illustrator 25.3.1, SVG Export Plug-In . SVG Version: 6.00 Build 0)  -->
<svg version="1.1" id="Layer_1" xmlns="http://www.w3.org/2000/svg" xmlns:xlink="http://www.w3.org/1999/xlink" x="0px" y="0px"
	 viewBox="0 0 385 233.3" style="enable-background:new 0 0 385 233.3;" xml:space="preserve">
<style type="text/css">
	.st0{fill-rule:evenodd;clip-rule:evenodd;fill:url(#path-1_1_);}
	.st1{fill:none;}
	.st2{fill:#F9F9F9;}
</style>
<g id="Website">
	<g id="Header">
		<g id="c-se">
			<g id="image-placeholder">
				
					<linearGradient id="path-1_1_" gradientUnits="userSpaceOnUse" x1="0" y1="725.0498" x2="385" y2="725.0498" gradientTransform="matrix(1 0 0 1 0 -608.3998)">
					<stop  offset="0" style="stop-color:#FD9E28"/>
					<stop  offset="0.2795" style="stop-color:#FD9F2A"/>
					<stop  offset="0.4238" style="stop-color:#FDA332"/>
					<stop  offset="0.5372" style="stop-color:#FDA93F"/>
					<stop  offset="0.6345" style="stop-color:#FDB152"/>
					<stop  offset="0.7215" style="stop-color:#FEBC6B"/>
					<stop  offset="0.8011" style="stop-color:#FECA8A"/>
					<stop  offset="0.8752" style="stop-color:#FEDAAE"/>
					<stop  offset="0.9429" style="stop-color:#FFEDD6"/>
					<stop  offset="1" style="stop-color:#FFFFFF"/>
				</linearGradient>
				<path id="path-1" class="st0" d="M18,0h349c9.9,0,18,8.1,18,18v215.3H0V18C0,8.1,8.1,0,18,0z"/>
			</g>
			<rect x="34.8" y="85.1" class="st1" width="315.3" height="63.1"/>
			<g>
				<g>
					<path class="st2" d="M35.7,101.2l1.1-2.4c1.6,1.2,3.5,1.9,5.5,1.9c2.6,0,3.7-1,3.7-2.2c0-3.6-10-1.2-10-7.5c0-2.7,2.2-5,6.8-5
						c2,0,3.9,0.5,5.6,1.5l-1,2.4c-1.4-0.8-3-1.3-4.6-1.3c-2.6,0-3.7,1-3.7,2.3c0,3.6,10,1.2,10,7.4c0,2.7-2.2,5-6.8,5
						C39.9,103.3,37.6,102.5,35.7,101.2z"/>
					<path class="st2" d="M64.8,100.3v2.6H52.2V86.1h12.3v2.6h-9.1v4.4h8.1v2.6h-8.1v4.6H64.8z"/>
					<path class="st2" d="M68.3,86.1h3.1v14.2h8.8v2.6H68.3V86.1z"/>
					<path class="st2" d="M95.2,100.3v2.6H82.6V86.1h12.3v2.6h-9.2v4.4h8.1v2.6h-8.1v4.6H95.2z"/>
					<path class="st2" d="M113.6,86.1v16.8h-2.6l-9.3-11.3V103h-3.1V86.1h2.6l9.3,11.4V86.1H113.6z"/>
					<path class="st2" d="M118.2,86.1h3.1v16.8h-3.1V86.1z"/>
					<path class="st2" d="M125.7,95.6v-9.5h3.1v9.4c0,3.5,1.6,5,4.3,5s4.2-1.5,4.2-5v-9.4h3.1v9.5c0,4.9-2.8,7.6-7.4,7.6
						S125.7,100.5,125.7,95.6z"/>
					<path class="st2" d="M160.2,102.9V91.8l-5.5,9.2h-1.4l-5.5-9.1v11h-3V86.1h2.6l6.7,11.1l6.6-11.1h2.6v16.8L160.2,102.9z"/>
				</g>
				<g>
					<path class="st2" d="M52,127.2c0,2.9-2.2,4.6-6.6,4.6h-8.3v-16.8H45c4,0,6.2,1.7,6.2,4.4c0.1,1.5-0.8,3-2.2,3.7
						C50.9,123.5,52.1,125.3,52,127.2z M40.2,117.4v4.6h4.4c2.2,0,3.4-0.8,3.4-2.3s-1.2-2.3-3.4-2.3L40.2,117.4z M48.9,126.8
						c0-1.7-1.3-2.4-3.6-2.4h-5v4.8h5C47.6,129.3,48.9,128.5,48.9,126.8z"/>
					<path class="st2" d="M54.2,123.3c0-5,3.8-8.6,9-8.6s9,3.7,9,8.6s-3.8,8.6-9,8.6S54.2,128.3,54.2,123.3z M69.1,123.3
						c0-3.3-2.6-5.9-5.9-5.9c-3.3,0-5.9,2.6-5.9,5.9s2.6,5.9,5.9,5.9c3.2,0.1,5.8-2.4,5.9-5.5C69.1,123.6,69.1,123.4,69.1,123.3z"/>
					<path class="st2" d="M74.3,123.3c0-5,3.8-8.6,9.1-8.6s9,3.7,9,8.6s-3.8,8.6-9,8.6S74.3,128.3,74.3,123.3z M89.3,123.3
						c0-3.3-2.6-5.9-5.9-5.9s-5.9,2.6-5.9,5.9s2.6,5.9,5.9,5.9c3.2,0.1,5.8-2.4,5.9-5.6C89.3,123.6,89.3,123.4,89.3,123.3
						L89.3,123.3z"/>
					<path class="st2" d="M98.9,117.6h-5.6V115h14.3v2.6h-5.6v14.2h-3.1V117.6z"/>
					<path class="st2" d="M108.5,123.3c0-5,3.8-8.6,9-8.6c2.5-0.1,5,0.9,6.7,2.8l-2,1.9c-1.1-1.3-2.8-2-4.5-2
						c-3.3-0.1-6,2.4-6.1,5.7s2.4,6,5.7,6.1c0.2,0,0.3,0,0.5,0c1.7,0,3.4-0.7,4.5-2l2,1.9c-1.7,1.9-4.1,2.9-6.7,2.8
						C112.4,132,108.5,128.3,108.5,123.3z"/>
					<path class="st2" d="M137.7,127.8h-8.4l-1.7,3.9h-3.2l7.6-16.8h3.1l7.6,16.8h-3.3L137.7,127.8z M136.7,125.4l-3.2-7.3l-3.1,7.3
						H136.7z"/>
					<path class="st2" d="M160.2,131.7v-11.1l-5.5,9.2h-1.4l-5.5-9.1v11h-3v-16.8h2.6l6.6,11.1l6.6-11.1h2.6v16.8H160.2z"/>
					<path class="st2" d="M181.8,120.9c0,3.7-2.7,6-7.1,6h-3.8v4.9h-3.1V115h6.9C179,114.9,181.8,117.2,181.8,120.9z M178.6,120.9
						c0-2.1-1.4-3.3-4.1-3.3h-3.6v6.7h3.6C177.2,124.2,178.6,123,178.6,120.9z"/>
				</g>
			</g>
		</g>
	</g>
</g>
</svg>
