<?xml version="1.0" encoding="UTF-8"?>
<svg width="20px" height="20px" viewBox="0 0 20 20" version="1.1" xmlns="http://www.w3.org/2000/svg" xmlns:xlink="http://www.w3.org/1999/xlink">
    <title>i-sign-in</title>
    <g id="Website" stroke="none" stroke-width="1" fill="none" fill-rule="evenodd">
        <g id="Header" transform="translate(-1015.000000, -49.000000)" fill="#2C3E50" fill-rule="nonzero">
            <g id="Group-5" transform="translate(989.000000, 38.000000)">
                <path d="M35.9901857,11.0000501 C35.7504686,11.0038504 35.5590432,11.2009729 35.562326,11.4406969 L35.562326,23.8656086 L32.8270796,21.1303622 C32.7452473,21.0462428 32.6328795,20.9987849 32.5155229,20.9987781 C32.3386533,20.9988246 32.1794467,21.1060307 32.1128921,21.2699006 C32.0463375,21.4337705 32.0857066,21.6216267 32.2124558,21.7449859 L35.6896653,25.2221953 C35.8594095,25.3918693 36.1345448,25.3918693 36.304289,25.2221953 L39.7814984,21.7449859 C39.8950471,21.6359682 39.9407875,21.4740822 39.9010792,21.3217621 C39.8613708,21.169442 39.7424186,21.0504898 39.5900985,21.0107815 C39.4377785,20.9710731 39.2758924,21.0168136 39.1668747,21.1303622 L36.4316283,23.8656086 L36.4316283,11.4406969 C36.4332372,11.3232105 36.3872171,11.2100768 36.304054,11.1270736 C36.2208909,11.0440704 36.1076688,10.9982682 35.9901857,11.0000501 Z M39.4631504,11.6537121 C39.2489405,11.6500774 39.0639756,11.8030023 39.0273476,12.0140899 C38.9907196,12.2251774 39.1133519,12.4314766 39.3162861,12.5001591 C42.7145855,13.8278725 45.1246519,17.1294407 45.1246519,21.0030229 C45.1246519,26.0491205 41.0430748,30.1306976 35.9969771,30.1306976 C30.9508795,30.1306976 26.8693024,26.0491205 26.8693024,21.0030229 C26.8693024,17.1294407 29.2793692,13.8278725 32.6776682,12.5001591 C32.8751182,12.4255509 32.9904364,12.2198826 32.9510956,12.0125057 C32.9117547,11.8051288 32.7291258,11.6559832 32.51807,11.6588714 C32.4644584,11.6598983 32.4114995,11.6708355 32.3618672,11.6911307 C28.637972,13.146054 26,16.7686219 26,21.0030229 C26,26.5189489 30.4810511,31 35.9969771,31 C41.5129032,31 45.9939543,26.5189489 45.9939543,21.0030229 C45.9939543,16.7686219 43.355982,13.1460541 39.6320871,11.6911307 C39.5788466,11.6674856 39.5213966,11.6547831 39.4631504,11.6537121 Z" id="i-sign-in" transform="translate(35.996977, 21.000000) rotate(-90.000000) translate(-35.996977, -21.000000) "></path>
            </g>
        </g>
    </g>
</svg>