<?xml version="1.0" encoding="UTF-8"?>
<svg width="23px" height="21px" viewBox="0 0 23 21" version="1.1" xmlns="http://www.w3.org/2000/svg" xmlns:xlink="http://www.w3.org/1999/xlink">
    <title>Star</title>
    <defs>
        <linearGradient x1="63.4265181%" y1="-6.11112109%" x2="50%" y2="95.3631489%" id="linearGradient-1">
            <stop stop-color="#FFDF00" offset="0%"></stop>
            <stop stop-color="#FEBC00" offset="100%"></stop>
        </linearGradient>
    </defs>
    <g id="Symbols" stroke="none" stroke-width="1" fill="none" fill-rule="evenodd">
        <g id="course-content" transform="translate(0.000000, -94.000000)" fill="url(#linearGradient-1)" fill-rule="nonzero">
            <g transform="translate(0.000000, 1.000000)" id="Group-25">
                <g transform="translate(0.421720, 93.000000)">
                    <path d="M4.47827974,20.825 C4.39077974,20.825 4.30327974,20.78125 4.21577974,20.7375 C4.08452974,20.65 3.99702974,20.43125 4.04077974,20.25625 L5.96577974,13.08125 L0.19077974,8.4 C0.0157797402,8.3125 -0.0279702598,8.09375 0.0157797402,7.91875 C0.0595297402,7.74375 0.23452974,7.6125 0.40952974,7.6125 L7.84702974,7.21875 L10.5157797,0.2625 C10.6032797,0.13125 10.7782797,0 10.9532797,0 C11.1282797,0 11.3032797,0.13125 11.3470297,0.2625 L14.0157797,7.21875 L21.4532797,7.6125 C21.6282797,7.6125 21.8032797,7.74375 21.8470297,7.91875 C21.8907797,8.09375 21.8470297,8.26875 21.7157797,8.4 L15.9407797,13.08125 L17.8657797,20.25625 C17.9095297,20.43125 17.8657797,20.60625 17.6907797,20.7375 C17.5595297,20.825 17.3407797,20.86875 17.2095297,20.7375 L10.9532797,16.7125 L4.69702974,20.7375 C4.60952974,20.825 4.56577974,20.825 4.47827974,20.825 Z" id="Star"></path>
                </g>
            </g>
        </g>
    </g>
</svg>