<?xml version="1.0" encoding="UTF-8"?>
<svg width="47px" height="47px" viewBox="0 0 47 47" version="1.1" xmlns="http://www.w3.org/2000/svg" xmlns:xlink="http://www.w3.org/1999/xlink">
    <title>i-student</title>
    <g id="Website" stroke="none" stroke-width="1" fill="none" fill-rule="evenodd" opacity="0.100000001">
        <g id="Header" transform="translate(-274.000000, -558.000000)" fill="#000000" fill-rule="nonzero">
            <g id="Rectangle" transform="translate(124.000000, 545.279715)">
                <path d="M173.035663,12.7202853 C172.535663,12.7202853 172.031757,12.8491913 171.586444,13.1109103 C171.578632,13.1109103 171.574726,13.1148163 171.566913,13.1187233 C171.566913,13.1187233 166.305194,16.3218483 161.035663,19.5991913 C158.402851,21.2398163 155.770038,22.8960663 153.777851,24.1890353 C152.785663,24.8374733 151.953632,25.3921603 151.355976,25.8140353 C151.055194,26.0288793 150.813007,26.2046603 150.621601,26.3609103 C150.527851,26.4390353 150.445819,26.5093483 150.355976,26.6030983 C150.309101,26.6499733 150.262226,26.7007543 150.199726,26.7905983 C150.141132,26.8804413 150.023944,26.9937233 150.004413,27.3530983 C149.969257,27.9780983 150.152851,28.0093483 150.246601,28.1577853 C150.336444,28.3062233 150.441913,28.4390353 150.563007,28.5952853 C150.809101,28.8999733 151.129413,29.2632543 151.512226,29.6773163 C151.648944,29.8218483 151.852069,30.0249733 152.004413,30.1851293 C152.004413,33.5015353 152.012226,40.4312233 152.016132,42.0327853 C151.410663,42.3921603 151.035663,43.0445043 151.035663,43.7515353 C151.035663,43.9820043 151.078632,44.2124733 151.156757,44.4312233 C150.480976,44.9780983 150.035663,45.7945043 150.035663,46.7202853 C150.035663,47.8999733 150.648944,48.9038793 151.180194,49.7866913 C151.711444,50.6734103 152.242694,51.3609103 152.242694,51.3609103 C152.430194,51.6070043 152.723163,51.7515353 153.031757,51.7515353 C153.340351,51.7515353 153.633319,51.6109103 153.824726,51.3687233 C153.824726,51.3687233 154.355976,50.6890353 154.891132,49.8101293 C155.426288,48.9273163 156.035663,47.9116913 156.035663,46.7202853 C156.035663,45.7945043 155.590351,44.9780983 154.914569,44.4312233 C154.992694,44.2124733 155.035663,43.9820043 155.035663,43.7515353 C155.035663,43.0562233 154.672382,42.4116913 154.082538,42.0484103 C154.082538,40.7515353 154.074726,36.1499733 154.070819,32.3179413 C154.148944,32.3960663 154.211444,32.4663793 154.293476,32.5445043 C156.148944,34.4038793 157.727069,35.9195043 158.004413,36.1890353 C157.000507,36.7202853 156.035663,37.9820043 156.035663,39.9741913 C156.035663,42.0249733 157.305194,43.9741913 159.289569,44.5366913 C160.566913,47.7749733 162.191913,51.1734103 164.344257,53.8609103 C166.555194,56.6226293 169.398944,58.6773163 172.867694,58.7398163 C172.922382,58.7476293 172.973163,58.7515353 173.027851,58.7515353 C173.027851,58.7515353 173.031757,58.7515353 173.031757,58.7515353 C173.035663,58.7515353 173.035663,58.7515353 173.039569,58.7515353 C173.043476,58.7515353 173.047382,58.7515353 173.051288,58.7515353 C173.090351,58.7515353 173.133319,58.7476293 173.176288,58.7398163 C176.656757,58.6890353 179.508319,56.6304413 181.727069,53.8609103 C183.879413,51.1734103 185.504413,47.7749733 186.781757,44.5366913 C188.766132,43.9741913 190.035663,42.0249733 190.035663,39.9741913 C190.035663,37.9820043 189.070819,36.7202853 188.066913,36.1890353 C188.344257,35.9195043 189.922382,34.4038793 191.781757,32.5445043 C192.785663,31.5366913 193.793476,30.5054413 194.559101,29.6773163 C194.941913,29.2632543 195.262226,28.8999733 195.508319,28.5952853 C195.629413,28.4390353 195.734882,28.3062233 195.828632,28.1577853 C195.918476,28.0093483 196.102069,27.9780983 196.066913,27.3530983 C196.047382,26.9898163 195.930194,26.8765353 195.867694,26.7866913 C195.809101,26.7007543 195.762226,26.6499733 195.715351,26.6030983 C195.625507,26.5093483 195.543476,26.4390353 195.445819,26.3609103 C195.258319,26.2046603 195.016132,26.0288793 194.715351,25.8140353 C194.117694,25.3921603 193.285663,24.8374733 192.289569,24.1890353 C190.301288,22.8960663 187.668476,21.2398163 185.035663,19.5991913 C179.766132,16.3218483 174.504413,13.1187233 174.504413,13.1187233 C174.496601,13.1148163 174.492694,13.1109103 174.484882,13.1109103 C174.039569,12.8491913 173.535663,12.7202853 173.035663,12.7202853 Z M173.035663,14.7827853 C173.176288,14.7827853 173.316913,14.8218483 173.445819,14.8960663 C173.465351,14.9077853 178.695819,18.0874733 183.941913,21.3530983 C186.570819,22.9898163 189.199726,24.6460663 191.164569,25.9234103 C192.148944,26.5640353 192.965351,27.1109103 193.523944,27.5015353 C193.578632,27.5405983 193.594257,27.5562233 193.641132,27.5913793 C193.465351,27.7984103 193.297382,27.9976293 193.039569,28.2749733 C192.309101,29.0679413 191.316913,30.0835663 190.316913,31.0835663 C188.695819,32.7085663 187.621601,33.7398163 187.066913,34.2710663 L187.066913,29.7515353 C187.066913,29.3921603 186.883319,29.0601293 186.574726,28.8726293 C186.574726,28.8726293 181.375507,25.7202853 173.035663,25.7202853 C164.695819,25.7202853 159.496601,28.8726293 159.496601,28.8726293 C159.188007,29.0601293 159.004413,29.3921603 159.004413,29.7515353 L159.004413,34.2710663 C158.449726,33.7398163 157.375507,32.7085663 155.754413,31.0835663 C155.074726,30.4077853 154.496601,29.7984103 153.902851,29.1773163 C153.832538,29.0640353 153.734882,28.9663793 153.625507,28.8921603 C153.441913,28.6968483 153.188007,28.4507543 153.027851,28.2788793 C152.773944,27.9976293 152.605976,27.7945043 152.426288,27.5913793 C152.477069,27.5523163 152.492694,27.5405983 152.547382,27.5015353 C153.105976,27.1070043 153.922382,26.5601293 154.906757,25.9234103 C156.871601,24.6421603 159.500507,22.9898163 162.129413,21.3530983 C167.375507,18.0874733 172.605976,14.9077853 172.625507,14.8960663 C172.754413,14.8218483 172.895038,14.7827853 173.035663,14.7827853 Z M173.035663,27.7827853 C180.277851,27.7827853 184.367694,30.0523163 185.004413,30.4195043 L185.004413,34.3921603 C183.430194,33.8687233 179.574726,32.7202853 173.035663,32.7202853 C166.496601,32.7202853 162.641132,33.8687233 161.066913,34.3921603 L161.066913,30.4195043 C161.703632,30.0523163 165.793476,27.7827853 173.035663,27.7827853 Z M173.035663,34.7827853 C179.426288,34.7827853 183.672382,36.0366913 185.035663,36.5015353 L185.035663,37.8648163 L186.145038,37.7476293 C186.145038,37.7476293 186.637226,37.7085663 187.098163,37.9351293 C187.563007,38.1577853 188.035663,38.4820043 188.035663,39.9741913 C188.035663,41.3765353 187.129413,42.6343483 185.934101,42.7554413 L185.320819,42.8179413 L185.102069,43.3921603 C183.844257,46.6499733 182.195819,50.0718483 180.164569,52.6109103 C178.133319,55.1460663 175.805194,56.7515353 173.039569,56.7515353 C173.035663,56.7515353 173.035663,56.7515353 173.031757,56.7515353 C170.266132,56.7515353 167.938007,55.1460663 165.906757,52.6109103 C163.875507,50.0718483 162.227069,46.6499733 160.969257,43.3921603 L160.750507,42.8179413 L160.137226,42.7554413 C158.941913,42.6343483 158.035663,41.3765353 158.035663,39.9741913 C158.035663,38.4820043 158.508319,38.1577853 158.973163,37.9351293 C159.434101,37.7085663 159.926288,37.7476293 159.926288,37.7476293 L161.035663,37.8648163 L161.035663,36.5015353 C162.398944,36.0366913 166.645038,34.7827853 173.035663,34.7827853 Z M153.035663,45.7515353 C153.609882,45.7515353 154.035663,46.1851293 154.035663,46.7202853 C154.035663,47.0054413 153.645038,48.0015353 153.180194,48.7671603 C153.109882,48.8843483 153.109882,48.8687233 153.039569,48.9741913 C152.969257,48.8609103 152.965351,48.8765353 152.891132,48.7554413 C152.422382,47.9820043 152.035663,46.9663793 152.035663,46.7202853 C152.035663,46.1851293 152.461444,45.7515353 153.035663,45.7515353 Z" id="i-student"></path>
            </g>
        </g>
    </g>
</svg>