<?xml version="1.0" encoding="utf-8"?>
<!-- Generator: Adobe Illustrator 25.3.1, SVG Export Plug-In . SVG Version: 6.00 Build 0)  -->
<svg version="1.1" id="Layer_1" xmlns="http://www.w3.org/2000/svg" xmlns:xlink="http://www.w3.org/1999/xlink" x="0px" y="0px"
	 viewBox="0 0 385 233.3" style="enable-background:new 0 0 385 233.3;" xml:space="preserve">
<style type="text/css">
	.st0{fill-rule:evenodd;clip-rule:evenodd;fill:url(#path-1_1_);}
	.st1{fill:none;}
	.st2{fill:#F9F9F9;}
</style>
<g id="Website">
	<g id="Header">
		<g id="c-se">
			<g id="image-placeholder">
				
					<linearGradient id="path-1_1_" gradientUnits="userSpaceOnUse" x1="0" y1="724.6498" x2="385" y2="724.6498" gradientTransform="matrix(1 0 0 1 0 -607.9998)">
					<stop  offset="0" style="stop-color:#3C76D6"/>
					<stop  offset="0.2682" style="stop-color:#3E78D6"/>
					<stop  offset="0.4168" style="stop-color:#467DD8"/>
					<stop  offset="0.5361" style="stop-color:#5487DB"/>
					<stop  offset="0.6399" style="stop-color:#6895DF"/>
					<stop  offset="0.7335" style="stop-color:#81A7E5"/>
					<stop  offset="0.8199" style="stop-color:#A0BDEB"/>
					<stop  offset="0.9008" style="stop-color:#C5D7F3"/>
					<stop  offset="0.9752" style="stop-color:#EFF4FC"/>
					<stop  offset="1" style="stop-color:#FFFFFF"/>
				</linearGradient>
				<path id="path-1" class="st0" d="M18,0h349c9.9,0,18,8.1,18,18v215.3H0V18C0,8.1,8.1,0,18,0z"/>
			</g>
		</g>
	</g>
</g>
<rect x="34.8" y="89.8" class="st1" width="315.3" height="63.1"/>
<g>
	<g>
		<path class="st2" d="M35.7,105.8l1.1-2.4c1.6,1.2,3.5,1.8,5.5,1.8c2.6,0,3.7-0.9,3.7-2.2c0-3.6-10-1.2-10-7.5c0-2.7,2.2-5,6.8-5
			c2,0,3.9,0.5,5.6,1.5l-1,2.4c-1.4-0.8-3-1.3-4.6-1.3c-2.6,0-3.7,1-3.7,2.3c0,3.6,10,1.2,10,7.4c0,2.7-2.2,5-6.8,5
			C39.9,108,37.6,107.2,35.7,105.8z"/>
		<path class="st2" d="M64.8,105v2.6H52.2V90.8h12.3v2.6h-9.1v4.4h8.1v2.6h-8.1v4.6H64.8z"/>
		<path class="st2" d="M68.3,90.8h3.1V105h8.8v2.6H68.3V90.8z"/>
		<path class="st2" d="M95.2,105v2.6H82.6V90.8h12.3v2.6h-9.2v4.4h8.1v2.6h-8.1v4.6H95.2z"/>
		<path class="st2" d="M113.6,90.8v16.8h-2.6l-9.3-11.4v11.4h-3.1V90.8h2.6l9.3,11.4V90.8H113.6z"/>
		<path class="st2" d="M118.2,90.8h3.1v16.8h-3.1V90.8z"/>
		<path class="st2" d="M125.7,100.3v-9.5h3.1v9.4c0,3.5,1.6,4.9,4.3,4.9s4.2-1.5,4.2-4.9v-9.4h3.1v9.5c0,4.9-2.8,7.6-7.4,7.6
			S125.7,105.2,125.7,100.3z"/>
		<path class="st2" d="M160.2,107.6V96.5l-5.5,9.2h-1.4l-5.5-9.1v11h-3V90.8h2.6L154,102l6.6-11.1h2.6v16.8L160.2,107.6z"/>
	</g>
	<g>
		<path class="st2" d="M61.6,119.6l-5.6,16.8h-3.3L48.6,124l-4.2,12.4H41l-5.6-16.8h3.2l4.2,12.8l4.3-12.8h2.9l4.2,12.8l4.3-12.8
			L61.6,119.6z"/>
		<path class="st2" d="M76.8,133.8v2.6H64.2v-16.8h12.3v2.6h-9.1v4.4h8.1v2.6h-8.1v4.6H76.8z"/>
		<path class="st2" d="M95.2,131.9c0,2.9-2.3,4.6-6.6,4.6h-8.3v-16.8h7.9c4,0,6.2,1.7,6.2,4.4c0.1,1.5-0.8,3-2.2,3.7
			C94,128.2,95.3,129.9,95.2,131.9z M83.4,122.1v4.6h4.4c2.2,0,3.4-0.8,3.4-2.3s-1.2-2.3-3.4-2.3L83.4,122.1z M92,131.6
			c0-1.7-1.3-2.4-3.6-2.4h-5v4.9h5C90.8,134,92,133.2,92,131.6z"/>
		<path class="st2" d="M98.5,119.6h7.3c5.4,0,9.2,3.4,9.2,8.4c0,5-3.7,8.4-9.2,8.4h-7.3V119.6z M105.7,133.8c3.8,0,6.2-2.3,6.2-5.8
			s-2.4-5.8-6.2-5.8h-4.1v11.5H105.7z"/>
		<path class="st2" d="M129.3,136.4l-3.4-4.9c-0.2,0-0.4,0-0.7,0h-3.8v4.9h-3.1v-16.8h6.9c4.4,0,7.1,2.3,7.1,6
			c0.1,2.4-1.3,4.5-3.6,5.3l3.9,5.5H129.3z M125.1,122.3h-3.6v6.7h3.6c2.7,0,4.2-1.2,4.2-3.4S127.8,122.3,125.1,122.3z"/>
		<path class="st2" d="M135.9,119.6h3.1v16.8h-3.1L135.9,119.6z"/>
		<path class="st2" d="M158.8,119.6l-7.3,16.8h-3.1l-7.3-16.8h3.4l5.6,13l5.6-13L158.8,119.6z"/>
		<path class="st2" d="M173.2,133.8v2.6h-12.6v-16.8h12.3v2.6h-9.1v4.4h8.1v2.6h-8.1v4.6H173.2z"/>
		<path class="st2" d="M187.6,136.4l-3.4-4.9c-0.2,0-0.4,0-0.6,0h-3.8v4.9h-3.1v-16.8h6.9c4.4,0,7.2,2.3,7.2,6
			c0.1,2.4-1.3,4.5-3.6,5.3l3.9,5.5H187.6z M183.4,122.3h-3.6v6.7h3.6c2.7,0,4.1-1.2,4.1-3.4S186.1,122.3,183.4,122.3z"/>
	</g>
</g>
</svg>
